<svg width="200" height="150" viewBox="0 0 200 150" fill="none" xmlns="http://www.w3.org/2000/svg">
<path d="M200 0H0V150H200V0Z" fill="#B22234"/>
<path d="M0 17.3077H200ZM200 40.3846H0ZM0 63.4615H200ZM200 86.5384H0ZM0 109.615H200ZM200 132.692H0Z" fill="black"/>
<path fill-rule="evenodd" clip-rule="evenodd" d="M200 23.0769H0V11.5385H200V23.0769ZM0 34.6154H200V46.1538H0V34.6154ZM200 69.2308H0V57.6923H200V69.2308ZM0 80.7692H200V92.3077H0V80.7692ZM200 115.385H0V103.846H200V115.385ZM0 126.923H200V138.462H0V126.923Z" fill="white"/>
<path d="M102 0H0V81H102V0Z" fill="#3C3B6E"/>
<path d="M9.0015 5L11.4063 13.0101L5.1105 8.05957H12.8925L6.59673 13.0101L9.0015 5Z" fill="white"/>
<path d="M9.0015 20.4975L11.4063 28.5075L5.1105 23.557H12.8925L6.59673 28.5075L9.0015 20.4975Z" fill="white"/>
<path d="M9.0015 35.995L11.4063 44.005L5.1105 39.0545H12.8925L6.59673 44.005L9.0015 35.995Z" fill="white"/>
<path d="M9.0015 51.4925L11.4063 59.5026L5.1105 54.5521H12.8925L6.59673 59.5026L9.0015 51.4925Z" fill="white"/>
<path d="M9.0015 66.9899L11.4063 75L5.1105 70.0495H12.8925L6.59673 75L9.0015 66.9899Z" fill="white"/>
<path d="M17.4226 12.7488L19.8274 20.7588L13.5316 15.8084H21.3136L15.0179 20.7588L17.4226 12.7488Z" fill="white"/>
<path d="M17.4226 28.2462L19.8274 36.2563L13.5316 31.3058H21.3136L15.0179 36.2563L17.4226 28.2462Z" fill="white"/>
<path d="M17.4226 43.7437L19.8274 51.7538L13.5316 46.8033H21.3136L15.0179 51.7538L17.4226 43.7437Z" fill="white"/>
<path d="M17.4226 59.2412L19.8274 67.2513L13.5316 62.3008H21.3136L15.0179 67.2513L17.4226 59.2412Z" fill="white"/>
<path d="M25.8438 5L28.2485 13.0101L21.9528 8.05957H29.7348L23.439 13.0101L25.8438 5Z" fill="white"/>
<path d="M25.8438 20.4975L28.2485 28.5075L21.9528 23.557H29.7348L23.439 28.5075L25.8438 20.4975Z" fill="white"/>
<path d="M25.8438 35.9949L28.2485 44.005L21.9528 39.0545H29.7348L23.439 44.005L25.8438 35.9949Z" fill="white"/>
<path d="M25.8438 51.4925L28.2485 59.5026L21.9528 54.5521H29.7348L23.439 59.5026L25.8438 51.4925Z" fill="white"/>
<path d="M25.8438 66.9899L28.2485 75L21.9528 70.0495H29.7348L23.439 75L25.8438 66.9899Z" fill="white"/>
<path d="M34.2649 12.7488L36.6697 20.7588L30.3739 15.8084H38.1559L31.8601 20.7588L34.2649 12.7488Z" fill="white"/>
<path d="M34.2649 28.2462L36.6697 36.2563L30.3739 31.3058H38.1559L31.8601 36.2563L34.2649 28.2462Z" fill="white"/>
<path d="M34.2649 43.7437L36.6697 51.7538L30.3739 46.8033H38.1559L31.8601 51.7538L34.2649 43.7437Z" fill="white"/>
<path d="M34.2649 59.2412L36.6697 67.2513L30.3739 62.3008H38.1559L31.8601 67.2513L34.2649 59.2412Z" fill="white"/>
<path d="M42.686 5L45.0908 13.0101L38.795 8.05957H46.577L40.2813 13.0101L42.686 5Z" fill="white"/>
<path d="M42.686 20.4975L45.0908 28.5075L38.795 23.557H46.577L40.2813 28.5075L42.686 20.4975Z" fill="white"/>
<path d="M42.686 35.9949L45.0908 44.005L38.795 39.0545H46.577L40.2813 44.005L42.686 35.9949Z" fill="white"/>
<path d="M42.686 51.4925L45.0908 59.5026L38.795 54.5521H46.577L40.2813 59.5026L42.686 51.4925Z" fill="white"/>
<path d="M42.686 66.9899L45.0908 75L38.795 70.0495H46.577L40.2813 75L42.686 66.9899Z" fill="white"/>
<path d="M51.1072 12.7488L53.5119 20.7588L47.2162 15.8084H54.9982L48.7024 20.7588L51.1072 12.7488Z" fill="white"/>
<path d="M51.1072 28.2462L53.5119 36.2563L47.2162 31.3058H54.9982L48.7024 36.2563L51.1072 28.2462Z" fill="white"/>
<path d="M51.1072 43.7437L53.5119 51.7538L47.2162 46.8033H54.9982L48.7024 51.7538L51.1072 43.7437Z" fill="white"/>
<path d="M51.1072 59.2412L53.5119 67.2513L47.2162 62.3008H54.9982L48.7024 67.2513L51.1072 59.2412Z" fill="white"/>
<path d="M59.5283 5L61.9331 13.0101L55.6373 8.05957H63.4193L57.1235 13.0101L59.5283 5Z" fill="white"/>
<path d="M59.5283 20.4975L61.9331 28.5075L55.6373 23.557H63.4193L57.1235 28.5075L59.5283 20.4975Z" fill="white"/>
<path d="M59.5283 35.9949L61.9331 44.005L55.6373 39.0545H63.4193L57.1235 44.005L59.5283 35.9949Z" fill="white"/>
<path d="M59.5283 51.4925L61.9331 59.5026L55.6373 54.5521H63.4193L57.1235 59.5026L59.5283 51.4925Z" fill="white"/>
<path d="M59.5283 66.9899L61.9331 75L55.6373 70.0495H63.4193L57.1235 75L59.5283 66.9899Z" fill="white"/>
<path d="M67.9494 12.7488L70.3542 20.7588L64.0584 15.8084H71.8404L65.5447 20.7588L67.9494 12.7488Z" fill="white"/>
<path d="M67.9494 28.2462L70.3542 36.2563L64.0584 31.3058H71.8404L65.5447 36.2563L67.9494 28.2462Z" fill="white"/>
<path d="M67.9494 43.7437L70.3542 51.7538L64.0584 46.8033H71.8404L65.5447 51.7538L67.9494 43.7437Z" fill="white"/>
<path d="M67.9494 59.2412L70.3542 67.2513L64.0584 62.3008H71.8404L65.5447 67.2513L67.9494 59.2412Z" fill="white"/>
<path d="M76.3706 5L78.7753 13.0101L72.4796 8.05957H80.2616L73.9658 13.0101L76.3706 5Z" fill="white"/>
<path d="M76.3706 20.4975L78.7753 28.5075L72.4796 23.557H80.2616L73.9658 28.5075L76.3706 20.4975Z" fill="white"/>
<path d="M76.3706 35.9949L78.7753 44.005L72.4796 39.0545H80.2616L73.9658 44.005L76.3706 35.9949Z" fill="white"/>
<path d="M76.3706 51.4925L78.7753 59.5026L72.4796 54.5521H80.2616L73.9658 59.5026L76.3706 51.4925Z" fill="white"/>
<path d="M76.3706 66.9899L78.7753 75L72.4796 70.0495H80.2616L73.9658 75L76.3706 66.9899Z" fill="white"/>
<path d="M84.7917 12.7488L87.1965 20.7588L80.9007 15.8084H88.6827L82.3869 20.7588L84.7917 12.7488Z" fill="white"/>
<path d="M84.7917 28.2462L87.1965 36.2563L80.9007 31.3058H88.6827L82.3869 36.2563L84.7917 28.2462Z" fill="white"/>
<path d="M84.7917 43.7437L87.1965 51.7538L80.9007 46.8033H88.6827L82.3869 51.7538L84.7917 43.7437Z" fill="white"/>
<path d="M84.7917 59.2412L87.1965 67.2513L80.9007 62.3008H88.6827L82.3869 67.2513L84.7917 59.2412Z" fill="white"/>
<path d="M93.2128 5L95.6176 13.0101L89.3218 8.05957H97.1038L90.8081 13.0101L93.2128 5Z" fill="white"/>
<path d="M93.2128 20.4975L95.6176 28.5075L89.3218 23.557H97.1038L90.8081 28.5075L93.2128 20.4975Z" fill="white"/>
<path d="M93.2128 35.9949L95.6176 44.005L89.3218 39.0545H97.1038L90.8081 44.005L93.2128 35.9949Z" fill="white"/>
<path d="M93.2128 51.4925L95.6176 59.5026L89.3218 54.5521H97.1038L90.8081 59.5026L93.2128 51.4925Z" fill="white"/>
<path d="M93.2128 66.9899L95.6176 75L89.3218 70.0495H97.1038L90.8081 75L93.2128 66.9899Z" fill="white"/>
</svg>
