<svg width="50" height="50" viewBox="0 0 50 50" fill="none" xmlns="http://www.w3.org/2000/svg">
<g clip-path="url(#clip0_1020_9557)">
<path fill-rule="evenodd" clip-rule="evenodd" d="M25.3154 38.75C25.3169 38.7685 25.2951 38.8912 25.2467 38.9448C25.1977 38.9989 25.1263 39.0186 25.057 39.034C24.9439 39.0589 24.8322 39.0348 24.7422 38.9666C24.6683 38.9106 24.6222 38.8322 24.6167 38.756C24.6167 38.7547 24.6162 38.7537 24.6162 38.7519L24.6157 38.7524L23.7752 36.0161C23.3044 34.613 22.5926 33.1078 21.2121 31.7757C19.5445 30.1672 17.0862 29.0543 13.6964 28.3758C10.7419 27.7841 8.79726 27.275 7.39086 26.7261C6.04077 26.1995 5.24456 25.6511 4.46451 24.9906C2.47607 23.3064 1.08998 21.1592 0.999969 18.4544C0.999969 18.4544 2.97826 21.2501 5.15271 19.9148C6.18062 19.2839 6.9196 19.3739 6.9196 19.3739C6.25078 18.6357 5.75736 17.672 5.62535 16.6237C5.52012 15.7856 5.5889 14.855 5.82937 13.8585C6.23878 12.1623 7.43102 10.9193 7.44255 10.8999C7.44255 10.8999 6.9736 14.9746 8.92188 16.4202C10.1234 17.0965 11.3562 16.8236 11.3562 16.8236C11.3562 16.8236 9.73841 16.0745 9.51177 13.6698C9.41253 12.6127 9.56854 11.7815 9.61008 11.5692C9.61008 11.5692 11.7457 14.5841 13.8856 13.3457C14.3643 13.0687 16.8895 11.7634 17.9783 11.4741C19.5768 11.0499 21.1586 11.0199 22.6799 11.3854C23.9427 11.6886 25.1756 12.2666 26.3448 13.1025C28.4288 14.5929 29.7783 16.5278 30.2617 17.2907C30.2617 17.2907 34.4559 17.1061 36.7513 20.0399L36.7545 20.0445L42.0635 22.3879L41.4616 22.7728L41.4353 22.7899L41.4625 22.807C43.1805 23.8991 46.1863 25.8344 47.0046 26.5323L47.0065 26.5342L47.0092 26.5355L48.5301 27.2589L48.2527 27.995V27.9955C48.2342 28.0449 47.8216 29.2251 48.6002 29.809L48.9917 30.1025C48.9917 30.1025 48.9963 30.1057 49 30.109L48.9963 30.1182L47.8008 33.2851L47.498 32.8784C45.8303 30.5798 44.2541 30.1551 43.4621 30.139C42.5657 30.1201 42.5024 30.5978 42.6137 30.8036C42.9742 31.4697 44.9833 31.815 45.7279 31.8906C45.7274 31.8906 46.2204 31.9548 46.2347 31.9567L44.2994 33.6907L40.7905 33.4701L40.7762 33.4693L40.7776 33.4549L40.8367 32.7658V32.7617C40.8187 32.631 40.5814 31.4545 37.7123 30.2733L37.704 30.2705L37.6956 30.2743C37.2078 30.4995 36.2067 30.8881 34.9798 30.9542C33.5004 31.034 32.1277 30.6347 30.8995 29.7683L30.8913 29.7633L30.8811 29.7656C30.3885 29.9336 29.417 30.313 28.4458 30.98C26.6433 32.2193 25.6598 33.8399 25.5227 35.7974C25.5227 35.7974 25.3648 37.4105 25.3159 38.75" fill="#002244"/>
<path fill-rule="evenodd" clip-rule="evenodd" d="M26.0184 13.7996C24.9246 12.9812 23.7731 12.4117 22.5957 12.1067C21.1737 11.7383 19.6949 11.7475 18.2037 12.1486C17.2377 12.4084 15.0536 13.4806 14.2358 13.9048C12.0855 15.0194 10.6949 13.5775 10.1715 13.0348L10.1475 13.0103C10.1974 13.3067 10.2957 13.8434 10.5343 14.3922C10.832 15.0771 11.2622 15.581 11.8142 15.8894C12.8014 16.4409 14.1749 16.3629 15.8969 15.6573C17.8146 14.8713 19.4231 14.6307 20.678 14.9423C21.8088 15.2234 22.8487 16.1243 23.4629 17.3534C25.5407 17.2699 27.6242 17.418 29.6554 17.7932C28.6142 16.1816 27.3574 14.8016 26.0184 13.7996ZM13.8738 16.9971C11.3589 17.7687 9.57592 17.7604 8.42254 16.9703C7.43946 16.2969 6.84685 15.101 6.79285 13.0639C6.03546 15.4255 6.39823 17.298 7.49669 18.5543C8.36808 19.5507 9.85239 20.2103 11.4682 20.3201C14.6934 18.8414 18.011 17.8999 21.3285 17.5204C20.4257 15.984 17.7811 15.7971 13.8738 16.9971ZM9.94474 21.2527C3.20583 25.1251 2.29797 20.4372 2.29797 20.4372C2.29797 20.4372 3.4786 21.562 5.46506 20.5443C7.01887 19.7483 7.67597 20.1175 8.56021 20.6144C8.94693 20.8317 9.37711 21.0734 9.94474 21.2527Z" fill="#FB4F14"/>
<path fill-rule="evenodd" clip-rule="evenodd" d="M47.2466 28.5427C47.2517 28.0234 47.3906 27.6006 47.4197 27.5195L46.5146 27.0967L46.5109 27.0957L46.5091 27.093C45.9501 26.4883 39.898 22.6821 39.8371 22.6433L39.814 22.629L39.8366 22.6147L40.2839 22.3166L36.1822 20.5793L36.1775 20.577L36.1743 20.5728C34.5095 18.0828 31.2284 17.9836 30.5984 17.9882C31.8483 18.3745 32.23 18.7548 32.3265 19.0082C32.3906 19.1776 32.3265 19.2833 32.3237 19.2874L32.3168 19.2985L32.3048 19.2953C18.1526 15.4377 6.57537 24.3131 6.0903 24.6925C6.64599 25.2533 7.89492 26.0089 12.3843 27.0057C13.3863 26.223 18.1619 22.8274 25.3697 23.0273L24.2001 21.2605C24.2001 21.2605 28.6646 22.4208 31.2132 23.8369C31.0166 25.7236 32.1852 27.5421 34.0701 28.0986C35.4216 28.4974 36.8149 28.1531 37.8127 27.3039L41.0154 29.3476L37.9429 28.1554C36.6363 29.1006 34.9116 29.4298 33.2606 28.893C31.2178 28.2298 29.8632 26.427 29.6707 24.4166C22.7546 22.6798 17.6551 27.0533 16.6359 28.016C17.4598 28.2769 18.22 28.5731 18.9095 28.9031C19.7495 29.3056 20.5059 29.7676 21.1692 30.2836C21.6816 29.6586 23.7239 27.5121 27.6404 27.4798C27.6404 27.4798 23.7949 28.4748 22.5691 31.6073C23.6583 32.8686 24.2191 34.2016 24.6501 35.4745C24.748 34.2648 25.1348 33.1544 25.8045 32.1736C26.3523 31.3724 27.0875 30.6551 27.9903 30.0422C29.5272 28.9986 31.0374 28.6147 31.0526 28.6109L31.0609 28.6086L31.0674 28.6142C34.1837 31.1259 37.6139 29.1482 37.648 29.1274L37.6549 29.1238L37.6632 29.1266C38.6223 29.493 39.4327 29.9038 40.0701 30.3482C40.5811 30.7031 40.9836 31.0811 41.2665 31.4702C41.7054 32.0744 41.7178 32.5086 41.7151 32.5992L44.0389 32.7515L44.7206 32.1695C42.6087 31.8957 41.9684 31.2395 41.8378 30.6773C41.6107 29.3208 42.9954 29.1538 43.6263 29.2359C45.0972 29.4279 46.8856 30.7456 47.5591 31.6622L48.0575 30.3238C47.3791 29.8082 47.2416 29.0706 47.2466 28.5427Z" fill="white"/>
<path fill-rule="evenodd" clip-rule="evenodd" d="M39.0536 23.0958C39.0135 23.3668 38.7703 23.5648 38.4924 23.543C38.2026 23.5214 37.9852 23.268 38.0074 22.9777C38.0184 22.8416 38.0803 22.721 38.1726 22.6343C36.6191 21.8719 35.8062 21.7559 35.8062 21.7559C37.6879 23.0049 38.491 24.0466 38.491 24.0466L38.9997 23.6995L43.7576 26.3552C41.8649 24.8114 40.2897 23.7817 39.0536 23.0958Z" fill="#002244"/>
<path fill-rule="evenodd" clip-rule="evenodd" d="M38.0071 22.9782C37.985 23.2685 38.2024 23.522 38.4922 23.5436C38.77 23.5653 39.0133 23.3674 39.0534 23.0965C38.9787 23.0549 38.9048 23.0143 38.8319 22.9755L38.3127 23.3568L38.4571 22.7779C38.3598 22.7277 38.2647 22.6801 38.1724 22.6349C38.08 22.7217 38.0182 22.8421 38.0071 22.9782Z" fill="#FB4F14"/>
<path fill-rule="evenodd" clip-rule="evenodd" d="M38.3128 23.3571L38.832 22.9758C38.7032 22.9057 38.5781 22.8402 38.4573 22.7783L38.3128 23.3571Z" fill="#002244"/>
<path fill-rule="evenodd" clip-rule="evenodd" d="M46.5781 27.63C45.458 28.0781 46.9017 29.3626 46.9017 29.3626C43.7623 26.8846 46.5781 27.63 46.5781 27.63Z" fill="#002244"/>
<path fill-rule="evenodd" clip-rule="evenodd" d="M32.9214 19.5376C34.9513 19.5786 32.9366 18.7175 32.9366 18.7175C32.9366 18.7175 34.3978 18.9418 35.248 20.2973C34.4458 19.988 33.5684 19.6969 32.9214 19.5376Z" fill="#002244"/>
</g>
<defs>
<clipPath id="clip0_1020_9557">
<rect width="50" height="50" fill="white"/>
</clipPath>
</defs>
</svg>
