<svg width="50" height="50" viewBox="0 0 50 50" fill="none" xmlns="http://www.w3.org/2000/svg">
<g clip-path="url(#clip0_1202_6563)">
<path d="M46.937 24.315C46.6132 23.4291 45.7587 21.6918 46.3313 20.3058C46.7484 19.299 47.245 18.956 47.2057 17.4561C46.9332 14.2071 44.617 13.5146 44.1117 13.4552C43.0116 13.3291 42.387 14.0307 42.3764 14.5647C42.3655 15.0986 42.5323 15.3509 42.9291 15.6336C42.9291 15.6336 42.7416 14.6991 43.6008 14.8147C44.1804 14.8913 44.5021 15.6084 44.2257 16.1179C43.5349 17.0515 42.4109 16.6236 41.7199 15.8283C41.2156 15.3333 40.1172 13.947 37.9969 13.9353C34.6533 13.9157 33.6865 16.6096 31.2524 15.7519C30.3283 15.3914 29.8102 14.5371 30.3628 13.4717C30.8098 12.8685 31.517 12.7476 31.9886 13.0201C32.3506 13.2951 32.5505 13.7167 32.3946 14.1533C32.2434 14.45 31.9533 14.5382 31.6225 14.3464C31.3785 14.1689 31.3543 13.9541 31.46 13.856C31.6535 13.7279 31.7688 13.8153 31.7688 13.8153C31.5823 13.5624 31.3936 13.4717 31.0818 13.6091C30.3931 14.0749 30.4531 15.4028 32.3199 15.4674C34.4098 15.2651 35.7173 13.6042 34.9824 11.014C34.4244 9.60054 32.4252 5.95989 25.2859 6.00032C18.1477 5.95989 16.1468 9.60054 15.5894 11.014C14.8526 13.6042 16.1612 15.2651 18.2507 15.4674C20.1192 15.4028 20.1767 14.0749 19.4899 13.6091C19.1783 13.4717 18.9898 13.5624 18.8007 13.8153C18.8007 13.8153 18.9184 13.7279 19.1115 13.856C19.2163 13.9541 19.193 14.1689 18.9485 14.3464C18.6189 14.5382 18.3279 14.45 18.1752 14.1533C18.0209 13.7167 18.2207 13.2951 18.5826 13.0201C19.0537 12.7476 19.7614 12.8685 20.2093 13.4717C20.7607 14.5371 20.2426 15.3914 19.3191 15.7519C16.8857 16.6096 15.9185 13.9157 12.5746 13.9353C10.4535 13.947 9.35482 15.3333 8.85022 15.8283C8.15918 16.6236 7.03676 17.0515 6.34638 16.1179C6.06866 15.6084 6.39092 14.8913 6.96986 14.8147C7.83017 14.6991 7.64073 15.6336 7.64073 15.6336C8.03953 15.3509 8.20626 15.0986 8.19362 14.5647C8.18355 14.0307 7.56096 13.3291 6.46027 13.4552C5.95268 13.5146 3.63774 14.2071 3.36465 17.4561C3.32687 18.956 3.82196 19.299 4.23893 20.3058C4.81331 21.6918 3.95722 23.4291 3.63517 24.315C3.35446 25.0864 2.34304 28.3891 3.66265 30.4283C5.55542 33.355 8.65368 31.9766 8.67907 33.655C8.7011 34.988 6.83114 34.8171 7.04806 34.1229C7.21733 33.5767 7.78441 33.835 7.78441 33.835C7.48432 33.0158 6.50789 32.822 5.91767 33.798C5.35125 34.7326 5.72082 35.9164 6.56073 36.4599C8.58977 37.777 10.6582 36.9673 12.2602 36.0274C13.8282 35.1044 15.366 34.0996 16.1399 34.0765C17.3091 34.046 17.7207 35.0201 17.447 35.7732C17.1652 36.5425 16.5252 37.99 17.3857 39.1413C18.2466 40.2899 19.5331 40.6422 21.5503 41.0318C23.3378 41.3769 24.8531 43.0119 25.2859 44C25.7161 43.0119 27.2309 41.3769 29.0221 41.0318C31.0378 40.6422 32.3246 40.2899 33.1834 39.1413C34.0467 37.99 33.4058 36.5425 33.1252 35.7732C32.8488 35.0201 33.2625 34.046 34.4298 34.0765C35.2052 34.0996 36.7424 35.1044 38.3103 36.0274C39.9128 36.9673 41.9826 37.777 44.0103 36.4599C44.8489 35.9164 45.2203 34.7326 44.6546 33.798C44.0634 32.822 43.0875 33.0158 42.7865 33.835C42.7865 33.835 43.3543 33.5767 43.5223 34.1229C43.7383 34.8171 41.8695 34.988 41.8905 33.655C41.9181 31.9766 45.0152 33.355 46.909 30.4283C48.2282 28.3891 47.2164 25.0864 46.937 24.315" fill="#E03A3E"/>
<path d="M46.2902 24.5495C46.2501 24.44 46.197 24.3076 46.1425 24.1684C45.7496 23.1692 45.0923 21.5006 45.6973 20.043C45.8234 19.7372 45.9543 19.4884 46.0704 19.2708C46.3523 18.7408 46.5372 18.3882 46.5196 17.4964C46.2562 14.4798 44.0539 14.1431 44.0323 14.1389C43.9161 14.1262 43.8133 14.1269 43.7205 14.136C44.1921 14.2095 44.6079 14.5173 44.835 14.9644C45.078 15.4415 45.0756 15.9965 44.8298 16.4479L44.8061 16.4902L44.7793 16.5274C44.4049 17.0336 43.8992 17.3142 43.3155 17.3361C42.5987 17.3627 41.8206 16.979 41.2237 16.3047C41.1703 16.2524 41.1132 16.194 41.0537 16.131C40.5131 15.5704 39.6083 14.6318 37.9931 14.6231C36.5705 14.6156 35.6361 15.1619 34.7346 15.6914C33.6774 16.3106 32.585 16.9513 31.0244 16.4025L31.0123 16.3979L31.0002 16.3941C30.3075 16.1212 29.8024 15.639 29.577 15.0377C29.4241 14.6286 29.3283 13.9699 29.7505 13.1561L29.7751 13.1045L29.8101 13.0606C30.4302 12.2247 31.5145 11.9524 32.3328 12.424L32.3708 12.4465L32.4048 12.4708C33.0448 12.9598 33.2888 13.69 33.0436 14.3839L33.0293 14.4266L33.0086 14.4647C32.9732 14.5348 32.9313 14.5987 32.8877 14.6585C33.4122 14.5 33.8268 14.2104 34.1049 13.8024C34.5415 13.165 34.6179 12.2785 34.3269 11.234C33.6373 9.50583 31.5455 6.65317 25.2815 6.6884C19.0261 6.65317 16.9355 9.50583 16.2441 11.234C15.9542 12.2785 16.0302 13.165 16.4643 13.8024C16.7446 14.2104 17.1586 14.5 17.6826 14.6585C17.6388 14.5987 17.5971 14.5348 17.5624 14.4647L17.5426 14.4266L17.5272 14.3839C17.2815 13.69 17.5257 12.9598 18.1657 12.4708L18.1989 12.4465L18.2377 12.424C19.0563 11.9524 20.1397 12.2247 20.7607 13.0606L20.795 13.1045L20.8208 13.1561C21.2428 13.9699 21.1468 14.6286 20.9952 15.0377C20.768 15.639 20.2635 16.1212 19.5713 16.3941L19.5586 16.3979L19.547 16.4025C17.9859 16.9513 16.8925 16.3106 15.8359 15.6914C14.9348 15.1619 14.0016 14.6156 12.5775 14.6231C10.9634 14.6318 10.0586 15.5704 9.5173 16.131C9.45813 16.194 9.40064 16.2524 9.3478 16.3047C8.75148 16.979 7.97214 17.3627 7.25562 17.3361C6.67205 17.3142 6.16446 17.0336 5.79091 16.5274L5.76366 16.4902L5.74095 16.4479C5.49602 15.9965 5.49346 15.4415 5.7373 14.9644C5.96261 14.5173 6.37882 14.2095 6.84997 14.136C6.75813 14.1269 6.65576 14.1262 6.53856 14.1389C6.51573 14.1431 4.31446 14.4798 4.053 17.4964C4.03394 18.3882 4.21996 18.7408 4.50067 19.2708C4.61719 19.4884 4.74815 19.7372 4.87477 20.043C5.47762 21.5006 4.82082 23.1692 4.42978 24.1684C4.37505 24.3076 4.32199 24.44 4.28155 24.5495C3.80076 25.8733 3.2503 28.5234 4.2409 30.0534C5.129 31.4282 6.29251 31.6804 7.32033 31.9038C8.22261 32.1001 9.3478 32.3456 9.36919 33.6451C9.37992 34.3326 9.03496 34.9068 8.44883 35.1794C7.86292 35.4501 7.127 35.3759 6.70084 35.003C6.53168 34.8547 6.42201 34.6728 6.37195 34.4747C6.23502 35.0218 6.50786 35.6065 6.93582 35.8821C8.3189 36.7805 9.85307 36.6417 11.9106 35.4328L12.6604 34.9878C14.2923 34.0108 15.3325 33.4107 16.1211 33.3897C16.8612 33.3683 17.4783 33.6495 17.8594 34.1779C18.2282 34.6908 18.3188 35.3922 18.0927 36.0087L18.0284 36.1867C17.7624 36.892 17.3624 37.9608 17.9378 38.7269C18.615 39.6329 19.6404 39.9623 21.6808 40.3568C23.1915 40.6485 24.5013 41.7214 25.2859 42.7153C26.0689 41.7214 27.3791 40.6485 28.8911 40.3568C30.932 39.9623 31.9554 39.6329 32.6329 38.7269C33.2072 37.9608 32.8078 36.892 32.5434 36.1867L32.4783 36.0087C32.2529 35.3922 32.3427 34.6908 32.7119 34.1779C33.0936 33.6495 33.7099 33.3683 34.4494 33.3897C35.2389 33.4107 36.2795 34.0108 37.911 34.9878L38.6606 35.4328C40.7186 36.6417 42.2515 36.7805 43.6363 35.8821C44.0634 35.6065 44.3379 35.0218 44.1986 34.4747C44.1488 34.6728 44.0379 34.8547 43.8712 35.003C43.4449 35.3759 42.7079 35.4501 42.1228 35.1794C41.5346 34.9068 41.1927 34.3326 41.2017 33.6451C41.2225 32.3456 42.3482 32.1001 43.2516 31.9038C44.2776 31.6804 45.4417 31.4282 46.3303 30.0534C47.32 28.5234 46.7708 25.8733 46.2902 24.5495" fill="#C4CED4"/>
<path d="M45.6426 24.785C45.6053 24.684 45.5539 24.557 45.5018 24.4215C45.0703 23.3254 44.3514 21.4932 45.06 19.7787C45.1994 19.4432 45.3449 19.1678 45.462 18.9474C45.7238 18.4576 45.8424 18.2301 45.8303 17.5361C45.7897 17.0974 45.7042 16.7296 45.5897 16.4207C45.5483 16.5427 45.497 16.6622 45.4352 16.7766L45.4115 16.8177L45.39 16.8593L45.3614 16.8986L45.3329 16.9367C44.8376 17.6064 44.1298 17.9934 43.3418 18.0241C42.432 18.0597 41.4587 17.5966 40.7297 16.7844C40.6724 16.7287 40.6132 16.6678 40.5588 16.608C40.0631 16.0952 39.3125 15.3204 37.989 15.3122C36.7549 15.3051 35.9423 15.7812 35.083 16.2865C34.0034 16.9188 32.6578 17.7076 30.7955 17.0522L30.7843 17.0474C30.7843 17.0474 30.7727 17.0446 30.7601 17.0394L30.7489 17.0354C29.8709 16.6899 29.2268 16.0668 28.9309 15.2801C28.7294 14.7394 28.6001 13.8787 29.1386 12.8382L29.1646 12.7893L29.1909 12.7394L29.2246 12.6943L29.2573 12.6498C30.0852 11.534 31.5572 11.1807 32.6774 11.8288L32.7162 11.8485L32.7537 11.8716L32.7879 11.8986C32.7879 11.8986 32.822 11.9229 32.822 11.9247C33.2438 12.2452 33.5384 12.6544 33.6956 13.1045C33.8946 12.5735 33.8036 11.94 33.6749 11.4557C33.0388 9.9022 31.1078 7.34475 25.2771 7.37622C19.461 7.34475 17.5315 9.9022 16.8975 11.4557C16.7666 11.94 16.6779 12.5735 16.8753 13.1045C17.0321 12.6544 17.3279 12.2452 17.7485 11.9229L17.7821 11.8986L17.8192 11.8716L17.857 11.8485L17.8946 11.8288C19.0137 11.1807 20.4852 11.534 21.3134 12.6498L21.3476 12.6943L21.3813 12.7394L21.407 12.7893L21.4327 12.8382C21.9714 13.8787 21.8411 14.7394 21.6382 15.2801C21.3429 16.0668 20.6984 16.6899 19.8234 17.0354L19.8113 17.0394C19.8113 17.0394 19.7998 17.0446 19.7883 17.0474L19.7758 17.0522C17.9135 17.7076 16.5683 16.9188 15.4867 16.2865C14.6272 15.7812 13.8162 15.3051 12.5821 15.3122C11.258 15.3204 10.5086 16.0952 10.0135 16.608C9.95829 16.6659 9.89791 16.7275 9.84165 16.7837C9.11295 17.5949 8.13843 18.0597 7.22825 18.0241C6.44152 17.9934 5.73473 17.6064 5.23812 16.9367L5.20986 16.8986L5.18172 16.8593L5.15947 16.8177L5.13675 16.7766C5.07416 16.6622 5.02286 16.5427 4.98189 16.4207C4.86734 16.7296 4.7807 17.0974 4.74095 17.5361C4.72931 18.2301 4.8485 18.4576 5.10794 18.9474C5.22571 19.1678 5.37227 19.4432 5.5103 19.7787C6.21984 21.4932 5.50021 23.3254 5.06896 24.4215C5.01533 24.557 4.96503 24.684 4.92993 24.785C4.52149 25.907 3.97379 28.3744 4.81738 29.6796C5.55285 30.8145 6.48171 31.0166 7.46477 31.2314C8.36008 31.4252 10.0272 31.7886 10.0574 33.6343C10.0717 34.564 9.5915 35.3744 8.7992 35.7708C9.58476 35.7834 10.4735 35.4795 11.5587 34.8412C11.5587 34.8412 12.3082 34.3957 12.306 34.3982C14.0855 33.3316 15.1396 32.728 16.1023 32.7006C17.0752 32.6741 17.8996 33.0549 18.4184 33.7764C18.9183 34.4708 19.0423 35.4174 18.7381 36.2481C18.7381 36.2481 18.6726 36.426 18.6707 36.4278C18.4472 37.0284 18.1401 37.8484 18.4882 38.3147C18.9785 38.9715 19.7249 39.2768 21.8109 39.6807C23.0271 39.9152 24.2815 40.6459 25.2859 41.6748C26.2887 40.6459 27.5431 39.9152 28.759 39.6807C30.8456 39.2768 31.5909 38.9715 32.0832 38.3147C32.4316 37.8484 32.1246 37.0273 31.8979 36.426C31.8677 36.3418 31.8457 36.2837 31.8296 36.2366L31.8314 36.2446C31.5292 35.4174 31.6535 34.4708 32.1531 33.7764C32.6727 33.0549 33.493 32.6741 34.4685 32.7006C35.4306 32.728 36.4846 33.3316 38.2616 34.3957L38.6359 34.6189C38.7944 34.7099 38.9179 34.7852 39.0172 34.8547L39.0086 34.8393C40.0975 35.4778 40.9846 35.7834 41.7717 35.7708C40.9802 35.3744 40.4987 34.564 40.513 33.6343C40.5446 31.7886 42.211 31.4252 43.1047 31.2314C44.0893 31.0166 45.0185 30.8145 45.7522 29.6796C46.5968 28.3744 46.0488 25.907 45.6426 24.785" fill="#002B5C"/>
<path d="M25.2477 10.5343C23.3172 10.5343 21.7404 10.1401 21.7265 9.65216C21.7124 9.16375 23.2877 8.76948 25.2477 8.76948C27.2077 8.76948 28.7833 9.16375 28.7695 9.65216C28.7552 10.1401 27.1791 10.5343 25.2477 10.5343ZM25.2204 8.52135C22.7719 8.52135 20.8066 9.10426 20.8337 9.82688C20.8591 10.5486 22.8239 11.1319 25.2204 11.1319C27.617 11.1319 29.5808 10.5486 29.6059 9.82688C29.6336 9.10426 27.6688 8.52135 25.2204 8.52135" fill="#E03A3E"/>
<path d="M23.5757 8.90618C23.5192 9.76717 25.2113 10.0034 25.5335 9.55191C25.0172 9.57308 24.8024 9.33756 24.888 8.99294C25.2609 7.50427 30.0476 7.84726 30.1596 9.79596C30.2437 11.241 27.9045 10.4458 26.0309 14.4675C27.6563 10.9791 31.0508 11.1599 31.0779 9.96757C31.1333 7.55791 23.7118 6.86918 23.5757 8.90618" fill="#C4CED4"/>
<path d="M29.8386 25.8464C29.672 25.401 29.672 24.7129 30.3594 24.7129C29.8732 24.0822 28.8407 24.8116 29.6142 25.975C29.8577 26.3398 30.0221 26.9602 30.0714 27.9489C30.1745 30.0131 27.7331 29.9588 28.3557 33.0527C28.2642 32.9421 28.1662 32.8347 28.0656 32.7307C27.5931 32.2469 27.0811 31.8876 26.9123 31.3982C26.3881 29.8599 28.2988 29.8084 27.4062 27.2379C26.382 24.2923 23.3189 26.807 21.7688 23.7088C20.4525 21.0755 22.8807 17.9036 24.8505 15.775C24.4367 16.2021 24.1008 16.5493 24.1359 16.509C22.5145 18.1 19.4398 20.7781 20.9095 24.0975C21.8971 26.3337 25.3506 25.2307 25.7994 27.6378C26.2567 30.0859 24.0338 29.3051 22.9926 31.8041C22.805 32.2562 22.3462 32.8443 22.0192 33.2906C21.6671 33.7764 21.3234 34.6947 21.3234 35.5231C21.3234 35.5563 21.3234 35.5896 21.3261 35.6257C21.1516 35.6099 20.6188 35.5069 20.5009 34.8048C20.4842 34.7044 20.4757 34.5919 20.478 34.4657C20.4795 34.393 20.4879 34.3229 20.5025 34.2547C20.7212 33.2306 22.3304 32.6491 22.4997 31.368C22.6733 30.0777 20.9095 29.9046 20.3498 30.0777C20.3498 30.0777 21.3389 30.3918 21.3389 31.3252C21.3389 32.0992 20.3064 32.487 20.0469 33.9502C19.9305 34.6169 20.005 35.5483 21.3586 35.9551C21.5371 37.1177 22.4449 38.9635 25.2719 38.9565C28.4858 38.9486 29.222 36.5781 29.222 35.5231C29.222 35.1243 29.1637 34.7336 29.0502 34.3625C28.1139 30.0618 29.944 31.3211 30.6155 29.3859C30.637 29.3236 30.6573 29.258 30.6763 29.1884C31.093 27.6724 30.029 26.3544 29.8386 25.8464V25.8464Z" fill="#C4CED4"/>
<path d="M25.0473 36.4664C24.237 36.546 23.5631 37.1739 23.1922 37.8471C23.6929 38.2949 24.3381 38.5831 25.0473 38.6343V36.4664Z" fill="#002B5C"/>
<path d="M27.2983 33.1515C26.7974 32.7232 26.1574 32.4505 25.4576 32.4102V33.605C26.0097 33.5767 26.3565 33.4452 26.67 33.3291C26.8811 33.2481 27.0784 33.1755 27.2983 33.1515" fill="#002B5C"/>
<path d="M25.0473 34.7612V34.0385C24.4647 34.0163 24.0833 33.8844 23.7738 33.776C23.4309 33.655 23.1784 33.5687 22.7695 33.6633C22.3832 34.1828 22.1529 34.8257 22.1529 35.5231C22.1529 35.5563 22.1546 35.589 22.1569 35.6217C22.9715 35.0839 23.96 34.7903 25.0473 34.7612Z" fill="#002B5C"/>
<path d="M25.4576 35.1908V36.0414C26.3392 36.1373 27.2097 36.7606 27.6165 37.5795C27.9857 37.159 28.2432 36.6417 28.3433 36.0699C27.6165 35.5133 26.67 35.2246 25.4576 35.1908" fill="#002B5C"/>
<path d="M25.0473 36.0338V35.1908C23.9619 35.223 22.988 35.536 22.2095 36.1107C22.3105 36.6417 22.5477 37.1257 22.8807 37.525C23.3876 36.6624 24.198 36.1014 25.0473 36.0338Z" fill="white"/>
<path d="M26.8202 33.7312C26.4916 33.8549 26.0896 34.0053 25.4576 34.036V34.7612C26.6549 34.7934 27.6213 35.0606 28.3907 35.5734V35.5231C28.3907 34.7945 28.1417 34.1266 27.724 33.5951C27.4096 33.5363 27.1276 33.6158 26.8202 33.7312" fill="white"/>
<path d="M23.9155 33.3696C24.2093 33.4715 24.5377 33.5862 25.0473 33.6088V32.4125C24.3395 32.4634 23.6961 32.7504 23.1975 33.1948C23.4645 33.211 23.6862 33.2886 23.9155 33.3696Z" fill="white"/>
<path d="M25.4576 36.4745V38.6363C26.1552 38.5954 26.7904 38.3249 27.2918 37.8992C27.0137 37.2318 26.2999 36.5789 25.4576 36.4745Z" fill="white"/>
<path d="M10.0998 19.6525C10.0998 19.6525 9.93915 20.0968 9.89327 20.1921C9.84686 20.2885 9.84686 20.3162 9.59915 20.2275C9.14063 20.061 8.71127 19.3441 8.71127 19.3441L9.25452 19.2627C9.25452 19.2627 9.43875 19.7537 9.804 19.927L10.122 19.062C10.122 19.062 10.5869 19.8345 10.7303 19.7706C10.9362 19.6775 11.0511 19.1345 11.032 18.936L11.258 18.8977C11.298 19.1591 11.1421 19.7432 10.8368 20.049C10.7679 20.1188 10.6554 20.1849 10.5308 20.1161C10.4085 20.0457 10.0998 19.6525 10.0998 19.6525Z" fill="white"/>
<path d="M17.9683 18.5208C18.1427 18.5482 18.3417 18.6859 18.2687 18.8395C18.1711 19.0482 17.8344 19.1671 17.4134 19.1341C17.0451 19.1041 16.9418 18.8525 16.9418 18.8525C16.9418 18.8525 17.1522 18.9698 17.2873 18.9805C17.4923 18.9963 17.7063 19.0168 17.8131 18.9194C17.8658 18.8722 17.8624 18.8239 17.8119 18.7846L17.2564 18.6901C16.9806 18.642 16.8278 18.4481 16.9482 18.3064C17.0778 18.1506 17.3258 18.0646 17.5752 18.0823C18.0206 18.1147 18.1295 18.2666 18.1295 18.2666C18.1295 18.2666 17.5092 18.1786 17.3951 18.3203C17.3569 18.3676 17.3926 18.4176 17.4783 18.4383L17.9683 18.5208V18.5208Z" fill="white"/>
<path d="M31.0688 18.2689C31.043 18.1759 30.6763 18.0661 30.6763 18.0661L31.4778 18.0673C31.4778 18.0673 31.3975 18.1633 31.4091 18.2709C31.4212 18.3778 31.4462 18.5596 31.4462 18.5596C31.248 18.6171 31.1034 18.6226 30.8827 18.6195C30.4453 18.6147 30.0006 18.3859 30.0036 18.1153C30.0061 17.8405 30.3835 17.6226 30.8226 17.6226C31.2653 17.6226 31.4324 17.8856 31.4324 17.8856C31.4324 17.8856 31.1859 17.7685 30.8706 17.7642C30.548 17.7635 30.3914 18.006 30.393 18.1221C30.3961 18.2568 30.5148 18.5063 30.8845 18.5112C30.9411 18.5121 30.9795 18.4969 31.0326 18.48C31.0326 18.48 31.106 18.3882 31.0688 18.2689" fill="white"/>
<path d="M37.8128 18.8408C37.7852 19.0211 37.5887 19.1433 37.3738 19.1146C37.1587 19.0862 37.0071 18.9172 37.0343 18.7375C37.0628 18.5574 37.258 18.4352 37.4726 18.4631C37.6881 18.4907 37.8383 18.6608 37.8128 18.8408M37.4652 18.3167C37.0007 18.2595 36.6237 18.431 36.5939 18.667C36.5653 18.9048 36.8888 19.1647 37.3513 19.2227C37.8176 19.2829 38.1941 19.1115 38.224 18.8726C38.2542 18.6371 37.9299 18.3778 37.4652 18.3167" fill="white"/>
<path d="M13.6889 19.1876C13.74 19.0685 13.7982 18.9501 13.8662 18.8752C13.9265 18.8087 14.0718 18.9547 14.1922 19.1322L13.6889 19.1876V19.1876ZM14.371 19.5127L14.99 19.4381C14.99 19.4381 14.4778 18.7505 14.216 18.5846C14.0038 18.4486 13.8894 18.3972 13.7706 18.5719C13.5304 18.9278 13.2802 19.6326 13.2802 19.6326L13.5467 19.6041C13.5467 19.6041 13.5729 19.5063 13.6156 19.3793L14.2949 19.3056C14.3352 19.3867 14.3644 19.4601 14.371 19.5127Z" fill="white"/>
<path d="M21.3865 18.6909L21.8591 18.6633C21.8591 18.6633 21.4515 18.0843 21.8331 17.6307C21.8331 17.6307 21.6215 17.5752 21.4712 17.7282C21.3813 17.8188 21.3463 17.9679 21.3349 18.1228L20.8411 18.1519C20.8208 18.0272 20.7558 17.9179 20.6311 17.8575C20.4396 17.7642 20.2282 17.8654 20.2282 17.8654C20.2282 17.8654 20.495 18.0272 20.5541 18.2779C20.6116 18.5265 20.4801 18.756 20.4801 18.756C20.4801 18.756 20.7857 18.643 20.8402 18.3338L21.3349 18.3064C21.3455 18.5142 21.3865 18.6909 21.3865 18.6909Z" fill="white"/>
<path d="M24.6335 17.5451C24.6335 17.5451 24.4263 17.4778 24.2666 17.6219C24.0019 17.8603 24.1285 18.4918 24.1285 18.4918H24.5998C24.5998 18.4918 24.2261 17.9772 24.6335 17.5451" fill="white"/>
<path d="M34.8571 18.0318C34.7682 17.9464 33.515 17.8929 33.515 17.8929L33.493 18.1065C33.493 18.1065 33.6002 18.0013 33.7508 18.0095C33.8074 18.0137 33.927 18.0256 34.0579 18.0393C34.0562 18.0409 34.0535 18.0435 34.0509 18.0441C33.7759 18.273 33.8726 18.91 33.8726 18.91L34.3463 18.9285C34.3463 18.9285 34.041 18.469 34.3442 18.0727C34.4555 18.0864 34.5458 18.0994 34.5791 18.109C34.7232 18.1423 34.8294 18.2838 34.8294 18.2838C34.8294 18.2838 34.9461 18.1201 34.8571 18.0318" fill="white"/>
<path d="M28.2642 17.4842C28.2642 17.4842 28.0958 17.4175 27.9696 17.5599C27.8886 17.6489 27.8523 17.8047 27.838 17.9642C27.5594 17.7116 27.3061 17.6026 27.1139 17.5591C27.1122 17.557 27.1122 17.5564 27.1096 17.5564L27.1 17.5549C26.8841 17.5071 26.749 17.541 26.749 17.541C26.749 17.541 26.9808 17.8047 27.0211 18.0569C27.059 18.3094 26.9282 18.5314 26.9282 18.5314C26.9282 18.5314 27.2736 18.4153 27.2884 18.0272C27.2891 18.0013 27.2884 17.9715 27.2857 17.9425C27.7214 18.1786 27.8549 18.5166 27.8549 18.5166H28.2378C28.2378 18.5166 27.9373 17.9166 28.2642 17.4842" fill="white"/>
<path d="M41.6197 18.9719C41.6197 18.9719 41.4655 18.8769 41.3158 18.9963C41.2237 19.0717 41.1608 19.2181 41.1201 19.3745C40.8865 19.0795 40.656 18.9285 40.4729 18.854C40.4729 18.8525 40.4716 18.8513 40.4703 18.8513L40.4603 18.8476C40.2569 18.7642 40.1158 18.7765 40.1158 18.7765C40.1158 18.7765 40.3015 19.0739 40.2988 19.3298C40.2961 19.5846 40.13 19.7814 40.13 19.7814C40.13 19.7814 40.4897 19.7246 40.5674 19.3461C40.5718 19.3192 40.5769 19.2894 40.5795 19.2602C40.9708 19.5661 41.0458 19.9219 41.0458 19.9219L41.4228 19.9859C41.4228 19.9859 41.2237 19.3419 41.6197 18.9719" fill="white"/>
<path fill-rule="evenodd" clip-rule="evenodd" d="M26.3448 15.6914C26.6311 15.118 26.6354 14.2525 26.5883 13.7264V13.7222C26.8652 13.257 27.3228 12.5835 27.8708 12.1413C27.467 13.2797 27.5594 15.0679 26.3448 15.6914M24.6662 15.8629C25.1284 15.0829 24.9739 14.195 24.8215 13.6943C25.0673 13.2733 25.4713 12.5056 25.5716 11.862C25.5716 11.862 26.2455 12.4698 26.3121 13.6974C25.5047 15.4674 24.6662 15.8629 24.6662 15.8629M23.1892 15.1664C23.8371 13.4569 22.8559 12.1127 22.3752 11.5897C23.2522 11.8963 24.1979 12.7209 24.5309 13.6368C24.0272 14.6892 23.1892 15.1664 23.1892 15.1664M28.5752 11.2534C28.51 11.2814 28.449 11.3185 28.3937 11.3591C28.3861 11.3569 28.3786 11.3569 28.3674 11.3591C27.2624 11.9754 26.5465 13.3108 26.5465 13.3108C26.473 12.5355 25.8296 11.6466 25.8296 11.6466L25.2545 11.6605C25.1475 12.5858 24.6739 13.2965 24.6739 13.2965C24.0287 11.94 22.8835 11.5592 22.5432 11.4096C22.5377 11.4084 21.4521 11.0266 21.4521 11.0266C21.4521 11.0266 21.4616 11.0318 21.4771 11.0447L21.3813 11.0007C21.3813 11.0007 24.2815 13.1415 22.5622 15.8404C22.5622 15.8404 24.0071 15.3323 24.61 14.0839C24.61 14.0839 24.9985 15.2927 23.8528 16.7658C23.8528 16.7658 25.6302 15.8169 26.309 14.2856C26.309 14.2856 26.4044 15.3761 25.7287 16.2228C28.7695 15.3905 27.005 12.2483 29.2268 10.9353L28.5752 11.2534" fill="white"/>
<path d="M10.6076 21.464C12.0274 21.464 12.0706 22.8095 12.0706 22.8095C12.4606 21.4212 13.3034 21.2836 13.6591 21.3435C13.9551 21.3922 15.1352 21.6055 15.4938 23.6485C15.324 20.8637 13.8609 20.599 13.5239 20.5435C13.1618 20.4834 12.3015 20.6186 11.9086 22.0071C11.9086 22.0071 11.8611 20.6597 10.4134 20.6566C9.53656 20.6543 9.08249 21.7105 9.03961 21.8152C9.14452 22.1446 9.25387 22.6337 9.25387 22.6337C9.25387 22.6337 9.70263 21.464 10.6076 21.464V21.464Z" fill="#C4CED4"/>
<path d="M8.64103 20.7877C8.64103 20.7877 7.51995 21.447 6.91687 21.9137C6.91687 21.9137 7.21242 22.139 7.41792 22.4639C8.00803 21.993 8.93305 21.5513 8.93305 21.5513C8.95807 21.5887 8.7414 20.9339 8.64103 20.7877Z" fill="#C4CED4"/>
<path d="M11.1016 29.4496C11.1016 29.4496 11.0284 29.6254 11.0113 30.1337C11.0113 30.1337 11.6805 30.6411 12.4399 30.5827C12.4399 30.5827 12.5184 30.3148 12.5315 29.8987C11.7709 29.9594 11.1016 29.4496 11.1016 29.4496Z" fill="#E03A3E"/>
<path d="M7.73407 26.6023L7.72611 26.5902C7.67216 28.1673 8.00383 29.8737 9.77484 31.0525C9.80676 30.8634 9.86568 30.3703 9.86568 30.3703C8.31378 29.3374 7.82061 27.9685 7.73407 26.6023V26.6023Z" fill="#E03A3E"/>
<path d="M13.6087 30.2795C13.5628 30.5216 13.5718 30.7094 13.5175 30.9611C13.5175 30.9611 15.1926 29.3819 15.4669 26.4641C15.0248 28.9453 13.6087 30.2795 13.6087 30.2795V30.2795Z" fill="#E03A3E"/>
<path d="M15.4938 23.6485C15.1352 21.6055 13.9551 21.3922 13.6591 21.3435C13.3034 21.2836 12.4606 21.4212 12.0707 22.8095C12.0707 22.8095 12.0275 21.464 10.6076 21.464C9.70264 21.464 9.25388 22.6337 9.25388 22.6337C9.25388 22.6337 9.14452 22.1446 9.03962 21.8152C9.00184 21.6963 8.96452 21.598 8.93306 21.5513C8.93306 21.5513 8.00804 21.993 7.41794 22.4639C7.41794 22.4639 8.02955 23.0802 7.86515 24.3066C7.76887 25.0279 7.68424 25.8146 7.73408 26.6023C7.82062 27.9685 8.3138 29.3374 9.8657 30.3703C8.3189 27.415 9.61502 22.9007 10.2179 22.8103C10.7205 22.7351 11.3295 23.2529 11.1016 29.4496C11.1016 29.4496 11.7709 29.9594 12.5315 29.8987C12.5315 29.8987 12.6526 26.43 12.5828 24.9927C12.5416 24.1231 12.3741 22.7176 13.321 22.679C14.128 22.6463 14.5632 25.8494 13.6087 30.2795C13.6087 30.2795 15.0248 28.9453 15.4669 26.4641C15.5436 26.0332 15.5919 25.5687 15.5973 25.0693C15.6027 24.5173 15.564 24.048 15.4938 23.6485V23.6485Z" fill="white"/>
<path d="M43.1756 27.0005C43.1722 27.0005 43.1682 27.0008 43.1643 27.0011C43.2425 28.4623 42.2489 29.9693 40.8757 30.0777C39.6598 30.1736 39.2637 29.4677 39.2093 29.025C39.2093 29.0255 39.209 29.0253 39.209 29.0261C39.1511 29.6975 39.5903 30.8891 40.9708 30.7598C42.4065 30.6252 43.3923 28.8049 43.1756 27.0005V27.0005Z" fill="#E03A3E"/>
<path d="M41.1443 21.1621C41.8844 21.0755 42.3318 21.5626 42.2994 21.989C42.2938 22.0603 42.2809 22.1225 42.2623 22.1772C42.2627 22.1782 42.2636 22.18 42.2643 22.181C42.4475 21.9235 42.7173 20.5707 41.4159 20.4363C40.7561 20.3708 39.9137 20.9861 39.7215 22.2454C39.9961 21.5011 40.6299 21.2216 41.1443 21.1621V21.1621Z" fill="#C4CED4"/>
<path d="M43.1643 27.0011V27.0006C43.0728 25.2784 41.9826 24.1295 41.225 23.1182C40.6801 22.3894 40.9708 21.9218 41.1573 21.8127C41.3775 21.6841 41.7467 21.722 41.8111 21.9946C41.8516 22.16 41.8163 22.5045 41.5438 22.5503C41.5438 22.5503 42.1061 22.6415 42.2623 22.1772C42.2809 22.1225 42.2938 22.0603 42.2994 21.989C42.3318 21.5626 41.8844 21.0755 41.1443 21.1621C40.6299 21.2216 39.9961 21.5011 39.7215 22.2454C39.6235 22.5112 39.5712 22.8358 39.5868 23.2316C39.6283 24.3053 40.643 25.2843 41.1037 25.869C41.536 26.4185 42.0161 27.5907 41.5912 28.5256C41.2462 29.2873 40.7938 29.3464 40.5208 29.366C40.2479 29.3845 39.801 29.1025 39.8986 28.7572C39.9966 28.4114 40.4486 28.3227 40.5156 28.4021C40.5156 28.4021 40.2272 28.132 39.9482 28.1389C39.5375 28.1445 39.2388 28.4619 39.205 28.8617C39.2008 28.9095 39.2021 28.9649 39.2093 29.025C39.2637 29.4677 39.6599 30.1736 40.8758 30.0777C42.2489 29.9693 43.2426 28.4623 43.1643 27.0011V27.0011Z" fill="white"/>
<path d="M28.9927 18.6593C28.9927 18.6593 27.9999 19.4396 27.0426 19.6801C27.0426 19.6801 27.0128 19.9658 27.005 20.3685C27.9429 20.1275 28.8597 19.4697 28.8597 19.4697C28.893 19.1227 28.9927 18.6593 28.9927 18.6593V18.6593Z" fill="#C4CED4"/>
<path d="M26.9925 21.0588C27.0008 20.6339 27.005 20.3685 27.005 20.3685C26.2288 20.2558 25.7994 20.2717 25.7994 20.2717C25.4576 21.1767 25.5271 22.3048 25.5271 22.3048C25.5271 22.3048 25.5677 21.7446 25.7864 21.0477C25.7864 21.0477 26.2248 20.9452 26.9925 21.0588Z" fill="#C4CED4"/>
<path d="M28.7297 20.5735C28.7115 20.806 28.6935 21.0608 28.6771 21.3312C29.3834 21.3158 29.8529 21.0601 30.0372 20.9469L30.1353 20.1711C29.9535 20.2833 29.4232 20.5482 28.7297 20.5735Z" fill="#C4CED4"/>
<path d="M28.3407 28.6904C27.1238 28.73 26.9446 27.4926 26.8841 26.8141C26.8828 26.8015 26.882 26.7867 26.8807 26.7705C26.8746 27.1248 26.8746 27.386 26.8841 27.5027C26.9446 28.1801 27.1238 29.4359 28.3407 29.3784C29.5549 29.3187 29.5196 27.7319 29.4975 27.3337C29.5196 27.7319 29.2405 28.6612 28.3407 28.6904V28.6904Z" fill="#E03A3E"/>
<path d="M28.7297 20.5735C28.7695 20.0808 28.8127 19.6896 28.8597 19.4697C28.8597 19.4697 27.9429 20.1275 27.005 20.3685C27.005 20.3685 27.0008 20.6339 26.9925 21.0588C26.2248 20.9452 25.7864 21.0477 25.7864 21.0477C25.5677 21.7446 25.5271 22.3048 25.5271 22.3048C25.5271 22.3048 26.0689 21.9742 26.9808 21.9777C26.955 23.7643 26.8518 26.2257 26.8807 26.7705C26.882 26.7867 26.8828 26.8015 26.8841 26.8141C26.9446 27.4926 27.1238 28.73 28.3406 28.6904C29.2405 28.6612 29.5196 27.7319 29.4975 27.3337C29.4975 27.3337 29.3986 27.8117 29.0204 27.7712C28.6407 27.7319 28.4999 27.6118 28.4408 26.734C28.4024 26.1707 28.5332 23.9521 28.6404 21.9543C29.7048 21.7024 30.0372 20.9469 30.0372 20.9469C29.8529 21.0601 29.3834 21.3158 28.6771 21.3312C28.6935 21.0608 28.7115 20.806 28.7297 20.5735V20.5735Z" fill="white"/>
<path d="M33.0694 20.7832C33.1152 20.5335 33.1661 20.2753 33.2227 20.0066C33.2227 20.0066 31.6107 20.5157 31.2144 20.6778C31.2144 20.6778 31.2014 20.9674 31.1807 21.4147C31.1841 21.4406 31.1872 21.4664 31.1902 21.4925C31.1923 21.4464 31.1937 21.4212 31.1937 21.4212C32.0755 20.9627 32.9929 20.7966 33.0694 20.7832Z" fill="#C4CED4"/>
<path d="M33.7426 27.6868C33.7633 28.0877 33.4814 29.0205 32.5806 29.0485C31.3598 29.0869 31.1262 27.6604 31.0633 26.9786C31.0593 26.9358 31.0558 26.8847 31.0533 26.8268C31.0521 27.1992 31.0572 27.4981 31.0728 27.6676C31.1354 28.3484 31.3702 29.7778 32.5901 29.737C33.8074 29.695 33.7633 28.0877 33.7426 27.6868V27.6868Z" fill="#E03A3E"/>
<path d="M33.7426 27.6868C33.7426 27.6868 33.6411 28.1673 33.2624 28.1268C32.8816 28.0864 32.7032 27.7403 32.584 27.0385C32.4364 26.167 32.3474 24.391 33.0755 20.7824C33.0755 20.7824 33.0729 20.7828 33.0694 20.7832C32.9929 20.7966 32.0755 20.9627 31.1937 21.4212C31.1937 21.4212 31.1923 21.4464 31.1902 21.4925C31.1652 22.0489 31.0028 25.73 31.0533 26.8268C31.0558 26.8847 31.0593 26.9358 31.0633 26.9786C31.1262 27.6604 31.3598 29.0869 32.5806 29.0485C33.4814 29.0205 33.7633 28.0877 33.7426 27.6868V27.6868Z" fill="white"/>
<path d="M32.1173 19.3392C32.4045 19.3392 32.6376 19.5665 32.6484 19.8501C32.7948 19.6657 32.8203 19.4239 32.8203 19.2409C32.8211 18.9458 32.5642 18.7177 32.2653 18.7109C31.577 18.6983 31.504 19.6186 31.5792 19.7101C31.5858 19.7206 31.593 19.7294 31.5995 19.7397C31.6596 19.5089 31.8677 19.3388 32.1173 19.3392V19.3392Z" fill="#C4CED4"/>
<path d="M32.6484 19.8501C32.6376 19.5665 32.4045 19.3392 32.1173 19.3392C31.8677 19.3388 31.6596 19.5089 31.5995 19.7397C31.5887 19.7828 31.5822 19.8278 31.5822 19.8744C31.5822 20.1705 31.8189 20.4117 32.1148 20.4117C32.4109 20.4117 32.6497 20.1718 32.6497 19.8759C32.6497 19.867 32.6488 19.8587 32.6484 19.8501V19.8501Z" fill="white"/>
<path d="M37.98 28.5515C37.5439 29.2829 36.8055 29.3432 36.2058 29.118C35.7246 28.9363 35.3529 28.5632 35.1534 28.2725C34.9327 27.9539 34.6464 27.2265 34.5609 26.1527C34.554 27.6063 34.9125 28.5783 35.1771 28.9602C35.3767 29.25 35.7501 29.6237 36.2295 29.806C36.8288 30.0306 37.5806 29.9794 38.0046 29.2396C38.2461 28.814 38.2443 28.1211 38.1466 27.8304C38.1774 28.0383 38.1407 28.2799 37.98 28.5515V28.5515Z" fill="#E03A3E"/>
<path d="M37.2873 20.5529C37.9514 20.4777 38.7438 21.0022 38.5931 22.0053C38.5845 22.0613 38.5741 22.1141 38.5629 22.1644C38.7581 21.7744 39.2012 20.1852 37.6794 19.8492C36.9277 19.6842 35.3714 20.3416 34.8813 22.8837C34.8623 22.9819 34.8467 23.0773 34.8294 23.1712C34.8307 23.1698 34.8317 23.1682 34.8325 23.1667C35.3844 21.1286 36.6577 20.6235 37.2873 20.5529V20.5529Z" fill="#C4CED4"/>
<path d="M37.2873 20.5529C36.6577 20.6235 35.3844 21.1286 34.8325 23.1667C34.7902 23.3235 34.7513 23.4884 34.7181 23.6638C34.5341 24.6268 34.5057 25.4614 34.5609 26.1527C34.6464 27.2265 34.9327 27.9539 35.1534 28.2725C35.3529 28.5632 35.7246 28.9363 36.2058 29.118C36.8055 29.3431 37.5438 29.2829 37.98 28.5515C38.1407 28.2799 38.1774 28.0383 38.1466 27.8304C38.0677 27.2911 37.5344 26.9808 37.5344 26.9808C37.9299 27.5704 37.6824 28.162 36.9778 28.235C36.1496 28.3227 35.865 26.3398 35.9436 24.2039C36.0222 22.07 36.7821 21.4242 37.0866 21.3578C37.3914 21.2886 37.7827 21.4616 37.79 21.7984C37.7944 22.081 37.7347 22.2707 37.5599 22.384C37.3863 22.4962 37.0485 22.384 37.0485 22.384C37.0551 22.7213 37.3127 22.9481 37.5361 23.0163C37.7482 23.0794 38.3686 23.0171 38.5629 22.1644C38.5741 22.1141 38.5845 22.0613 38.5931 22.0053C38.7438 21.0022 37.9514 20.4777 37.2873 20.5529V20.5529Z" fill="white"/>
<path d="M23.6929 20.0739C24.2747 20.0252 24.6429 20.3843 24.7061 20.7506C24.7866 20.1355 24.4262 19.3548 23.6712 19.384C23.0243 19.4072 22.1568 19.7885 22.1619 21.2566C22.1633 21.4242 22.1871 21.5928 22.228 21.7569C22.2285 21.7556 22.2291 21.7545 22.2296 21.7532C22.3257 20.508 23.1016 20.1231 23.6929 20.0739Z" fill="#C4CED4"/>
<path d="M23.1734 28.7469C22.0272 28.7961 21.7101 28.034 21.6978 27.6076C21.6159 28.3502 21.943 29.4863 23.1734 29.4348C24.4194 29.3793 25.3576 27.806 25.3241 26.2206C25.1938 27.5089 24.3091 28.6965 23.1734 28.7469V28.7469Z" fill="#E03A3E"/>
<path d="M23.7065 21.9826C23.2347 21.2521 23.5118 20.8075 23.6848 20.7092C23.8891 20.5911 24.2213 20.6434 24.2714 20.91C24.3029 21.0717 24.2597 21.4066 24.0128 21.4425C24.0128 21.4425 24.6449 21.5805 24.7134 20.9236C24.7192 20.8668 24.716 20.8085 24.7061 20.7506C24.6429 20.3843 24.2747 20.0252 23.6929 20.0739C23.1016 20.1231 22.3257 20.508 22.2296 21.7532C22.2229 21.8413 22.2192 21.9334 22.2196 22.0303C22.2242 23.0773 23.1116 24.069 23.5105 24.6554C23.8853 25.2068 24.2827 26.3674 23.871 27.2629C23.5358 27.9902 23.1234 28.0309 22.8766 28.0378C22.6284 28.048 22.2327 27.7574 22.3325 27.4227C22.4317 27.0895 22.8427 27.0212 22.9014 27.1009C22.9014 27.1009 22.6485 26.827 22.3952 26.8215C22.0229 26.8131 21.7422 27.111 21.7015 27.4985C21.6979 27.5311 21.6967 27.568 21.6978 27.6076C21.7101 28.034 22.0272 28.7961 23.1734 28.7469C24.3091 28.6965 25.1938 27.5089 25.3241 26.2206C25.3371 26.0932 25.3429 25.965 25.3406 25.8364C25.3108 24.1562 24.3597 22.9946 23.7065 21.9826V21.9826Z" fill="white"/>
<path d="M19.0995 29.1095C18.2873 29.6944 16.856 29.699 16.5669 28.9087C16.48 28.6703 16.4556 28.4671 16.4751 28.297C16.0368 30.3837 18.2441 30.3597 19.0788 29.7969C20.0469 29.144 21.0101 27.256 21.0356 24.0614C21.035 24.0614 21.0346 24.0614 21.0341 24.0616C20.8851 26.838 19.9783 28.4776 19.0995 29.1095V29.1095Z" fill="#E03A3E"/>
<path d="M20.7221 19.4182C20.0001 19.6326 19.2188 20.324 19.2188 20.324C19.2188 20.324 19.2758 20.6195 19.3321 21.0852C19.3321 21.0852 20.0945 20.4117 20.802 20.1949C20.802 20.1949 20.7808 19.9695 20.7221 19.4182Z" fill="#C4CED4"/>
<path d="M16.744 21.2529C17.4158 20.7628 18.1138 20.6186 18.1138 20.6186C18.1129 20.6308 18.1122 20.6426 18.1113 20.6546C18.1125 20.6427 18.1142 20.6306 18.1152 20.6186C18.1277 20.3598 18.1452 20.0864 18.1657 19.7942C18.1657 19.7942 17.284 19.9834 16.5979 20.4729C16.5979 20.4729 16.428 22.0861 16.7286 23.6376L16.7368 23.6239C16.6396 22.3699 16.744 21.2529 16.744 21.2529V21.2529Z" fill="#C4CED4"/>
<path d="M20.802 20.1949C20.0945 20.4117 19.3321 21.0852 19.3321 21.0852C19.3321 21.0852 19.8185 23.6867 19.3138 25.6423C19.3138 25.6423 17.659 26.8545 18.1113 20.6546C18.1122 20.6426 18.1129 20.6308 18.1138 20.6186C18.1138 20.6186 17.4158 20.7628 16.744 21.2529C16.744 21.2529 16.6396 22.3699 16.7368 23.624C16.8672 25.3051 17.36 27.2329 18.9536 27.0473C18.9536 27.0473 18.6025 28.7871 17.6865 28.8326C17.2346 28.8546 17.1423 28.3537 17.1877 28.1311C17.2341 27.9092 17.4134 27.7375 17.5185 27.7074C17.5185 27.7074 17.3304 27.6044 17.1184 27.637C16.8058 27.6861 16.5204 27.9015 16.4751 28.297C16.4556 28.4671 16.48 28.6703 16.5669 28.9087C16.856 29.699 18.2872 29.6944 19.0995 29.1095C19.9783 28.4776 20.8851 26.838 21.0341 24.0616C21.0935 22.9556 21.0329 21.6699 20.802 20.1949V20.1949Z" fill="white"/>
</g>
<defs>
<clipPath id="clip0_1202_6563">
<rect width="44.5712" height="38" fill="white" transform="translate(3 6)"/>
</clipPath>
</defs>
</svg>
