<svg width="50" height="50" viewBox="0 0 50 50" fill="none" xmlns="http://www.w3.org/2000/svg">
<g clip-path="url(#clip0)">
<path d="M43.007 23.8165C43.0041 19.3799 41.3637 15.1006 38.4005 11.7988C35.4372 8.497 31.3595 6.40511 26.9491 5.92414C26.855 5.82402 26.7474 5.7375 26.6295 5.66705C25.1912 4.73595 23.9891 5.42385 23.1553 5.83381L22.9468 5.93804C21.404 6.11557 19.8906 6.49158 18.4442 7.05674C18.2738 6.80354 18.0808 6.56631 17.8675 6.348C17.0339 5.51275 15.9116 5.02921 14.732 4.9971C13.5524 4.96499 12.4055 5.38674 11.5277 6.1754C10.65 6.96406 10.1083 8.05948 10.0144 9.23577C9.92055 10.4121 10.2816 11.5795 11.0232 12.4974C9.27048 14.6636 8.04425 17.2069 7.44102 19.9273C6.83779 22.6477 6.874 25.471 7.54681 28.175C8.21962 30.8791 9.51067 33.3901 11.3184 35.5106C13.1261 37.6311 15.4013 39.3033 17.9647 40.3955C17.8466 41.3475 17.9995 41.9937 18.1732 42.2577C17.9092 42.4801 17.798 42.619 17.7563 42.8692C17.3394 43.439 18.3539 44.1616 18.7708 44.4812C19.6254 45.1413 20.0771 45.0232 20.7441 44.9954C21.571 44.9607 22.3492 43.9948 22.7939 43.3695C23.6833 43.2444 23.8501 43.3834 23.8779 43.4945C24.2893 43.4369 24.6912 43.3247 25.073 43.161C26.2751 42.6538 25.9346 42.0354 25.8096 41.9242C25.7769 41.8885 25.7489 41.8488 25.7262 41.8061C28.5438 41.7 31.2963 40.9286 33.7586 39.5548C33.8528 39.6633 33.941 39.777 34.0227 39.8952C34.2867 40.2843 34.4257 41.549 34.4813 42.2021C34.5368 42.8553 34.648 43.3 34.9676 44.3284C35.2873 45.3567 35.4123 44.6063 35.4262 44.3284C35.4401 44.0504 35.4957 43.0498 35.454 42.3272C35.4123 41.6046 35.3985 40.5623 35.5374 40.1176C35.6764 39.6729 35.4262 39.5548 35.3568 39.4714C35.2873 39.388 35.3568 39.3602 35.1761 38.7904C35.1627 38.7593 35.1534 38.7266 35.1483 38.6931C37.5677 37.0379 39.5475 34.8183 40.9168 32.2263C42.286 29.6343 43.0034 26.7479 43.007 23.8165Z" fill="white"/>
<path d="M43.007 23.8165C43.0041 19.3799 41.3637 15.1006 38.4005 11.7988C35.4372 8.497 31.3595 6.40511 26.9491 5.92414C26.855 5.82402 26.7474 5.7375 26.6295 5.66705C25.1912 4.73595 23.9891 5.42385 23.1553 5.83381L22.9468 5.93804C21.404 6.11557 19.8906 6.49158 18.4442 7.05674C18.2738 6.80354 18.0808 6.56631 17.8675 6.348C17.0339 5.51275 15.9116 5.02921 14.732 4.9971C13.5524 4.96499 12.4055 5.38674 11.5277 6.1754C10.65 6.96406 10.1083 8.05948 10.0144 9.23577C9.92055 10.4121 10.2816 11.5795 11.0232 12.4974C9.27048 14.6636 8.04425 17.2069 7.44102 19.9273C6.83779 22.6477 6.874 25.471 7.54681 28.175C8.21962 30.8791 9.51067 33.3901 11.3184 35.5106C13.1261 37.6311 15.4013 39.3033 17.9647 40.3955C17.8466 41.3475 17.9995 41.9937 18.1732 42.2577C17.9092 42.4801 17.798 42.619 17.7563 42.8692C17.3394 43.439 18.3539 44.1616 18.7708 44.4812C19.6254 45.1413 20.0771 45.0232 20.7441 44.9954C21.571 44.9607 22.3492 43.9948 22.7939 43.3695C23.6833 43.2444 23.8501 43.3834 23.8779 43.4945C24.2893 43.4369 24.6912 43.3247 25.073 43.161C26.2751 42.6538 25.9346 42.0354 25.8096 41.9242C25.7769 41.8885 25.7489 41.8488 25.7262 41.8061C28.5438 41.7 31.2963 40.9286 33.7586 39.5548C33.8528 39.6633 33.941 39.777 34.0227 39.8952C34.2867 40.2843 34.4257 41.549 34.4813 42.2021C34.5368 42.8553 34.648 43.3 34.9676 44.3284C35.2873 45.3567 35.4123 44.6063 35.4262 44.3284C35.4401 44.0504 35.4957 43.0498 35.454 42.3272C35.4123 41.6046 35.3985 40.5623 35.5374 40.1176C35.6764 39.6729 35.4262 39.5548 35.3568 39.4714C35.2873 39.388 35.3568 39.3602 35.1761 38.7904C35.1627 38.7593 35.1534 38.7266 35.1483 38.6931C37.5677 37.0379 39.5475 34.8183 40.9168 32.2263C42.286 29.6343 43.0034 26.7479 43.007 23.8165Z" fill="#061922"/>
<path d="M20.7441 40.6178C21.4181 40.59 22.3492 40.3816 22.773 40.2009C22.8286 40.2148 22.9189 40.2704 23.0579 40.326C23.1135 39.8744 22.8286 38.9502 22.6688 38.5263C22.5576 38.2484 22.4603 38.0539 22.3353 37.762C21.96 37.6925 21.4876 37.491 21.154 37.3521C21.1673 37.8238 21.2045 38.2946 21.2652 38.7626C21.1193 38.7765 20.9247 38.7904 20.6885 38.7904C20.7163 39.2907 20.7719 40.2009 20.7441 40.6178Z" fill="#008348"/>
<path d="M33.3417 39.1378C33.2096 39.0128 33.4945 38.6236 33.6196 37.901C33.7447 37.1784 33.7586 35.9693 33.2235 35.2884C32.9664 34.9549 32.8414 34.7464 32.7997 34.5936C31.1566 35.7911 29.2589 36.5925 27.2548 36.9352C27.2374 36.9734 27.2139 37.0086 27.1853 37.0394C26.8935 37.4146 26.3237 37.9566 25.9068 38.1789C25.532 38.3697 25.1414 38.5278 24.7394 38.6514C24.6838 39.0961 24.6144 40.0898 24.7255 40.4372C24.7672 40.5623 25.2814 40.868 25.4621 41.2015C25.4829 41.2362 25.4968 41.271 25.5177 41.2988C28.2669 41.2257 30.959 40.4967 33.3694 39.1726L33.3417 39.1378Z" fill="#008348"/>
<path d="M37.3717 11.4482C34.6698 8.73544 31.1474 6.99132 27.352 6.48698C27.6578 7.08455 27.7064 7.77245 27.7342 8.2102C28.2762 7.97396 28.6931 7.84888 28.9154 7.48756C29.1378 7.12624 29.4435 7.19573 29.6381 7.45977C29.8326 7.72381 29.8326 8.05734 29.3184 8.37697C28.9971 8.57513 28.6628 8.75156 28.3179 8.90505C28.2067 8.96064 28.304 9.05792 28.429 9.26637C28.5541 9.47482 28.8737 9.99596 28.9293 11.0799V11.1077C30.759 11.6761 32.4446 12.6323 33.8713 13.9111C35.2979 15.1899 36.4321 16.7613 37.1964 18.5182C37.9608 20.2751 38.3373 22.1761 38.3004 24.0916C38.2635 26.0072 37.814 27.8923 36.9826 29.6184C37.0938 29.674 37.2536 30.077 37.3022 30.6121C37.33 30.89 37.3161 31.1957 37.2327 31.3903C37.1494 31.5848 36.4962 32.5715 36.1627 32.8634C36.0376 32.9745 35.7458 32.9606 35.6207 32.78C35.4956 32.5993 35.4817 32.6966 35.3844 32.7939C35.2872 32.8912 34.9536 33.3775 34.8703 33.5026C34.7869 33.6277 34.5089 33.7528 34.6896 34.26C34.8703 34.7672 35.0787 35.1355 35.0092 35.4134C34.9397 35.6914 34.912 35.7748 35.2872 36.0944C35.6624 36.414 35.6485 36.8031 35.4817 37.0533C35.315 37.3034 35.2107 37.63 35.1482 38.0608C39.5883 34.8854 42.4927 29.6879 42.4927 23.8165C42.4981 21.5189 42.0483 19.2429 41.1693 17.1201C40.2904 14.9973 38.9997 13.0695 37.3717 11.4482Z" fill="#008348"/>
<path d="M17.2837 36.7337C17.235 36.2612 17.1586 35.4135 17.4921 34.802C15.7087 33.5793 14.2498 31.9408 13.2413 30.028C12.2329 28.1152 11.7053 25.9857 11.704 23.8234C11.7026 22.0131 12.0718 20.2217 12.7888 18.5595C13.5058 16.8973 14.5554 15.3994 15.8731 14.1581C15.8989 14.1032 15.9316 14.0518 15.9704 14.0052C15.5298 14.1443 15.0705 14.2146 14.6085 14.2137C14.0059 14.215 13.409 14.0972 12.8522 13.867C12.2953 13.6369 11.7894 13.2989 11.3636 12.8726C9.68189 14.9728 8.5068 17.4322 7.92949 20.06C7.35218 22.6878 7.38819 25.4133 8.03471 28.0249C8.68124 30.6366 9.9209 33.0641 11.6575 35.1191C13.394 37.1741 15.5808 38.8013 18.048 39.8744C18.137 39.4581 18.2578 39.0492 18.4093 38.6514C18.5622 38.2484 18.3259 37.3173 17.9368 36.8309C17.7222 36.7802 17.5037 36.7476 17.2837 36.7337Z" fill="#008348"/>
<path d="M21.9183 6.59814C20.8191 6.7905 19.7415 7.09074 18.7012 7.4945C19.0948 8.25447 19.2682 9.10929 19.2019 9.96257C19.1356 10.8158 18.8323 11.6336 18.326 12.3237C19.2985 11.755 20.34 11.3137 21.425 11.0104L21.6404 10.8159C21.2304 10.1419 20.6885 9.0718 21.161 7.62652C21.2999 7.21656 21.5918 6.87608 21.9183 6.59814Z" fill="#008348"/>
<path d="M28.9155 11.872C29.3046 12.0666 29.7354 12.4904 29.5687 13.2756C29.4992 13.5953 29.2282 13.901 29.2073 14.0261C29.1865 14.1511 28.7279 14.5889 28.5889 14.8668C28.45 15.1448 28.4291 15.381 28.4708 15.4991C28.6932 15.7076 29.1934 15.9855 29.4714 16.0828C29.7493 16.1801 29.6729 16.2218 29.5826 16.3677C29.7354 16.3816 29.8119 16.4719 29.9578 16.6456C30.1037 16.8193 30.5137 16.7151 30.7638 16.59C31.0139 16.465 31.3336 16.4233 31.5837 16.729C31.8339 17.0347 32.2091 17.6045 32.3897 18.1326C32.5055 18.4909 32.6495 18.8394 32.8206 19.1749C32.8761 19.2583 32.626 20.7869 32.5565 21.3984C32.487 22.0098 32.4314 22.2808 32.4175 22.3781C32.4036 22.4754 32.8067 22.0307 32.8206 22.5588C32.8345 22.9757 33.029 24.3306 33.2583 25.3312C33.3065 25.5589 33.3668 25.7839 33.439 26.0052C33.6057 26.033 33.7447 26.3665 33.842 26.8807C33.9393 27.3949 34.1477 27.7145 34.1616 27.9716C34.1755 28.2287 34.245 28.2635 34.3284 28.3052C34.4118 28.3468 34.384 28.4719 34.1338 28.7638C34.2021 28.8202 34.267 28.8805 34.3284 28.9444C34.3979 28.8749 34.5924 28.6526 34.5924 28.6526C34.5924 28.6526 35.3567 28.9583 35.5235 29.0139C35.6903 29.0695 35.8918 28.6526 36.3851 28.8749C36.5241 28.9305 36.67 29.1181 36.7812 29.3057C37.5576 27.6302 37.9688 25.8086 37.9873 23.962C38.0059 22.1154 37.6314 20.2859 36.8889 18.5951C36.1463 16.9042 35.0526 15.3907 33.6803 14.1549C32.308 12.9191 30.6885 11.9893 28.9294 11.4273C28.9225 11.6219 28.9155 11.8025 28.9155 11.872Z" fill="white"/>
<path d="M32.9316 33.7528C32.7371 33.6555 32.612 33.8014 32.5147 33.0301C32.4869 32.8078 32.3063 32.5159 32.1673 32.377C32.0283 32.238 32.0144 31.9809 32.0839 31.7516C32.1824 31.4468 32.2248 31.1266 32.209 30.8066C32.1951 30.5287 32.2507 30.1813 32.6398 30.0145C32.5184 29.8696 32.4328 29.6982 32.3896 29.5142C31.8199 29.3266 31.7087 29.3057 31.5906 29.0348C31.396 28.5692 31.2779 27.8952 31.2223 27.5269C31.1945 27.3393 31.1737 27.1726 31.1667 27.0197C30.9861 26.6792 30.5761 25.9079 30.2634 25.3312C30.1522 25.1158 30.048 24.9282 29.9716 24.7962C29.6936 24.3098 29.9716 23.6705 30.1105 23.2953C30.2495 22.9201 30.3607 22.5866 30.2356 22.2044C30.1634 22.0065 30.1122 21.8015 30.0828 21.5929C30.055 21.4401 29.9299 21.2455 29.7631 21.7736C29.5964 22.3017 29.2767 23.0869 29.0961 23.8929C28.9824 24.3636 28.931 24.8472 28.9432 25.3312C28.9545 25.6943 29.0396 26.0513 29.1933 26.3804C29.5547 27.1309 29.9855 27.8257 29.9299 28.2496C29.8743 28.6734 29.784 28.6804 29.777 28.7499C29.7075 29.5559 29.3601 31.0985 29.1795 31.5432C28.9988 31.9879 28.2901 33.5999 28.1372 34.2878C27.949 35.0692 27.7099 35.8375 27.4215 36.5878C29.4626 36.1997 31.3808 35.3276 33.015 34.0446C33.0636 33.9265 33.0567 33.8153 32.9316 33.7528Z" fill="white"/>
<path d="M17.4713 15.4991C17.6363 15.7165 17.8475 15.8945 18.0898 16.0203C18.7707 16.3677 18.9097 16.6178 18.9097 17.2154C18.9097 17.813 19.0209 19.0359 19.2154 19.2444C19.3253 19.1347 19.4231 19.0135 19.5072 18.883C19.7018 19.2444 20.0979 19.9114 20.7163 20.3283C20.758 20.3561 20.7441 20.509 20.8414 20.5368C21.0498 20.5924 22.4048 20.8008 22.4464 21.0787C22.7244 20.8008 23.1691 20.106 23.2525 19.8697C23.3358 19.6335 23.8222 18.883 24.1836 18.4661C24.1774 18.364 24.1821 18.2615 24.1975 18.1604C24.1002 18.2438 23.9473 18.4522 23.725 18.5495C23.5026 18.6468 22.7244 18.9803 22.1685 19.2582C21.974 19.3555 21.6265 19.4667 21.4876 18.4522C21.3486 17.4378 21.4876 16.9097 21.5848 16.6734C21.6821 16.4372 21.8628 16.2287 22.2102 16.326C22.5576 16.4233 23.1135 16.6317 23.2664 16.6317C23.2942 16.5206 23.3914 16.3121 23.0162 16.2635C22.7452 16.2357 22.0504 16.0411 21.6543 15.4991C21.4769 15.2566 21.3775 14.9657 21.3694 14.6653C20.5773 14.7904 18.7568 15.0266 18.3538 15.1239C17.9508 15.2212 17.6103 15.3046 17.4783 14.3874C17.4227 13.9983 17.3254 13.4563 17.6034 13.6508C17.7501 13.5282 17.9221 13.4397 18.1072 13.3917C18.2922 13.3436 18.4856 13.3372 18.6734 13.3729C18.7808 13.3939 18.8757 13.4563 18.9375 13.5466C18.9653 13.6856 18.9097 13.9079 18.8402 14.1094C18.7221 14.4847 18.4858 14.7487 19.2432 14.575C20.0006 14.4013 21.0429 14.2415 21.3069 14.1859C21.3416 13.9149 21.5709 13.498 21.835 13.1922C22.099 12.8865 22.1407 12.6364 22.1546 12.5391C22.1685 12.4418 22.0712 12.421 21.9462 12.5391C21.8211 12.6572 21.3277 12.956 20.8969 12.8448C20.7302 12.8031 20.5217 12.4835 20.4105 12.3028C20.5009 12.1083 20.7371 11.7817 21.022 11.4482C19.5297 11.9245 18.1377 12.6711 16.9155 13.6508C16.9139 13.9559 16.9536 14.2598 17.0336 14.5541C17.1167 14.8946 17.2654 15.2156 17.4713 15.4991Z" fill="white"/>
<path d="M18.4371 34.5101C19.0069 34.2878 19.4585 34.2947 19.8963 34.8854C20.0214 35.0521 20.1187 35.5385 21.1887 35.1077C20.6189 34.4268 20.2785 33.6138 19.9658 32.5298C19.4724 30.8205 18.3607 28.8749 18.7707 27.9855C18.5344 27.7562 18.2565 26.8946 17.9646 26.9919C17.6728 27.0892 17.4921 27.0614 17.7145 26.4082C17.8498 26.0215 18.0443 25.6582 18.2912 25.3312C18.6734 24.8101 19.2709 24.1847 20.2437 23.4343C20.3271 23.3648 20.341 23.3092 20.2854 23.2536C20.1989 23.1544 20.1009 23.0658 19.9936 22.9896C19.8963 22.934 19.799 22.9618 19.7156 23.0452C19.6206 23.1325 19.5184 23.2115 19.4099 23.2814C19.3265 23.337 18.6595 22.6838 18.3121 22.2044C18.1036 21.9091 17.8207 21.6742 17.4921 21.5235C17.6311 21.3706 17.9438 21.044 17.8257 21.0788C17.7075 21.1135 17.2489 21.1969 16.8807 20.8008C16.5124 20.4047 16.6027 20.0643 16.5055 19.9948C16.4082 19.9253 15.9079 20.0365 15.5327 19.4528C15.1574 18.8691 15.0046 18.612 15.3034 18.2021C15.4562 17.9936 15.5118 17.8964 15.4771 17.6323C15.4423 17.3683 15.4771 17.2015 15.8245 16.868C16.1719 16.5345 16.3804 16.2287 16.5332 16.2496C16.6861 16.2704 16.3039 15.8327 16.0885 15.4991C16.039 15.4248 15.9971 15.3456 15.9635 15.2629C15.8766 15.0689 15.8204 14.8626 15.7967 14.6514C14.4519 16.0038 13.421 17.6354 12.777 19.4306C12.1329 21.2258 11.8915 23.1406 12.0699 25.0394C12.2482 26.9383 12.842 28.7747 13.809 30.4185C14.7761 32.0624 16.0928 33.4735 17.6658 34.5518C17.9507 34.2391 18.2912 34.3573 18.4371 34.5101Z" fill="white"/>
<path d="M11.0441 7.06369C12.1836 7.35553 13.0383 8.27967 13.4135 8.79386C13.5108 8.92588 13.6081 8.90504 13.6497 8.80776C13.6914 8.71048 13.8999 7.93225 13.8999 7.41806C13.8999 6.25072 14.0597 5.78517 14.3515 5.24319C13.6993 5.28062 13.0638 5.46354 12.4915 5.77856C11.9191 6.09357 11.4246 6.53268 11.0441 7.06369Z" fill="#A73832"/>
<path d="M10.3561 10.6491C12.4962 10.8437 13.1633 9.64158 13.3022 9.46092C13.4412 9.28026 13.2744 9.16908 13.205 9.0718C12.8367 8.55761 12.0029 7.64042 10.8633 7.34858C10.2633 8.33799 10.0809 9.52519 10.3561 10.6491Z" fill="#A73832"/>
<path d="M18.8541 10.5657C17.9508 10.1905 16.8807 10.5379 16.1164 11.205C15.3521 11.872 14.956 12.3862 14.692 13.9705H14.5947C13.5068 13.9722 12.4579 13.5655 11.6555 12.8309C12.9687 12.4974 14.0666 11.8998 15.3034 10.7325C16.5403 9.56514 17.1587 8.19629 17.3254 7.55703C17.4922 6.91778 17.256 7.29299 17.1309 7.58483C16.9363 8.03648 16.2971 9.25246 15.0255 10.4406C13.7539 11.6288 12.7881 12.2056 11.4679 12.6503C11.0219 12.1927 10.6826 11.6422 10.4742 11.0382C10.9189 11.066 12.3225 10.8992 13.0243 10.3295C13.9485 9.57209 14.0527 8.66879 14.1778 7.39027C14.3029 6.11175 14.4905 5.72959 14.7962 5.24319C15.9195 5.29333 16.98 5.7751 17.7567 6.58807C18.5335 7.40104 18.9664 8.48246 18.9653 9.60683C18.9634 9.92956 18.9261 10.2511 18.8541 10.5657Z" fill="#A73832"/>
<path d="M18.7361 11.0035C18.5276 10.7116 17.7841 10.5657 16.6029 11.3092C16.4917 11.3787 16.4153 11.4273 16.5473 11.5594C16.9273 11.9529 17.2291 12.4151 17.4367 12.9213C18.0329 12.4091 18.4815 11.7471 18.7361 11.0035Z" fill="#A73832"/>
<path d="M17.0891 13.1922C16.839 12.5808 16.6305 12.1361 16.3943 11.8303C16.2623 11.6636 16.2414 11.5941 16.0052 11.8025C15.3451 12.3793 15.088 13.2617 14.949 13.9566C15.7178 13.8973 16.4567 13.6334 17.0891 13.1922Z" fill="#A73832"/>
<path d="M15.8941 18.077C15.7134 18.0214 15.5744 18.2299 15.491 18.3966C15.4077 18.5634 15.3034 18.7441 15.5744 19.1193C15.8454 19.4945 15.9983 19.7169 16.4638 19.6891C16.5593 19.6774 16.6515 19.6469 16.7351 19.5991C16.8186 19.5514 16.8917 19.4875 16.9502 19.4111C17.0197 19.3138 17.0336 19.4806 16.9224 19.6474C16.8113 19.8141 16.7279 20.2032 16.9363 20.4673C17.1448 20.7313 17.5756 20.9537 18.1454 20.6202C18.5276 20.4066 18.841 20.0884 19.0487 19.703C19.1459 19.5223 19.1459 19.4389 19.0487 19.3277C18.9514 19.2166 18.6318 18.6885 18.5623 17.6462C18.5206 17.0208 18.6318 16.6178 18.2426 16.3955C17.8535 16.1731 16.9641 15.6451 16.8529 14.6097C16.8113 14.2206 16.8391 13.623 16.4499 13.9427C16.0608 14.2623 16.0608 14.4847 16.0191 14.7209C15.9774 14.9572 16.172 15.2768 16.3388 15.4991C16.5055 15.7215 16.7001 16.2148 16.8529 16.3399C17.0058 16.465 17.1031 16.5622 17.2282 16.5761C17.3532 16.59 17.8535 16.59 17.9786 16.6317C18.1037 16.6734 18.1732 16.8263 17.8674 16.8263C17.5617 16.8263 17.0892 16.9097 16.8807 16.9375C16.6723 16.9653 16.4777 16.9792 16.3805 17.3961C16.2832 17.813 16.1442 18.2994 16.1303 18.4522C16.1164 18.6051 16.033 18.6885 16.033 18.7719C16.033 18.8552 16.1998 19.2583 16.575 18.8552C16.842 18.5672 17.0456 18.2263 17.1726 17.8547C17.2421 17.6601 17.3254 17.6879 17.256 17.9936C17.1865 18.2994 17.1656 19.0637 17.3115 19.3277C17.4575 19.5918 17.784 19.9045 18.1871 19.703C18.2704 19.6613 18.4094 19.5918 18.5206 19.6057C18.6318 19.6196 18.4997 19.8141 18.4025 19.8975C18.3052 19.9809 17.9856 20.3353 17.4227 19.828C17.2164 19.6275 17.0841 19.363 17.0475 19.0776C17.043 19.0521 17.0312 19.0286 17.0135 19.0098C16.9957 18.991 16.9729 18.9778 16.9477 18.9719C16.9226 18.966 16.8962 18.9676 16.872 18.9765C16.8477 18.9854 16.8266 19.0012 16.8113 19.022C16.7418 19.1193 16.3666 19.4667 16.1025 19.2166C15.8385 18.9664 15.7273 18.8274 15.8802 18.2994C15.908 18.2021 15.9566 18.0979 15.8941 18.077Z" fill="#FAB383"/>
<path d="M16.172 17.2988C16.1095 17.4795 16.0609 17.7157 16.0331 17.7991C16.0053 17.8825 15.8802 18.0631 15.769 17.8269C15.6579 17.5906 15.6579 17.403 15.8385 17.2293C15.8941 17.1737 15.9775 17.0625 16.0331 17.1181C16.0887 17.1737 16.1859 17.2571 16.172 17.2988Z" fill="#FAB383"/>
<path d="M16.7973 16.6595C16.6792 16.7151 16.436 16.7151 16.3526 16.9097C16.2693 17.1042 16.0747 16.8958 16.1859 16.7429C16.2971 16.59 16.3804 16.6039 16.4499 16.5622C16.5194 16.5206 16.5472 16.3955 16.6862 16.465C16.8251 16.5345 16.8529 16.6317 16.7973 16.6595Z" fill="#FAB383"/>
<path d="M25.9623 9.76665C25.5732 9.80834 25.2119 10.0446 24.8506 10.3017C24.4893 10.5588 23.1829 11.6497 22.8772 11.872C23.1968 12.0388 23.2802 12.3723 23.169 12.9282C23.1413 13.0533 23.169 13.095 23.2524 13.0116C23.3358 12.9282 23.7249 12.5113 23.711 12.1778C23.7049 11.9726 23.6371 11.7741 23.5165 11.608C23.4887 11.5663 23.6276 11.3995 23.7805 11.747C23.9334 12.0944 23.8917 12.5808 23.4331 13.1228C22.9745 13.6647 22.6132 13.6508 22.4186 13.7481C22.2241 13.8454 22.0295 13.9983 22.2102 14.2901C22.3908 14.5819 22.7382 14.4708 22.8772 14.3735C23.0162 14.2762 23.2107 14.165 23.6554 14.2067C24.1001 14.2484 24.2461 13.9635 23.9473 13.6647C23.85 13.5675 23.5999 13.3451 23.9056 13.3451C24.0862 13.3451 24.3086 13.7481 24.4337 13.8593C24.5587 13.9705 24.8367 14.0122 25.2119 14.04C25.5871 14.0678 26.1708 14.2067 26.1708 14.568C26.1708 14.7904 26.0527 14.8599 25.8928 14.6792C25.8303 14.6097 25.74 14.7209 25.6705 14.7904C25.4342 15.0266 24.8297 15.6659 24.3989 15.7771C23.9681 15.8883 23.8083 15.7632 23.2385 15.4574C22.6688 15.1517 22.1407 14.846 21.9878 14.7487C21.8349 14.6514 21.5084 14.4291 21.6682 14.8738C21.828 15.3185 22.1963 15.7771 22.9467 16.0272C23.6971 16.2774 23.8083 16.3677 23.9751 16.4511C24.1418 16.5345 24.0446 16.6178 23.8222 16.5901C23.5999 16.5623 23.4192 16.3955 23.586 16.7707C23.7527 17.1459 24.0029 17.5489 24.7672 17.4517C25.5315 17.3544 25.5524 17.1876 26.0318 16.3955C26.1152 16.2496 26.1986 16.3538 26.143 16.7151C26.3993 16.5865 26.6698 16.4886 26.949 16.4233C27.1714 16.3677 27.755 16.1662 28.1372 15.4574C28.3318 15.0961 28.436 14.9711 28.4012 14.5958C28.3873 14.4569 28.5958 14.1789 28.8043 13.9844C29.0127 13.7898 29.5825 13.0533 29.2906 12.5252C28.9988 11.9971 28.5124 12.2612 28.2762 12.6503C28.0399 13.0394 27.7759 13.4702 27.762 14.1372C27.6871 14.1088 27.6047 14.1071 27.5288 14.1324C27.4528 14.1578 27.3879 14.2085 27.3451 14.2762C27.2964 14.3457 26.685 14.2623 26.4765 14.3179C26.2681 14.3735 26.1986 14.2484 26.4209 13.9566C26.6433 13.6647 27.4285 12.6086 27.3798 11.8164C27.3738 11.6616 27.3925 11.5068 27.4354 11.3578C27.491 11.1285 27.5118 11.1216 27.22 10.9687C27.0393 10.8645 27.0254 10.5727 26.9907 10.3503C26.956 10.128 26.9143 10.1141 26.6433 10.1697C26.3723 10.2252 26.1152 10.0168 25.9623 9.76665Z" fill="#FAB383"/>
<path d="M24.3363 14.1233C24.2599 14.297 24.0514 14.4638 23.5651 14.4082C23.3219 14.3804 23.0856 14.3804 23.0439 14.568C23.0022 14.7556 22.905 14.6931 22.7521 14.6862C22.5992 14.6792 22.4186 14.6375 22.4116 14.6931C22.4047 14.7487 23.0926 15.1587 23.3219 15.2629C23.5512 15.3671 23.8847 15.6173 24.1557 15.5895C24.4267 15.5617 24.8297 15.381 25.3647 14.8112C25.5871 14.5819 25.7608 14.4569 25.5523 14.3596C25.4028 14.2975 25.2415 14.269 25.0798 14.2762C24.8922 14.2762 24.4892 14.2484 24.3363 14.1233Z" fill="#FAB383"/>
<path d="M21.7446 14.1303C21.557 14.1233 21.5361 13.9844 21.6612 13.7759C21.7863 13.5675 21.9044 13.3729 22.0712 13.2478C22.096 13.348 22.155 13.4365 22.2379 13.498C22.1268 13.6161 21.9739 13.762 22.0017 14.0538L21.7446 14.1303Z" fill="#FAB383"/>
<path d="M25.9763 13.2687C25.6762 13.2641 25.383 13.1776 25.1285 13.0185C24.8715 12.8379 24.7881 12.7545 24.8298 12.4974C24.8715 12.2403 24.8715 12.2473 24.8853 12.1917C24.8992 12.1361 24.8923 12.1152 24.8992 12.0874C24.9062 12.0596 24.9131 11.8859 24.8784 11.8373C24.8584 11.8162 24.831 11.8037 24.802 11.8025C24.7211 11.8143 24.6459 11.8507 24.5866 11.9068C24.4406 11.7956 24.3017 11.6775 24.1975 11.5802L24.0237 11.4343C24.0072 11.4258 23.9925 11.414 23.9805 11.3997C23.9686 11.3853 23.9596 11.3687 23.9543 11.3509C23.9573 11.3134 23.9748 11.2786 24.0029 11.2536C24.0237 11.2328 24.0446 11.2328 24.0793 11.2328H24.1141C24.1329 11.2348 24.152 11.2328 24.17 11.2268C24.188 11.2208 24.2044 11.211 24.2183 11.198C24.2461 11.1633 24.253 11.1077 24.2391 11.0104C24.2252 10.9131 24.253 10.9965 24.3156 10.9965H24.4198C24.4437 10.9974 24.4675 10.9926 24.4893 10.9826C24.5019 10.9771 24.513 10.9684 24.5215 10.9575C24.53 10.9466 24.5356 10.9337 24.5379 10.9201C24.5449 10.8854 24.5449 10.8715 24.5935 10.8715L24.7047 10.8923H24.7255C24.7442 10.8918 24.7622 10.8855 24.7772 10.8743C24.7921 10.8631 24.8032 10.8475 24.8089 10.8298V10.8159C24.8159 10.802 24.827 10.7905 24.8406 10.7831C24.8543 10.7756 24.8699 10.7725 24.8853 10.7742H24.9131L25.0174 10.795L25.1216 10.8159C25.205 10.8159 25.2258 10.7533 25.2397 10.7047C25.2536 10.6561 25.2884 10.5796 25.3231 10.5796C25.3765 10.5869 25.4269 10.6085 25.469 10.6422C25.5147 10.6728 25.5672 10.6918 25.6219 10.6977C25.652 10.6978 25.6811 10.6863 25.703 10.6656C25.725 10.645 25.7382 10.6167 25.74 10.5866H25.7609C25.8298 10.5961 25.896 10.6198 25.9554 10.6561L25.9902 10.6769C26.2612 10.8279 26.5015 11.0282 26.6989 11.2675C26.745 11.31 26.7766 11.3659 26.7892 11.4273H26.7614C26.7435 11.4273 26.7257 11.4309 26.7093 11.438C26.6928 11.4451 26.6779 11.4554 26.6655 11.4684C26.6532 11.4814 26.6436 11.4968 26.6374 11.5136C26.6312 11.5305 26.6285 11.5484 26.6294 11.5663C26.6286 11.6059 26.6166 11.6445 26.5947 11.6775C26.5947 11.6775 26.5808 11.6705 26.5669 11.6358C26.553 11.601 26.5252 11.5594 26.4835 11.5594H26.4627C26.4527 11.5499 26.4455 11.5379 26.4418 11.5246C26.4349 11.5038 26.414 11.4482 26.3654 11.4482C26.3417 11.4489 26.3192 11.4589 26.3028 11.476H26.2959C26.2889 11.4551 26.2681 11.3995 26.2195 11.3995H26.1847L26.1708 11.3856C26.1639 11.3578 26.143 11.3509 26.1152 11.3509L26.0527 11.3648H25.9763C25.9703 11.353 25.9614 11.343 25.9505 11.3357C25.9395 11.3284 25.9269 11.3241 25.9137 11.3231C25.8883 11.3251 25.864 11.3348 25.8442 11.3509L25.7956 11.3717C25.7886 11.3717 25.7817 11.3717 25.7678 11.3509C25.7603 11.3412 25.7509 11.333 25.7401 11.3271C25.7294 11.3211 25.7175 11.3174 25.7053 11.3162C25.6705 11.3162 25.6566 11.344 25.6358 11.3648H25.6288C25.6149 11.3856 25.601 11.3926 25.5941 11.3926H25.5732L25.5246 11.3787C25.507 11.3795 25.4899 11.3851 25.4752 11.3949C25.4605 11.4047 25.4488 11.4183 25.4412 11.4343C25.4343 11.4551 25.4273 11.4551 25.4273 11.4551H25.3995L25.3509 11.4412C25.2953 11.4412 25.2745 11.4899 25.2606 11.5246C25.2467 11.5594 25.2328 11.5663 25.2258 11.5663H25.2119L25.1563 11.5524C25.0799 11.5524 25.066 11.6219 25.0591 11.6914C25.0521 11.7609 25.0521 11.7192 25.0521 11.7331C25.0172 11.9632 24.9963 12.1952 24.9896 12.4279C24.9965 12.5391 25.1424 12.5391 25.198 12.5391C25.3378 12.5357 25.4772 12.5218 25.6149 12.4974C25.9554 12.4488 26.5877 12.2611 26.9143 11.9902C26.9611 11.9446 27.0228 11.9174 27.088 11.9137H27.1158C27.0949 11.9822 27.0537 12.0428 26.9977 12.0874L26.9699 12.1083C26.739 12.3144 26.455 12.4517 26.15 12.5043C25.6914 12.5947 25.2675 12.6711 25.1285 12.6711H25.073C25.0624 12.6717 25.0522 12.6752 25.0436 12.6814C25.035 12.6875 25.0283 12.696 25.0243 12.7059C25.0151 12.7336 25.029 12.7614 25.066 12.7892C25.1113 12.831 25.1712 12.8535 25.2328 12.8518H25.2884C25.3092 12.8518 25.3578 12.9004 25.3926 12.9352C25.4273 12.9699 25.6427 13.1644 25.8373 13.1644C26.0318 13.1644 26.4488 12.9004 26.553 12.817C26.6194 12.7704 26.6919 12.733 26.7684 12.7059L26.7197 12.7614L26.6989 12.7823C26.4696 13.0116 26.2334 13.2478 26.0041 13.2548L25.9763 13.2687Z" fill="#061922"/>
<path d="M28.9155 12.956C28.7557 13.0672 28.6654 13.1089 28.6515 13.3034C28.6376 13.498 28.5959 13.8315 28.5264 13.8593C28.4569 13.8871 28.4431 13.6786 28.4153 13.7481C28.3875 13.8176 28.2554 13.8037 28.2207 13.7134C28.186 13.6231 27.8594 13.6786 28.1373 13.2756C28.4153 12.8726 28.582 12.7198 28.7627 12.6364C28.9433 12.553 29.2491 12.7198 28.9155 12.956Z" fill="#061922"/>
<path d="M35.725 29.4933C35.6624 29.3266 35.7736 29.0556 36.121 29.2501C36.4684 29.4447 36.7324 29.6115 36.4823 30.3758C36.2322 31.1402 36.0515 31.5849 35.9542 31.9045C35.857 32.2241 35.4818 32.6271 35.6068 32.0852C35.7319 31.5432 35.8014 30.89 35.7458 30.5565C35.6485 29.945 35.8431 29.9797 35.7805 29.7018C35.7664 29.6312 35.7479 29.5616 35.725 29.4933Z" fill="#FAB383"/>
<path d="M37.0383 30.1535C37.1425 30.4523 37.2467 31.1402 37.08 31.4181C36.9132 31.696 36.399 32.4603 36.2045 32.6549C36.0099 32.8495 35.8571 32.7661 35.9821 32.5576C36.1072 32.3492 36.274 32.0712 36.274 31.974C36.274 31.8767 36.2601 31.7655 36.4268 31.4459C36.5936 31.1263 36.8854 30.0562 36.9132 29.9728C36.941 29.8895 37.0105 30.0701 37.0383 30.1535Z" fill="#FAB383"/>
<path d="M33.4528 32.7244C33.3694 32.4743 33.3208 32.1129 33.1888 31.9045C33.293 31.5987 33.6613 30.7788 34.2866 30.5287C34.3025 30.5247 34.3174 30.5175 34.3304 30.5075C34.3434 30.4975 34.3541 30.4849 34.3619 30.4706C34.3698 30.4562 34.3745 30.4404 34.3759 30.424C34.3773 30.4077 34.3753 30.3913 34.37 30.3758C34.3422 30.3202 34.4534 30.2785 34.509 30.4731C34.5646 30.6676 34.6619 31.2235 34.6619 31.2235C34.6896 31.3486 34.6341 31.4459 34.6063 31.6126C34.5785 31.7794 34.509 32.1546 34.5507 32.3492C34.5924 32.5437 34.6619 32.6827 35.051 32.5993C35.2455 32.5576 35.2316 32.502 35.2872 32.3353C35.3428 32.1685 35.4957 31.696 35.5513 31.432C35.6069 31.1679 35.5582 30.5217 35.5026 30.355C35.447 30.1882 35.5235 29.6254 35.4818 29.5142C35.4401 29.403 35.4123 29.2362 35.0649 29.1251C34.7174 29.0139 34.6202 28.9861 34.3839 29.2224C34.1477 29.4586 34.0643 29.5559 33.9531 29.6671C33.8419 29.7782 33.564 29.681 33.8002 29.4586C34.0365 29.2362 34.2588 29.0139 34.3283 28.9444L34.2588 28.7637H34.1338C33.7961 29.0919 33.3759 29.3224 32.9178 29.4308C32.7927 29.4586 32.5565 29.4725 32.7232 29.6948C32.7649 29.7504 32.7788 29.9033 32.8761 29.8477C32.9734 29.7921 33.1262 29.542 33.2652 29.6532C33.4042 29.7643 33.2444 30.0284 33.0706 30.1535C32.9197 30.2694 32.7619 30.3761 32.5981 30.4731C32.4731 30.5426 32.4036 30.6121 32.4175 30.8344C32.4314 31.0568 32.4453 31.4598 32.3202 31.7655C32.1951 32.0712 32.2646 32.1546 32.3758 32.3631C32.487 32.5715 32.6676 32.7522 32.7232 33.0857C32.7788 33.4193 32.8066 33.5026 33.029 33.4748C33.1124 33.4698 33.1931 33.4427 33.2627 33.3963C33.3322 33.3499 33.3883 33.2859 33.425 33.2108L33.4528 32.7244Z" fill="#FAB383"/>
<path d="M33.5292 33.3636C33.4389 33.5304 33.2652 33.7945 33.2652 34.0376C33.2652 34.2808 33.029 34.524 33.0567 34.6352C33.0845 34.7464 33.3972 35.0382 33.5779 35.344C33.8611 35.8028 34.0059 36.3336 33.9948 36.8726C33.9948 37.637 33.7446 38.6792 33.7169 38.8182C33.6891 38.9572 33.6196 39.0683 33.828 39.2629C34.0365 39.4575 34.37 39.8257 34.4951 40.6456C34.6202 41.4656 34.7035 41.8964 34.7591 41.9381C34.8147 41.9798 34.8008 42.0492 34.8008 42.2021C34.8008 42.355 34.9398 43.2305 35.0371 43.3972C35.1343 43.564 35.1204 42.4523 35.1065 42.1326C35.0926 41.813 35.1204 40.2843 35.176 40.062C35.2316 39.8396 35.2872 39.5825 35.0926 39.3046C34.8981 39.0267 34.5646 38.5403 34.8147 37.7342C35.0649 36.9282 35.4679 36.9421 35.3428 36.6225C35.2177 36.3029 34.9954 36.0805 34.8286 35.8998C34.6618 35.7192 34.7939 35.2884 34.7869 35.1077C34.773 34.7742 34.509 34.7186 34.4812 34.3434C34.4534 33.9682 34.4256 33.6555 34.7035 33.2803C34.9815 32.905 34.6063 32.9189 34.4812 32.6827C34.3561 32.4464 34.2866 32.1338 34.3978 31.6404C34.4534 31.3903 34.4256 31.3208 34.3561 31.293C34.2866 31.2652 33.9948 31.2096 33.9948 31.2096L33.564 32.0712C33.63 32.2587 33.6629 32.4562 33.6613 32.6549L33.5292 33.3636Z" fill="#A73832"/>
<path d="M29.513 16.4372C29.1725 16.8888 28.6375 18.0492 28.3873 18.7719C28.1372 19.4945 27.5674 21.2177 27.9704 22.3642C28.3734 23.5107 29.1655 22.7812 29.3462 22.3503C29.5269 21.9195 29.8048 21.1761 29.8882 20.9815C29.9716 20.7869 30.0133 20.6758 30.1661 21.1344C30.326 21.6795 30.4513 22.2342 30.5413 22.7951C30.5413 22.8923 30.3885 23.1703 30.2217 23.6011C30.0549 24.0319 29.9577 24.3376 30.1244 24.6017C30.2912 24.8657 30.9443 25.9914 31.1528 26.4778C31.2779 26.7696 31.389 26.8252 31.7226 26.7418C32.1902 26.6119 32.6496 26.4541 33.0984 26.2693C33.3416 26.1581 33.2234 25.9636 33.1539 25.7273C33.0497 25.366 32.6259 23.3648 32.6259 23.1008C32.6259 22.8367 32.7023 22.4893 32.3479 22.8784C32.2229 23.0174 32.0561 22.8784 32.0978 22.6839C32.1395 22.4893 32.5564 19.7725 32.5842 19.4389C32.3479 18.9247 31.6531 17.2988 31.4585 17.007C31.264 16.7151 31.1945 16.7012 30.9027 16.8541C30.6108 17.007 29.9577 17.2363 29.7214 16.6873C29.6797 16.59 29.6102 16.3677 29.777 16.3399L29.6519 16.2913C29.6025 16.3368 29.5561 16.3856 29.513 16.4372Z" fill="white"/>
<path d="M33.1541 26.436C32.897 26.5889 32.0146 26.9641 31.6532 27.0197C31.2919 27.0753 31.3753 27.1726 31.4448 27.4505C31.5143 27.7284 31.7227 28.5692 31.8339 28.861C31.9451 29.1529 32.0979 29.1459 32.3898 29.139C32.8345 29.1251 33.5919 28.9305 34.1338 28.4302C33.981 28.2496 33.71 27.381 33.6336 27.0058C33.5571 26.6306 33.5432 26.2137 33.1541 26.436Z" fill="white"/>
<path d="M25.1841 18.4105C25.1536 18.4769 25.1046 18.5332 25.043 18.5726C24.9814 18.612 24.9098 18.6329 24.8367 18.6329C24.6144 18.6329 24.4337 18.5634 24.2947 18.758C24.1558 18.9525 23.3914 19.8836 23.2247 20.4534C23.3914 20.8008 23.6138 21.4262 23.7806 21.8709C24.3225 21.4123 26.0527 19.7238 26.3793 19.3972C26.5044 19.2721 26.5183 19.161 26.3376 19.0359C26.1569 18.9108 25.4899 18.4939 25.3787 18.4244C25.2675 18.3549 25.2119 18.3549 25.1841 18.4105Z" fill="white"/>
<path d="M20.7997 20.8564C20.6954 21.2872 20.48 22.0376 20.1326 22.6283C20.2716 22.8506 20.3827 23.0452 20.5495 23.1147C20.9386 22.8367 21.6821 22.1488 21.8906 21.8987C22.099 21.6485 22.3631 21.2733 22.3631 21.1899C22.3631 21.1065 22.2658 21.0788 22.1407 21.1065C22.0156 21.1343 21.4945 20.9328 20.9942 20.8286C20.8552 20.8008 20.8135 20.8008 20.7997 20.8564Z" fill="white"/>
<path d="M20.4939 20.4395C20.341 20.4117 19.8129 19.8419 19.6323 19.5362C19.4516 19.2305 19.4238 19.2583 19.3543 19.4806C19.2237 19.8161 19.0509 20.1337 18.8401 20.4256C18.6595 20.6618 18.187 21.2733 18.0619 21.4123C17.9368 21.5512 18.0619 21.6068 18.1731 21.718C18.2843 21.8292 18.854 22.531 18.9791 22.6838C19.1042 22.8367 19.2431 23.1146 19.5767 22.8089C19.9926 22.4094 20.3071 21.9162 20.4939 21.3706C20.6745 20.8008 20.6884 20.502 20.8413 20.5368V20.4186L20.7996 20.3492L20.7162 20.2797C20.7277 20.3029 20.7325 20.3288 20.7301 20.3546C20.7276 20.3804 20.718 20.405 20.7023 20.4256C20.6745 20.4812 20.5634 20.4534 20.4939 20.4395Z" fill="white"/>
<path d="M29.0127 7.64042C28.6374 8.08512 27.887 8.47424 26.6155 8.79387C25.3439 9.1135 24.1418 10.0029 23.6276 10.4407C23.1135 10.8784 21.8141 11.9276 21.1887 12.1917C21.022 12.2612 20.6676 12.4974 21.1193 12.553C21.4528 12.5947 21.696 12.4001 22.4186 11.872C23.1412 11.344 23.7041 10.9618 24.253 10.4268C24.8019 9.89172 25.6983 9.44702 26.6988 9.16908C27.6994 8.89114 29.0196 8.45339 29.4018 8.04343C29.5824 7.84887 29.5963 7.7516 29.4296 7.58483C29.2628 7.41807 29.1655 7.45976 29.0127 7.64042Z" fill="white"/>
<path d="M22.6272 12.0179C22.516 12.0735 22.4743 12.143 22.3492 12.546C22.2241 12.949 22.238 13.1853 22.3423 13.2826C22.4116 13.3362 22.4979 13.3633 22.5855 13.359C22.6272 13.359 22.6688 13.3729 22.6619 13.2548C22.6549 13.1367 22.648 12.6294 23.0232 12.4071C23.0927 12.3654 23.0093 12.0735 22.7661 12.1152C22.6827 12.1291 22.7661 11.9415 22.6272 12.0179Z" fill="white"/>
<path d="M18.326 13.6091C18.5206 13.6091 18.6456 13.6091 18.6317 13.8315C18.6178 14.0539 18.5206 14.3596 18.5067 14.568C18.4928 14.7765 18.4928 14.8599 18.6178 14.8599C18.7429 14.8599 18.4372 14.985 18.2704 15.0127C18.1036 15.0405 17.8465 15.1378 17.7145 14.4291C17.6728 14.2067 17.6867 13.8593 17.6589 13.7759C17.8675 13.6752 18.0946 13.6184 18.326 13.6091Z" fill="white"/>
<path d="M22.0227 14.2067C22.0783 14.4847 22.1547 14.4777 22.0991 14.5194C22.0435 14.5611 21.981 14.4152 21.7586 14.4499L19.6602 14.7695C19.2711 14.8112 19.2502 14.7487 19.6115 14.6723C19.9729 14.5958 21.3 14.3596 21.6961 14.2762L22.0227 14.2067Z" fill="white"/>
<path d="M19.9102 35.4829C20.0908 35.5941 20.5217 35.7192 21.2651 35.4134C22.0086 35.1077 22.8216 35.3162 22.9467 35.8442C23.0717 36.3723 23.0717 37.0533 22.8494 37.3451C22.627 37.637 22.4742 37.5675 22.2518 37.498C21.8488 37.3729 20.9108 36.9421 20.6467 36.817C20.3827 36.692 19.938 36.553 19.6184 36.553C19.4933 36.289 19.5072 35.8303 19.5906 35.6636C19.6739 35.4968 19.6739 35.3301 19.7434 35.3717L19.9102 35.4829Z" fill="white"/>
<path d="M22.8355 37.9426C23.0162 37.9426 23.3427 38.0191 23.447 38.3457C23.5512 38.6722 24.0723 38.6792 24.3086 38.6653C24.5448 38.6514 24.5032 38.7765 24.4893 38.9154C24.4754 39.0544 24.4337 39.4713 24.4337 39.6381C24.4408 39.9287 24.464 40.2187 24.5031 40.5067C24.5309 40.6179 24.4337 40.6735 24.3086 40.729C24.1835 40.7846 23.7249 40.9236 23.4331 40.7151C23.2802 40.604 23.0996 40.4511 23.2802 40.4372C23.4609 40.4233 23.0579 38.846 22.9467 38.568C22.8355 38.2901 22.5159 37.9426 22.8355 37.9426Z" fill="white"/>
<path d="M18.0481 34.663C18.1245 34.6838 18.1593 34.7603 18.2149 34.8576C18.2704 34.9548 18.2913 35.0382 18.201 35.1355C18.1106 35.2328 17.8674 36.0666 17.8952 36.6086C17.798 36.5808 17.5895 36.5391 17.4783 36.5669C17.4366 36.2611 17.4644 35.3023 17.6034 34.9965C17.7424 34.6908 17.8813 34.6074 18.0481 34.663Z" fill="white"/>
<path d="M18.0759 43.1471C18.4234 43.5362 19.0765 44.1338 19.5629 44.3422C20.0493 44.5507 20.3689 44.6202 20.7997 44.5785C21.2305 44.5368 21.0777 44.6897 20.7997 44.7314C20.5218 44.773 19.8825 44.773 19.4656 44.5507C19.0487 44.3283 18.3886 43.9184 17.9648 43.3138C17.8675 43.1749 17.9648 43.022 18.0759 43.1471Z" fill="white"/>
<path d="M25.323 42.1743C25.0382 42.2994 24.517 42.5634 24.0168 42.6885C24.0543 42.8294 24.0775 42.9737 24.0862 43.1193C24.392 43.1193 24.9826 42.9039 25.462 42.6051C25.5732 42.5356 25.6149 42.4522 25.5732 42.355C25.5315 42.2577 25.4759 42.1048 25.323 42.1743Z" fill="white"/>
<path d="M22.0296 41.0347C21.9601 40.9652 22.3562 40.8819 22.4396 40.8819C22.5603 40.9678 22.6742 41.063 22.7801 41.1668C22.8217 41.2084 22.8009 41.2362 22.7592 41.264C22.6323 41.3144 22.499 41.3471 22.3631 41.3613C22.2381 41.2501 22.0644 41.0695 22.0296 41.0347Z" fill="white"/>
<path d="M22.7662 35.2467C22.655 35.1633 22.6689 35.1216 22.7245 35.0382C22.7651 34.9694 22.8224 34.912 22.8912 34.8714C22.9468 34.8437 23.0302 34.8298 23.1275 34.9687C23.2248 35.1077 23.7528 35.9832 23.864 36.2195C23.9752 36.4557 24.1142 36.3028 24.0586 36.1639C23.9969 36.0121 23.9273 35.8637 23.8501 35.7192C24.003 35.2467 24.1559 34.524 24.1559 34.0515C24.1559 33.579 24.0447 33.0996 23.9613 32.9328C24.3365 32.9467 25.1564 32.9328 25.4761 32.8355C25.7957 32.7382 25.5317 32.7104 25.4066 32.7243C24.8451 32.741 24.2832 32.7178 23.7251 32.6549C22.5855 32.5159 21.4599 31.8766 21.1055 31.4319C21.0499 31.3624 20.7164 31.3902 20.9943 31.6126C21.2722 31.8349 21.9879 32.502 23.0302 32.6827C23.2665 32.7243 23.6417 32.7938 23.6973 33.6555C23.7293 34.158 23.72 34.6623 23.6695 35.1633C23.6695 35.2467 23.6139 35.2745 23.5444 35.1772C23.4749 35.0799 23.2387 34.7603 23.1136 34.6908C22.9885 34.6213 22.9051 34.6352 22.794 34.7186C22.6684 34.8191 22.5521 34.9307 22.4465 35.0521L22.7662 35.2467Z" fill="white"/>
<path d="M20.5218 37.9635C20.4175 37.9635 19.7922 38.0122 19.6602 37.9635C19.5281 37.9149 19.4447 37.762 19.5351 37.6995C19.6254 37.6369 19.8617 37.7203 20.0771 37.7203C20.2925 37.7203 20.5218 37.6647 20.5774 37.6995C20.6329 37.7342 20.7094 37.7203 20.7094 37.9844L20.5218 37.9635Z" fill="white"/>
<path d="M19.007 41.7852C18.8263 41.674 18.6179 41.1598 18.5762 40.1315C18.5623 39.7771 18.7012 39.1934 18.8124 38.9155C18.9236 38.6375 18.7429 38.7487 18.7013 38.846C18.6008 39.0972 18.5263 39.3579 18.4789 39.6242C18.3999 40.0724 18.3999 40.531 18.4789 40.9792C18.5901 41.6045 18.6457 41.7991 18.6735 41.9103L19.007 41.7852Z" fill="white"/>
<path d="M25.3718 8.5576C25.5594 8.57845 25.7678 8.56455 25.8165 8.43253C25.8651 8.30051 25.8234 8.21713 25.7609 8.18934C25.6984 8.16154 25.6706 8.16849 25.6984 8.04342C25.7261 7.91835 25.8165 7.93224 25.8095 7.73769C25.8026 7.54313 25.6567 7.53618 25.5246 7.57787C25.3926 7.61956 25.344 7.6821 25.2189 7.84886C25.0938 8.01562 25.1494 7.73769 25.1703 7.68905C25.1911 7.64041 25.2397 7.32078 25.066 7.26519L24.7881 7.41111C24.7561 7.47648 24.7283 7.54378 24.7047 7.61261C24.6352 7.79327 24.5518 7.66125 24.4893 7.57092C24.3017 7.67515 24.1419 7.76548 24.0168 7.84886L23.9751 7.87666C23.989 7.98783 24.121 8.1268 24.1975 8.17544C24.2739 8.22408 24.2322 8.3561 24.121 8.3561C24.0098 8.3561 23.8709 8.27967 23.7319 8.44643C23.5929 8.61319 23.6833 8.77301 23.8153 8.77301C23.88 8.76592 23.9452 8.78239 23.9987 8.81939C24.0523 8.8564 24.0908 8.91146 24.1071 8.97451C24.1558 9.12738 24.1975 9.18992 24.3781 9.21076C24.5588 9.23161 24.663 9.09264 24.7117 9.00925C24.7603 8.92587 24.8228 8.80775 24.8993 8.83554C24.9757 8.86334 24.9965 8.99536 24.9618 9.12738C25.0938 9.05095 25.2258 8.97451 25.3718 8.90503C25.3508 8.80029 25.3002 8.70379 25.2258 8.62709C25.1633 8.56455 25.1842 8.53676 25.3718 8.5576Z" fill="#008348"/>
<path d="M26.9212 6.54256L26.7197 6.5912C26.7544 6.75102 26.817 6.95947 26.7822 6.98727C26.7475 7.01506 26.5807 7.0498 26.4556 7.08455C26.3306 7.11929 26.0318 7.39723 26.1847 7.59873C26.2897 7.72253 26.3678 7.8669 26.414 8.02259C26.4417 8.12682 26.6919 8.25189 26.8656 8.04344C27.0393 7.83498 27.1713 7.60568 27.22 7.7516C27.2686 7.89752 27.2408 8.16851 27.22 8.32833L27.3242 8.30748C27.3937 7.52925 27.2061 6.97337 26.9212 6.54256Z" fill="#008348"/>
<path d="M23.1065 10.2739C23.0093 10.2044 22.9815 10.0793 23.0996 10.0446C23.2944 9.99805 23.485 9.9353 23.6694 9.85698C23.9612 9.73191 23.8083 9.51651 23.6763 9.46092C23.5443 9.40533 23.5304 9.28026 23.5443 9.14824C23.5582 9.01622 23.5234 8.82166 23.2664 8.91894C23.0093 9.01622 23.0996 9.26636 23.0232 9.34974C22.9467 9.43313 22.905 9.40533 22.9189 9.28026C22.9328 9.15519 22.8217 9.0718 22.7591 9.04401C22.6777 9.0177 22.5939 8.99909 22.509 8.98842C22.2557 9.21506 22.0231 9.46388 21.8141 9.73191C21.8564 9.81599 21.9246 9.88421 22.0087 9.92647C22.0571 9.93489 22.1008 9.96073 22.1315 9.99912C22.1622 10.0375 22.1779 10.0858 22.1754 10.1349C22.1685 10.253 21.9045 10.2669 21.7307 10.2669C21.8489 10.6005 21.9739 10.8367 22.1477 11.0243L22.3144 10.9687C22.5298 10.8784 22.5993 10.5518 22.634 10.4546C22.6688 10.3573 22.7591 10.3781 22.8217 10.5032C22.8579 10.5795 22.8791 10.6621 22.8842 10.7464L23.2455 10.399C23.202 10.3542 23.1556 10.3124 23.1065 10.2739Z" fill="#008348"/>
<path d="M26.7962 18.5912C26.8379 18.5843 26.7267 18.0909 26.817 18.0701C26.9073 18.0492 26.949 18.3411 27.1436 18.3063C27.3381 18.2716 27.3868 18.077 27.359 17.8616C27.3312 17.6462 27.4632 17.7643 27.5605 17.6115C27.6578 17.4586 27.4424 17.2501 27.2061 17.3961C26.9699 17.542 27.0116 17.3474 27.1366 17.271C27.2617 17.1946 27.1714 16.9166 26.9073 17.007C26.6433 17.0973 26.6225 16.9444 26.5321 16.8958L26.3237 16.9792C26.3088 17.0435 26.3112 17.1106 26.3306 17.1737C26.3515 17.264 26.3932 17.4933 26.2472 17.3961C26.1013 17.2988 25.9485 17.264 25.8998 17.4239C25.8512 17.5837 25.9485 17.5976 25.9346 17.6948C25.9207 17.7921 25.6705 17.813 25.7886 18.0145C25.9068 18.216 26.0805 18.1048 26.1986 18.0284C26.3167 17.9519 26.4279 18.0423 26.3862 18.1465C26.3315 18.3201 26.2988 18.4998 26.2889 18.6815L26.4626 18.7997C26.5321 18.7302 26.6641 18.612 26.7962 18.5912Z" fill="#008348"/>
<path d="M23.0093 18.1118C23.1135 18.084 23.315 18.2994 23.4957 18.1743C23.6763 18.0492 23.4192 17.9242 23.454 17.8199C23.4887 17.7157 23.5721 17.5142 23.447 17.4169C23.322 17.3196 23.1899 17.41 23.0579 17.5559C22.9259 17.7018 22.9745 17.4239 23.044 17.3057C23.1135 17.1876 23.044 17.0486 22.8911 17.0208C22.7383 16.9931 22.6896 17.2085 22.5854 17.1112C22.4812 17.0139 22.1616 17.0208 22.2241 17.2363C22.2866 17.4517 22.3561 17.5211 22.2241 17.5489C22.0921 17.5767 21.967 17.2293 21.8141 17.5072C21.6613 17.7852 21.9045 17.8686 21.8836 18.077C21.8628 18.2855 21.9462 18.5078 22.0712 18.5287C22.1963 18.5495 22.3283 18.4106 22.3978 18.3272C22.4673 18.2438 22.6341 18.1813 22.6132 18.3411C22.5924 18.5009 22.5924 18.6815 22.5854 18.8136C22.8066 18.6992 23.0339 18.5971 23.2664 18.5078H23.2803C23.1899 18.4708 23.1037 18.4242 23.0232 18.3689C22.8842 18.2646 22.905 18.1396 23.0093 18.1118Z" fill="#008348"/>
<path d="M19.9241 24.4488C20.2437 24.3515 20.2576 24.6016 20.2159 24.8101C20.1742 25.0185 20.1742 25.4632 20.1881 25.6856L20.7162 25.7134C20.6884 25.5744 20.7162 25.1714 20.7301 24.9351C20.744 24.6989 20.9803 24.3376 21.0636 24.6989C21.147 25.0602 21.5083 25.0741 21.7654 24.9212C22.0225 24.7684 22.1962 24.4349 22.4603 23.9624C22.7243 23.4899 22.3769 23.3648 22.1684 23.3926C21.96 23.4204 21.7515 23.4482 22.224 23.0591C22.6965 22.6699 21.9183 22.5101 21.5778 22.4476C21.0219 23.0313 20.334 23.6983 19.7156 24.2264L19.4933 24.421C19.5595 24.4545 19.6318 24.4742 19.7058 24.479C19.7799 24.4838 19.8541 24.4735 19.9241 24.4488Z" fill="#008348"/>
<path d="M19.3683 27.9577C19.6323 27.8674 19.7991 28.4441 20.1882 28.1106C20.5773 27.7771 20.2994 27.4922 20.2855 27.2142C20.2716 26.9363 20.5912 26.8251 20.4939 26.4777C20.348 25.9496 19.8547 26.4499 19.5489 26.7418C19.2432 27.0336 19.2293 26.7973 19.5351 26.3248C19.8408 25.8523 19.3405 25.6995 19.0348 25.8246C18.9199 25.8695 18.7946 25.8803 18.6738 25.8557C18.5529 25.831 18.4418 25.772 18.3538 25.6856C18.2473 25.8611 18.1499 26.042 18.062 26.2276C17.7979 26.7695 17.9786 26.7834 18.1732 26.7834C18.3677 26.7834 18.7846 27.6034 18.8402 27.7562C18.9462 27.9423 19.0645 28.1211 19.1946 28.2913C19.1807 28.1592 19.2085 28.0064 19.3683 27.9577Z" fill="#008348"/>
<path d="M26.9768 22.4754C26.7267 22.4198 26.407 22.3781 26.3653 22.8923C26.3514 23.0869 26.546 23.2397 26.7267 23.3092C26.9073 23.3787 26.8795 23.5038 26.685 23.4343C26.4904 23.3648 26.3375 23.3231 26.1986 23.7261C26.0596 24.1291 26.3097 24.1847 26.4348 24.2125C26.5599 24.2403 26.6572 24.2681 26.6294 24.4349C26.6016 24.6016 26.5182 25.088 26.8378 25.1297C27.1575 25.1714 27.4354 24.7823 27.5396 24.5877C27.6439 24.3932 27.7411 24.1986 27.7759 24.421C27.8106 24.6433 27.762 24.7545 27.6508 25.0046C27.5396 25.2548 27.5396 25.366 27.7064 25.3521C27.8732 25.3382 28.1511 25.3521 28.2345 25.1575C28.3179 24.9629 28.4429 24.5877 28.4568 24.3237C28.4707 24.0596 28.6097 24.1361 28.7139 24.15C28.7487 23.8651 28.7904 23.5871 28.832 23.3509C28.2831 23.4273 27.8176 22.7603 27.6578 22.1836C27.4701 22.3851 27.1992 22.524 26.9768 22.4754Z" fill="#008348"/>
<path d="M24.3781 22.3781C24.2808 22.5449 24.0029 23.0174 24.1279 23.1702C24.253 23.3231 24.392 23.0174 24.5031 23.1285C24.6143 23.2397 24.8645 23.3648 24.8645 23.2814C24.8766 23.1225 24.8999 22.9646 24.9339 22.8089C24.9756 22.5866 25.0729 22.4615 25.1702 22.6422C25.2675 22.8228 25.4064 22.9757 25.7539 22.8923C26.1013 22.8089 26.0596 22.4476 25.9901 22.1836C25.9206 21.9195 26.1708 21.7875 26.2959 21.718C26.4209 21.6485 26.7406 21.3984 26.5043 21.176C26.2681 20.9537 26.0596 21.2733 25.8512 21.315C25.6427 21.3567 25.7261 21.176 26.1569 20.8425C26.5877 20.509 26.2194 20.2658 25.9901 20.1685C25.3925 20.773 24.3294 21.7458 24.1001 21.9682C24.0151 22.0567 23.9405 22.1546 23.8778 22.26C24.4337 21.9959 24.4684 22.2183 24.3781 22.3781Z" fill="#008348"/>
<path d="M27.8315 27.9716C28.0122 28.1384 28.443 28.3746 28.7487 28.0967C29.0544 27.8187 28.6792 27.5061 28.6375 27.2837C28.5958 27.0614 28.8599 26.9224 28.7209 26.5611C28.4777 25.9357 28.1233 26.6862 27.9149 26.8946C27.7064 27.1031 27.7412 26.7487 27.9288 26.5611C28.1164 26.3735 28.4569 26.1998 28.2067 25.9079C27.9566 25.6161 27.5953 25.7829 27.4146 25.9079C27.2339 26.033 27.088 26.1859 26.8101 26.1025C26.5321 26.0191 26.2959 25.9913 26.1291 26.3943C25.9624 26.7973 26.282 26.6862 26.546 26.978C26.8101 27.2698 26.6433 27.2837 26.4349 27.2142C26.2264 27.1448 26.1291 26.8807 25.8234 26.9224C25.5177 26.9641 25.5177 27.4505 25.6149 27.5756C25.7122 27.7006 25.9068 27.7701 25.7678 28.0064C25.6288 28.2426 25.8373 28.5275 26.0874 28.6387C26.3376 28.7498 26.7128 28.3051 26.8518 28.1245C26.9907 27.9438 27.1297 27.9855 27.1019 28.1245C27.0558 28.354 27.0233 28.586 27.0046 28.8193L27.63 28.6317C27.6218 28.4275 27.5915 28.2249 27.5397 28.0272C27.4563 27.7145 27.6508 27.7979 27.8315 27.9716Z" fill="#008348"/>
<path d="M24.2114 29.4586C23.8779 29.5559 23.8223 29.403 23.5999 29.3197C23.3776 29.2363 23.3637 29.4308 23.5165 29.6671C23.6694 29.9033 23.8362 30.1257 23.6555 30.1257C23.4749 30.1257 23.3359 30.1535 23.3081 30.2924C23.2803 30.4314 22.9885 30.2646 22.919 29.9728C22.8495 29.681 22.78 29.1251 22.6271 29.403C22.4743 29.681 22.3353 30.1396 21.9462 29.9311C21.5571 29.7227 21.8211 29.4447 21.6266 29.2502C21.432 29.0556 21.2444 28.8055 21.439 28.4581C21.6335 28.1106 21.8072 28.4025 21.9879 28.4025C22.1685 28.4025 22.1963 28.2357 22.0296 28.1106C21.8628 27.9856 21.6544 27.3811 22.4187 27.4227C22.7275 27.4351 23.0314 27.3419 23.2803 27.1587C23.5304 26.978 24.1836 27.0753 23.9196 27.5339C23.6555 27.9925 23.7389 28.0967 23.8918 27.923C24.0446 27.7493 24.2392 27.4505 24.531 27.5339C24.8229 27.6173 24.6978 27.8396 24.5171 28.0967C24.3365 28.3538 24.4476 28.5136 24.5866 28.6109C24.7256 28.7082 24.9827 29.2293 24.2114 29.4586Z" fill="#008348"/>
<path d="M25.6287 26.172C25.4419 26.1752 25.2553 26.1565 25.0729 26.1164C25.0451 26.3804 24.788 26.7626 24.5309 27.1448C24.5031 27.1865 24.3502 27.1865 24.2807 27.1309C24.2113 27.0753 24.0167 26.978 24.1696 26.8112C24.3224 26.6445 24.5726 26.2971 24.5309 26.1442C24.4892 25.9913 24.378 25.8524 24.2113 26.0608C24.0445 26.2693 23.7805 26.7001 23.4886 26.714C23.1968 26.7279 22.9049 26.4638 23.0439 26.1998C23.1829 25.9357 23.2246 25.7968 23.03 25.5605C22.8355 25.3243 22.9049 25.0185 23.3219 24.8379C23.4469 24.7823 23.6693 24.8379 23.8221 24.963C23.975 25.088 24.0584 24.963 23.8499 24.8379C23.6415 24.7128 23.4747 24.5599 23.4469 24.282C23.4191 24.0041 23.5859 23.74 23.9472 23.8929C24.3085 24.0458 24.5309 23.9207 24.6837 23.7956C24.8366 23.6705 25.4898 23.5107 25.3925 24.0874C25.323 24.5044 25.1284 24.5182 25.0729 24.7406C25.0173 24.963 25.184 24.824 25.2813 24.6572C25.3786 24.4905 25.6009 23.8095 26.0595 24.3237C26.1707 24.4488 26.129 24.6572 25.99 24.8935C25.8511 25.1297 25.9623 25.2687 26.0456 25.3938C26.129 25.5188 26.3236 26.1372 25.6287 26.172Z" fill="#008348"/>
<path d="M37.1077 15.11L37.5316 14.8043L38.4488 16.1731L38.9907 15.791L38.0457 14.4499L38.4557 14.1581L39.4632 15.5756L40.0122 15.1865L38.5113 13.088L36.0446 14.8321L37.4065 16.7707L37.9485 16.3816L37.1077 15.11Z" fill="white"/>
<path d="M38.8865 19.8558L39.6925 19.4876L39.1366 18.2785L41.0266 17.4933L40.6861 16.736L38.0179 17.8964L38.8865 19.8558Z" fill="white"/>
<path d="M39.3659 21.1343L39.4492 21.8778L41.2419 21.6694L41.3114 22.4407L42.1105 22.3851L41.8882 19.7794L41.0891 19.8419L41.1586 20.9259L39.3659 21.1343Z" fill="white"/>
<path d="M39.4563 23.6705L39.4702 24.5599L42.1037 24.553L42.0898 23.6636L39.4563 23.6705Z" fill="white"/>
<path d="M40.6932 25.8107C40.2554 25.7273 39.7343 25.7968 39.366 26.0747C38.9977 26.3526 38.8866 26.575 38.7962 27.0266C38.7553 27.3628 38.7861 27.7038 38.8866 28.0272L39.5814 27.791C39.5009 27.5846 39.4911 27.3573 39.5536 27.1448C39.6995 26.6653 40.0817 26.4569 40.5542 26.5263C41.0267 26.5958 41.3394 27.0544 41.249 27.6033C41.2319 27.7199 41.1878 27.8308 41.1202 27.9273C41.0527 28.0238 40.9635 28.1032 40.8599 28.1592L41.2907 28.6734C41.6382 28.458 41.9091 28.0411 41.9647 27.7423C42.062 27.242 41.9439 26.8946 41.7076 26.4847C41.4714 26.0747 41.1031 25.8871 40.6932 25.8107Z" fill="white"/>
<path d="M40.2137 29.4864C39.8454 29.3961 39.3451 29.7991 39.1019 30.0284C38.9629 30.1604 38.4765 30.6537 38.2542 30.5773C38.0318 30.5009 38.1152 30.2021 38.1847 30.0006C38.2542 29.7991 38.4348 29.4656 38.6641 29.3057L38.2333 29.1112C38.0179 29.2918 37.7817 29.5767 37.6844 29.8616C37.5871 30.1465 37.5315 30.5843 37.5732 30.8275C37.6149 31.0707 37.7469 31.3486 38.1082 31.3208C38.4696 31.293 39.081 30.8414 39.4841 30.4592C39.6856 30.2716 39.8593 30.2507 39.9496 30.2994C40.0399 30.348 40.0886 30.6329 40.033 30.7858C39.9774 30.9386 39.8662 31.3208 39.6995 31.4389L40.2901 31.835C40.5333 31.5918 40.6584 31.2235 40.7278 30.883C40.9016 30.0562 40.4569 29.5489 40.2137 29.4864Z" fill="white"/>
<path d="M36.9062 12.0179C36.8575 11.6149 36.6352 11.1424 36.4059 10.9479C36.0515 10.6422 35.6277 10.5588 35.183 10.6144C34.7382 10.6699 34.3144 10.9618 34.0712 11.3023C33.828 11.6427 33.6682 12.1708 33.7724 12.6225C33.8766 13.0741 34.0295 13.2687 34.4047 13.5327C34.6479 13.6995 35.0092 13.8176 35.3497 13.8662L35.4192 13.1366C35.1981 13.1203 34.9884 13.0325 34.8216 12.8865C34.6545 12.7467 34.5455 12.5496 34.516 12.3337C34.4864 12.1179 34.5384 11.8987 34.6618 11.7192C34.9606 11.3092 35.4817 11.2258 35.9403 11.5316C36.128 11.6566 36.1974 11.8512 36.2322 12.1361L36.9062 12.0179Z" fill="white"/>
<path d="M9.9947 27.1795C10.0086 26.985 10.0016 26.6167 10.2171 26.575C10.4325 26.5333 10.5645 26.7279 10.6062 26.9363C10.6479 27.1448 10.7521 27.4783 10.634 27.7284L11.1898 27.6729C11.2871 27.4158 11.2593 27.0683 11.1898 26.7695C11.1204 26.4708 11.0092 26.1859 10.759 25.9635C10.5089 25.7412 10.3352 25.6925 9.9808 25.762C9.7654 25.8107 9.37629 26.1928 9.36239 26.9711C9.36239 27.117 9.32765 27.4019 9.19563 27.4088C9.06361 27.4158 8.90379 27.2143 8.86905 27.0544C8.83431 26.8946 8.88295 26.3596 8.96633 26.172H8.38266C8.28646 26.5465 8.26989 26.9371 8.33402 27.3185C8.49383 28.0689 8.95243 28.3191 9.32765 28.2774C9.70287 28.2357 9.93216 27.8188 9.9947 27.1795Z" fill="white"/>
<path d="M8.82042 23.9971L10.898 23.9693L10.8841 23.3162L8.80652 23.344L8.79958 22.4546L8.13252 22.4615L8.16032 24.9421L8.82737 24.9352L8.82042 23.9971Z" fill="white"/>
<path d="M12.5726 17.4725L10.9675 16.5484V16.5414L13.0938 16.5067L13.601 15.7215L10.9814 14.2137L10.5854 14.8251L12.3711 15.9508L9.93917 16.0203L9.59869 16.6734L12.1766 18.1743L12.5726 17.4725Z" fill="white"/>
<path d="M9.97387 21.4331C10.2913 21.4331 10.6017 21.339 10.8656 21.1626C11.1296 20.9862 11.3353 20.7356 11.4568 20.4423C11.5783 20.149 11.6101 19.8262 11.5481 19.5149C11.4862 19.2035 11.3333 18.9175 11.1088 18.6931C10.8844 18.4686 10.5984 18.3157 10.287 18.2538C9.97565 18.1918 9.65292 18.2236 9.35963 18.3451C9.06634 18.4666 8.81565 18.6723 8.63928 18.9363C8.46291 19.2002 8.36877 19.5106 8.36877 19.828C8.36785 20.0391 8.40874 20.2482 8.48908 20.4434C8.56942 20.6385 8.68762 20.8158 8.83685 20.9651C8.98608 21.1143 9.16339 21.2325 9.35854 21.3128C9.5537 21.3932 9.76283 21.434 9.97387 21.4331ZM9.97387 18.9873C10.1402 18.9873 10.3027 19.0366 10.441 19.129C10.5792 19.2213 10.687 19.3527 10.7506 19.5063C10.8143 19.6599 10.8309 19.829 10.7985 19.9921C10.766 20.1551 10.686 20.305 10.5684 20.4225C10.4508 20.5401 10.301 20.6202 10.1379 20.6526C9.97481 20.6851 9.80576 20.6684 9.65213 20.6048C9.4985 20.5412 9.36719 20.4334 9.2748 20.2951C9.18242 20.1569 9.13311 19.9943 9.13311 19.828C9.13311 19.605 9.22169 19.3912 9.37936 19.2335C9.53704 19.0758 9.75089 18.9873 9.97387 18.9873Z" fill="white"/>
<path d="M12.6212 30.4105C12.6226 30.0914 12.5292 29.7791 12.3529 29.513C12.1767 29.247 11.9254 29.0393 11.6309 28.9163C11.3365 28.7932 11.0121 28.7603 10.699 28.8217C10.3858 28.8831 10.0979 29.0361 9.87179 29.2612C9.64565 29.4864 9.49143 29.7736 9.42866 30.0865C9.36589 30.3994 9.39741 30.7239 9.51921 31.0189C9.64102 31.3138 9.84763 31.566 10.1129 31.7434C10.3781 31.9209 10.6901 32.0156 11.0092 32.0156C11.4355 32.0156 11.8445 31.8467 12.1466 31.5459C12.4488 31.2451 12.6194 30.8369 12.6212 30.4105ZM11.0092 31.2443C10.8426 31.2443 10.6798 31.1948 10.5414 31.1021C10.403 31.0095 10.2952 30.8777 10.2318 30.7237C10.1684 30.5697 10.1521 30.4003 10.1851 30.237C10.2181 30.0737 10.2989 29.9239 10.4172 29.8066C10.5355 29.6893 10.6859 29.6098 10.8495 29.5781C11.013 29.5465 11.1823 29.5641 11.3358 29.6288C11.4893 29.6935 11.6201 29.8024 11.7117 29.9416C11.8032 30.0807 11.8513 30.244 11.85 30.4105C11.85 30.5206 11.8282 30.6296 11.7858 30.7312C11.7435 30.8328 11.6815 30.9251 11.6033 31.0026C11.5251 31.0801 11.4324 31.1414 11.3304 31.1829C11.2285 31.2244 11.1193 31.2453 11.0092 31.2443Z" fill="white"/>
<path d="M12.9478 32.245C12.6977 32.4673 12.5796 32.9815 12.8089 33.3359C12.5587 33.2108 12.0445 33.1691 11.8152 33.3776C11.2316 33.8779 11.9334 34.6005 12.5101 35.1772L13.3161 35.9763L15.4493 34.2044L14.5877 33.2039C14.2819 32.8217 13.4481 31.8072 12.9478 32.245ZM13.0451 35.0521C12.8297 34.795 12.1974 34.3017 12.4684 34.0446C12.7394 33.7875 13.3578 34.5727 13.4412 34.67L13.0451 35.0521ZM14.0318 34.1558L13.9762 34.0933C13.7956 33.8779 13.198 33.2455 13.4481 33.0093C13.6983 32.7731 14.2403 33.5235 14.4001 33.718L14.4696 33.8014L14.0318 34.1558Z" fill="white"/>
<path d="M22.4533 40.5623C22.5437 40.5206 22.6687 40.465 22.7243 40.5067C22.7799 40.5484 23.1134 40.7846 23.3219 40.9653C23.5303 41.1459 23.5998 41.2015 23.4331 41.2988C23.2663 41.3961 23.1134 41.4934 23.1412 41.41C23.169 41.3266 23.2107 41.2015 23.0995 41.0904C22.9884 40.9792 22.7104 40.7638 22.5993 40.6734L22.4533 40.5623Z" fill="#BB9753"/>
<path d="M21.6683 40.7915C21.6505 40.8072 21.6363 40.8264 21.6266 40.848C21.6168 40.8696 21.6118 40.8929 21.6118 40.9166C21.6118 40.9403 21.6168 40.9637 21.6266 40.9852C21.6363 41.0068 21.6505 41.026 21.6683 41.0417C21.7516 41.1251 22.2172 41.5142 22.2936 41.5906C22.3347 41.6293 22.3851 41.6566 22.4399 41.67C22.4947 41.6834 22.552 41.6824 22.6063 41.667C22.7314 41.6392 22.4604 41.8199 22.3562 41.8407C22.2981 41.857 22.2368 41.8578 22.1784 41.8432C22.1199 41.8286 22.0662 41.799 22.0226 41.7574L21.1541 40.9444C21.029 40.8263 21.1888 40.8263 21.3 40.8124C21.4112 40.7985 21.5084 40.8054 21.6683 40.7915Z" fill="#BB9753"/>
<path d="M24.7048 7.61262C24.7326 7.54314 24.7534 7.47365 24.7812 7.41112L24.4894 7.57093C24.5519 7.65431 24.6353 7.79328 24.7048 7.61262Z" fill="#BB9753"/>
<path d="M27.2201 7.7516C27.1715 7.60569 27.0394 7.83499 26.8657 8.04344C26.692 8.25189 26.4419 8.12682 26.4141 8.02259C26.3679 7.8669 26.2899 7.72254 26.1848 7.59874C26.0319 7.39723 26.3307 7.11929 26.4558 7.08455C26.5808 7.04981 26.7406 7.02201 26.7823 6.98727C26.824 6.95253 26.7545 6.75102 26.7267 6.59121C26.1587 6.77211 25.6057 6.99747 25.073 7.26521C25.2398 7.32775 25.1911 7.64738 25.1703 7.68907C25.1494 7.73076 25.0939 8.01564 25.2189 7.84888C25.344 7.68212 25.3926 7.61958 25.5247 7.57789C25.6567 7.5362 25.8026 7.54315 25.8096 7.73771C25.8165 7.93226 25.7262 7.91837 25.6984 8.04344C25.6706 8.16851 25.6984 8.16156 25.7609 8.18936C25.8234 8.21715 25.8651 8.30053 25.8165 8.43255C25.7679 8.56457 25.5594 8.57847 25.3718 8.55763C25.1842 8.53678 25.1633 8.56457 25.2259 8.62711C25.2937 8.70831 25.3435 8.80307 25.3718 8.90505C25.8234 8.68965 26.3724 8.50204 27.2201 8.32833C27.2444 8.13686 27.2444 7.94307 27.2201 7.7516Z" fill="#BB9753"/>
<path d="M22.8217 10.5032C22.7591 10.3781 22.6688 10.3503 22.6341 10.4545C22.5993 10.5588 22.5298 10.8784 22.3144 10.9687L22.1477 11.0243C22.2252 11.1074 22.3114 11.1819 22.4048 11.2467L22.8842 10.7464C22.8791 10.6621 22.8579 10.5795 22.8217 10.5032Z" fill="#BB9753"/>
<path d="M24.8992 8.83557C24.8228 8.80778 24.7602 8.9259 24.7116 9.00928C24.663 9.09267 24.5587 9.23164 24.3781 9.21079C24.1974 9.18994 24.1557 9.12741 24.1071 8.97454C24.0908 8.91149 24.0523 8.85642 23.9987 8.81942C23.9451 8.78242 23.88 8.76595 23.8152 8.77303C23.6832 8.77303 23.5929 8.61322 23.7319 8.44646C23.8708 8.27969 24.0098 8.35612 24.121 8.35612C24.2322 8.35612 24.2877 8.238 24.1974 8.17546C24.1071 8.11293 23.9959 7.98785 23.9751 7.87668C23.4602 8.20834 22.9723 8.58008 22.5159 8.98844C22.5991 8.99563 22.681 9.01434 22.7591 9.04403C22.8216 9.07182 22.9328 9.1552 22.9189 9.28027C22.905 9.40535 22.9467 9.43314 23.0231 9.34976C23.0996 9.26638 23.0092 9.01623 23.2663 8.91895C23.5234 8.82167 23.5582 9.01623 23.5443 9.14825C23.5304 9.28027 23.5443 9.40535 23.6763 9.46094C23.8083 9.51652 23.9612 9.73193 23.6693 9.857C23.485 9.93531 23.2944 9.99807 23.0996 10.0446C22.9814 10.0794 23.0092 10.2044 23.1065 10.2739C23.2038 10.3434 23.2038 10.3712 23.2385 10.4059C23.5844 10.0799 23.9562 9.78242 24.3503 9.51652C24.5657 9.37755 24.7602 9.24553 24.9687 9.12741C24.9965 9.00233 25.0104 8.87726 24.8992 8.83557Z" fill="#BB9753"/>
<path d="M22.1755 10.1349C22.178 10.0858 22.1623 10.0375 22.1316 9.99911C22.1009 9.96072 22.0572 9.93488 22.0088 9.92646C21.9532 9.91256 21.8629 9.81528 21.8142 9.7319C21.7514 9.81901 21.6934 9.90947 21.6405 10.0029C21.6653 10.0926 21.6955 10.1808 21.7308 10.2669C21.9045 10.2669 22.1686 10.253 22.1755 10.1349Z" fill="#BB9753"/>
<path d="M28.0537 16.6317C27.5951 16.597 27.0532 16.6943 26.532 16.8888C26.6224 16.9444 26.7196 17.0695 26.9072 17.007C27.0948 16.9444 27.2686 17.1946 27.1365 17.271C27.0045 17.3474 26.9698 17.542 27.206 17.3961C27.4423 17.2501 27.6507 17.4586 27.5604 17.6115C27.4701 17.7643 27.3311 17.6462 27.3589 17.8616C27.3867 18.077 27.345 18.2716 27.1435 18.3063C26.942 18.3411 26.9072 18.0492 26.8169 18.0701C26.7266 18.0909 26.8378 18.5843 26.7961 18.5912C26.7544 18.5981 26.532 18.7302 26.4626 18.7997C26.3931 18.8691 26.4765 18.8066 26.4765 18.8136C27.2477 19.3625 27.4353 19.0637 27.5534 18.7997C27.7328 18.3245 27.8768 17.8368 27.9842 17.3405C28.0259 17.1042 28.0815 16.8541 28.0537 16.6317Z" fill="#BB9753"/>
<path d="M26.3862 18.1465C26.4279 18.0423 26.3168 17.9519 26.1986 18.0284C26.0805 18.1048 25.9068 18.216 25.7887 18.0145C25.6705 17.813 25.9207 17.7921 25.9346 17.6948C25.9485 17.5976 25.8512 17.5837 25.8998 17.4239C25.9485 17.264 26.1222 17.3127 26.2473 17.3961C26.3724 17.4794 26.3515 17.264 26.3307 17.1737C26.3161 17.11 26.3114 17.0443 26.3168 16.9792C26.1659 17.0483 26.0196 17.1272 25.879 17.2154C25.1633 17.6532 25.1424 18.0214 25.3092 18.1604C25.476 18.2994 25.7678 18.3411 26.289 18.6815C26.2982 18.4997 26.3309 18.3199 26.3862 18.1465Z" fill="#BB9753"/>
<path d="M24.1141 17.7296C23.8153 17.5767 23.5304 17.2571 23.3358 16.8819C23.3358 16.8819 23.3497 16.8263 23.2664 16.8263C23.183 16.8263 22.8772 16.7985 22.3631 16.6178C21.8489 16.4372 21.7794 16.5483 21.7099 16.7707C21.6404 16.993 21.5848 17.3961 21.5709 18.0631C21.557 18.7302 21.8489 19.1471 22.0295 19.0776L22.5854 18.8135C22.5924 18.6815 22.5993 18.4522 22.6132 18.341C22.6271 18.2299 22.4673 18.2438 22.3978 18.3271C22.3283 18.4105 22.1963 18.5495 22.0712 18.5286C21.9461 18.5078 21.8628 18.2855 21.8836 18.077C21.9045 17.8685 21.6613 17.7852 21.8141 17.5072C21.967 17.2293 22.0921 17.5767 22.2241 17.5489C22.3561 17.5211 22.2866 17.4516 22.2241 17.2362C22.1615 17.0208 22.4186 16.9514 22.5854 17.1112C22.7522 17.271 22.7383 16.993 22.8911 17.0208C23.044 17.0486 23.1343 17.1529 23.044 17.3057C22.9537 17.4586 22.9259 17.7018 23.0579 17.5559C23.1899 17.41 23.3219 17.3196 23.447 17.4169C23.5721 17.5142 23.4887 17.7157 23.454 17.8199C23.4192 17.9241 23.6763 18.0492 23.4956 18.1743C23.315 18.2993 23.1135 18.0839 23.0093 18.1117C22.905 18.1395 22.8842 18.2646 23.0232 18.3619C23.1036 18.4172 23.1898 18.4638 23.2802 18.5009C23.5364 18.4062 23.783 18.2875 24.0168 18.1465L24.1974 18.1604C24.2113 17.9241 24.1974 17.7713 24.1141 17.7296Z" fill="#BB9753"/>
<path d="M23.0857 20.7869C22.9745 20.5368 22.9328 20.7313 22.6271 21.2177C22.4673 21.4679 22.0712 21.9265 21.5779 22.4476C21.9253 22.5171 22.6618 22.6977 22.2241 23.0591C21.7863 23.4204 21.96 23.4204 22.1685 23.3926C22.3769 23.3648 22.7244 23.4899 22.4603 23.9623C22.1963 24.4348 22.0156 24.7684 21.7655 24.9212C21.5153 25.0741 21.1471 25.0602 21.0637 24.6989C20.9803 24.3376 20.744 24.6989 20.7302 24.9351C20.7163 25.1714 20.6885 25.5744 20.7163 25.7134L20.1882 25.6856C20.1743 25.4632 20.1743 25.0185 20.216 24.8101C20.2577 24.6016 20.2438 24.3515 19.9241 24.4487C19.855 24.4731 19.7815 24.4826 19.7085 24.4766C19.6355 24.4706 19.5645 24.4493 19.5003 24.414C18.8749 24.9699 18.5622 25.352 18.3538 25.6856C18.4418 25.7719 18.5529 25.831 18.6737 25.8557C18.7945 25.8803 18.9199 25.8695 19.0347 25.8245C19.3405 25.6995 19.8407 25.8523 19.535 26.3248C19.2293 26.7973 19.2432 27.0336 19.5489 26.7417C19.8546 26.4499 20.348 25.9496 20.4939 26.4777C20.5912 26.8251 20.2716 26.9363 20.2854 27.2142C20.2993 27.4922 20.5773 27.7701 20.1882 28.1106C19.7991 28.451 19.6323 27.8674 19.3683 27.9577C19.1042 28.048 19.1806 28.1523 19.1876 28.2843C19.535 28.7707 20.0353 29.4655 20.216 29.7643C20.4939 30.2229 20.4939 30.7788 20.6051 30.6954C20.7163 30.612 20.9803 30.3619 21.0637 30.2924C21.1471 30.2229 21.2304 30.1395 21.1887 29.9866C21.1471 29.8338 20.9872 29.0139 21.0359 28.4441C21.0845 27.8743 21.4042 27.0683 21.6265 26.6583C21.8489 26.2484 22.4881 25.0046 22.641 24.6711C22.7938 24.3376 23.0718 23.9485 23.1413 23.6427C23.2108 23.337 23.4748 22.6282 23.586 22.2947C23.5582 22.0098 23.3775 21.447 23.0857 20.7869Z" fill="#BB9753"/>
<path d="M25.1702 17.6879C25.0868 17.9103 24.9756 18.1882 24.92 18.3272C24.8645 18.4661 24.6074 18.4105 24.6282 18.3133C24.6699 18.1048 24.3711 18.2438 24.4059 18.077C24.4406 17.9102 24.3781 17.7157 24.5309 17.7157C24.6838 17.7157 24.9756 17.6879 25.1702 17.6879Z" fill="#BB9753"/>
<path d="M24.7048 7.61262C24.7326 7.54314 24.7534 7.47365 24.7812 7.41112L24.4894 7.57093C24.5519 7.65431 24.6353 7.79328 24.7048 7.61262Z" fill="#BB9753"/>
<path d="M29.1518 26.9641C28.7904 26.3665 28.721 26.1303 28.6654 25.5188C28.638 25.062 28.6543 24.6037 28.714 24.15C28.6098 24.143 28.4639 24.1569 28.4569 24.3237C28.45 24.4904 28.3179 24.9629 28.2346 25.1575C28.1512 25.3521 27.8732 25.3382 27.7065 25.3521C27.5397 25.366 27.5397 25.2548 27.6509 25.0046C27.7621 24.7545 27.8038 24.6433 27.776 24.421C27.7482 24.1986 27.637 24.3932 27.5397 24.5877C27.4424 24.7823 27.1575 25.1714 26.8379 25.1297C26.5183 25.088 26.6017 24.6016 26.6295 24.4349C26.6573 24.2681 26.56 24.2403 26.4349 24.2125C26.3098 24.1847 26.0597 24.1291 26.1987 23.7261C26.3376 23.3231 26.4905 23.3648 26.685 23.4343C26.8796 23.5038 26.9074 23.3787 26.7267 23.3092C26.5461 23.2397 26.3515 23.0869 26.3654 22.8923C26.4071 22.3781 26.7267 22.4198 26.9769 22.4754C27.227 22.531 27.4702 22.392 27.6578 22.1905C27.6578 22.1766 27.6509 22.1627 27.6509 22.1488C27.2757 20.7383 27.9844 18.9942 28.179 18.5078C28.3735 18.0214 29.124 16.6526 29.3811 16.2357L28.6723 15.8744C28.4708 15.7701 28.3596 15.7215 28.304 15.7979C28.2485 15.8744 28.179 15.916 28.0817 16.055C27.8871 16.3399 28.0539 16.2913 28.1095 16.2913C28.1651 16.2913 28.4013 16.6039 28.443 16.6734C28.4847 16.7429 28.443 16.7985 28.3457 17.0208C28.2485 17.2432 28.1373 17.9797 28.0261 18.3827C27.6856 19.6057 27.1575 19.4806 26.9213 19.3277C26.685 19.1749 26.6156 19.4111 26.3793 19.7446C26.2625 19.893 26.1348 20.0323 25.9971 20.1616C26.2195 20.2658 26.5322 20.5576 26.157 20.8425C25.7817 21.1274 25.6428 21.3567 25.8512 21.315C26.0597 21.2733 26.2681 20.9537 26.5044 21.176C26.7406 21.3984 26.421 21.6485 26.2959 21.718C26.1709 21.7875 25.9207 21.9126 25.9902 22.1836C26.0597 22.4545 26.1014 22.8089 25.754 22.8923C25.4065 22.9757 25.2676 22.8228 25.1703 22.6422C25.073 22.4615 24.9757 22.5866 24.934 22.8089C24.9 22.9646 24.8767 23.1225 24.8645 23.2814C24.8645 23.3648 24.6144 23.2397 24.5032 23.1285C24.3921 23.0174 24.2531 23.3231 24.128 23.1702C24.0029 23.0174 24.2809 22.5449 24.3782 22.3781C24.4754 22.2114 24.4337 21.9959 23.8779 22.253C23.6972 22.5518 23.5582 22.9896 23.3359 23.6705C23.0302 24.6016 22.3353 25.8732 22.0504 26.3318C21.3 27.5408 21.161 28.6804 21.2791 29.3891C21.3973 30.0979 21.4876 30.0423 21.6405 30.0423C21.7933 30.0423 22.1685 30.5148 22.4187 30.8066C22.6688 31.0984 22.7661 30.9734 22.8912 30.8761C23.2942 30.5634 24.1002 30.0423 25.2398 29.5003C25.8121 29.2339 26.4017 29.0064 27.0047 28.8193C27.0233 28.586 27.0558 28.354 27.102 28.1245C27.1298 27.9855 26.9908 27.9369 26.8518 28.1245C26.7128 28.3121 26.3376 28.7499 26.0875 28.6387C25.8373 28.5275 25.6289 28.2496 25.7678 28.0064C25.9068 27.7632 25.7123 27.7006 25.615 27.5756C25.5177 27.4505 25.5177 26.9641 25.8234 26.9224C26.1292 26.8807 26.2264 27.1448 26.4349 27.2142C26.6434 27.2837 26.8101 27.2698 26.5461 26.978C26.282 26.6862 25.9624 26.7973 26.1292 26.3943C26.2959 25.9913 26.5322 26.0191 26.8101 26.1025C27.0881 26.1859 27.227 26.033 27.4146 25.9079C27.6022 25.7829 27.9566 25.6161 28.2068 25.9079C28.4569 26.1998 28.0261 26.4638 27.9288 26.5611C27.8315 26.6584 27.7065 27.1031 27.9149 26.8946C28.1234 26.6862 28.4778 25.9357 28.721 26.5611C28.8599 26.9224 28.5959 27.0614 28.6376 27.2837C28.6793 27.5061 29.0545 27.8118 28.7487 28.0967C28.443 28.3816 28.0122 28.1384 27.8315 27.9716C27.6509 27.8049 27.4563 27.7145 27.5397 28.0272C27.5916 28.2249 27.6219 28.4276 27.63 28.6317C28.2415 28.465 28.7696 28.3607 29.0406 28.3885C29.4366 28.4233 29.7354 28.5414 29.7215 28.1801C29.7076 27.8188 29.5131 27.5617 29.1518 26.9641ZM24.2114 29.4586C23.8779 29.5559 23.8223 29.403 23.5999 29.3196C23.3776 29.2363 23.3637 29.4308 23.5165 29.6671C23.6694 29.9033 23.8362 30.1257 23.6555 30.1257C23.4749 30.1257 23.3359 30.1534 23.3081 30.2924C23.2803 30.4314 22.9885 30.2646 22.919 29.9728C22.8495 29.681 22.78 29.1251 22.6271 29.403C22.4743 29.681 22.3353 30.1396 21.9462 29.9311C21.5571 29.7226 21.8211 29.4447 21.6266 29.2501C21.432 29.0556 21.2444 28.8054 21.439 28.458C21.6335 28.1106 21.8072 28.4024 21.9879 28.4024C22.1685 28.4024 22.1963 28.2357 22.0296 28.1106C21.8628 27.9855 21.6544 27.381 22.4187 27.4227C22.7275 27.435 23.0314 27.3419 23.2803 27.1587C23.5304 26.978 24.1836 27.0753 23.9196 27.5339C23.6555 27.9925 23.7389 28.0967 23.8918 27.923C24.0446 27.7493 24.2392 27.4505 24.531 27.5339C24.8229 27.6173 24.6978 27.8396 24.5171 28.0967C24.3365 28.3538 24.4476 28.5136 24.5866 28.6109C24.7256 28.7082 24.9827 29.2293 24.2114 29.4586ZM25.6289 26.172C25.4421 26.1752 25.2555 26.1565 25.073 26.1164C25.0452 26.3804 24.7881 26.7626 24.531 27.1448C24.5032 27.1865 24.3504 27.1865 24.2809 27.1309C24.2114 27.0753 24.0168 26.978 24.1697 26.8112C24.3226 26.6445 24.5727 26.297 24.531 26.1442C24.4893 25.9913 24.3782 25.8523 24.2114 26.0608C24.0446 26.2693 23.7806 26.7001 23.4888 26.714C23.1969 26.7279 22.9051 26.4638 23.044 26.1998C23.183 25.9357 23.2247 25.7968 23.0302 25.5605C22.8356 25.3243 22.9051 25.0185 23.322 24.8379C23.4471 24.7823 23.6694 24.8379 23.8223 24.9629C23.9751 25.088 24.0585 24.9629 23.8501 24.8379C23.6416 24.7128 23.4749 24.5599 23.4471 24.282C23.4193 24.0041 23.586 23.74 23.9473 23.8929C24.3087 24.0457 24.531 23.9207 24.6839 23.7956C24.8368 23.6705 25.4899 23.5107 25.3926 24.0874C25.3231 24.5043 25.1286 24.5182 25.073 24.7406C25.0174 24.9629 25.1842 24.824 25.2815 24.6572C25.3787 24.4904 25.6011 23.8095 26.0597 24.3237C26.1709 24.4488 26.1292 24.6572 25.9902 24.8935C25.8512 25.1297 25.9624 25.2687 26.0458 25.3937C26.1292 25.5188 26.3237 26.1372 25.6289 26.172Z" fill="#BB9753"/>
<path d="M20.9039 38.0678C20.8413 38.0678 20.7093 38.0469 20.7093 37.9913L20.5495 37.9705C20.6468 37.9913 20.7371 38.1025 20.6329 38.172C20.5287 38.2415 20.1673 38.2901 19.7921 38.2693C19.4169 38.2484 19.3266 38.0469 19.3196 37.901C19.3127 37.7551 19.3266 37.7134 19.3266 37.5744C19.3266 37.4354 19.2918 37.3104 19.3752 37.2548C19.4586 37.1992 19.4377 37.3382 19.4933 37.3382C19.7296 37.3382 20.5495 37.4146 20.7441 37.4424C20.9386 37.4702 20.9247 37.3521 20.883 37.22C20.8413 37.088 20.8135 37.1992 20.7927 37.2548C20.7719 37.3104 20.5912 37.2895 20.5912 37.2895L19.9936 37.2339C19.8044 37.2268 19.6161 37.2035 19.4308 37.1644C19.2849 37.1367 19.1042 37.1436 19.1181 37.2131C19.132 37.2826 19.1737 38.165 19.1806 38.2901C19.1876 38.4152 19.1945 38.4708 19.2571 38.4708L20.7441 38.4847C20.9942 38.4847 20.9873 38.4569 20.9873 38.311C20.9873 38.165 20.9664 38.0678 20.9039 38.0678Z" fill="#BB9753"/>
</g>
<defs>
<clipPath id="clip0">
<rect width="36" height="40.0232" fill="white" transform="translate(7 5)"/>
</clipPath>
</defs>
</svg>
