<svg width="50" height="50" viewBox="0 0 50 50" fill="none" xmlns="http://www.w3.org/2000/svg">
<g clip-path="url(#clip0)">
<path d="M42.994 11.9816V10.91L42.5731 10.6995C42.2733 10.5464 35.1358 7 25.23 7H24.7708C14.8651 7 7.72757 10.5464 7.42778 10.6995L7.00042 10.91V11.382C7.00042 11.382 7.00042 11.5989 7.0068 11.9561C6.92388 16.1722 7.44054 26.8816 13.9912 35.2055C19.3045 41.9539 24.286 43.523 24.8346 43.6761L25.0451 43.7399L25.2619 43.6825C25.4724 43.6187 30.5433 42.1389 36.0032 35.2055C42.5603 26.8816 43.077 16.185 42.994 11.9816Z" fill="#061922"/>
<path d="M35.5308 34.8356C41.9476 26.6903 42.4515 16.1914 42.3686 12.0645C42.3749 11.6754 42.3749 11.4649 42.3749 11.4649V11.3055L42.2346 11.2353C41.9412 11.0886 34.9504 7.61871 25.2296 7.61871H24.7704C15.0496 7.61871 8.05882 11.0886 7.76541 11.2353L7.62508 11.3055V12.039C7.54854 16.185 8.05244 26.6903 14.4628 34.8356C19.6421 41.4181 24.4451 42.9298 24.9745 43.0829L25.051 43.102L25.1148 43.0829C25.3253 43.0255 30.2048 41.5967 35.5308 34.8356ZM25.0447 42.5918C24.6428 42.4769 19.9036 41.0227 14.8136 34.5485C8.09709 26.0205 8.07158 14.8646 8.1226 12.2367C8.11623 11.8668 8.11623 11.6563 8.11623 11.6563L8.13536 11.6435V11.6244L8.28844 11.5542C8.64564 11.3884 9.43657 11.0439 10.5911 10.6293C13.4486 9.58328 18.5705 8.11623 24.7704 8.11623H25.2233C31.4104 8.11623 36.5195 9.5769 39.3834 10.623C40.5507 11.0376 41.348 11.3884 41.7052 11.5542L41.8583 11.6244V11.6435L41.8774 11.6563V12.2367C41.9284 14.8646 41.9029 26.0205 35.1864 34.5485C30.0836 41.0354 25.4337 42.4897 25.0447 42.5918Z" fill="white"/>
<path d="M17.1162 10.387C16.6697 10.4763 16.4529 10.5273 16.0191 10.6293C15.977 10.6383 15.9392 10.6616 15.9124 10.6954C15.8857 10.7292 15.8715 10.7712 15.8724 10.8143L15.9617 18.9724C15.9617 19.5146 15.9745 20.0121 16 20.4586C14.8965 17.6393 13.7484 14.7179 12.5748 11.7647C12.5669 11.7424 12.5547 11.7219 12.5389 11.7044C12.5231 11.6869 12.5039 11.6727 12.4826 11.6626C12.4612 11.6525 12.4381 11.6467 12.4145 11.6457C12.3909 11.6446 12.3673 11.6482 12.3451 11.6563C11.6945 11.8731 11.3756 11.9816 10.7378 12.224C10.7025 12.2369 10.6719 12.2604 10.6503 12.2911C10.6286 12.3219 10.6169 12.3586 10.6166 12.3962V23.6159C10.6162 23.6464 10.6236 23.6764 10.6381 23.7032C10.6526 23.73 10.6738 23.7527 10.6995 23.769C10.7286 23.7915 10.7648 23.8029 10.8016 23.8009C10.8257 23.8027 10.8498 23.7984 10.8717 23.7881L11.8859 23.4246C11.9228 23.4121 11.9546 23.3879 11.9765 23.3556C11.9984 23.3234 12.0091 23.2849 12.0071 23.246L11.9688 15.2856C11.9688 14.5904 11.9561 14.1949 11.9369 13.7038C13.0851 16.6315 14.2077 19.4954 15.2729 22.2382C15.2875 22.2814 15.3181 22.3174 15.3585 22.3387C15.3988 22.3601 15.4458 22.3652 15.4897 22.353C16.1722 22.1871 16.5103 22.1106 17.1928 21.9703C17.2339 21.9616 17.2708 21.9392 17.2975 21.9067C17.3241 21.8742 17.3389 21.8337 17.3395 21.7917V10.5719C17.3384 10.5165 17.3154 10.4638 17.2757 10.4252C17.2291 10.3933 17.1723 10.3797 17.1162 10.387ZM24.5408 9.58328C22.5963 9.61595 20.6567 9.78647 18.7364 10.0936C18.6924 10.101 18.6524 10.1235 18.6233 10.1573C18.5942 10.1911 18.5778 10.2339 18.5769 10.2785V21.4983C18.5768 21.5249 18.5825 21.5512 18.5935 21.5754C18.6045 21.5996 18.6206 21.6212 18.6407 21.6386C18.6747 21.6671 18.7175 21.6828 18.7619 21.6832H18.7938C20.6909 21.3793 22.607 21.2088 24.528 21.173C24.5771 21.173 24.6241 21.1535 24.6588 21.1188C24.6935 21.0841 24.713 21.037 24.713 20.988V20.2927C24.7116 20.2424 24.6911 20.1945 24.6556 20.1588C24.6203 20.1227 24.5721 20.1021 24.5216 20.1014C22.7293 20.1333 21.7725 20.2034 20.0567 20.4267V15.9873C21.2705 15.8183 22.4929 15.7182 23.718 15.6875C23.7665 15.6842 23.8119 15.6626 23.8451 15.6271C23.8783 15.5916 23.8967 15.5447 23.8966 15.4961V14.8136C23.8966 14.7886 23.8915 14.7638 23.8816 14.7408C23.8717 14.7177 23.8573 14.697 23.8391 14.6797C23.8028 14.646 23.7548 14.6277 23.7052 14.6286C22.4931 14.6599 21.2836 14.7579 20.0822 14.9221V10.9802C21.8235 10.7505 22.7357 10.6868 24.5472 10.6612C24.5963 10.6581 24.6424 10.6367 24.6767 10.6013C24.7109 10.566 24.7306 10.5191 24.7321 10.4699V9.77463C24.7305 9.72439 24.7099 9.67664 24.6743 9.64109C24.6388 9.60554 24.591 9.58487 24.5408 9.58328ZM32.6032 10.2339C30.3209 9.8199 28.0082 9.59588 25.6889 9.56414C25.6387 9.56574 25.5909 9.58641 25.5554 9.62195C25.5198 9.6575 25.4991 9.70525 25.4975 9.75549V10.4699C25.4975 10.5189 25.517 10.566 25.5517 10.6007C25.5864 10.6354 25.6335 10.6549 25.6825 10.6549C26.7669 10.6676 27.3218 10.6931 28.3487 10.776V21.1156C28.3485 21.1632 28.366 21.2091 28.3978 21.2445C28.4297 21.2799 28.4736 21.3021 28.5209 21.3069C28.9738 21.3388 29.1907 21.3643 29.6499 21.4153H29.6691C29.7146 21.415 29.7582 21.3967 29.7903 21.3643C29.8115 21.3478 29.8283 21.3265 29.8394 21.302C29.8506 21.2776 29.8556 21.2508 29.854 21.224V10.9164C30.8874 11.0312 31.4487 11.1205 32.533 11.3182C32.5608 11.3232 32.5893 11.3224 32.6167 11.3158C32.6442 11.3092 32.67 11.297 32.6925 11.2799C32.7322 11.2413 32.7551 11.1886 32.7562 11.1332V10.4189C32.7557 10.3752 32.7402 10.333 32.7123 10.2994C32.6845 10.2657 32.646 10.2426 32.6032 10.2339ZM37.4061 16.9249C35.0206 14.4564 34.7463 14.061 34.7463 13.0468C34.7463 12.0326 35.1864 11.905 35.6138 11.905C35.8913 11.9122 36.1663 11.9594 36.4302 12.0454C38.1588 12.5365 38.1588 13.4805 38.1588 14.1758V15.1772C38.1582 15.2167 38.1703 15.2553 38.1932 15.2875C38.2162 15.3196 38.2488 15.3435 38.2864 15.3558C38.701 15.4961 38.9115 15.5727 39.3452 15.7321C39.3736 15.7418 39.4037 15.745 39.4334 15.7417C39.4632 15.7384 39.4919 15.7286 39.5174 15.713C39.542 15.6955 39.5623 15.6726 39.5766 15.6461C39.591 15.6195 39.5991 15.5901 39.6003 15.5599V14.7179C39.6003 13.6655 39.6003 11.8923 36.5132 11.0121C34.3572 10.387 33.2538 11.0503 33.2538 12.9256C33.2538 14.4819 34.2105 15.4132 35.786 16.9504L36.1049 17.263C37.9802 19.1 38.3565 19.7059 38.3565 20.8732C38.3565 21.2878 38.2928 21.5812 38.1652 21.7662C38.0376 21.9511 37.8207 22.0404 37.4954 22.0404C37.1701 22.0404 36.9341 21.983 36.5578 21.8746C35.7414 21.6386 35.1418 21.3133 34.791 20.9178C34.4402 20.5224 34.3572 20.0185 34.3572 19.1956V18.309C34.357 18.2662 34.3424 18.2247 34.3158 18.1912C34.2892 18.1577 34.2521 18.134 34.2105 18.124L33.0879 17.888C33.0339 17.8817 32.9795 17.8953 32.9348 17.9263C32.9131 17.9441 32.8955 17.9665 32.8834 17.9918C32.8713 18.0172 32.8649 18.0449 32.8647 18.073V19.6485C32.8647 21.1283 34.0766 22.2509 36.3665 22.9079C37.0107 23.0929 37.572 23.1822 38.0249 23.1822C39.8172 23.1822 39.8172 21.7406 39.8172 21.1219C39.8172 19.4954 38.9944 18.5642 37.4061 16.9249Z" fill="white"/>
<path d="M31.9844 30.2367C32.1074 30.1081 32.2106 29.9619 32.2906 29.803C32.8774 28.674 32.3544 27.4047 32.1311 26.9645C31.311 25.621 30.1299 24.5349 28.7225 23.83C27.315 23.1252 25.7379 22.83 24.1708 22.978C27.5131 23.163 30.747 26.1481 31.9844 30.2367ZM21.0709 26.9199C21.8746 27.258 22.9334 27.8256 24.0496 28.4252C25.8101 29.3692 27.6343 30.3515 28.8717 30.6577C29.9688 30.9319 30.8746 30.9064 31.506 30.5875C31.506 30.5747 31.4996 30.562 31.4996 30.5492C31.4996 30.5365 31.4805 30.4599 31.4677 30.4153C30.932 28.1701 28.1191 23.2459 23.2459 23.2459C23.0418 23.2459 22.8313 23.2587 22.6272 23.2778C20.8096 23.7995 19.2266 24.93 18.1432 26.4798C18.378 26.4044 18.6236 26.3678 18.8703 26.3713C19.4635 26.3713 20.2034 26.5499 21.0709 26.9199ZM19.859 33.7066C21.8363 34.3572 22.9334 34.5613 24.3749 34.5613C24.9043 34.5613 25.5039 34.5358 26.2629 34.472C28.3742 34.287 30.6003 33.5918 31.793 33.0113C31.7935 32.423 31.7401 31.8358 31.6336 31.2572C31.2828 31.4741 30.8809 31.5762 30.3898 31.5762C29.8986 31.5762 29.2927 31.4805 28.3168 31.2445C27.1623 30.9702 25.5167 29.9943 24.0687 29.1268C23.2714 28.6548 22.5188 28.202 21.8937 27.8958C19.5209 26.7222 18.175 26.888 17.8179 26.9645C16.9566 28.4006 16.5518 30.0644 16.657 31.7356C16.8164 31.9653 17.6265 32.9667 19.859 33.7066ZM32.3607 32.6924L32.4181 32.6477C33.1198 32.163 33.3047 31.3721 33.3303 31.2381C33.3299 30.5603 33.2442 29.8853 33.0751 29.2289L33.056 29.146C32.9858 29.7647 32.686 30.3387 32.1502 30.849C32.2887 31.4537 32.3593 32.072 32.3607 32.6924ZM32.5648 33.1453L32.4755 33.2091L32.3352 33.3111C32.2971 33.841 32.2008 34.365 32.0482 34.8738C32.3097 34.7845 32.399 34.8866 32.4245 34.9504C32.45 35.0142 32.4309 34.9631 32.4373 34.9759C32.8697 34.1208 33.1503 33.1971 33.2665 32.2459C33.1241 32.607 32.8804 32.9193 32.5648 33.1453ZM32.2459 35.2183C32.2395 35.1864 32.2268 35.1864 32.214 35.1864C32.2013 35.1864 32.1311 35.1927 32.0099 35.2693L31.9461 35.3139L31.8887 35.3522C31.6827 35.8967 31.4129 36.4148 31.085 36.8958C31.5419 36.4058 31.94 35.8643 32.2714 35.282H32.2587L32.2459 35.2183ZM23.6924 38.7328C24.6428 38.6244 25.4337 38.382 26.3331 37.9291L26.7222 37.7314L27.0475 37.5655L29.618 36.2005C29.9688 36.0156 30.3132 35.8178 30.6513 35.6201L31.0468 35.4032C31.1999 35.3203 31.3402 35.2438 31.4869 35.1545L31.5379 35.1226C31.6645 34.6336 31.7457 34.134 31.7803 33.63C30.8108 34.1148 29.3501 34.5421 27.2069 34.9695C24.4642 35.5181 21.7789 35.2757 19.3806 34.2615C17.7732 33.5854 17.0078 32.6414 16.6889 32.1247C16.7321 32.4988 16.8003 32.8696 16.893 33.2346C17.3974 35.2487 18.6434 36.9982 20.382 38.1332L20.3692 38.1205L20.6052 38.2608C20.8286 38.3866 21.0663 38.4851 21.3132 38.5542C21.8267 38.7067 22.3595 38.784 22.8951 38.7838C23.1616 38.7819 23.4278 38.7649 23.6924 38.7328ZM31.2828 35.7796L30.9511 36.0156C30.6322 36.2324 30.326 36.4174 30.0007 36.6151L29.5351 36.9022C28.4188 37.591 27.0794 38.3565 25.6506 38.7966C25.2664 38.9175 24.8743 39.0113 24.477 39.0772C24.1497 39.1271 23.8193 39.1527 23.4883 39.1538H23.4245C23.0118 39.1484 22.6001 39.11 22.1935 39.039C23.7454 39.5876 25.424 39.6696 27.022 39.275C27.9437 39.0472 28.8196 38.6632 29.6116 38.1396C30.3515 37.5592 30.9511 36.7363 31.3338 35.7413L31.2828 35.7796Z" fill="white"/>
<path d="M28.2849 32.9284C28.2849 32.3161 28.2849 31.4167 27.5705 30.7151C27.6484 30.5727 27.7125 30.4232 27.7619 30.2686C27.8831 29.9114 27.8958 29.5096 27.8894 29.2544V27.5514C27.8703 26.9327 27.7746 26.2757 27.2707 25.7016C26.7668 25.1276 26.1226 24.9171 25.2806 24.9171H23.0035C22.8787 24.9163 22.7551 24.9407 22.64 24.9889C22.5249 25.0372 22.4207 25.1082 22.3338 25.1977C22.2451 25.2853 22.1747 25.3896 22.1265 25.5045C22.0783 25.6195 22.0534 25.7428 22.0532 25.8675L22.0723 36.8575C22.0713 37.0177 22.1119 37.1754 22.1902 37.3152C22.2685 37.4549 22.3817 37.572 22.5188 37.6548C22.6739 37.7511 22.8529 37.8019 23.0354 37.8015H25.3444C26.18 37.8015 26.8753 37.5591 27.4238 37.0935H27.4302C28.1892 36.411 28.2721 35.6073 28.2913 34.8356L28.2849 32.9284Z" fill="white"/>
<path d="M27.6981 32.9985C27.6981 32.3862 27.6981 31.6336 27.0602 31.1042C26.9137 30.9867 26.7503 30.8921 26.5755 30.8235C26.865 30.6245 27.0803 30.3351 27.1878 30.0007C27.2899 29.6945 27.2835 29.3118 27.2835 29.1651V27.4174C27.2644 26.9327 27.2133 26.3841 26.8242 25.9376C26.4352 25.4911 25.9504 25.3572 25.287 25.3572H22.9142C22.842 25.3586 22.7733 25.3884 22.7229 25.4401C22.697 25.4632 22.6767 25.4918 22.6634 25.5238C22.6501 25.5559 22.6443 25.5905 22.6463 25.6251L22.6655 37.0935C22.6652 37.1395 22.6768 37.1848 22.6992 37.225C22.7215 37.2652 22.7539 37.299 22.793 37.3231C22.8378 37.3485 22.8883 37.3617 22.9398 37.3614H25.3508C25.606 37.3614 26.3905 37.3614 27.0475 36.8001C27.7045 36.2388 27.6853 35.6583 27.7045 34.9631L27.6981 32.9985ZM26.0269 35.9135C25.8547 36.0347 25.6506 36.1048 25.1212 36.124H24.1453C24.0624 36.124 24.0305 36.0729 24.0305 35.9964C24.0305 35.3267 24.0177 31.6399 24.0177 31.608C24.0177 31.5762 24.0305 31.5315 24.1006 31.5315H24.5535C25.0383 31.557 25.5422 31.5889 25.8675 31.7994C26.0546 31.9096 26.1952 32.0842 26.2629 32.2905C26.3305 32.5137 26.3607 32.7464 26.3522 32.9794V34.6059C26.3522 35.3458 26.3076 35.6966 26.0269 35.9135ZM25.2296 30.2112C25.0319 30.2686 24.9362 30.2813 24.5152 30.3005H24.0943C24.0177 30.3005 23.9986 30.2686 23.9986 30.2112V26.6775C23.9986 26.6201 24.0177 26.5882 24.0751 26.5818H24.7831C25.0957 26.5946 25.4401 26.601 25.6634 26.7413C25.7573 26.7962 25.8294 26.8818 25.8675 26.9837C25.9134 27.1782 25.9391 27.377 25.944 27.5769V28.9482C25.9378 28.9819 25.9357 29.0161 25.9376 29.0503C25.9313 29.4011 25.9185 30.0007 25.2232 30.2112" fill="#061922"/>
</g>
<defs>
<clipPath id="clip0">
<rect width="36" height="36.7399" fill="white" transform="translate(7 7)"/>
</clipPath>
</defs>
</svg>
