<svg width="50" height="50" viewBox="0 0 50 50" fill="none" xmlns="http://www.w3.org/2000/svg">
<g clip-path="url(#clip0)">
<path d="M43 25C43 34.9375 34.9437 43 25 43C15.0562 43 7 34.9375 7 25C7 15.0625 15.0562 7 25 7C34.9437 7 43 15.0562 43 25Z" fill="white"/>
<path d="M25.0126 8.30624C22.3972 8.30451 19.8176 8.91459 17.48 10.0877C15.1425 11.2608 13.1117 12.9645 11.5501 15.0625L13.8813 15.7312H13.8751C15.5188 16.2125 20.9813 17.8187 22.0001 18.1437C24.9813 19.1 25.7626 19.475 26.6001 20.3687C27.4376 21.2625 28.7126 22.3062 29.9563 23.1812C31.2001 24.0562 31.8126 25 31.8126 26.5062C31.8126 28.0125 30.6501 29.2812 29.9313 29.7187C29.9313 29.7187 30.1876 28.9937 29.8438 28.675C29.5001 28.3562 28.3938 27.75 25.5876 27.9562C22.7813 28.1625 19.0188 29.5187 16.4688 30.875C16.4688 30.875 17.6876 28.9687 19.5126 28.1C19.5126 28.1 18.0063 28.1 9.60633 31.7625C10.906 34.769 13.0574 37.3293 15.7952 39.1274C18.5329 40.9255 21.7371 41.8829 25.0126 41.8812C34.2813 41.8812 41.7938 34.3625 41.7938 25.0937C41.7938 15.825 34.2813 8.30624 25.0126 8.30624ZM25.0126 38.175C23.2706 38.1769 21.5458 37.8301 19.94 37.1549C18.3342 36.4797 16.8798 35.4899 15.6626 34.2437C22.4376 30.75 26.6563 31.65 26.6563 32.3312C26.6563 33.0125 25.6188 34.6437 25.6188 34.6437C31.1438 33.8625 35.1688 30.5375 35.1688 26.05C35.1688 21.5625 30.9688 19.3937 29.9001 18.725C28.8313 18.0562 29.2938 17.05 25.5313 15.6312C23.2438 14.7687 20.0251 13.9187 18.7688 13.5937C20.6854 12.5535 22.8319 12.0099 25.0126 12.0125C32.2313 12.0125 38.0938 17.8687 38.0938 25.0937C38.0938 32.3187 32.2313 38.175 25.0126 38.175Z" fill="#C8102E"/>
<path d="M24.8625 20.725C24.1927 20.756 23.526 20.6162 22.925 20.3187C21.9438 19.825 20.4375 18.725 19.1313 19.9437C19.1313 19.9437 20.2313 19.8 20.1438 20.0875C20.0563 20.375 19.9438 22.0562 21.45 22.6937C22.9563 23.3312 24.6875 22.8625 24.8625 20.725Z" fill="#C8102E"/>
</g>
<defs>
<clipPath id="clip0">
<rect width="36" height="36" fill="white" transform="translate(7 7)"/>
</clipPath>
</defs>
</svg>
