<svg width="50" height="50" viewBox="0 0 50 50" fill="none" xmlns="http://www.w3.org/2000/svg">
<g clip-path="url(#clip0)">
<path d="M50 21.1111L49.566 20.8507C42.9427 16.9879 33.316 15.0781 28.8976 15H28.8455C28.1163 15 27.6128 15.2517 27.3437 15.7465C27.1577 16.1218 27.1266 16.5551 27.2569 16.9531C27.1678 16.8506 27.0657 16.7601 26.9531 16.684C26.7064 16.501 26.4451 16.3384 26.1719 16.1979C26.1719 16.1979 26.224 16.5451 26.1024 16.5017L25.8854 16.4149C25.5208 16.2413 25 15.9288 25 15.9288C25 15.9288 24.4792 16.2413 24.1146 16.4149L23.9062 16.5017C23.776 16.5451 23.8281 16.1979 23.8281 16.1979C23.5549 16.3384 23.2936 16.501 23.0469 16.684C22.9343 16.7601 22.8322 16.8506 22.7431 16.9531C22.8734 16.5551 22.8423 16.1218 22.6562 15.7465C22.3872 15.2517 21.8837 15 21.1545 15H21.1024C16.684 15.0781 7.05729 16.9879 0.434028 20.8507L0 21.1111C0 21.1111 0.651042 22.7691 2.25694 23.2465L2.03993 23.3507C2.03993 23.3507 2.94271 24.8177 4.35764 25.1302L4.08854 25.2431C4.08854 25.2431 5.07812 26.849 7.01389 27.1875L6.72743 27.3264C6.72743 27.3264 8.09896 28.8108 10.217 28.9496L9.90451 29.1753C10.9601 29.8132 12.1421 30.2131 13.3681 30.3472L13.0382 30.6424C13.0382 30.6424 16.6927 31.9792 19.7569 30.8594C20.1747 31.9096 20.8974 32.8107 21.8318 33.4465C22.7663 34.0824 23.8697 34.4239 25 34.4271C26.1303 34.4239 27.2337 34.0824 28.1682 33.4465C29.1026 32.8107 29.8253 31.9096 30.2431 30.8594C33.3073 31.9792 36.9618 30.6424 36.9618 30.6424L36.6319 30.3472C37.8579 30.2131 39.0399 29.8132 40.0955 29.1753L39.7917 28.9496C41.901 28.8108 43.2726 27.3264 43.2726 27.3264L42.9861 27.1875C44.9219 26.849 45.9115 25.2431 45.9115 25.2431L45.6424 25.1302C47.0573 24.8177 47.9601 23.3507 47.9601 23.3507L47.7431 23.2465C49.349 22.7691 50 21.1111 50 21.1111Z" fill="#B4975A"/>
<path d="M49.3056 21.3021C42.8212 17.526 33.2899 15.6076 28.8889 15.5295C28.3594 15.5208 28.0035 15.651 27.8125 15.9983C27.5087 16.5712 27.9427 17.2135 28.125 17.4913C28.5243 18.0903 29.0538 19.0191 29.0538 20.1389C29.0538 22.309 27.3004 23.9149 25.1389 23.9149H24.8611C22.6997 23.9149 20.9462 22.309 20.9462 20.1389C20.9462 19.0191 21.4757 18.0903 21.875 17.4913C22.0573 17.2135 22.4913 16.5712 22.1875 15.9983C21.9965 15.651 21.6406 15.5208 21.1111 15.5295C16.7101 15.6076 7.17883 17.526 0.694458 21.3021C0.703139 21.3194 1.73612 23.0903 3.8021 22.9427L2.84724 23.4201C2.85592 23.4375 3.79342 24.9826 6.06772 24.7569L4.93925 25.3125C4.93925 25.3299 6.033 26.8576 8.42015 26.8142C7.87328 27.092 7.53474 27.2743 7.54342 27.2743C7.5521 27.2743 9.12328 28.8108 11.6754 28.3941L10.7899 29.0364C10.7986 29.0451 12.6736 30.0694 14.8785 29.7482L14.0278 30.3993C14.0191 30.3732 17.4045 31.3281 19.8177 30.2691C21.8837 29.3576 23.0382 27.118 23.2986 26.5538C23.7066 26.6406 24.0712 26.6927 24.3403 26.7274C24.3403 26.7535 24.783 26.7969 25 26.7882C25.217 26.7795 25.6597 26.7535 25.6597 26.7274C25.9288 26.6927 26.2934 26.6406 26.7014 26.5538C26.9618 27.118 28.1163 29.3576 30.1823 30.2691C32.5955 31.3281 35.9809 30.3732 35.9722 30.3993L35.1215 29.7482C37.3264 30.0694 39.2101 29.0451 39.2101 29.0364L38.3247 28.3941C40.8767 28.8108 42.4566 27.283 42.4566 27.2743C42.4566 27.2656 42.1267 27.092 41.5799 26.8142C43.967 26.8576 45.0608 25.3299 45.0608 25.3125L43.9323 24.7569C46.2066 24.9826 47.1441 23.4375 47.1528 23.4201L46.1979 22.9427C48.2639 23.0903 49.2969 21.3194 49.3056 21.3021Z" fill="#0A2240"/>
<path d="M23.1337 25.408C23.1337 25.408 17.3438 23.4722 19.8612 17.3003C19.8612 17.3003 13.7327 17.5521 5.33857 20.9462C5.33857 20.9462 4.74829 21.1892 4.40107 21.3108C4.05385 21.4323 3.50697 21.658 2.71704 21.276C2.71704 21.276 10.3993 17.2569 20.2605 16.3281C21.5626 16.2066 21.7362 16.3976 21.3889 16.8924C21.0417 17.3871 17.5869 21.7795 23.1337 25.408Z" fill="white"/>
<path d="M17.986 19.0451C13.0208 19.6962 8.16833 21.4236 8.16833 21.4236C8.99299 22.8906 11.2326 22.2743 11.2326 22.2743C15.4426 21.0851 17.3176 20.6858 17.9253 20.5642C17.8993 20.0571 17.9196 19.5486 17.986 19.0451Z" fill="#B4975A"/>
<path d="M18.0208 21.467C17.1962 21.6233 13.7153 22.3437 10.2084 23.6545C10.2084 23.6545 11.3195 24.9132 13.507 24.2882C15.3559 23.7674 17.717 23.0122 18.4288 22.7865C18.2375 22.3657 18.1004 21.9223 18.0208 21.467Z" fill="#B4975A"/>
<path d="M18.7933 23.4809C18.0468 23.724 14.2968 24.9392 12.7169 25.5469C12.7169 25.5469 13.6284 26.7622 16.2412 25.7292C18.0641 25.0087 19.0711 24.592 19.5138 24.401C19.2419 24.1206 19.0003 23.8122 18.7933 23.4809Z" fill="#B4975A"/>
<path d="M20.0955 24.9306C19.4445 25.217 17.0139 26.276 15.6077 26.9531C15.6077 26.9531 17.3698 27.8212 19.6007 26.4497L20.9809 25.5382C20.6707 25.3586 20.3747 25.1555 20.0955 24.9306Z" fill="#B4975A"/>
<path d="M21.658 25.8941C21.2153 26.1719 19.3663 27.3351 18.4635 27.9948C18.4635 27.9948 19.9913 28.6285 21.5625 27.1528C22.0746 26.6754 22.3524 26.3976 22.5087 26.25C22.2309 26.1458 21.9444 26.033 21.658 25.8941Z" fill="#B4975A"/>
<path d="M26.8663 25.408C26.8663 25.408 32.6563 23.4722 30.1389 17.3003C30.1389 17.3003 36.2674 17.5521 44.6615 20.9462C44.6615 20.9462 45.2517 21.1892 45.599 21.3108C45.9462 21.4323 46.4931 21.658 47.283 21.276C47.283 21.276 39.6007 17.2569 29.7396 16.3281C28.4375 16.2066 28.2639 16.3976 28.6111 16.8924C28.9583 17.3871 32.4132 21.7795 26.8663 25.408Z" fill="white"/>
<path d="M32.0139 19.0451C36.9792 19.6962 41.8316 21.4236 41.8316 21.4236C41.007 22.8906 38.7674 22.2743 38.7674 22.2743C34.5573 21.0851 32.6823 20.6858 32.0747 20.5642C32.1007 20.0571 32.0803 19.5486 32.0139 19.0451Z" fill="#B4975A"/>
<path d="M31.9791 21.467C32.8038 21.6233 36.2847 22.3437 39.7916 23.6545C39.7916 23.6545 38.6805 24.9132 36.493 24.2882C34.6441 23.7674 32.283 23.0122 31.5712 22.7865C31.7625 22.3657 31.8995 21.9223 31.9791 21.467Z" fill="#B4975A"/>
<path d="M31.2066 23.4809C31.9531 23.724 35.7031 24.9392 37.2829 25.5469C37.2829 25.5469 36.3715 26.7622 33.7586 25.7292C31.9357 25.0087 30.9288 24.592 30.4861 24.401C30.758 24.1206 30.9995 23.8122 31.2066 23.4809Z" fill="#B4975A"/>
<path d="M29.9046 24.9306C30.5556 25.217 32.9862 26.276 34.3924 26.9531C34.3924 26.9531 32.6303 27.8212 30.3994 26.4497L29.0192 25.5382C29.3294 25.3586 29.6254 25.1555 29.9046 24.9306Z" fill="#B4975A"/>
<path d="M28.342 25.8941C28.7934 26.1719 30.6337 27.3351 31.5365 27.9948C31.5365 27.9948 30.0087 28.6285 28.4375 27.1528C27.9254 26.6754 27.6476 26.3976 27.4913 26.25C27.7691 26.1458 28.0556 26.033 28.342 25.8941Z" fill="#B4975A"/>
<path d="M29.7482 28.776C29.75 29.7155 29.4729 30.6344 28.9522 31.4164C28.4315 32.1984 27.6906 32.8083 26.8231 33.169C25.9556 33.5298 25.0006 33.625 24.079 33.4428C23.1573 33.2606 22.3104 32.809 21.6455 32.1453C20.9806 31.4816 20.5275 30.6356 20.3436 29.7143C20.1597 28.793 20.2532 27.8378 20.6123 26.9697C20.9714 26.1015 21.58 25.3594 22.3611 24.8373C23.1421 24.3152 24.0605 24.0365 25 24.0365C26.2578 24.0365 27.4642 24.5355 28.3544 25.4241C29.2447 26.3127 29.7459 27.5182 29.7482 28.776Z" fill="white"/>
<path d="M28.7674 29.7656C28.7674 30.5107 28.5465 31.2391 28.1325 31.8586C27.7185 32.4782 27.1302 32.9611 26.4418 33.2462C25.7534 33.5313 24.9959 33.6059 24.2651 33.4606C23.5343 33.3152 22.863 32.9564 22.3361 32.4295C21.8092 31.9027 21.4504 31.2314 21.3051 30.5006C21.1597 29.7698 21.2343 29.0123 21.5194 28.3239C21.8046 27.6355 22.2875 27.0472 22.907 26.6332C23.5265 26.2192 24.2549 25.9983 25 25.9983C25.9992 25.9983 26.9575 26.3952 27.664 27.1017C28.3705 27.8082 28.7674 28.7665 28.7674 29.7656Z" fill="#B4975A"/>
<path d="M24.9999 23.6632C23.9863 23.6615 22.9949 23.9606 22.1513 24.5227C21.3078 25.0848 20.65 25.8846 20.2613 26.8208C19.8726 27.757 19.7704 28.7875 19.9677 29.7817C20.1651 30.776 20.653 31.6894 21.3698 32.4062C22.0866 33.123 22.9999 33.6109 23.9942 33.8082C24.9885 34.0056 26.019 33.9034 26.9552 33.5147C27.8914 33.126 28.6911 32.4682 29.2532 31.6247C29.8153 30.7811 30.1145 29.7897 30.1128 28.776C30.1105 27.4207 29.5711 26.1216 28.6127 25.1632C27.6544 24.2049 26.3552 23.6655 24.9999 23.6632ZM29.2968 27.9514C29.1409 28.5681 28.854 29.1439 28.4555 29.6398C28.0571 30.1356 27.5565 30.5397 26.9878 30.8246C27.0833 30.1996 27.3524 29.5833 27.6388 28.941C28.0468 28.0121 28.4982 26.9878 28.2985 25.9114C28.805 26.4917 29.1494 27.1954 29.2968 27.9514ZM22.7517 25.026C23.3399 24.6734 24.0032 24.4652 24.6874 24.4184V31.2934C24.3419 31.2751 24.0004 31.2109 23.6718 31.1024C23.6371 30.2517 23.2812 29.4618 22.9426 28.6892C22.3784 27.3958 21.8836 26.276 22.7517 25.026ZM23.6284 31.7535C23.9737 31.8512 24.329 31.9095 24.6874 31.9271V33.1424C24.1265 33.102 23.5784 32.9546 23.0729 32.7083C23.3072 32.4826 23.559 32.1614 23.6284 31.7535ZM25.3124 31.9271C25.6709 31.9095 26.0262 31.8512 26.3715 31.7535C26.4409 32.1614 26.6926 32.4826 26.927 32.7083C26.4214 32.9546 25.8734 33.102 25.3124 33.1424V31.9271ZM26.3281 31.1024C25.9984 31.2067 25.6574 31.2708 25.3124 31.2934V24.4184C25.9966 24.4652 26.66 24.6734 27.2482 25.026C28.1162 26.276 27.6214 27.3958 27.0572 28.6892C26.7187 29.4531 26.3715 30.2517 26.3281 31.1024ZM21.7013 25.9114C21.5017 26.9878 21.9531 28.0121 22.3611 28.941C22.6475 29.592 22.9253 30.2083 23.0121 30.842C22.4405 30.5567 21.9378 30.1503 21.5391 29.6511C21.1404 29.1519 20.8551 28.5719 20.7031 27.9514C20.8489 27.1949 21.1934 26.4908 21.7013 25.9114ZM20.6944 29.5486C21.2426 30.4405 22.056 31.1386 23.0208 31.5451C23.0222 31.5743 23.0193 31.6036 23.0121 31.6319C22.9687 31.9618 22.6909 32.2222 22.4999 32.3698C21.5498 31.7041 20.9009 30.6902 20.6944 29.5486ZM27.4999 32.3698C27.3089 32.2222 27.0399 31.9531 26.9878 31.6319C26.981 31.6035 26.9781 31.5743 26.9791 31.5451C27.9439 31.1386 28.7573 30.4405 29.3055 29.5486C29.099 30.6902 28.4501 31.7041 27.4999 32.3698Z" fill="#0A2240"/>
<path d="M26.5191 17.0226C26.5191 17.0226 26.4844 17.1875 26.3802 17.1875C26.2761 17.1875 25.6684 16.8924 25.3733 16.7361L25.0087 16.5278L24.6268 16.7361C24.3316 16.8924 23.7153 17.1875 23.6198 17.1875C23.5243 17.1875 23.4809 17.0226 23.4809 17.0226C23.4809 17.0226 21.8663 17.9948 21.8663 20.6858C21.8663 22.6823 22.908 23.5937 22.908 23.5937L23.0556 24.158H26.9445L27.092 23.5937C27.092 23.5937 28.1337 22.6823 28.1337 20.6858C28.1337 17.9948 26.5191 17.0226 26.5191 17.0226Z" fill="#0A2240"/>
<path d="M27.2831 20.0087C27.2928 19.3086 27.0457 18.6293 26.5887 18.099C26.5887 18.099 26.5713 18.3333 26.172 18.0729C25.8306 17.8277 25.4204 17.6971 25.0001 17.6997C24.5778 17.701 24.1659 17.8312 23.8196 18.0729C23.4376 18.3333 23.4116 18.099 23.4116 18.099C22.958 18.6313 22.7114 19.3093 22.7171 20.0087C22.7171 20.6944 22.8821 21.033 22.9428 21.1371C23.2814 22.0139 24.0713 22.6302 25.0001 22.6302C25.9289 22.6302 26.6928 22.0226 27.04 21.1632C27.0661 21.1285 27.2831 20.7986 27.2831 20.0087Z" fill="white"/>
<path d="M25.8593 21.8837C25.8593 21.875 25.8506 21.875 25.8506 21.8663C25.8506 21.8576 25.6249 21.441 25.9981 21.1458C25.9981 21.1458 26.8402 21.3281 26.8575 20.2083C26.8575 20.2083 26.8402 20.0868 26.9617 19.8524C26.9617 19.8524 26.7447 19.6528 26.2759 20.0087C25.8072 20.3646 25.5468 21.3629 25.295 21.1285C25.0433 20.8941 25.1301 19.592 24.9999 19.5399C24.8697 19.592 24.9565 20.8941 24.7047 21.1285C24.453 21.3629 24.1926 20.3646 23.7238 20.0087C23.2551 19.6528 23.0381 19.8524 23.0381 19.8524C23.1596 20.0868 23.1335 20.2083 23.1335 20.2083C23.1596 21.3281 24.0016 21.1458 24.0016 21.1458C24.3749 21.441 24.1492 21.8663 24.1492 21.8663C24.1492 21.8663 24.1405 21.875 24.1405 21.8837C23.1335 20.7986 22.5519 20.9462 22.8384 22.1615C23.1249 23.3767 24.2099 28.4549 24.3836 29.6441C24.3575 30.7118 24.236 31.0851 24.2013 31.1719L24.0971 31.3889L24.2186 31.632C24.3675 31.8542 24.4899 32.0931 24.5832 32.3438L24.9999 33.3941L25.4165 32.3438C25.5138 32.0932 25.639 31.8544 25.7898 31.632L25.9113 31.4063L25.7985 31.1719C25.7638 31.0938 25.6422 30.7292 25.6162 29.6962C25.7638 28.6372 26.8749 23.3681 27.1613 22.1615C27.4478 20.9549 26.8662 20.7986 25.8593 21.8837Z" fill="#0A2240"/>
<path d="M24.3143 27.2049C23.9584 25.3038 23.672 23.8976 23.4376 22.8819C23.264 22.1007 23.7327 22.4132 23.9845 22.8993L24.3143 27.2049Z" fill="#CE0E2D"/>
<path d="M25.6857 27.2049C26.0416 25.3038 26.328 23.8976 26.5624 22.8819C26.736 22.1007 26.2672 22.4132 26.0155 22.8993L25.6857 27.2049Z" fill="#CE0E2D"/>
<path d="M23.7499 20.7726C23.7324 20.7686 23.716 20.761 23.7016 20.7504C23.6872 20.7398 23.6752 20.7264 23.6662 20.7109C23.6573 20.6954 23.6516 20.6783 23.6495 20.6605C23.6475 20.6427 23.6492 20.6247 23.6544 20.6076C23.6615 20.5807 23.6767 20.5565 23.6978 20.5382C23.647 20.4819 23.5918 20.4296 23.5328 20.382C23.5328 20.382 23.4113 20.9288 23.9061 20.8767C23.8903 20.8342 23.8699 20.7934 23.8453 20.7552C23.8315 20.7645 23.8158 20.7708 23.7994 20.7738C23.783 20.7768 23.7661 20.7764 23.7499 20.7726Z" fill="#CE0E2D"/>
<path d="M26.467 20.382C26.408 20.4296 26.3529 20.4819 26.3021 20.5382C26.3232 20.5565 26.3383 20.5807 26.3455 20.6076C26.3536 20.6421 26.3482 20.6784 26.3305 20.7091C26.3127 20.7397 26.2839 20.7624 26.25 20.7726C26.2337 20.7764 26.2169 20.7768 26.2004 20.7738C26.184 20.7708 26.1684 20.7645 26.1545 20.7552C26.13 20.7934 26.1096 20.8342 26.0938 20.8767C26.5885 20.9288 26.467 20.382 26.467 20.382Z" fill="#CE0E2D"/>
<path d="M25.2343 27.9167C25.3818 24.974 25.6162 22.8993 25.6162 22.6389C25.6168 22.5218 25.6022 22.405 25.5728 22.2917L25.3992 22.8559L25.3471 21.8663C25.2487 21.7394 25.1316 21.6282 24.9999 21.5365H24.9912C24.862 21.6283 24.7478 21.7396 24.6527 21.8663L24.6006 22.8559L24.427 22.2917C24.3975 22.405 24.383 22.5218 24.3836 22.6389C24.3836 22.8993 24.6093 24.974 24.7655 27.9167C24.9218 30.8594 24.5572 31.3976 24.5572 31.3976C24.729 31.6648 24.8771 31.9466 24.9999 32.2396C25.1227 31.9466 25.2708 31.6648 25.4426 31.3976C25.4426 31.3976 25.078 30.8507 25.2343 27.9167Z" fill="#CE0E2D"/>
<path d="M49.3056 21.3021C42.8212 17.526 33.2899 15.6076 28.8889 15.5295C28.3594 15.5208 28.0035 15.651 27.8125 15.9983C27.5087 16.5712 27.9427 17.2135 28.125 17.4913C28.5243 18.0903 29.0538 19.0191 29.0538 20.1389C29.0538 22.309 27.3004 23.9149 25.1389 23.9149H24.8611C22.6997 23.9149 20.9462 22.309 20.9462 20.1389C20.9462 19.0191 21.4757 18.0903 21.875 17.4913C22.0573 17.2135 22.4913 16.5712 22.1875 15.9983C21.9965 15.651 21.6406 15.5208 21.1111 15.5295C16.7101 15.6076 7.17883 17.526 0.694458 21.3021C0.703139 21.3194 1.73612 23.0903 3.8021 22.9427L2.84724 23.4201C2.85592 23.4375 3.79342 24.9826 6.06772 24.7569L4.93925 25.3125C4.93925 25.3299 6.033 26.8576 8.42015 26.8142C7.87328 27.092 7.53474 27.2743 7.54342 27.2743C7.5521 27.2743 9.12328 28.8108 11.6754 28.3941L10.7899 29.0364C10.7986 29.0451 12.6736 30.0694 14.8785 29.7482L14.0278 30.3993C14.0191 30.3732 17.4045 31.3281 19.8177 30.2691C21.8837 29.3576 23.0382 27.118 23.2986 26.5538C23.7066 26.6406 24.0712 26.6927 24.3403 26.7274C24.3403 26.7535 24.783 26.7969 25 26.7882C25.217 26.7795 25.6597 26.7535 25.6597 26.7274C25.9288 26.6927 26.2934 26.6406 26.7014 26.5538C26.9618 27.118 28.1163 29.3576 30.1823 30.2691C32.5955 31.3281 35.9809 30.3732 35.9722 30.3993L35.1215 29.7482C37.3264 30.0694 39.2101 29.0451 39.2101 29.0364L38.3247 28.3941C40.8767 28.8108 42.4566 27.283 42.4566 27.2743C42.4566 27.2656 42.1267 27.092 41.5799 26.8142C43.967 26.8576 45.0608 25.3299 45.0608 25.3125L43.9323 24.7569C46.2066 24.9826 47.1441 23.4375 47.1528 23.4201L46.1979 22.9427C48.2639 23.0903 49.2969 21.3194 49.3056 21.3021Z" fill="#0A2240"/>
<path d="M23.1337 25.408C23.1337 25.408 17.3438 23.4722 19.8612 17.3003C19.8612 17.3003 13.7327 17.5521 5.33857 20.9462C5.33857 20.9462 4.74829 21.1892 4.40107 21.3108C4.05385 21.4323 3.50697 21.658 2.71704 21.276C2.71704 21.276 10.3993 17.2569 20.2605 16.3281C21.5626 16.2066 21.7362 16.3976 21.3889 16.8924C21.0417 17.3871 17.5869 21.7795 23.1337 25.408Z" fill="white"/>
<path d="M17.986 19.0451C13.0208 19.6962 8.16833 21.4236 8.16833 21.4236C8.99299 22.8906 11.2326 22.2743 11.2326 22.2743C15.4426 21.0851 17.3176 20.6858 17.9253 20.5642C17.8993 20.0571 17.9196 19.5486 17.986 19.0451Z" fill="#B4975A"/>
<path d="M18.0208 21.467C17.1962 21.6233 13.7153 22.3437 10.2084 23.6545C10.2084 23.6545 11.3195 24.9132 13.507 24.2882C15.3559 23.7674 17.717 23.0122 18.4288 22.7865C18.2375 22.3657 18.1004 21.9223 18.0208 21.467Z" fill="#B4975A"/>
<path d="M18.7933 23.4809C18.0468 23.724 14.2968 24.9392 12.7169 25.5469C12.7169 25.5469 13.6284 26.7622 16.2412 25.7292C18.0641 25.0087 19.0711 24.592 19.5138 24.401C19.2419 24.1206 19.0003 23.8122 18.7933 23.4809Z" fill="#B4975A"/>
<path d="M20.0955 24.9306C19.4445 25.217 17.0139 26.276 15.6077 26.9531C15.6077 26.9531 17.3698 27.8212 19.6007 26.4497L20.9809 25.5382C20.6707 25.3586 20.3747 25.1555 20.0955 24.9306Z" fill="#B4975A"/>
<path d="M21.658 25.8941C21.2153 26.1719 19.3663 27.3351 18.4635 27.9948C18.4635 27.9948 19.9913 28.6285 21.5625 27.1528C22.0746 26.6754 22.3524 26.3976 22.5087 26.25C22.2309 26.1458 21.9444 26.033 21.658 25.8941Z" fill="#B4975A"/>
<path d="M26.8663 25.408C26.8663 25.408 32.6563 23.4722 30.1389 17.3003C30.1389 17.3003 36.2674 17.5521 44.6615 20.9462C44.6615 20.9462 45.2517 21.1892 45.599 21.3108C45.9462 21.4323 46.4931 21.658 47.283 21.276C47.283 21.276 39.6007 17.2569 29.7396 16.3281C28.4375 16.2066 28.2639 16.3976 28.6111 16.8924C28.9583 17.3871 32.4132 21.7795 26.8663 25.408Z" fill="white"/>
<path d="M32.0139 19.0451C36.9792 19.6962 41.8316 21.4236 41.8316 21.4236C41.007 22.8906 38.7674 22.2743 38.7674 22.2743C34.5573 21.0851 32.6823 20.6858 32.0747 20.5642C32.1007 20.0571 32.0803 19.5486 32.0139 19.0451Z" fill="#B4975A"/>
<path d="M31.9791 21.467C32.8038 21.6233 36.2847 22.3437 39.7916 23.6545C39.7916 23.6545 38.6805 24.9132 36.493 24.2882C34.6441 23.7674 32.283 23.0122 31.5712 22.7865C31.7625 22.3657 31.8995 21.9223 31.9791 21.467Z" fill="#B4975A"/>
<path d="M31.2066 23.4809C31.9531 23.724 35.7031 24.9392 37.2829 25.5469C37.2829 25.5469 36.3715 26.7622 33.7586 25.7292C31.9357 25.0087 30.9288 24.592 30.4861 24.401C30.758 24.1206 30.9995 23.8122 31.2066 23.4809Z" fill="#B4975A"/>
<path d="M29.9046 24.9306C30.5556 25.217 32.9862 26.276 34.3924 26.9531C34.3924 26.9531 32.6303 27.8212 30.3994 26.4497L29.0192 25.5382C29.3294 25.3586 29.6254 25.1555 29.9046 24.9306Z" fill="#B4975A"/>
<path d="M28.342 25.8941C28.7934 26.1719 30.6337 27.3351 31.5365 27.9948C31.5365 27.9948 30.0087 28.6285 28.4375 27.1528C27.9254 26.6754 27.6476 26.3976 27.4913 26.25C27.7691 26.1458 28.0556 26.033 28.342 25.8941Z" fill="#B4975A"/>
<path d="M29.7482 28.776C29.75 29.7155 29.4729 30.6344 28.9522 31.4164C28.4315 32.1984 27.6906 32.8083 26.8231 33.169C25.9556 33.5298 25.0006 33.625 24.079 33.4428C23.1573 33.2606 22.3104 32.809 21.6455 32.1453C20.9806 31.4816 20.5275 30.6356 20.3436 29.7143C20.1597 28.793 20.2532 27.8378 20.6123 26.9697C20.9714 26.1015 21.58 25.3594 22.3611 24.8373C23.1421 24.3152 24.0605 24.0365 25 24.0365C26.2578 24.0365 27.4642 24.5355 28.3544 25.4241C29.2447 26.3127 29.7459 27.5182 29.7482 28.776Z" fill="white"/>
<path d="M28.7674 29.7656C28.7674 30.5107 28.5465 31.2391 28.1325 31.8586C27.7185 32.4782 27.1302 32.9611 26.4418 33.2462C25.7534 33.5313 24.9959 33.6059 24.2651 33.4606C23.5343 33.3152 22.863 32.9564 22.3361 32.4295C21.8092 31.9027 21.4504 31.2314 21.3051 30.5006C21.1597 29.7698 21.2343 29.0123 21.5194 28.3239C21.8046 27.6355 22.2875 27.0472 22.907 26.6332C23.5265 26.2192 24.2549 25.9983 25 25.9983C25.9992 25.9983 26.9575 26.3952 27.664 27.1017C28.3705 27.8082 28.7674 28.7665 28.7674 29.7656Z" fill="#B4975A"/>
<path d="M24.9999 23.6632C23.9863 23.6615 22.9949 23.9606 22.1513 24.5227C21.3078 25.0848 20.65 25.8846 20.2613 26.8208C19.8726 27.757 19.7704 28.7875 19.9677 29.7817C20.1651 30.776 20.653 31.6894 21.3698 32.4062C22.0866 33.123 22.9999 33.6109 23.9942 33.8082C24.9885 34.0056 26.019 33.9034 26.9552 33.5147C27.8914 33.126 28.6911 32.4682 29.2532 31.6247C29.8153 30.7811 30.1145 29.7897 30.1128 28.776C30.1105 27.4207 29.5711 26.1216 28.6127 25.1632C27.6544 24.2049 26.3552 23.6655 24.9999 23.6632ZM29.2968 27.9514C29.1409 28.5681 28.854 29.1439 28.4555 29.6398C28.0571 30.1356 27.5565 30.5397 26.9878 30.8246C27.0833 30.1996 27.3524 29.5833 27.6388 28.941C28.0468 28.0121 28.4982 26.9878 28.2985 25.9114C28.805 26.4917 29.1494 27.1954 29.2968 27.9514ZM22.7517 25.026C23.3399 24.6734 24.0032 24.4652 24.6874 24.4184V31.2934C24.3419 31.2751 24.0004 31.2109 23.6718 31.1024C23.6371 30.2517 23.2812 29.4618 22.9426 28.6892C22.3784 27.3958 21.8836 26.276 22.7517 25.026ZM23.6284 31.7535C23.9737 31.8512 24.329 31.9095 24.6874 31.9271V33.1424C24.1265 33.102 23.5784 32.9546 23.0729 32.7083C23.3072 32.4826 23.559 32.1614 23.6284 31.7535ZM25.3124 31.9271C25.6709 31.9095 26.0262 31.8512 26.3715 31.7535C26.4409 32.1614 26.6926 32.4826 26.927 32.7083C26.4214 32.9546 25.8734 33.102 25.3124 33.1424V31.9271ZM26.3281 31.1024C25.9984 31.2067 25.6574 31.2708 25.3124 31.2934V24.4184C25.9966 24.4652 26.66 24.6734 27.2482 25.026C28.1162 26.276 27.6214 27.3958 27.0572 28.6892C26.7187 29.4531 26.3715 30.2517 26.3281 31.1024ZM21.7013 25.9114C21.5017 26.9878 21.9531 28.0121 22.3611 28.941C22.6475 29.592 22.9253 30.2083 23.0121 30.842C22.4405 30.5567 21.9378 30.1503 21.5391 29.6511C21.1404 29.1519 20.8551 28.5719 20.7031 27.9514C20.8489 27.1949 21.1934 26.4908 21.7013 25.9114ZM20.6944 29.5486C21.2426 30.4405 22.056 31.1386 23.0208 31.5451C23.0222 31.5743 23.0193 31.6036 23.0121 31.6319C22.9687 31.9618 22.6909 32.2222 22.4999 32.3698C21.5498 31.7041 20.9009 30.6902 20.6944 29.5486ZM27.4999 32.3698C27.3089 32.2222 27.0399 31.9531 26.9878 31.6319C26.981 31.6035 26.9781 31.5743 26.9791 31.5451C27.9439 31.1386 28.7573 30.4405 29.3055 29.5486C29.099 30.6902 28.4501 31.7041 27.4999 32.3698Z" fill="#0A2240"/>
<path d="M26.5191 17.0226C26.5191 17.0226 26.4844 17.1875 26.3802 17.1875C26.2761 17.1875 25.6684 16.8924 25.3733 16.7361L25.0087 16.5278L24.6268 16.7361C24.3316 16.8924 23.7153 17.1875 23.6198 17.1875C23.5243 17.1875 23.4809 17.0226 23.4809 17.0226C23.4809 17.0226 21.8663 17.9948 21.8663 20.6858C21.8663 22.6823 22.908 23.5937 22.908 23.5937L23.0556 24.158H26.9445L27.092 23.5937C27.092 23.5937 28.1337 22.6823 28.1337 20.6858C28.1337 17.9948 26.5191 17.0226 26.5191 17.0226Z" fill="#0A2240"/>
<path d="M27.2831 20.0087C27.2928 19.3086 27.0457 18.6293 26.5887 18.099C26.5887 18.099 26.5713 18.3333 26.172 18.0729C25.8306 17.8277 25.4204 17.6971 25.0001 17.6997C24.5778 17.701 24.1659 17.8312 23.8196 18.0729C23.4376 18.3333 23.4116 18.099 23.4116 18.099C22.958 18.6313 22.7114 19.3093 22.7171 20.0087C22.7171 20.6944 22.8821 21.033 22.9428 21.1371C23.2814 22.0139 24.0713 22.6302 25.0001 22.6302C25.9289 22.6302 26.6928 22.0226 27.04 21.1632C27.0661 21.1285 27.2831 20.7986 27.2831 20.0087Z" fill="white"/>
<path d="M25.8593 21.8837C25.8593 21.875 25.8506 21.875 25.8506 21.8663C25.8506 21.8576 25.6249 21.441 25.9981 21.1458C25.9981 21.1458 26.8402 21.3281 26.8575 20.2083C26.8575 20.2083 26.8402 20.0868 26.9617 19.8524C26.9617 19.8524 26.7447 19.6528 26.2759 20.0087C25.8072 20.3646 25.5468 21.3629 25.295 21.1285C25.0433 20.8941 25.1301 19.592 24.9999 19.5399C24.8697 19.592 24.9565 20.8941 24.7047 21.1285C24.453 21.3629 24.1926 20.3646 23.7238 20.0087C23.2551 19.6528 23.0381 19.8524 23.0381 19.8524C23.1596 20.0868 23.1335 20.2083 23.1335 20.2083C23.1596 21.3281 24.0016 21.1458 24.0016 21.1458C24.3749 21.441 24.1492 21.8663 24.1492 21.8663C24.1492 21.8663 24.1405 21.875 24.1405 21.8837C23.1335 20.7986 22.5519 20.9462 22.8384 22.1615C23.1249 23.3767 24.2099 28.4549 24.3836 29.6441C24.3575 30.7118 24.236 31.0851 24.2013 31.1719L24.0971 31.3889L24.2186 31.632C24.3675 31.8542 24.4899 32.0931 24.5832 32.3438L24.9999 33.3941L25.4165 32.3438C25.5138 32.0932 25.639 31.8544 25.7898 31.632L25.9113 31.4063L25.7985 31.1719C25.7638 31.0938 25.6422 30.7292 25.6162 29.6962C25.7638 28.6372 26.8749 23.3681 27.1613 22.1615C27.4478 20.9549 26.8662 20.7986 25.8593 21.8837Z" fill="#0A2240"/>
<path d="M24.3143 27.2049C23.9584 25.3038 23.672 23.8976 23.4376 22.8819C23.264 22.1007 23.7327 22.4132 23.9845 22.8993L24.3143 27.2049Z" fill="#CE0E2D"/>
<path d="M25.6857 27.2049C26.0416 25.3038 26.328 23.8976 26.5624 22.8819C26.736 22.1007 26.2672 22.4132 26.0155 22.8993L25.6857 27.2049Z" fill="#CE0E2D"/>
<path d="M23.7499 20.7726C23.7324 20.7686 23.716 20.761 23.7016 20.7504C23.6872 20.7398 23.6752 20.7264 23.6662 20.7109C23.6573 20.6954 23.6516 20.6783 23.6495 20.6605C23.6475 20.6427 23.6492 20.6247 23.6544 20.6076C23.6615 20.5807 23.6767 20.5565 23.6978 20.5382C23.647 20.4819 23.5918 20.4296 23.5328 20.382C23.5328 20.382 23.4113 20.9288 23.9061 20.8767C23.8903 20.8342 23.8699 20.7934 23.8453 20.7552C23.8315 20.7645 23.8158 20.7708 23.7994 20.7738C23.783 20.7768 23.7661 20.7764 23.7499 20.7726Z" fill="#CE0E2D"/>
<path d="M26.467 20.382C26.408 20.4296 26.3529 20.4819 26.3021 20.5382C26.3232 20.5565 26.3383 20.5807 26.3455 20.6076C26.3536 20.6421 26.3482 20.6784 26.3305 20.7091C26.3127 20.7397 26.2839 20.7624 26.25 20.7726C26.2337 20.7764 26.2169 20.7768 26.2004 20.7738C26.184 20.7708 26.1684 20.7645 26.1545 20.7552C26.13 20.7934 26.1096 20.8342 26.0938 20.8767C26.5885 20.9288 26.467 20.382 26.467 20.382Z" fill="#CE0E2D"/>
<path d="M25.2343 27.9167C25.3818 24.974 25.6162 22.8993 25.6162 22.6389C25.6168 22.5218 25.6022 22.405 25.5728 22.2917L25.3992 22.8559L25.3471 21.8663C25.2487 21.7394 25.1316 21.6282 24.9999 21.5365H24.9912C24.862 21.6283 24.7478 21.7396 24.6527 21.8663L24.6006 22.8559L24.427 22.2917C24.3975 22.405 24.383 22.5218 24.3836 22.6389C24.3836 22.8993 24.6093 24.974 24.7655 27.9167C24.9218 30.8594 24.5572 31.3976 24.5572 31.3976C24.729 31.6648 24.8771 31.9466 24.9999 32.2396C25.1227 31.9466 25.2708 31.6648 25.4426 31.3976C25.4426 31.3976 25.078 30.8507 25.2343 27.9167Z" fill="#CE0E2D"/>
</g>
<defs>
<clipPath id="clip0">
<rect width="50" height="19.4184" fill="white" transform="translate(0 15)"/>
</clipPath>
</defs>
</svg>
