<svg width="50" height="50" viewBox="0 0 50 50" fill="none" xmlns="http://www.w3.org/2000/svg">
<g clip-path="url(#clip0_1020_9623)">
<path fill-rule="evenodd" clip-rule="evenodd" d="M4.31181 34.0242C4.0409 33.9009 3.68495 33.8096 3.3704 33.3154C3.01715 32.7583 3.14181 32.3516 3.2552 31.5816C3.37536 30.7657 3.36186 30.4354 3.13236 29.5282C2.94425 28.783 2.83806 28.527 2.7215 27.6625C2.6495 27.1293 2.59686 26.6806 2.5919 26.3792C2.5847 25.9309 2.6189 25.5111 2.66795 24.8874C2.69495 24.5409 2.77956 24.0491 3.07881 23.1486C3.17736 22.8534 3.44375 22.1554 3.60665 21.8238C3.87981 21.2703 4.17275 20.9963 4.0364 20.0198C3.9842 19.6445 3.84111 19.4428 3.78215 18.9393C3.71556 18.3682 3.75381 18.1 3.8609 17.7468C3.968 17.3953 4.09581 17.1757 4.31406 16.9057C4.44095 16.7492 4.68081 16.4449 5.2325 16.3473C5.2325 16.3473 5.59475 16.2438 5.89131 16.3252C6.6365 16.39 6.5267 17.0479 7.63911 16.3585C8.1719 16.0611 9.08586 15.8235 10.0079 16.4697C10.4016 16.701 10.731 17.4867 10.3076 16.1911C10.1096 15.4211 9.90845 15.0374 9.6389 13.8255C9.32345 12.6794 9.57905 11.5098 10.5138 10.8771C11.1882 10.2849 12.5572 10.5486 14.1448 10.846C15.5379 11.1075 15.8674 10.6688 16.8159 10.7093C17.3492 10.7322 17.8019 10.734 18.2411 10.8371C18.8468 10.9797 19.1883 11.1566 19.5231 11.3388C20.4735 11.8568 20.4186 11.3451 21.7461 11.5197C22.1709 11.5755 22.3379 11.5129 22.7681 11.6372C23.2658 11.7802 23.5741 11.9445 24.0138 12.2005C25.2445 12.917 25.2458 13.078 27.296 12.9885C27.6753 12.9719 28.3517 13.2644 28.7175 13.5033C29.1244 13.7693 30.113 14.3439 30.9865 14.3997C32.0989 14.4708 33.052 14.3291 34.4235 15.3038C35.4252 16.1943 36.67 16.1524 37.7815 16.7554C38.1388 16.949 38.9924 17.6015 39.4118 18.2747C39.5014 18.4191 39.8672 18.6563 40.7807 18.8074C41.602 18.9429 42.4628 19.9176 42.9214 20.598C43.5118 21.1421 43.1657 20.7726 43.9748 21.3365C44.3658 21.6092 44.5621 21.7455 44.9446 22.0313C45.4427 22.4034 45.125 22.1321 45.7199 22.6014C45.8288 22.6869 45.9738 22.8502 46.371 23.2075C46.8872 23.6045 47.1131 23.9577 47.2868 24.3038C47.5798 24.886 47.3453 25.2965 47.0749 25.7793C46.875 26.1344 46.5551 26.7058 46.0452 27.1869C45.4792 27.721 45.5242 27.7364 45.0075 28.0455C43.8335 28.7461 42.9565 28.509 42.4597 29.3455C41.7257 30.5813 41.1353 30.9804 40.5814 31.2396C39.4649 31.7625 38.7156 31.7441 38.0074 32.2998C37.43 32.7525 36.5174 33.3352 35.9004 33.6102C34.7129 34.139 34.5667 33.828 33.754 34.3351C33.4781 34.5075 33.6531 34.408 32.9593 34.9796C32.5597 35.3085 31.9225 35.5875 31.6056 35.6316C31.1913 35.6897 30.7335 35.7351 30.347 35.8386C29.3719 36.0996 29.2656 36.4421 28.191 36.6481C26.9369 36.8889 26.4185 36.7697 25.2215 37.3402C24.9092 37.4892 24.5681 37.6381 24.1109 37.8861C23.7347 38.0908 22.5782 38.3703 21.685 38.4149C21.2957 38.4347 20.9303 38.1781 19.9884 38.6268C18.7725 39.2059 18.7554 39.147 17.7916 39.3423C17.441 39.4134 17.0468 39.3743 16.68 39.3729C15.9794 39.3711 15.2495 39.129 14.5007 39.152C13.733 39.1763 13.9113 39.129 13.2722 39.2015L12.8195 39.2752L12.1522 39.4238C12.1522 39.4503 11.9096 39.4616 11.9096 39.4881C11.2976 39.6222 10.9318 39.5673 10.5735 39.4971C9.9719 39.3778 9.305 39.0188 9.0629 38.6894C8.66511 38.2146 8.61065 37.7578 8.657 37.135C8.88156 36.0497 9.3419 34.5044 9.55565 33.9531C9.55565 33.9531 9.90845 33.1517 9.05481 33.6007C8.1899 33.9194 7.514 33.3618 6.98931 33.5404C6.47181 33.8005 6.15186 34.0381 5.50475 34.1326C4.8329 34.2303 4.31181 34.0242 4.31181 34.0242Z" fill="white"/>
<path fill-rule="evenodd" clip-rule="evenodd" d="M13.9478 38.2691C14.7236 38.1818 14.9091 38.2348 15.6043 38.3257C16.2505 38.4103 16.8689 38.535 17.5092 38.4621C17.83 38.4256 18.1469 38.3645 18.4609 38.2641C19.3586 37.977 19.7754 37.5873 20.8572 37.4401C21.7531 37.3186 21.7536 37.468 22.5389 37.4307C23.3619 37.3916 23.8196 37.0409 24.166 36.8529C24.5864 36.6243 24.6961 36.6058 24.9774 36.4555C25.9945 35.9115 27.1887 35.979 28.3312 35.7C29.1346 35.5037 29.4491 35.1253 30.3464 34.885C30.7028 34.7897 31.0939 34.7964 31.4754 34.7428C31.7675 34.7023 32.2836 34.4427 32.5726 34.1763C33.068 33.7177 33.0131 33.6993 33.3983 33.4824C34.0405 33.1193 34.7677 33.1305 35.4134 32.8308C36.0142 32.5522 36.6321 32.3151 37.1077 31.8354C37.8007 31.1356 38.8947 30.9399 39.7942 30.6136C40.3239 30.4206 41.0196 30.0804 41.6032 29.0715C42.176 28.0833 42.6828 27.9416 43.7011 27.6351C44.3784 27.4308 44.6709 27.2864 45.1925 26.7945C45.6623 26.3517 45.831 26.0669 46.0421 25.7568C46.2837 25.4008 46.7584 24.8162 46.254 24.369C46.0326 24.1723 45.8085 23.8074 45.3328 23.4416C44.9675 23.1126 44.6655 22.929 44.5651 22.8498C44.0171 22.4178 44.4787 22.7589 43.9523 22.4259C43.5805 22.1909 43.4757 22.002 43.0927 21.7859C42.407 21.399 42.3354 21.2847 41.7873 20.6264C41.3117 19.7493 40.5655 19.6273 39.8176 19.4604C39.0949 19.2993 38.5824 18.7228 38.4604 18.5244C38.0761 17.9029 37.4551 17.5947 37.1257 17.416C36.1024 16.8611 34.9225 16.9498 34.0004 16.1299C32.6108 15.1431 32.245 15.3258 30.7843 15.2808C29.9787 15.2565 28.9217 14.7417 28.5774 14.4555C28.2881 14.2147 27.9542 14.0564 27.6558 13.9646C26.6262 13.6473 25.921 14.1922 24.4816 13.4916C24.0607 13.2864 23.6809 13.0051 23.2674 12.7671C23.01 12.6191 22.8139 12.5475 22.4106 12.4606C21.6487 12.2959 20.9854 12.4013 20.0625 12.4796C19.6296 12.5169 19.3726 12.287 18.9748 12.0723C18.6095 11.8747 18.2193 11.7294 17.7359 11.6398C17.1105 11.5238 16.4004 11.6056 15.6731 11.7515C14.2336 12.0403 12.9124 11.3118 11.5242 11.4414C11.2887 11.4634 10.8226 11.7586 10.6665 12.0894C10.4568 12.5326 10.4568 12.7886 10.4878 13.227C10.5301 13.8219 10.6003 13.8642 10.7169 14.2511C10.9689 15.0914 11.0967 15.5485 11.2978 16.1151C11.5314 16.7734 11.5236 17.5749 10.9689 17.8305C10.7016 17.9538 10.2569 17.957 10.0058 17.7652C9.61523 17.4678 9.40148 17.0489 8.96093 16.9624C8.37322 16.8464 7.66806 17.4494 7.04346 17.6135C6.41706 17.7788 6.33741 17.4381 5.90226 17.2365C5.61291 17.1024 5.3348 17.2977 5.17235 17.3877C4.8794 17.551 4.80875 17.8881 4.74034 18.2472C4.6859 18.5347 4.6625 18.8025 4.73359 19.1157C4.83665 19.571 4.9883 19.8443 5 20.1615C5.0279 20.9589 4.9001 21.5439 4.5707 21.9647C4.36145 22.2324 4.0874 22.9712 4.00099 23.2445C3.71209 24.1579 3.74674 23.9986 3.60724 24.8473C3.53569 25.2802 3.5474 25.7662 3.50914 26.1717C3.50194 26.2464 3.55729 27.168 3.60184 27.4429C3.71209 28.1243 3.8399 28.563 3.98345 29.1372C4.19 29.967 4.27865 30.4827 4.25795 31.1244C4.23725 31.7814 3.82279 32.3993 4.21654 32.8632C4.46134 33.1511 5.099 33.4113 5.61785 33.1827C6.14346 32.95 6.52685 32.6759 6.93996 32.6193C7.70092 32.5145 8.19007 32.8402 8.52037 32.8016C8.81152 32.7673 9.32362 32.4748 9.56482 32.4546C9.75698 32.4384 10.1737 32.4199 10.3199 32.5293C10.5517 32.703 10.6948 32.8951 10.656 33.4954C10.6552 33.5045 10.5152 34.1349 10.5139 34.1403C10.274 34.9296 10.0153 35.6622 9.89153 36.2045C9.76237 36.7701 9.14137 37.995 10.4014 38.4968C10.932 38.7078 11.4931 38.6669 12.1883 38.4882C12.5407 38.3973 12.687 38.3824 13.0159 38.3275C13.0159 38.3028 13.5096 38.3118 13.5096 38.2875L13.9478 38.2691Z" fill="black"/>
<path fill-rule="evenodd" clip-rule="evenodd" d="M37.8005 19.2664C38.1416 19.4891 38.5335 20.0637 38.8629 20.539C39.2648 20.9048 39.3013 21.1168 40.298 21.2945C40.1054 21.2599 41.1949 21.6356 41.3591 21.7274C41.7875 21.965 41.8969 22.1112 42.2767 22.5442C42.6695 22.9919 42.8256 23.1116 43.6181 23.6412C43.9259 23.8474 43.9808 23.9211 44.5672 24.3378C44.8089 24.5098 45.1148 24.7878 45.2238 25.0165C45.5009 25.597 45.1139 25.8035 44.5114 26.1226C43.5209 26.6477 42.701 26.4978 41.8091 27.4086C41.0648 28.1678 40.2517 29.094 39.7014 29.2604C39.4615 29.3333 38.826 29.5322 38.3923 29.8018C37.9625 30.0691 37.841 30.0605 37.4558 30.4038C36.9981 30.8116 36.7426 31.1041 35.901 31.3948C35.3822 31.5734 34.7698 31.6567 34.2262 31.8196C33.8239 31.9406 33.5021 32.108 33.1444 32.3109C32.598 32.6205 31.9406 33.3451 31.037 33.5129C29.2478 33.8459 29.723 33.8095 28.4473 34.3868C28.1304 34.5303 27.4766 34.6865 27.0176 34.6865C26.2503 34.6865 25.6519 34.8134 24.9765 35.1725C24.4846 35.4344 23.9838 35.9154 23.0184 36.0437C21.8259 36.2021 21.7598 36.0527 20.2793 36.3691C19.8302 36.4658 19.2632 36.7929 18.8348 36.9477C18.3538 37.1219 17.2206 37.1435 16.4201 37.0702C15.638 36.9986 15.0639 36.9973 13.9339 37.202C13.0591 37.3604 12.5875 37.3784 11.7378 37.3568C11.5466 37.3515 11.4026 37.2173 11.2789 37.0157C11.1313 36.7763 11.1138 36.5661 11.1461 36.302C11.2141 35.7472 11.2024 35.7202 11.3333 35.2062C11.3733 35.0501 11.5696 34.0318 11.6042 33.876C11.8233 32.8965 11.8908 31.9086 11.1191 31.4627C10.8779 31.3236 10.2785 31.2341 9.84471 31.311C8.53791 31.5428 8.81196 31.7624 7.97676 31.4672C7.83636 31.4177 7.48131 31.3533 7.27476 31.3619C6.85671 31.3785 6.26091 31.6715 5.73396 31.7543C5.36406 31.8128 5.26731 31.4006 5.27721 31.1058C5.29251 30.6491 5.34021 30.2103 5.31996 29.6996C5.26596 28.3627 5.03241 28.2906 4.87131 27.4847C4.72506 26.7534 4.76736 25.5124 4.73226 25.5475C4.76871 24.5237 5.23266 23.4207 5.49681 23.0396C5.77311 22.64 5.83251 22.4771 6.04266 21.9884C6.26496 21.4714 6.23526 21.0146 6.12231 20.4341C6.11961 20.4202 5.98506 19.9908 6.03366 19.9908C5.99496 19.7173 6.06111 19.4176 6.14841 19.2317C6.28971 18.9306 6.39951 18.7849 6.62451 18.6877C6.76356 18.6269 6.91071 18.554 7.05876 18.5436C7.54431 18.5095 7.64241 18.8208 8.55006 18.4402C9.01986 18.2426 9.48696 18.5072 9.71781 18.5918C10.3474 18.8208 10.238 18.8208 10.639 18.834C11.0201 18.846 11.3869 18.7498 11.7405 18.5351C11.944 18.4109 12.0978 18.3429 12.2184 18.1675C12.322 18.0162 12.4592 17.5991 12.4961 17.3835C12.5411 17.1212 12.6145 16.9565 12.5411 16.3351C12.34 15.5674 12.2671 15.4027 12.1294 14.9167C12.0177 14.5206 11.8827 14.1418 11.826 13.7781C11.8252 13.7715 11.8099 13.3372 11.8099 13.3372C11.7608 12.974 12.0078 12.7134 12.322 12.7107C13.447 12.7018 14.5022 13.0222 15.6911 13.0145C16.6721 13.0082 17.0893 12.8075 18.244 13.2278C18.6463 13.3741 18.8839 13.703 19.5134 13.8803C20.7108 14.2178 21.6622 13.4105 22.6864 13.8925C23.5377 14.2934 23.3586 14.0514 24.1592 14.5616C24.5323 14.7997 25.2266 15.202 26.2225 15.3482C26.9119 15.4499 28.0053 15.1655 29.1322 15.9823C29.7657 16.4417 30.3449 16.6276 31.1553 16.7112C32.1098 16.8098 32.2025 16.6752 32.9549 17.2202C33.5084 17.6216 33.3558 17.5321 33.9143 17.9478C34.1672 18.1359 34.3656 18.3277 34.7315 18.4919C34.9407 18.5859 35.7431 18.698 35.7183 18.6967C36.4316 18.7331 36.6323 18.6746 37.1989 18.8762C37.1867 18.8631 37.9301 19.3509 37.8005 19.2664Z" fill="white"/>
<path fill-rule="evenodd" clip-rule="evenodd" d="M13.1554 26.0447V27.5585H18.8475L19.4141 27.0279V25.2114H18.5734L18.5766 24.7505L21.7135 22.9519L21.9768 23.2223C21.2748 23.7159 20.7303 24.1768 20.3095 24.908C19.694 25.9335 19.469 27.3569 19.8344 28.4904C20.0724 29.2581 20.3644 29.7153 20.8766 30.2491C21.3697 30.7571 21.79 31.0496 22.5946 31.4334C23.2525 31.7624 24.8064 32.234 26.0128 32.3618C27.1824 32.4531 28.6449 32.4352 29.6137 32.3069C30.6734 32.1976 31.7706 31.8138 32.429 31.5428C32.9585 31.2872 33.5435 31.0496 33.9931 30.6986C35.1267 29.8836 36.3219 28.6547 36.3403 27.1193H34.2271C33.5616 29.4773 27.164 30.5559 24.6052 28.7317C22.7404 27.2655 23.2705 25.9678 24.0567 25.3648L24.2947 25.6208L23.896 26.0412L23.9253 27.5585H29.3141L30.0083 26.9006V25.255H29.5953L27.7309 23.2444C31.3133 22.4771 33.0868 24.0485 34.1322 25.7666H35.5357L36.2449 25.0723V21.0875L34.75 21.084L33.8545 21.6392C30.6734 20.2321 28.3159 20.3931 25.8481 21.2117L25.4458 20.8027L27.7237 19.4423L29.098 19.4351L29.7707 18.7952L29.7744 17.439H24.2758L23.6912 18.0316V18.9558L18.537 21.9029V19.6327L19.3699 18.7917V17.4245H13.9668L13.2287 18.2872V19.369H14.1134V25.2114H13.8426C13.8426 25.2114 13.119 26.0303 13.1554 26.0447Z" fill="black"/>
<path fill-rule="evenodd" clip-rule="evenodd" d="M14.1133 17.7603H19.048V18.645L18.2075 18.6526V22.4834L24.9341 18.645H24.3419V17.7603L29.4309 17.7531V18.6378L28.2974 18.6526L24.8522 20.6848L29.489 25.6933L29.6501 25.697V26.7171H24.5322V25.6862L25.245 25.6933L22.068 22.3084L18.244 24.5018V25.6933H19.048V26.7099H14.1133V25.6933H14.954V18.645H14.1133V17.7603ZM35.9527 27.4488H34.6C34.0551 28.3442 33.3058 29.0575 31.5877 29.5687C28.2608 30.5559 25.0623 30.0623 23.6583 28.3077C22.4847 26.9551 23.0332 25.7666 23.7825 25.1164L22.3056 23.5225C21.132 24.3226 20.7301 25.0723 20.4777 25.8035C20.2766 26.4066 19.9989 27.6315 20.5654 28.7829C21.2598 29.9709 22.3749 30.6657 23.1246 30.9398C24.3495 31.4515 26.3411 31.9271 28.5898 31.8357C30.1985 31.7984 31.6061 31.5064 32.9584 30.83C33.7446 30.4102 33.9052 30.3183 34.6914 29.5871C34.7627 29.5051 34.8325 29.4269 34.9002 29.3508C35.3911 28.7997 35.7792 28.3642 35.9527 27.4488ZM26.191 21.4626C26.1605 21.4721 26.1314 21.4811 26.1036 21.4898L27.4199 22.9339C30.253 22.2571 33.287 22.9631 34.6217 24.9701L35.9302 24.9552L35.9447 21.4165H34.7679L33.9269 21.965C30.0522 20.2584 27.2659 21.1274 26.191 21.4626Z" fill="#E31837"/>
</g>
<defs>
<clipPath id="clip0_1020_9623">
<rect width="50" height="50" fill="white"/>
</clipPath>
</defs>
</svg>
