<svg width="50" height="50" viewBox="0 0 50 50" fill="none" xmlns="http://www.w3.org/2000/svg">
<g clip-path="url(#clip0_1020_9436)">
<path fill-rule="evenodd" clip-rule="evenodd" d="M45.8506 37.304C42.7307 36.6473 36.541 37.2871 33.0105 44.7546C33.0105 44.7546 26.9735 37.5493 18.5854 36.2832C18.9145 32.2742 13.6022 31.2085 12.5857 24.3111C12.5857 24.3111 8.45867 20.9325 6.39516 15.6117L7.49394 15.9646C7.49394 15.9646 5.88946 14.1879 4.65576 11.1257L5.81734 11.5092C5.81734 11.5092 4.64218 9.9166 3.99988 5.34837C18.2374 15.1399 25.7381 11.723 34.3978 16.6222C40.2752 19.9508 41.6751 23.8156 42.1672 27.6737C42.1672 27.6737 46.5183 31.6149 45.8506 37.304Z" fill="white"/>
<path fill-rule="evenodd" clip-rule="evenodd" d="M45.2562 36.4699C45.3495 31.6276 41.5458 28.1879 41.5458 28.1879C41.1351 25.1266 40.0227 20.6992 34.0952 17.4299C25.0945 12.4697 20.1147 16.5212 5.92554 7.83018C6.22081 9.45503 7.15584 11.7035 8.34711 13.1001L6.88008 12.6191C7.94662 14.8667 9.65462 16.9056 10.5489 17.5674L8.90457 17.0506C10.6465 21.3253 14.0497 23.8572 14.0497 23.8572C14.8252 30.4016 19.626 31.5165 20.0138 35.5417C26.268 36.5116 32.8785 43.2086 32.8785 43.2086C36.3395 37.2591 41.1657 36.1059 45.2562 36.4699Z" fill="black"/>
<path fill-rule="evenodd" clip-rule="evenodd" d="M37.2474 28.047C35.8873 30.2361 33.5879 29.626 32.7683 26.8965L34.4263 26.9974C32.9728 26.1277 31.6525 24.8482 30.6318 23.5874C30.3315 29.6176 36.0062 32.3242 37.8829 28.0895C37.6708 28.0877 37.4588 28.0733 37.2474 28.047Z" fill="#FFFFFE"/>
<path fill-rule="evenodd" clip-rule="evenodd" d="M33.3423 18.2504C26.8217 14.6766 18.8527 16.9972 8.67004 10.6888C9.6789 13.7034 15.9815 17.234 15.9815 17.234L10.4043 15.4207C11.8247 17.8856 17.6385 20.9741 17.6385 20.9741L12.4373 19.2932C14.5917 22.8713 19.4789 25.286 19.4789 25.286L16.4752 25.0689C16.8639 28.4331 21.5119 31.3298 21.7588 33.9261C23.8614 34.7297 26.5705 36.1305 28.6824 37.9462C32.7195 35.9617 31.6063 29.2468 23.9089 19.7217C34.4963 20.3615 34.2044 28.2108 40.2811 27.0823C39.8357 24.9739 39.5481 21.6546 33.3423 18.2504Z" fill="#97233F"/>
<path fill-rule="evenodd" clip-rule="evenodd" d="M40.3148 28.809C41.9201 29.8246 44.1558 32.7298 44.4961 35.2209C43.0138 33.7454 39.8999 32.2394 36.1131 31.7854C37.726 31.3375 39.5622 30.3481 40.3148 28.809ZM44.3433 35.6945C42.0261 35.2269 38.8536 35.8964 36.3913 37.2785C37.015 35.154 35.8805 33.2253 35.8805 33.2253C39.1989 32.9004 42.861 34.4404 44.3433 35.6945Z" fill="#FFB612"/>
<path fill-rule="evenodd" clip-rule="evenodd" d="M37.2474 28.047C35.8873 30.2361 33.5879 29.626 32.7683 26.8965L34.4263 26.9974C32.9728 26.1277 31.6525 24.8482 30.6318 23.5874C30.3315 29.6176 36.0062 32.3242 37.8829 28.0895C37.6708 28.0877 37.4588 28.0733 37.2474 28.047Z" fill="#FFFFFE"/>
</g>
<defs>
<clipPath id="clip0_1020_9436">
<rect width="50" height="50" fill="white"/>
</clipPath>
</defs>
</svg>
