<svg width="50" height="50" viewBox="0 0 50 50" fill="none" xmlns="http://www.w3.org/2000/svg">
<g clip-path="url(#clip0_1202_6488)">
<path d="M27.3557 35.577L24.9769 36.3155C24.7001 36.4017 24.1832 36.5616 23.6335 36.5616C23.1484 36.5611 22.6407 36.4383 22.2446 36.032C22.0179 35.7978 21.8904 35.534 21.8229 35.2605L21.7999 35.1635L21.0455 36.2264C21.0517 36.2436 21.0583 36.2607 21.0649 36.2784L21.0972 36.2328L21.7784 35.2717C21.8465 35.5512 21.9795 35.8229 22.2124 36.0632C23.0793 36.9537 24.4683 36.5222 24.9908 36.3592L27.3689 35.6205C28.0179 35.4199 29.8076 34.8623 30.6668 33.1697C30.7062 33.0918 30.7446 33.012 30.7794 32.9298C30.7676 32.9298 30.7523 32.9298 30.7297 32.9294C29.9288 34.7753 28.0322 35.3674 27.3557 35.577V35.577Z" fill="white"/>
<path d="M30.1857 29.0143L30.1929 29.0596L30.1853 29.0143C29.8168 29.0798 29.4493 29.1249 29.085 29.1525L29.0547 29.155L29.045 29.1837C28.9319 29.5158 28.8163 29.8559 28.7027 30.1916C28.7195 30.1893 28.7359 30.1873 28.7523 30.185V30.1842C28.8644 29.8556 28.978 29.523 29.0885 29.1983C29.4549 29.1691 29.8234 29.1251 30.1929 29.0596C32.7052 28.6192 34.8874 27.4005 36.5343 25.6957C36.6294 25.5762 36.721 25.4544 36.8111 25.3303C35.1392 27.2029 32.85 28.5476 30.1857 29.0143V29.0143Z" fill="white"/>
<path d="M16.5056 22.3879C16.7011 22.3879 16.8833 22.4109 17.0527 22.4552C17.3229 22.5266 17.5583 22.653 17.762 22.837L17.8342 22.7827C17.3464 21.8055 16.9882 20.7451 16.7896 19.6151C16.6709 18.9391 16.6136 18.2666 16.6136 17.6036C16.6136 12.0898 20.5706 7.20569 26.1898 6.22105C26.8506 6.10487 27.5066 6.04785 28.1556 6.04528C27.956 6.03658 27.7549 6.0327 27.5527 6.03454C27.4979 6.03198 27.4422 6.03019 27.3869 6.02836C27.3321 6.03224 27.2764 6.03758 27.2216 6.04193C27.2031 6.04324 27.1847 6.04475 27.1658 6.04654C26.871 6.0729 26.5752 6.11105 26.2784 6.16042C26.2466 6.16529 26.2139 6.17016 26.1822 6.17551C19.8639 7.28378 15.6371 13.3037 16.7446 19.6228C16.9442 20.7571 17.304 21.8224 17.7927 22.8029C17.5885 22.6189 17.3526 22.491 17.0849 22.4171C17.0665 22.4117 17.0471 22.4076 17.0281 22.4028C17.0102 22.3984 16.9913 22.3938 16.9729 22.3902C16.5875 22.3083 16.1438 22.3324 15.6407 22.4652C15.6453 22.4795 15.652 22.4933 15.6566 22.5079C15.9626 22.4281 16.2457 22.3879 16.5056 22.3879V22.3879Z" fill="white"/>
<path d="M30.7994 32.8843C30.7932 32.8997 30.7871 32.9143 30.7794 32.9298C30.7446 33.012 30.7062 33.0918 30.6668 33.1696C30.5906 33.3593 30.4984 33.5381 30.3946 33.7077C29.3782 35.3651 27.1847 36.1167 26.5512 36.3119L24.1724 37.0499C23.8956 37.1361 23.3787 37.2963 22.8306 37.2963C22.3439 37.2958 21.8373 37.1719 21.4422 36.7663C21.2958 36.6156 21.1909 36.4526 21.1177 36.283C21.1105 36.2661 21.1034 36.2502 21.0972 36.2328L21.065 36.2784L21.0348 36.3208L20.7988 36.6548C20.6448 36.87 20.4913 37.0647 20.3367 37.2421C20.3249 37.2551 20.3152 37.2684 20.3035 37.2807C20.2083 37.3882 20.1136 37.4869 20.0164 37.5808C19.9396 37.6758 19.8639 37.7645 19.7851 37.8513C18.9703 38.7451 18.0624 39.1839 17.0696 39.3715C16.8623 39.4117 16.6719 39.4291 16.499 39.4291C15.6863 39.4288 15.2237 39.0491 15 38.7906C14.8199 38.5816 14.6484 38.2819 14.5737 37.8687C14.5691 37.8467 14.566 37.825 14.5619 37.8022L14.5256 37.8584L14.4887 37.9143L13.9596 38.7193C13.9053 38.8078 13.7825 38.9885 13.5865 39.2075C13.5731 39.2224 13.5583 39.2372 13.5455 39.2528C13.458 39.3482 13.3562 39.4496 13.2411 39.5542C13.1684 39.6358 13.0926 39.7198 13.0113 39.8047C12.4985 40.336 11.7707 40.9002 10.6387 41.252L8.58955 41.8871L6.46211 42.5486L7.13102 40.4222L11.1218 27.7359L9.58903 26.9536L6.96777 25.6141L6.93344 25.6476L6.89865 25.6806L5.51279 27.0161L8.17807 28.3761L9.67707 29.142L5.69547 41.7917L5 44L7.2124 43.3137L9.26097 42.6773C10.8096 42.1963 12.1039 41.3247 13.2635 39.6967C13.3485 39.903 13.4606 40.0716 13.5742 40.2027C13.8505 40.524 14.4964 41.0286 15.6863 40.7981C16.7502 40.5983 18.524 39.7257 19.8506 37.9752C19.9002 38.0448 19.955 38.1146 20.0179 38.1806C20.8838 39.0685 22.2738 38.6387 22.7963 38.4752L25.174 37.7372C25.8705 37.5207 29.458 36.0829 30.5721 33.5798C30.6581 33.3874 30.7298 33.188 30.783 32.9828C30.7871 32.9718 30.7891 32.9593 30.7927 32.9485L30.7984 32.9298L30.808 32.8843H30.7994V32.8843ZM13.4488 39.3772C13.4447 39.3833 13.4396 39.3897 13.4345 39.3956C13.4396 39.3897 13.4447 39.3833 13.4488 39.3772ZM13.3475 39.4997C13.3393 39.5107 13.3296 39.5212 13.3198 39.5325C13.3296 39.5212 13.3393 39.5107 13.3475 39.4997Z" fill="#1D1160"/>
<path d="M30.1929 29.0596C29.8234 29.1251 29.4549 29.1691 29.0885 29.1983C28.978 29.523 28.8644 29.8556 28.7523 30.1842V30.185C28.7702 30.1822 28.786 30.1799 28.8045 30.1778C28.8045 30.1771 28.8047 30.1765 28.805 30.176C28.9033 30.1612 29.0025 30.1471 29.1013 30.13C31.9207 29.6359 34.4201 28.1988 36.2492 26.0445C36.3459 25.9304 36.4411 25.8142 36.5343 25.6957C34.8874 27.4004 32.7052 28.6192 30.1929 29.0596V29.0596Z" fill="#1D1160"/>
<path d="M15.6249 22.4222L15.6243 22.4224C15.6289 22.4357 15.6341 22.448 15.6392 22.4614C15.6387 22.4614 15.6387 22.4608 15.6387 22.4608C15.6397 22.4623 15.6407 22.4637 15.6407 22.4652C16.1438 22.3324 16.5875 22.3083 16.9729 22.3902C16.9913 22.3938 17.0102 22.3984 17.0281 22.4028C17.0471 22.4076 17.0665 22.4117 17.0849 22.4171C17.0773 22.3991 17.069 22.382 17.0603 22.3643C16.6822 21.5148 16.4007 20.6062 16.2313 19.6489C16.1131 18.9728 16.0568 18.3004 16.0568 17.6363C16.0568 12.2262 19.8669 7.4227 25.3183 6.31397C25.4227 6.29295 25.5271 6.27324 25.632 6.25485C25.848 6.21617 26.0624 6.18599 26.2784 6.16042C26.5752 6.11105 26.871 6.0729 27.1658 6.04654C27.1847 6.04475 27.2031 6.04324 27.2216 6.04193C27.2763 6.03758 27.3321 6.03224 27.3869 6.02836C27.4007 6.02736 27.413 6.02684 27.4283 6.02584C27.2118 6.01813 26.9938 6.01661 26.7758 6.02044C26.1576 6.0327 25.5343 6.09208 24.9068 6.20187C18.3091 7.35798 13.8838 13.6658 15.0394 20.2633C15.1704 21.0072 15.3674 21.729 15.6249 22.4222V22.4222Z" fill="#1D1160"/>
<path d="M13.0112 39.8047C13.0926 39.7198 13.1684 39.6358 13.241 39.5542C12.8336 39.9199 12.2482 40.3147 11.456 40.5606L9.40686 41.1973L7.19494 41.8835L7.89046 39.675L11.8725 27.0245L10.3725 26.2594L7.70877 24.8999L7.67398 24.9329L6.96776 25.6141L6.93344 25.6476L9.56905 26.9944L11.067 27.7592L7.08594 40.4089L6.39355 42.6184L8.60286 41.9314L10.652 41.2955C11.9734 40.8848 12.7523 40.1847 13.2748 39.5844C13.1945 39.6573 13.1054 39.7313 13.0112 39.8047V39.8047Z" fill="#BEC0C2"/>
<path d="M30.7994 32.8843C30.7932 32.8997 30.7871 32.9143 30.7794 32.9298C30.7446 33.012 30.7062 33.0918 30.6668 33.1697C29.8076 34.8623 28.0179 35.4199 27.369 35.6205L24.9908 36.3592C24.4683 36.5222 23.0793 36.9537 22.2124 36.0632C21.9795 35.8229 21.8465 35.5512 21.7784 35.2717L21.0972 36.2328C21.1034 36.2502 21.1106 36.2661 21.1177 36.283L21.087 36.326C21.1622 36.4913 21.2661 36.6509 21.4099 36.7986C22.2743 37.6876 23.6643 37.2566 24.1863 37.0941L26.565 36.3554C27.2625 36.1382 29.8598 35.2526 30.7021 33.2014C30.7313 33.1297 30.7584 33.0568 30.783 32.9828C30.7871 32.9718 30.7891 32.9593 30.7927 32.9486L30.7984 32.9298L30.8081 32.8843L30.828 32.8088C30.8188 32.8342 30.8086 32.859 30.7994 32.8843Z" fill="#BEC0C2"/>
<path d="M20.0164 37.5808C19.3935 38.1865 18.7257 38.5225 17.8817 38.6816C16.6909 38.9125 16.046 38.4083 15.7692 38.0865C15.524 37.8017 15.2927 37.3562 15.2917 36.695L14.5619 37.8022L14.5255 37.8585C14.5292 37.8802 14.5322 37.903 14.5363 37.9242C14.6171 38.3219 14.7876 38.6144 14.9657 38.8211C15.2435 39.1422 15.8874 39.6466 17.0788 39.4168C18.1745 39.2093 19.1724 38.6965 20.0506 37.6115C20.1366 37.5061 20.22 37.3976 20.3034 37.2807C20.2083 37.3882 20.1136 37.4869 20.0164 37.5808V37.5808Z" fill="#BEC0C2"/>
<path d="M26.2682 6.1154C26.0532 6.14098 25.8393 6.17221 25.6243 6.20952C19.305 7.317 15.0798 13.338 16.1873 19.6571C16.3526 20.6057 16.632 21.5066 17.0035 22.3498C17.0122 22.3677 17.0205 22.3851 17.0281 22.4028C17.0471 22.4076 17.0665 22.4117 17.0849 22.4171C17.3526 22.491 17.5885 22.6189 17.7927 22.8029C17.304 21.8224 16.9442 20.7571 16.7446 19.6228C15.6371 13.3037 19.8639 7.28378 26.1822 6.17551C26.2139 6.17016 26.2466 6.16529 26.2784 6.16042C26.5752 6.11105 26.871 6.0729 27.1658 6.04654C27.1847 6.04475 27.2031 6.04324 27.2216 6.04193C26.9037 6.05319 26.5865 6.07751 26.2682 6.1154Z" fill="#BEC0C2"/>
<path d="M36.5343 25.6957C34.8874 27.4004 32.7052 28.6192 30.1929 29.0596C29.8234 29.1251 29.455 29.1691 29.0885 29.1983C28.978 29.523 28.8644 29.8556 28.7523 30.1842V30.185C28.6418 30.5104 28.5327 30.8321 28.4283 31.1384L29.4657 30.8162L31.4995 30.1847L31.5021 30.1842L31.5087 30.1822L31.0021 32.2613C30.955 32.4552 30.8961 32.6364 30.828 32.8088C30.8188 32.8341 30.8086 32.859 30.7994 32.8843C30.7932 32.8997 30.7871 32.9143 30.7795 32.9298C30.7446 33.012 30.7062 33.0918 30.6668 33.1696C29.8076 34.8623 28.0179 35.4199 27.369 35.6205L24.9908 36.3592C24.4683 36.5222 23.0793 36.9537 22.2124 36.0632C21.9796 35.8229 21.8465 35.5511 21.7784 35.2717L21.0973 36.2328L21.065 36.2784L21.0348 36.3208L20.7989 36.6548C20.6448 36.87 20.4913 37.0647 20.3367 37.2421C20.3255 37.2551 20.3153 37.2684 20.3035 37.2807C20.2083 37.3882 20.1136 37.4869 20.0164 37.5808C19.3936 38.1865 18.7257 38.5225 17.8818 38.6816C16.6909 38.9125 16.0461 38.4083 15.7692 38.0865C15.5241 37.8016 15.2927 37.3561 15.2917 36.695L14.5619 37.8022L14.5256 37.8584L14.4887 37.9143L13.9596 38.7193C13.9053 38.8078 13.7825 38.9885 13.5865 39.2075C13.5732 39.2223 13.5583 39.2372 13.5455 39.2528L13.5461 39.2571C13.5148 39.296 13.4831 39.337 13.4488 39.3771C13.4447 39.3833 13.4396 39.3897 13.4345 39.3955C13.4064 39.4291 13.3772 39.4641 13.3475 39.4997C13.3393 39.5107 13.3296 39.5212 13.3198 39.5325C13.3055 39.5494 13.2896 39.567 13.2748 39.5844C13.1945 39.6573 13.1054 39.7313 13.0113 39.8047C12.6228 40.1064 12.1141 40.4042 11.4693 40.6041L9.42066 41.2415L7.12537 41.9526L7.84699 39.6609L11.8173 27.0475L10.3511 26.3001L7.68679 24.9406L7.674 24.9329L7.70879 24.8999L10.5681 24.0209L15.4365 22.5232C15.5056 22.5023 15.5737 22.4828 15.6408 22.4652C16.1438 22.3324 16.5875 22.3083 16.9729 22.3902C16.9913 22.3938 17.0102 22.3984 17.0281 22.4028C17.0471 22.4076 17.0666 22.4117 17.0849 22.4171C17.3526 22.491 17.5886 22.6189 17.7927 22.8029C17.304 21.8224 16.9442 20.7571 16.7446 19.6228C15.6371 13.3037 19.8639 7.28378 26.1822 6.17551C26.2139 6.17016 26.2466 6.16529 26.2784 6.16042C26.5752 6.11105 26.871 6.0729 27.1658 6.04654C26.8613 6.05833 26.5532 6.08312 26.2457 6.11897C26.2528 6.11818 26.26 6.11692 26.2682 6.1154C26.5865 6.07751 26.9038 6.05319 27.2216 6.04193C27.2764 6.03758 27.3321 6.03224 27.3869 6.02836C27.4007 6.02736 27.413 6.02684 27.4283 6.02584C33.2733 5.63532 38.5942 9.70978 39.629 15.6126C40.2958 19.4181 39.0282 23.1148 36.5343 25.6957V25.6957Z" fill="#061922"/>
<path d="M38.4908 20.6494C37.8331 22.5844 36.6361 24.2666 35.0291 25.5164C33.4642 26.7336 31.5962 27.479 29.6269 27.6722L29.5563 27.6799L29.5783 27.6131L29.9621 26.4846L30.0399 26.2548L30.0686 26.3124L30.1274 26.2835L30.0399 26.2548C30.4851 24.959 30.3761 23.9603 29.7231 23.2861C29.0373 22.5806 27.9805 22.5727 27.4376 22.74C26.0153 23.1604 25.5066 23.7175 24.8367 24.5837L24.739 24.7101L24.7569 24.5512C24.8316 23.7843 24.6469 23.164 24.2042 22.7072C23.4979 21.977 22.4601 22.0491 22.0097 22.1886C21.5609 22.3278 21.1668 22.49 20.8045 22.6842C20.5056 22.8449 19.7835 22.8501 19.6622 22.6484C18.0855 20.0118 17.7477 16.8326 18.7354 13.9268C19.633 11.2891 21.5041 9.15759 24.0046 7.92706C26.5066 6.69575 29.3357 6.51228 31.9739 7.41019C34.6126 8.30857 36.7431 10.1799 37.9744 12.6799C39.2057 15.1799 39.389 18.0105 38.4908 20.6494V20.6494Z" fill="#E56020"/>
<path d="M38.7364 12.8186C39.002 13.2661 38.9555 13.2746 38.9555 13.2746L38.9703 13.2817L42.4176 9.23693C22.261 11.0724 12.2498 18.9266 12.2498 18.9266C12.2498 18.9266 17.1013 16.5424 20.2293 15.577C26.9867 13.4946 38.0189 11.6023 38.7364 12.8186Z" fill="#061922"/>
<path d="M39.5307 16.5261C39.7809 16.9498 39.7994 17.1423 39.7994 17.1771L43.6929 12.7945C22.4217 14.7367 11.8577 23.024 11.8577 23.024C11.8577 23.024 16.9831 20.5064 20.2886 19.4875C27.2682 17.3354 38.6934 15.1128 39.5307 16.5261V16.5261Z" fill="#061922"/>
<path d="M39.1862 20.435L39.0153 21.6757L39.024 21.6788L43.5429 16.6791H43.5373C22.1264 18.6238 12.719 26.1691 12.719 26.1691C12.719 26.1691 16.7518 24.067 20.0251 23.0652C27.0455 20.9179 38.3459 19.0153 39.1862 20.435Z" fill="#061922"/>
<path d="M42.4176 9.23693L43.3557 8.13637C22.6648 10.6783 12.2262 18.9266 12.2262 18.9266C12.2262 18.9266 12.2584 18.9089 12.3086 18.88C13.1576 18.2415 23.1535 10.9908 42.4176 9.23693Z" fill="#BEC0C2"/>
<path d="M44.6038 11.7684C22.9892 14.2935 11.8577 23.024 11.8577 23.024C11.8577 23.024 22.4217 14.7367 43.6929 12.7945L44.6038 11.7684V11.7684Z" fill="#BEC0C2"/>
<path d="M44.479 15.6423C31.6499 17.1742 22.9754 20.5279 18.0015 23.0296C18.0153 23.0463 18.0286 23.0622 18.0404 23.0783C22.9109 20.7571 31.2461 17.796 43.5374 16.6791H43.543L44.4821 15.6415L44.479 15.6423Z" fill="#BEC0C2"/>
<path d="M13.6264 26.0358L11.1479 24.771L16.1259 23.24C16.3817 23.1609 16.6274 23.1084 16.8449 23.1084C17.0553 23.1084 17.2415 23.1583 17.3746 23.2871C17.5077 23.4163 17.5819 23.6185 17.5819 23.9043C17.5819 24.1676 17.5199 24.5048 17.3843 24.935L15.2999 31.5949L19.477 25.5657C20.3634 24.2771 20.9365 23.4032 22.6868 22.8613C22.7446 22.8437 22.8659 22.8211 23.0169 22.8209C23.2124 22.8211 23.4549 22.859 23.6535 23.0082C23.8526 23.1563 23.9979 23.416 23.9974 23.8344C23.9974 24.1151 23.9324 24.4693 23.7784 24.916L21.9053 30.3485L25.6243 25.4562C26.5711 24.2124 26.8188 23.7909 28.1095 23.414C28.1679 23.3958 28.2937 23.3741 28.4509 23.3741C28.6637 23.3741 28.9299 23.414 29.1494 23.5704C29.37 23.7267 29.5343 24.0031 29.5327 24.4483C29.5327 24.7249 29.4713 25.0663 29.3254 25.4921L26.9335 32.534L30.2334 31.5089L30.2139 31.587C29.7912 33.3167 28.1136 33.8759 27.3689 34.1085L24.9903 34.8465C24.5619 34.98 24.2272 35.0407 23.9688 35.0407C23.7062 35.0407 23.5184 34.9759 23.3976 34.8536C23.2768 34.7303 23.2292 34.5568 23.2292 34.3556C23.2298 34.0765 23.3188 33.7367 23.4447 33.3666L25.0179 28.7779L20.1929 35.5811C19.4857 36.5706 18.87 36.9762 18.0102 37.1369C17.8751 37.1627 17.7538 37.1752 17.6438 37.1752C17.3475 37.1755 17.132 37.0836 16.9959 36.9232C16.8597 36.7633 16.804 36.5417 16.804 36.2922C16.804 36.0125 16.873 35.694 16.9877 35.3708L19.3516 28.5281L13.3234 37.6888C13.3198 37.6944 12.7753 38.6387 11.4544 39.0486L9.32291 39.7096L13.6264 26.0358V26.0358ZM26.9037 32.6187L26.8613 32.6041L26.9037 32.6187Z" fill="white"/>
</g>
<defs>
<clipPath id="clip0_1202_6488">
<rect width="39.6039" height="38" fill="white" transform="translate(5 6)"/>
</clipPath>
</defs>
</svg>
