<svg width="50" height="50" viewBox="0 0 50 50" fill="none" xmlns="http://www.w3.org/2000/svg">
<g clip-path="url(#clip0_1020_9764)">
<path fill-rule="evenodd" clip-rule="evenodd" d="M5.99976 25.0176C5.99976 35.4843 14.5148 43.9993 24.9814 43.9993C35.4476 43.9993 43.963 35.4843 43.963 25.0176C43.963 14.5514 35.4476 6.03638 24.9814 6.03638C14.5148 6.03638 5.99976 14.5514 5.99976 25.0176Z" fill="black"/>
<path fill-rule="evenodd" clip-rule="evenodd" d="M24.9812 43.5837C35.2339 43.5837 43.5461 35.2716 43.5461 25.0183C43.5461 14.7656 35.2339 6.45345 24.9812 6.45345C14.728 6.45345 6.41583 14.7656 6.41583 25.0183C6.41583 35.2716 14.728 43.5837 24.9812 43.5837Z" fill="#A5ACAF"/>
<path fill-rule="evenodd" clip-rule="evenodd" d="M24.9814 40.5507C33.5344 40.5507 40.4683 33.6168 40.4683 25.0637C40.4683 16.5107 33.5344 9.57642 24.9814 9.57642C16.4279 9.57642 9.49402 16.5107 9.49402 25.0637C9.49402 33.6168 16.4279 40.5507 24.9814 40.5507Z" fill="#FFFFFE"/>
<path fill-rule="evenodd" clip-rule="evenodd" d="M25.0621 25.0839C25.241 18.7404 31.233 17.2511 32.7385 17.3878C29.0273 17.1862 25.3648 15.618 25.0818 9.74935C24.6347 15.2069 22.4448 16.7584 17.398 17.4061C21.0029 17.5889 24.6518 19.0154 25.0621 25.0839Z" fill="#FFB612"/>
<path fill-rule="evenodd" clip-rule="evenodd" d="M32.7598 32.9365C32.9387 26.593 38.8253 25.0278 40.3312 25.1644C36.6077 25.0269 33.0211 23.2572 32.7385 17.389C32.2914 22.8469 30.1088 24.4373 25.0621 25.085C28.667 25.2677 32.3491 26.868 32.7598 32.9365Z" fill="#C60C30"/>
<path fill-rule="evenodd" clip-rule="evenodd" d="M25.1543 40.487C25.3327 34.1427 31.253 32.8003 32.759 32.937C29.0478 32.735 25.3443 30.9545 25.0611 25.0854C24.6142 30.5433 22.4892 32.1829 17.4428 32.8302C21.0473 33.0138 24.7435 34.419 25.1543 40.487Z" fill="#00539B"/>
<path fill-rule="evenodd" clip-rule="evenodd" d="M13.3455 23.1714C13.4088 23.2824 13.4719 23.448 13.4629 23.7426H13.0351L12.8024 23.7444C12.7969 23.6423 12.7815 23.5099 12.7141 23.448C12.6142 23.3571 12.3878 23.4075 12.328 23.5339C12.2196 23.7609 12.3583 23.9745 12.7076 24.0859C12.7036 24.0859 12.7302 24.0981 12.7566 24.1103C12.7822 24.1221 12.8075 24.1337 12.8038 24.1337C13.1338 24.2947 13.2251 24.3736 13.3486 24.5479C13.3856 24.6004 13.4582 24.7374 13.4877 24.9048C13.5505 25.2626 13.4604 25.4846 13.3797 25.6806C13.3797 25.6806 13.349 25.7732 13.264 25.8523C12.9173 26.1758 12.437 26.19 12.0808 26.0209C11.9169 25.9423 11.7905 25.8664 11.7004 25.664C11.6116 25.4654 11.5916 25.2852 11.6172 24.9923L12.282 24.9885C12.2696 25.0816 12.2969 25.3169 12.3593 25.3822C12.4212 25.4471 12.673 25.5102 12.77 25.3386C12.8042 25.2784 12.8127 25.0167 12.7068 24.9159C12.5835 24.7973 12.4705 24.7447 12.3468 24.6871H12.3467C12.2704 24.6516 12.19 24.6141 12.1005 24.5581C11.7653 24.3489 11.5873 23.9736 11.6087 23.6175C11.6189 23.4489 11.665 23.3315 11.747 23.1837C11.829 23.0377 11.9451 22.9045 12.1129 22.831C12.5595 22.6351 13.1051 22.747 13.3455 23.1714ZM23.4714 24.4862C23.4671 24.2761 23.4287 24.0584 23.3113 23.9402C23.1021 23.7279 22.7097 23.6191 22.3942 23.7724C22.3888 23.775 22.3835 23.7774 22.3782 23.7797L22.3669 23.7845L22.3458 23.7927L22.3367 23.7962C22.2664 23.823 22.1969 23.8495 22.0718 24.0042C21.9967 24.0969 21.9753 24.2344 21.968 24.3534C21.9531 24.6054 22.0364 24.9376 22.3792 25.0243L22.4037 25.0302L22.4186 25.0337L22.4449 25.0399L22.4701 25.0456L22.4713 25.0459C22.6368 25.0836 22.8052 25.122 22.8912 25.2518C22.9455 25.3336 22.9317 25.369 22.9077 25.4302L22.9056 25.4354C22.8698 25.5268 22.6662 25.5255 22.5846 25.4934C22.5039 25.4627 22.4536 25.3683 22.4642 25.2868L21.9424 25.2902L21.944 25.323C21.9527 25.5054 21.9582 25.6222 22.0308 25.7629C22.1051 25.9072 22.255 26.0122 22.3924 26.0541C22.6725 26.1391 22.9808 26.1241 23.2092 25.9832C23.2511 25.9572 23.3685 25.8504 23.4163 25.7646C23.4949 25.6211 23.5414 25.4375 23.471 25.1968L23.4672 25.1837C23.4374 25.0795 23.4335 25.0658 23.4133 25.0268C23.2936 24.7983 23.1407 24.7473 22.9819 24.6942L22.9642 24.6882C22.9664 24.6882 22.9428 24.6825 22.9139 24.6755L22.8904 24.67L22.8902 24.6699C22.8518 24.6607 22.8132 24.6515 22.8159 24.6515C22.5248 24.6186 22.5069 24.4539 22.5453 24.342C22.5773 24.2493 22.6512 24.2185 22.7468 24.2185C22.8279 24.2194 22.9078 24.2761 22.9227 24.3359C22.932 24.3744 22.9319 24.4179 22.9317 24.4669V24.4836L23.4714 24.4862ZM20.7473 23.7295V26.0522H21.3633V24.7059C21.3639 24.696 21.3641 24.686 21.3644 24.6759V24.6757C21.368 24.5412 21.3723 24.3861 21.8561 24.4203V23.7128H21.7058C21.5 23.7589 21.4453 23.8546 21.3544 24.0147L21.3519 23.723L20.7473 23.7295ZM13.8028 23.7304L13.5565 23.7381L13.5591 24.2744L13.7913 24.2667L13.7959 25.4993C13.7982 26.0742 14.2313 26.0665 14.5374 26.0609C14.5799 26.0602 14.6198 26.0595 14.656 26.0603L14.6564 25.3644C14.4254 25.3679 14.4261 25.3259 14.4276 25.2219L14.4279 25.1932V24.2786L14.6674 24.2825L14.6649 23.733L14.4279 23.7381L14.4253 23.1745L13.8028 23.516V23.7304ZM18.2013 26.0712V22.7981L18.8285 22.7998V26.0712H18.2013ZM19.5268 25.395C19.5276 25.6033 19.9827 25.646 19.9939 25.3834V25.3173L20.5063 25.3147L20.5071 25.5884C20.5122 25.7703 20.4366 25.968 20.1292 26.0739C19.8308 26.1669 19.6349 26.1236 19.4576 26.0846L19.4084 26.0739C19.1578 25.9821 19.0362 25.7827 19.0247 25.5018V24.3685C19.0131 24.1559 19.1314 23.9706 19.3368 23.8357C19.6869 23.6829 19.8781 23.7239 20.1412 23.8148C20.3918 23.9515 20.5049 24.1205 20.5075 24.3567V25.0756H19.5246L19.5268 25.395ZM19.549 24.5896L20.0127 24.5912C20.1083 24.1852 19.4713 24.1327 19.549 24.5896ZM17.0307 25.395C17.0321 25.6033 17.4872 25.646 17.4988 25.3834V25.3173L18.0106 25.3147L18.012 25.5884C18.0163 25.7703 17.9411 25.968 17.6337 26.0739C17.3352 26.1669 17.1394 26.1236 16.9621 26.0846L16.9129 26.0739C16.6623 25.9821 16.5406 25.7827 16.5291 25.5018V24.3685C16.5176 24.1559 16.6363 23.9706 16.8413 23.8357C17.1914 23.6829 17.383 23.7239 17.6452 23.8148C17.8963 23.9515 18.009 24.1205 18.012 24.3567V25.0756H17.0317L17.0307 25.395ZM17.0535 24.5896L17.5171 24.5912C17.6127 24.1852 16.9757 24.1327 17.0535 24.5896ZM15.3322 25.395C15.3336 25.6033 15.7887 25.646 15.8002 25.3834V25.3173L16.3121 25.3147L16.3135 25.5884C16.3181 25.7703 16.2425 25.968 15.9351 26.0739C15.6365 26.167 15.4402 26.1236 15.263 26.0845H15.2629L15.2144 26.0739C14.9638 25.9821 14.8421 25.7827 14.8305 25.5018V24.3685C14.819 24.1559 14.9377 23.9706 15.1426 23.8357C15.4923 23.6829 15.6845 23.7239 15.9467 23.8148C16.1977 23.9515 16.3104 24.1205 16.3135 24.3567V25.0756H15.3331L15.3322 25.395ZM15.3549 24.5896L15.8186 24.5912C15.9142 24.1852 15.2772 24.1327 15.3549 24.5896Z" fill="black"/>
</g>
<defs>
<clipPath id="clip0_1020_9764">
<rect width="50" height="50" fill="white"/>
</clipPath>
</defs>
</svg>
