<svg width="50" height="50" viewBox="0 0 50 50" fill="none" xmlns="http://www.w3.org/2000/svg">
<path d="M25 43C34.9411 43 43 34.9411 43 25C43 15.0589 34.9411 7 25 7C15.0589 7 7 15.0589 7 25C7 34.9411 15.0589 43 25 43Z" fill="white"/>
<path d="M25 8.4875C15.8937 8.4875 8.48749 15.8938 8.48749 25C8.48749 34.1063 15.8937 41.5125 25 41.5125C34.1063 41.5125 41.5125 34.1063 41.5125 25C41.5125 15.8938 34.1063 8.4875 25 8.4875ZM36.9375 15.825C38.8184 18.2546 39.9032 21.2057 40.0438 24.275H33.825C33.9649 21.2045 35.0522 18.2526 36.9375 15.825ZM13.0625 15.825C14.9478 18.2526 16.0351 21.2045 16.175 24.275H9.95624C10.0968 21.2057 11.1816 18.2546 13.0625 15.825ZM13.0625 34.175C11.1816 31.7454 10.0968 28.7944 9.95624 25.725H16.175C16.033 28.7951 14.946 31.7464 13.0625 34.175ZM25.725 40.0438V35.7313H24.275V40.0438C20.3679 39.8626 16.6868 38.16 14.0187 35.3C16.2135 32.5759 17.4774 29.2201 17.625 25.725V24.275C17.4774 20.778 16.2136 17.4202 14.0187 14.6938C16.6868 11.8338 20.3679 10.1312 24.275 9.95V14.2313H25.725V9.95C29.6305 10.1302 33.3101 11.8331 35.975 14.6938C33.7793 17.4193 32.5173 20.778 32.375 24.275V25.725C32.5178 29.22 33.7798 32.5767 35.975 35.3C33.3101 38.1607 29.6305 39.8636 25.725 40.0438ZM36.9375 34.175C35.054 31.7464 33.967 28.7951 33.825 25.725H40.0438C39.9032 28.7944 38.8184 31.7454 36.9375 34.175Z" fill="#061922"/>
<path d="M21.3187 18.0813V31.8625H28.6812V29.9688H23.2937V18.0813H21.3187Z" fill="#C8102E"/>
<path d="M31.1812 22.7V17.0187C31.1812 16.1687 30.8438 15.825 30 15.825H19.9813C19.1563 15.825 18.8125 16.1687 18.8125 17.0187V32.975C18.8125 33.825 19.1563 34.175 19.9813 34.175H30C30.8438 34.175 31.1812 33.825 31.1812 32.975V27.2938H29.2V32.4313H20.7875V17.5625H29.2V22.7H31.1812Z" fill="#1D428A"/>
<path d="M28.6812 29.4312V18.0812H23.9L23.85 29.4312H25.7687L25.8 25.8937H26.775L26.7562 29.4312H28.6812ZM26.7562 24.0062H25.8V19.975H26.7562V24.0062Z" fill="#C8102E"/>
</svg>
