<svg width="50" height="50" viewBox="0 0 50 50" fill="none" xmlns="http://www.w3.org/2000/svg">
<g clip-path="url(#clip0)">
<path d="M36.4044 16.9284C35.9123 16.198 35.3497 15.5176 34.7249 14.8969C34.4536 14.6256 34.1708 14.3659 33.8823 14.1177L40 8H22.172L15.2866 14.8796C15.2866 14.8853 15.2809 14.8911 15.2751 14.8969C14.6503 15.5176 14.0877 16.198 13.5956 16.9284C13.0997 17.6658 12.6745 18.4485 12.3259 19.2659C11.6137 20.9607 11.2468 22.7805 11.2468 24.6189C11.2468 26.4573 11.6137 28.2771 12.3259 29.9719C13.0193 31.6058 14.0206 33.091 15.2751 34.3467C15.5464 34.6179 15.8292 34.8776 16.1177 35.1258L10 41.2436H27.828L34.7364 34.3294C35.9872 33.0797 36.9847 31.6001 37.6741 29.9719C38.3863 28.2771 38.7532 26.4573 38.7532 24.6189C38.7532 22.7805 38.3863 20.9607 37.6741 19.2659C37.3255 18.4485 36.9003 17.6658 36.4044 16.9284Z" fill="#061922"/>
<path d="M33.9169 15.6876C33.6514 15.4163 33.3686 15.1624 33.0858 14.92L25.6002 22.4055C25.9801 22.512 26.326 22.7148 26.6044 22.9942H26.6102C27.0427 23.429 27.2854 24.0172 27.2854 24.6304C27.2854 25.2436 27.0427 25.8319 26.6102 26.2666L12.7472 40.1297H14.369L27.4182 27.0804C27.7397 26.7607 27.9951 26.3807 28.1697 25.9622C28.3442 25.5437 28.4347 25.0949 28.4357 24.6415C28.4368 24.188 28.3485 23.7388 28.1759 23.3195C28.0033 22.9002 27.7498 22.519 27.4298 22.1978L28.2435 21.384C29.1034 22.2499 29.5849 23.4212 29.5828 24.6415C29.5806 25.8617 29.0949 27.0314 28.232 27.8942L15.9965 40.1297H17.6183L29.0458 28.7022C30.1233 27.6241 30.7295 26.1628 30.7317 24.6386C30.7339 23.1143 30.1318 21.6514 29.0573 20.5702L29.8711 19.7622C31.1608 21.0587 31.8834 22.814 31.8801 24.6427C31.8769 26.4714 31.1481 28.2241 29.8538 29.516L19.2401 40.1297H20.8676L30.6675 30.3297C32.1775 28.8216 33.0269 26.7756 33.0291 24.6415C33.0312 22.5073 32.186 20.4597 30.6791 18.9484L31.4929 18.1347C35.0769 21.7303 35.0712 27.5479 31.4813 31.1435L22.4894 40.1297H24.117L32.2951 31.9515C36.3293 27.9115 36.3351 21.3667 32.3066 17.3209L33.1204 16.5071C37.6048 21.0031 37.5991 28.2809 33.1089 32.7711L25.7503 40.1297H27.372L33.9226 33.5848H33.9169C38.8572 28.6445 38.8572 20.6337 33.9169 15.6933" fill="white"/>
<path d="M16.0889 33.5675C16.3583 33.833 16.6353 34.087 16.92 34.3294L24.4056 26.8438C24.0258 26.7373 23.6799 26.5345 23.4014 26.2551H23.3956C22.9632 25.8203 22.7204 25.2321 22.7204 24.6189C22.7204 24.0057 22.9632 23.4174 23.3956 22.9827L37.2817 9.10234H35.6542L22.5876 22.1689C21.9393 22.8164 21.5741 23.6945 21.572 24.6107C21.5698 25.527 21.9309 26.4067 22.576 27.0573L21.7623 27.8653C20.9025 26.9995 20.4209 25.8281 20.423 24.6078C20.4252 23.3876 20.9109 22.2179 21.7738 21.3551L34.0324 9.10234H32.4048L20.96 20.5471C19.8825 21.6252 19.2763 23.0865 19.2741 24.6107C19.2719 26.135 19.874 27.5979 20.9485 28.6791L20.1405 29.4929C18.8496 28.1962 18.1259 26.4404 18.1281 24.6107C18.1302 22.7811 18.8581 21.027 20.152 19.7334L30.7831 9.10234H29.1613L19.3383 18.9196C16.1986 22.065 16.1928 27.1554 19.3267 30.3009L18.5129 31.1147C16.7914 29.3881 15.8256 27.0489 15.8278 24.6107C15.83 22.1726 16.7999 19.835 18.5245 18.1116L27.5337 9.10234H25.9119L17.7165 17.2978C13.6765 21.3378 13.6707 27.8826 17.6992 31.9284L16.8854 32.7422C12.401 28.2462 12.4068 20.9684 16.8969 16.4783L24.2729 9.10234H22.6511L16.0832 15.6703H16.0889C11.1486 20.6106 11.1486 28.6214 16.0889 33.5675Z" fill="#E03A3E"/>
</g>
<defs>
<clipPath id="clip0">
<rect width="30" height="33.2436" fill="white" transform="translate(10 8)"/>
</clipPath>
</defs>
</svg>
