<svg width="50" height="50" viewBox="0 0 50 50" fill="none" xmlns="http://www.w3.org/2000/svg">
<g clip-path="url(#clip0_1020_9679)">
<path fill-rule="evenodd" clip-rule="evenodd" d="M44.4094 24.3024C42.9424 24.5015 40.3789 25.5631 40.8659 26.1332C41.3528 26.7026 42.773 27.4855 42.9748 27.5844C42.2979 27.5844 40.073 27.8144 39.8246 28.445C39.5754 29.0757 43.044 31.1899 44.314 31.6868C42.7342 31.242 38.9666 30.4999 38.716 31.008C38.4657 31.5161 39.1168 33.0866 39.712 33.5539C39.2763 33.4233 37.0006 32.7761 36.6355 33.6177C36.2342 34.5436 38.4584 37.9403 38.7108 38.5749C37.6854 37.5574 34.8767 35.2765 34.4786 35.5375C34.0805 35.7984 34.1788 37.0697 34.2822 37.7162C33.8967 37.2464 33.2344 36.493 32.6623 36.7184C32.0902 36.9439 32.1608 39.1266 32.1239 40.0565C31.652 38.9624 30.8817 36.76 30.1685 36.8404C29.4554 36.9207 28.6554 38.4194 28.5032 38.9921C28.3944 38.4187 27.9278 37.158 27.222 37.158C26.5163 37.158 24.8752 40.4947 24.3791 41.5787C24.377 40.7398 24.578 36.6467 24.1331 36.4436C23.6883 36.2406 22.1871 37.1739 21.8648 37.5982C21.9842 37.0605 22.0856 35.2429 21.6855 35.0234C21.2849 34.8033 20.1434 34.7342 18.0794 36.6427C18.4221 35.9105 18.9863 35.1138 19.1233 34.3414C19.978 34.2972 20.8242 34.2003 21.6776 34.0335C23.54 35.3812 25.8295 36.1768 28.3042 36.1768C34.5544 36.1768 39.6209 31.1101 39.6209 24.86C39.6209 24.3703 39.5893 23.8879 39.5294 23.4154C39.9485 23.0206 40.3505 22.6383 40.7248 22.2819C40.6392 22.4868 40.5917 22.734 40.5996 23.0384C40.6241 23.9927 43.0959 24.1964 44.4094 24.3024ZM16.2636 28.3711C15.9072 28.1781 14.2492 28.1017 14.2492 28.1017C14.2492 28.1017 16.1161 26.8469 16.0726 25.9394C16.0291 25.0326 13.0516 24.5679 11.8746 24.307C12.9132 24.0881 16.2769 23.3283 16.4213 22.6515C16.5662 21.9753 15.3701 21.4949 14.8673 21.259C15.4307 21.2662 16.8588 21.5054 17.0513 20.8082C17.2714 20.0089 13.7548 17.927 12.9534 17.6383C13.1327 17.6804 16.4819 18.4621 17.7064 18.1972C18.6178 17.9995 17.5554 16.773 17.3801 16.628C17.649 16.7592 19.1845 17.0755 19.6241 16.3466C20.0636 15.6177 18.5723 12.7147 17.7373 11.4843C18.4786 12.2237 21.8648 14.6325 22.3696 14.2226C22.875 13.8126 22.4889 12.4886 22.218 12.0518C22.7638 12.5625 23.3007 13.2452 23.9942 13.2307C24.3414 13.2234 24.7783 12.0754 24.8501 9.48086C25.32 10.9347 26.4417 12.9104 27.2655 12.7905C28.0899 12.6712 28.3714 11.4474 28.4853 10.9261C28.5803 11.4856 29.0132 12.9236 29.5629 12.9764C30.2377 13.0818 31.5288 10.0786 31.9986 8.72167C32.0698 9.3919 31.5782 12.834 32.3057 13.12C33.0326 13.4067 34.2347 11.9575 34.9168 11.1455C34.5029 11.9311 33.6943 13.8311 34.176 14.2858C34.6578 14.7405 36.3232 14.2641 36.9723 13.729C36.7904 14.127 36.7516 14.4453 36.8009 14.7445C36.0608 14.8895 35.2971 15.1024 34.5082 15.3962C32.7263 14.2265 30.5949 13.5451 28.3041 13.5451C22.0546 13.5451 16.9879 18.6117 16.9879 24.8612C16.9879 26.3657 17.2819 27.8011 17.815 29.1139C17.1711 29.591 16.5544 29.9693 15.9223 30.2612C16.3843 29.7109 16.7856 28.6532 16.2636 28.3711ZM47.9803 15.7376C47.9728 15.5659 47.94 15.4639 47.94 15.4639L47.9395 15.4629C47.7306 14.7331 46.9852 14.2823 45.9702 14.2823C45.8624 14.2823 45.7526 14.2877 45.6441 14.2985C44.8664 14.3757 43.4834 14.8442 43.073 14.9876C41.7839 14.6619 40.5756 14.5033 39.3829 14.5033C38.7665 14.5032 38.1533 14.5469 37.5418 14.6323L37.5427 14.6319L37.2904 14.6659C37.2904 14.6659 37.1922 14.3467 37.449 13.6012C37.5821 13.2146 37.7646 12.8591 37.7646 12.8591C37.7646 12.8591 34.9575 14.3181 34.607 13.8524C34.2564 13.3867 35.8261 9.68409 35.8261 9.68409C35.8261 9.68409 33.12 12.6909 32.5884 12.5575C32.38 12.5052 32.3601 11.4162 32.3498 10.2443C32.3357 8.65732 32.3909 6.84204 32.3909 6.84204C32.3909 6.84204 30.1626 12.382 29.619 12.3531C29.1474 12.3281 28.4616 9.37105 28.4616 9.37105C28.4616 9.37105 28.0313 11.9193 27.2578 12.2309C26.4845 12.5426 24.495 7.77706 24.495 7.77706C24.495 7.77706 24.4031 12.5469 23.8497 12.654C23.2965 12.7609 21.5348 10.9783 21.5348 10.9783C21.5348 10.9783 22.3606 13.3542 22.0809 13.6671C21.914 13.8539 20.2196 12.8062 18.4567 11.5418C17.4382 10.8112 16.5867 10.199 16.5867 10.199C16.5867 10.199 17.5803 11.8493 18.3702 13.5742C18.9141 14.7617 19.2441 15.9014 19.1018 16.1232C18.7529 16.6673 16.1365 15.8919 16.1365 15.8919C16.1365 15.8919 17.6238 17.3247 17.5278 17.6936C17.4813 17.8727 16.0022 17.7433 14.4992 17.5379C12.9049 17.3199 11.2826 17.0193 11.2826 17.0193C11.2826 17.0193 16.5922 20.1062 16.4255 20.6619C16.2936 21.1015 12.9892 20.7415 12.9892 20.7415C12.9892 20.7415 15.8623 22.0541 15.8505 22.4878C15.839 22.9216 10.2269 24.3417 10.2269 24.3417C10.2269 24.3417 15.3096 25.4048 15.4068 25.9717C15.5041 26.5385 13.4023 28.3573 13.4023 28.3573C13.4023 28.3573 15.8492 28.5784 15.9707 28.8989C16.0922 29.2192 15.3759 30.4849 14.7545 30.6855C13.9862 30.9335 13.287 31.0912 12.4352 31.0912C12.3127 31.0912 12.1929 31.0878 12.0758 31.0815C12.1179 31.027 12.1596 30.9707 12.1958 30.9173C12.4053 30.6104 12.5614 30.2826 12.6464 29.9698L12.6473 29.9666L12.648 29.9633C12.6917 29.7915 12.7141 29.6204 12.7149 29.4547L12.715 29.4476L12.7147 29.4404C12.7089 29.2522 12.6476 29.0917 12.5366 28.9824C12.3284 28.8009 12.1344 28.8226 11.9952 28.8845L11.5124 29.1212C11.4765 29.137 11.4359 29.1523 11.3869 29.1671C11.2944 29.1948 11.0996 29.2278 10.6957 29.2278C10.3129 29.2278 9.85729 29.1994 9.41667 29.1718C9.41667 29.1718 9.14607 29.1568 9.09381 29.1568C8.56818 29.1568 8.21731 29.3241 8.0059 29.4772L7.8909 29.4166C6.8159 28.8456 5.56473 28.6146 4.78338 28.4704C4.7227 28.4592 4.6647 28.449 4.61006 28.4382C3.74713 28.269 3.27481 27.7568 3.2364 27.7153C3.1633 27.6361 3.06807 27.5337 2.94385 27.4621C2.94385 27.4621 2.71926 27.322 2.38645 27.4244C2.1693 27.5007 2.07756 27.67 2.07756 27.67C1.89145 27.9793 2.06906 28.4331 2.30321 28.9451C2.56959 29.5268 3.40465 30.9793 5.40333 31.9066C6.05768 32.2104 6.91856 32.4268 7.96194 32.5494C8.74736 32.6417 9.41054 32.6533 9.67481 32.6537C9.92926 32.7777 10.7124 33.1397 11.8769 33.5036C13.1552 33.9031 15.1529 34.3782 17.4419 34.389C17.4419 34.389 18.2541 34.3992 18.6926 34.3712C18.7368 34.5541 18.4195 35.2078 18.0382 35.9742C17.5866 36.8822 17.0068 37.9562 17.0068 37.9562C17.0068 37.9562 18.0541 37.0308 19.03 36.3447C20.0124 35.6542 21.1127 35.0993 21.3728 35.4191C21.8644 36.0232 21.3399 38.5165 21.3399 38.5165C21.3399 38.5165 23.3244 36.7604 23.7846 36.9982C23.9952 37.1072 24.0164 38.4194 24.0172 39.8016C24.0182 41.4395 23.976 43.1791 23.976 43.1791C23.976 43.1791 26.7096 37.648 27.2782 37.806C27.8469 37.964 28.4694 40.4859 28.4694 40.4859C28.4694 40.4859 29.5078 37.4134 30.1424 37.488C30.3961 37.4569 30.9413 38.4534 31.4257 39.4721C31.9567 40.5884 32.4116 41.6798 32.4116 41.6798C32.4116 41.6798 32.4226 40.5389 32.5022 39.3732C32.5741 38.32 32.7079 37.2919 32.9394 37.2349C33.4271 37.1148 34.8417 39.0107 34.8417 39.0107C34.8417 39.0107 34.3415 36.3681 34.7334 36.1443C35.1253 35.9203 39.8339 39.991 39.8339 39.991C39.8339 39.991 36.7439 34.2658 37.1198 33.8286C37.4956 33.3915 40.7957 34.2833 40.7957 34.2833C40.7957 34.2833 40.3041 33.7026 39.8832 33.0466C39.4434 32.3606 39.0772 31.5942 39.2492 31.4098C39.4055 31.2423 41.1261 31.4167 42.9039 31.7615C44.9533 32.159 46.2868 32.4425 46.2868 32.4425C46.2868 32.4425 45.0795 31.7892 43.2993 30.718C41.7578 29.7906 40.4018 28.7467 40.4596 28.5774C40.5843 28.2124 44.2657 27.8622 44.2657 27.8622C44.2657 27.8622 43.6479 27.4987 42.9841 27.0928C42.2633 26.6521 41.4938 26.1034 41.4938 25.9025C41.4938 25.7269 42.4169 25.2918 43.6344 24.9172C45.0941 24.4684 46.4442 24.1676 46.4442 24.1676C46.4442 24.1676 41.4254 23.7646 41.112 23.0491C40.898 22.5603 41.2911 21.9231 41.5793 21.5115C41.8674 21.0998 42.2799 20.7262 42.2799 20.7262C43.651 19.4601 45.3961 18.2945 45.9538 17.9517C45.9931 17.9274 46.0307 17.9035 46.0691 17.8796C46.0691 17.8796 47.3566 16.9291 47.4889 16.818C47.6042 16.7212 47.8986 16.4124 47.9648 16.0193C47.9648 16.0193 47.9879 15.9109 47.9803 15.7376Z" fill="white"/>
<path fill-rule="evenodd" clip-rule="evenodd" d="M34.508 15.3966C35.2969 15.1026 36.0606 14.8898 36.8008 14.7448C36.7514 14.4455 36.7902 14.1273 36.9721 13.7292C36.323 14.2644 34.6576 14.7408 34.1759 14.286C33.6941 13.8314 34.5028 11.9314 34.9166 11.1458L34.885 11.1834C34.1979 12.0016 33.0214 13.4026 32.3055 13.1203C31.7806 12.9139 31.8903 11.0647 31.9654 9.79892C31.9945 9.31029 32.0183 8.90859 31.9984 8.72192C31.5285 10.0789 30.2375 13.0821 29.5627 12.9766C29.013 12.9239 28.5801 11.4858 28.4851 10.9264C28.3711 11.4476 28.0897 12.6715 27.2653 12.7907C26.4415 12.9107 25.3198 10.9349 24.8499 9.48112C24.7781 12.0757 24.3411 13.2237 23.994 13.2309C23.4218 13.2429 22.956 12.7801 22.5041 12.3309C22.4083 12.2357 22.3132 12.1412 22.2179 12.052C22.4886 12.489 22.8749 13.8129 22.3694 14.2228C21.8646 14.6327 18.4784 12.224 17.7371 11.4846C18.5721 12.715 20.0634 15.618 19.6239 16.3469C19.1843 17.0757 17.6487 16.7594 17.3799 16.6282C17.5552 16.7732 18.6176 17.9997 17.7061 18.1974C16.4817 18.4623 13.1325 17.6807 12.9532 17.6385C13.7546 17.9272 17.2711 20.0091 17.051 20.8084C16.8914 21.3872 15.8803 21.3207 15.2191 21.2773C15.0836 21.2684 14.9628 21.2604 14.8671 21.2593C14.9085 21.2786 14.9547 21.2998 15.0044 21.3225C15.5578 21.5756 16.5542 22.0312 16.421 22.6518C16.2767 23.3285 12.913 24.0884 11.8744 24.3072C12.0333 24.3425 12.2251 24.3815 12.438 24.4247C13.8021 24.7018 16.0348 25.1553 16.0725 25.9396C16.1159 26.8471 14.249 28.1019 14.249 28.1019C14.249 28.1019 15.9071 28.1783 16.2635 28.3715C16.7854 28.6535 16.3841 29.7113 15.9221 30.2616C16.5542 29.9696 17.1709 29.5912 17.8149 29.1142C17.2817 27.8014 16.9878 26.366 16.9878 24.8615C16.9878 18.6119 22.0544 13.5453 28.3039 13.5453C30.5947 13.5453 32.726 14.2268 34.508 15.3966ZM39.7118 33.5559C39.1166 33.0886 38.4655 31.5182 38.7159 31.0101C38.9664 30.502 42.734 31.2441 44.3137 31.689C43.0437 31.192 39.5753 29.0778 39.8245 28.4472C40.0728 27.8165 42.2977 27.5865 42.9746 27.5865C42.7728 27.4876 41.3527 26.7047 40.8657 26.1353C40.3786 25.5652 42.9422 24.5035 44.4093 24.3045C43.0958 24.1984 40.6239 23.9948 40.5994 23.0405C40.5915 22.736 40.639 22.489 40.7246 22.284C40.3503 22.6405 39.9483 23.0227 39.5292 23.4175C39.5891 23.89 39.6207 24.3724 39.6207 24.8621C39.6207 31.1123 34.5542 36.1789 28.304 36.1789C25.8293 36.1789 23.5399 35.3834 21.6774 34.0357C20.824 34.2024 19.9778 34.2993 19.1231 34.3434C19.0286 34.8761 18.7309 35.4203 18.4429 35.947C18.3132 36.1841 18.1856 36.4175 18.0793 36.6448C20.1432 34.7362 21.2847 34.8054 21.6853 35.0255C22.0854 35.245 21.984 37.0626 21.8646 37.6004C22.187 37.1759 23.6881 36.2428 24.133 36.4457C24.4964 36.6116 24.4287 39.3737 24.3929 40.8369C24.3849 41.1647 24.3784 41.4273 24.3789 41.5809C24.875 40.4968 26.516 37.1601 27.2219 37.1601C27.9276 37.1601 28.3943 38.4208 28.503 38.9943C28.6552 38.4216 29.4553 36.9229 30.1683 36.8425C30.7741 36.7742 31.4209 38.3527 31.8913 39.5001C31.9747 39.7037 32.0526 39.8937 32.1236 40.0585C32.1296 39.9093 32.1328 39.7278 32.1362 39.5272C32.1546 38.4784 32.1819 36.9098 32.6621 36.7206C33.2342 36.4952 33.8965 37.2484 34.282 37.7183C34.1785 37.0719 34.0804 35.8006 34.4784 35.5396C34.8765 35.2786 37.6852 37.5595 38.7106 38.5771C38.647 38.417 38.4578 38.0811 38.217 37.6535C37.5032 36.386 36.3352 34.3122 36.6353 33.6199C37.0004 32.7783 39.276 33.4254 39.7118 33.5559Z" fill="#FC4C02"/>
<path fill-rule="evenodd" clip-rule="evenodd" d="M43.0919 15.3998C43.0919 15.3998 44.8211 14.777 45.6837 14.6914C46.5346 14.6063 47.4065 14.8956 47.5752 15.6231H47.5746C47.1719 14.9919 43.3475 16.2618 42.2601 16.6994C41.9649 16.8186 40.1454 17.6392 38.2869 18.7002L38.2862 18.7008C38.2855 18.7002 38.2855 18.7008 38.285 18.7008C38.2816 18.7022 38.273 18.7061 38.2605 18.7127C37.1607 19.0962 35.0122 20.2772 34.1951 21.0417C33.2083 21.9638 32.612 23.0203 31.8979 24.2854C31.2152 25.495 30.4249 26.8952 29.0829 28.5506C27.8611 30.0578 26.8053 31.1149 25.9724 31.8095C25.4405 32.2583 24.9726 32.5746 24.6285 32.7572C24.6154 32.715 24.6121 32.6821 24.6121 32.6821C24.6102 32.6702 24.6095 32.657 24.6095 32.6425C24.6095 32.3943 24.8687 31.8611 25.112 31.3611L25.1121 31.361C25.1638 31.2545 25.2149 31.1495 25.2626 31.049C25.4465 30.6622 25.5729 30.3465 25.5729 30.3458C25.9954 29.2973 26.2201 28.2956 26.2827 27.9964C26.3783 27.6181 26.6234 26.5492 26.6234 26.5492C26.6234 26.5492 22.2093 30.5145 17.6336 31.8425C16.0751 32.2946 14.3958 32.6623 13.145 32.6886C13.145 32.6886 12.0728 32.6425 12.0017 32.6201C10.915 32.4389 9.62124 31.9374 8.4831 30.7221C8.33746 30.6068 8.19181 30.4861 8.04616 30.3597C8.05425 30.3679 8.07802 30.4003 8.1153 30.4509L8.11533 30.451C8.28509 30.6818 8.73503 31.2935 9.26075 31.7554L9.21161 31.7594C9.00022 31.7769 8.62766 31.8076 7.62044 31.6645C3.80665 31.1222 2.6059 28.1368 2.57494 27.7789C2.52359 27.7934 2.47872 27.8092 2.44649 27.8389C2.47872 27.8085 2.52359 27.7927 2.57494 27.7782C2.71948 27.7374 2.8301 27.857 2.94659 27.983C2.99155 28.0317 3.03739 28.0812 3.0864 28.1229L3.10041 28.1349C3.28556 28.2927 3.73412 28.6752 4.53758 28.826C4.59259 28.8365 4.65078 28.8472 4.71182 28.8584C5.5654 29.016 6.97618 29.2764 8.05737 29.9702L8.05809 29.9689C8.14075 30.0185 8.23412 30.0785 8.33848 30.1455C9.43961 30.8528 11.7636 32.3455 15.6297 30.8322C17.5803 30.0691 19.3234 28.5414 21.9134 25.9791C22.3345 25.5632 22.7517 25.1264 23.1768 24.6755C23.1161 24.3718 22.95 23.8221 22.5843 23.5948C22.0169 23.2402 21.1569 23.2264 20.5894 23.2679C20.4659 23.2771 20.3552 23.2879 20.2554 23.2976C19.8962 23.3328 19.68 23.354 19.5283 23.2323C19.4441 23.1651 19.4394 23.055 19.4855 22.9298C19.8427 22.4948 20.4727 21.9413 22.0953 21.7277C23.0017 21.6085 23.6368 21.633 24.1923 21.6544C24.8933 21.6814 25.4675 21.7035 26.2999 21.4259C26.5951 21.1274 26.9398 20.8162 27.2086 20.5737C27.8301 20.0109 28.4963 19.4501 29.2213 18.8992C29.947 18.3482 30.7311 17.8078 31.5893 17.2852C36.1866 14.4877 39.9337 14.5799 43.0919 15.3998ZM9.22985 29.556L9.39192 29.566C10.2126 29.6174 11.0805 29.6716 11.5008 29.5454C11.7169 29.4807 11.8347 29.3995 11.9256 29.3367C11.9967 29.2876 12.0514 29.2499 12.1236 29.2403H12.1243L12.1278 29.2398C12.1625 29.2341 12.3124 29.2095 12.32 29.4525C12.3194 29.5876 12.3009 29.7254 12.2653 29.8657C12.2001 30.1056 12.0735 30.3956 11.8693 30.6948C11.7453 30.8774 11.5411 31.108 11.5384 31.1106C11.5048 31.1126 11.3474 31.1192 11.2148 31.106C11.0817 31.0928 10.94 31.0692 10.8814 31.0579V31.0584C9.83345 30.8568 8.61278 30.1611 8.17511 29.9117C8.15948 29.9028 8.14484 29.8945 8.13126 29.8868C8.13137 29.8866 8.13149 29.8865 8.1316 29.8864L8.13126 29.8861C8.26641 29.7544 8.59916 29.5171 9.22985 29.556ZM37.4782 24.6786C37.1534 25.6804 36.6545 27.0498 36.0436 28.2084C35.3173 29.5851 34.3605 30.536 33.8562 30.9011C33.7726 30.8504 33.7409 30.7436 33.7383 30.6336C33.7372 30.5802 33.7683 30.4666 33.8175 30.2866C33.9494 29.8043 34.2115 28.8458 34.3347 27.2944C34.8791 26.8851 35.3681 26.4956 35.8004 26.1365C36.35 25.6791 36.9161 25.1842 37.4782 24.6786Z" fill="#008E97"/>
<path fill-rule="evenodd" clip-rule="evenodd" d="M47.3479 16.3852C47.3479 16.3852 47.3479 16.3846 47.3484 16.3846C47.3841 16.3193 47.4803 16.1407 47.4611 16.0207C47.4183 15.7453 46.8266 15.8224 45.3629 16.3173C45.3602 16.3184 45.3574 16.3194 45.3546 16.3203L45.3477 16.3226C45.2231 16.3648 45.0933 16.4096 44.9563 16.4577C42.109 17.4578 39.3235 19.8683 36.2039 22.5679C34.612 23.9454 32.9331 25.3982 31.1147 26.7774L31.155 26.7148C31.7341 25.843 32.1756 25.0559 32.5802 24.335H32.5803C33.2918 23.067 33.8885 22.0033 34.9167 21.0425C35.7491 20.2484 37.0248 19.42 38.2836 18.7017C38.2803 18.703 38.2717 18.707 38.2592 18.7135C37.1593 19.0971 35.0108 20.2781 34.1936 21.0425C33.2069 21.9647 32.6105 23.0213 31.8966 24.2864C31.2139 25.4959 30.4236 26.8961 29.0817 28.5515C27.8598 30.0586 26.804 31.1157 25.971 31.8104C25.4392 32.2592 24.9714 32.5755 24.6272 32.758L24.6278 32.7598C24.6339 32.778 24.6776 32.911 24.7946 32.94C24.9943 32.99 25.741 32.6144 26.694 31.8097H26.6946L26.7055 31.8045C26.8584 31.7319 28.5683 30.9189 29.4039 30.4627C30.4332 29.9011 32.1302 28.8434 32.5007 28.5976C32.5007 28.597 32.5012 28.597 32.5012 28.597C33.1629 28.1568 34.3333 27.298 34.3333 27.296C34.8777 26.8868 35.3668 26.4973 35.7991 26.1381C36.3486 25.6807 36.9148 25.1858 37.4769 24.6804C37.1521 25.6821 36.6531 27.0516 36.0423 28.2101C35.3159 29.5869 34.3592 30.5378 33.8549 30.9029C34.0048 30.9983 34.2233 30.8735 34.275 30.844L34.284 30.839C34.6992 30.6116 35.8696 29.6178 36.6537 28.0276C37.7241 25.8569 38.1993 24.1659 38.2474 23.995V23.9949L38.2512 23.9811C38.299 23.937 39.3281 22.966 40.2966 22.0523L40.2976 22.0514C41.1633 21.2346 41.9802 20.464 42.0039 20.4422C43.3548 19.1933 45.1144 18.0031 45.7457 17.615C46.4055 17.209 46.806 16.9019 47.0414 16.6956C47.2773 16.4894 47.3479 16.3852 47.3479 16.3852ZM40.1768 16.142C40.5412 16.1418 41.3956 16.1156 41.7427 16.0318C41.9108 15.9911 42.0322 15.9453 42.1148 15.9141C42.2028 15.8808 42.247 15.8642 42.2571 15.888C42.2769 15.9343 42.0859 16.0427 41.4885 16.2876C41.0515 16.4667 40.6497 16.576 40.0018 16.7371C39.7028 16.8272 39.2807 16.9629 39.2807 16.9629C39.2794 16.9613 39.2783 16.9596 39.2772 16.9579L39.275 16.9547V16.9546C39.267 16.9438 39.2607 16.9327 39.2554 16.9217L39.2535 16.918C39.2158 16.8353 39.2492 16.751 39.2883 16.691C38.11 16.6045 37.5333 17.2697 37.5333 17.2697C37.4907 17.3019 37.4398 17.3628 37.3857 17.4391C37.5565 17.1777 37.9383 16.6811 38.5058 16.4334C39.2074 16.127 39.6919 16.1348 40.0467 16.1405C40.0921 16.1413 40.1354 16.142 40.1768 16.142ZM26.2818 27.9979C26.3774 27.6197 26.6225 26.5507 26.6225 26.5507C26.6225 26.5507 22.2083 30.516 17.6327 31.8441C16.0742 32.2961 14.3949 32.6639 13.1441 32.6902L13.1706 32.6908C13.5385 32.7004 16.3682 32.7736 19.4661 31.6114C22.0752 30.6584 24.6407 29.1025 26.2818 27.9979ZM12.3182 29.453C12.3177 29.5881 12.2992 29.7258 12.2635 29.8663C12.1984 30.1061 12.0718 30.396 11.8676 30.6953C11.7436 30.8778 11.5394 31.1084 11.5368 31.1111C11.503 31.1131 11.3456 31.1197 11.2131 31.1065C11.08 31.0933 10.9382 31.0696 10.8796 31.0584V31.0577C10.8716 31.0468 10.952 30.9795 11.0766 30.8752L11.0767 30.8751H11.0768C11.5131 30.5099 12.4922 29.6908 12.1225 29.2408L12.126 29.2403C12.1607 29.2346 12.3106 29.21 12.3182 29.453ZM22.0937 21.7292C22.9998 21.6101 23.6348 21.6345 24.1901 21.6558C24.8915 21.6828 25.4658 21.705 26.2984 21.4272C26.5896 21.1327 26.929 20.8263 27.1962 20.5849H27.1964L27.2067 20.5755C26.7845 20.7111 26.4581 20.7918 26.1505 20.8463C25.7917 20.9172 25.4834 20.9421 25.0722 20.9754C24.6826 21.007 24.2005 21.0459 23.4955 21.1385C21.2184 21.4381 20.1535 22.1518 19.855 22.4276C19.7649 22.5108 19.6959 22.5829 19.6012 22.7148C19.536 22.8054 19.4903 22.9127 19.4832 22.9322C19.8407 22.4969 20.4704 21.9427 22.0937 21.7292ZM25.1106 31.3624C25.1625 31.2558 25.2135 31.1507 25.2612 31.0502C25.4452 30.6633 25.5717 30.3477 25.5717 30.347C24.0765 31.1405 21.686 32.1574 19.5239 32.6642C15.2658 33.6626 12.5387 32.7966 12.0716 32.6438L12.0103 32.624L12.0056 32.6226H12.0051C12.0042 32.6223 12.0034 32.6222 12.0027 32.622C12.0019 32.6219 12.0011 32.6217 12.0004 32.6213C10.9137 32.4401 9.61998 31.9385 8.48183 30.7233C8.3362 30.608 8.19055 30.4874 8.0449 30.3608C8.05299 30.3692 8.07676 30.4015 8.11406 30.4522C8.28383 30.683 8.73377 31.2947 9.25949 31.7567C9.24402 31.7578 9.22773 31.7592 9.21035 31.7606C8.99895 31.778 8.62639 31.8089 7.61918 31.6657C3.80538 31.1233 2.60464 28.1379 2.57366 27.7801C2.53545 27.7906 2.50052 27.8025 2.47218 27.8197C2.47218 27.8203 2.47152 27.8203 2.47152 27.8203C2.46229 27.8263 2.45307 27.8328 2.44523 27.8401C2.35091 27.9257 2.36549 28.1327 2.66204 28.7811C3.06069 29.6518 3.97674 30.8097 5.56895 31.5484C7.02473 32.2246 9.2417 32.2589 9.68983 32.2589C9.71676 32.2589 9.73744 32.2585 9.75113 32.2583C9.75793 32.2582 9.763 32.2582 9.76628 32.2582C9.76694 32.2582 9.76694 32.2589 9.76694 32.2589C9.76694 32.2589 13.5234 34.2023 18.2974 33.9763C18.2976 33.9763 18.2994 33.9763 18.3026 33.9763C18.4386 33.9778 21.2191 34.0082 24.6108 32.6832C24.609 32.6714 24.6082 32.6582 24.6082 32.6438C24.6082 32.3954 24.8675 31.8625 25.1106 31.3624Z" fill="#005778"/>
<path fill-rule="evenodd" clip-rule="evenodd" d="M37.3879 17.4388C37.4421 17.3625 37.493 17.3016 37.5356 17.2694C37.5356 17.2694 38.1123 16.6042 39.2905 16.6907C39.2515 16.7507 39.2181 16.835 39.2557 16.9177L39.2577 16.9214C39.2629 16.9324 39.2694 16.9434 39.2773 16.9544C38.5451 17.2035 37.3071 17.6948 36.9143 18.2768C36.9143 18.2768 37.1755 17.738 37.3879 17.4388ZM25.5732 30.3456C25.9957 29.2971 26.2204 28.2954 26.283 27.9961C24.6421 29.1007 22.0765 30.6567 19.4675 31.6096C16.3695 32.7719 13.5399 32.6986 13.172 32.6891C13.1608 32.6889 13.1519 32.6885 13.1453 32.6884C13.1453 32.6884 12.1107 32.6436 12.0067 32.6213L12.0731 32.6423C12.5404 32.7952 15.2674 33.6611 19.5254 32.6627C21.6876 32.1559 24.078 31.1391 25.5732 30.3456Z" fill="white"/>
</g>
<defs>
<clipPath id="clip0_1020_9679">
<rect width="50" height="50" fill="white"/>
</clipPath>
</defs>
</svg>
