<svg width="50" height="50" viewBox="0 0 50 50" fill="none" xmlns="http://www.w3.org/2000/svg">
<g clip-path="url(#clip0)">
<path d="M31.0562 41.6313C31.0874 41.6625 31.1062 41.7063 31.1249 41.7063C31.2171 41.7015 31.309 41.6911 31.3999 41.675L31.5874 41.5938L32.1124 41.3875L33.4249 40.7625L33.6562 40.6375L33.7749 40.5875L33.9187 40.4875L34.1499 40.3438L34.4249 40.1938L34.7812 39.9625L35.3999 39.525L35.6999 39.2875L36.1374 38.975L36.5312 38.6813L36.7187 38.5438L36.9812 38.3L37.2562 38.025L37.6937 37.5563L38.1999 37.0688L38.7874 36.3938L39.1124 35.9563L39.2249 35.8L39.5749 35.375L40.2499 34.4063L40.4374 34.0875L40.8937 33.1938L41.1499 32.7063L41.5874 31.8188L41.8249 31.2813L42.0812 30.45C42.0812 30.45 42.3812 29.3625 42.5499 28.7875C42.5625 28.7582 42.5673 28.7262 42.564 28.6945C42.5608 28.6627 42.5495 28.6324 42.5312 28.6063C42.4374 28.475 42.3687 28.3063 42.2812 28.1625C42.2336 28.0865 42.1814 28.0134 42.1249 27.9438C42.0633 27.8525 41.9965 27.7649 41.9249 27.6813C41.8754 27.6264 41.821 27.5762 41.7624 27.5313C41.6187 27.4 41.4999 27.2688 41.3812 27.1813C41.3223 27.1511 41.2676 27.1133 41.2187 27.0688C40.8619 26.7912 40.4713 26.5601 40.0562 26.3813C39.8874 26.3063 39.6999 26.2375 39.5187 26.175C39.3678 26.125 39.2131 26.0874 39.0562 26.0625C38.9893 26.0461 38.9188 26.0527 38.8562 26.0812C38.7999 26.125 38.7937 26.2125 38.7874 26.3C38.7624 26.525 38.7562 26.775 38.7374 27.0063C38.7187 27.2375 38.6937 27.4813 38.6812 27.7188C38.6687 27.9563 38.6499 28.1438 38.6249 28.3563C38.5999 28.5688 38.5499 28.9188 38.4999 29.2C38.3999 29.7188 38.2874 30.2375 38.1749 30.7563C38.1551 30.9034 38.1195 31.048 38.0687 31.1875C37.9746 31.4062 37.9055 31.6347 37.8624 31.8688C37.7687 32.3625 37.5874 32.825 37.4187 33.2938C37.2499 33.7625 37.1437 34.0625 36.9312 34.4063C36.9174 34.4306 36.9049 34.4557 36.8937 34.4813C36.7937 34.725 36.6937 34.9688 36.5874 35.2063C36.4812 35.4438 36.4187 35.5 36.3562 35.6563C36.2678 35.8469 36.1654 36.0307 36.0499 36.2063C35.8624 36.4875 35.6749 36.7625 35.5187 37.0563C35.4055 37.2614 35.2803 37.4597 35.1437 37.65L35.0437 37.7938C34.9426 37.9584 34.832 38.117 34.7124 38.2688C34.4874 38.5625 34.2499 38.85 34.0062 39.1313C33.8562 39.3063 33.6937 39.4688 33.5312 39.6375L33.0999 40.1L32.9937 40.1875C32.9019 40.2552 32.8142 40.3282 32.7312 40.4063C32.5475 40.5973 32.3467 40.771 32.1312 40.925C32.0325 40.9845 31.9385 41.0514 31.8499 41.125C31.6187 41.325 31.3499 41.475 31.0562 41.6313Z" fill="#BD1B21"/>
<path d="M42.7626 27.6125C42.7751 27.6125 42.7751 27.5937 42.7751 27.575L42.7939 27.45L42.9189 26.3125L42.9939 25.2438V24.0187L42.8626 22.8188C42.8626 22.8188 42.7189 21.7375 42.6064 21.1812C42.5626 20.9812 42.4439 20.8812 42.2814 20.8062C42.2274 20.7764 42.1709 20.7513 42.1126 20.7312C42.0001 20.6937 41.8626 20.6375 41.7501 20.6062C41.4751 20.5375 41.2189 20.45 40.9438 20.4063C40.6688 20.3625 40.2938 20.3187 39.9688 20.2875C39.6438 20.2562 39.4251 20.25 39.1563 20.25H38.5938C38.4813 20.25 38.3563 20.25 38.3063 20.325C38.2563 20.4 38.2938 20.5187 38.3126 20.65C38.3501 20.9125 38.3938 21.0437 38.4376 21.3062C38.5688 22.075 38.7063 22.8438 38.7376 23.6313C38.7501 23.9813 38.7688 24.3313 38.7876 24.6875V24.95C38.7899 25.0115 38.807 25.0716 38.8376 25.125C38.8688 25.1688 38.9126 25.175 38.9688 25.1938C39.0342 25.2136 39.1011 25.2282 39.1688 25.2375C39.2376 25.2562 39.3626 25.2813 39.4501 25.3125C39.7626 25.4125 40.0938 25.5187 40.3938 25.6437C40.6938 25.7687 40.8126 25.8563 41.0188 25.9625L41.0876 26.0063L41.4501 26.275C41.7314 26.4875 42.0251 26.6875 42.2439 26.975C42.2863 27.0281 42.3322 27.0782 42.3814 27.125C42.4689 27.2 42.6126 27.4688 42.7126 27.5875C42.7174 27.5954 42.7238 27.6022 42.7313 27.6076C42.7388 27.6129 42.7474 27.6167 42.7564 27.6188" fill="#BD1B21"/>
<path d="M34.7313 14.8063L35.0188 14.7875C35.0813 14.7813 35.1376 14.775 35.1626 14.7125C35.1688 14.6843 35.1687 14.6551 35.1622 14.627C35.1557 14.5989 35.143 14.5726 35.1251 14.55L34.9001 14.1375L34.7001 13.825L33.8501 12.6063L33.6751 12.3938L33.5126 12.175L33.2376 11.8688L32.5501 11.1188L32.2563 10.8313L31.2001 9.85L30.3313 9.18125L30.0188 9.0125L28.9938 8.39375L28.2813 8.00625L28.1438 7.95L27.5626 7.7375L26.7001 7.4125L26.6313 7.39375L26.3563 7.33125L26.2813 7.3125L26.0376 7.25L25.5251 7.15625H25.2813L24.8251 7.06875L24.2751 7.0375L24.0813 7.0125H23.7376L23.1626 7.03125L22.5938 7.09375L22.1563 7.10625L21.7688 7.15L21.3688 7.2125L21.0688 7.30625L20.5813 7.4H20.4688L20.0126 7.5625L19.7376 7.6375L19.5751 7.7375L19.1751 7.85L18.9813 7.9625L18.7376 8.05L18.1501 8.3L17.3938 8.59375L17.1438 8.7125L16.6188 9L16.1563 9.3L15.7313 9.51875L15.5751 9.6125L15.1063 9.85625L15.0313 9.90625L14.5001 10.325L14.0563 10.625L13.9688 10.6813L13.4688 11.075L13.2876 11.225C13.2876 11.225 13.0188 11.4563 13.0126 11.4875L13.2001 11.4313L13.5501 11.3063H13.6188L14.1126 11.1063H14.1876L14.7313 10.8938L15.0126 10.8063C15.0126 10.8125 15.3001 10.7 15.3001 10.7L15.7063 10.5563L16.6813 10.1813H16.7688L17.2688 10.0063L17.6626 9.84375L17.7188 9.8875L18.4876 9.90625L18.9751 9.94375H18.9876L19.9751 10.025H19.9876L21.3438 10.0938V10.125L21.8251 10.5375H21.8626L22.3563 11.0125L22.4001 10.9938L23.0751 11.0125L23.1126 10.9875L24.8126 11.0875V11.125L25.5751 11.5625H25.6063L26.9563 12.2125V12.2813L27.7188 11.9875L28.8251 12.3625L29.0188 12.6688L29.4251 12.6938L29.8188 13.1375H29.8563L30.1751 13.4938V13.5188H30.2188L31.0938 13.7188L31.4188 14.2188L32.2251 14.5125C32.2251 14.5125 33.1001 14.7375 33.5438 14.7875C33.9876 14.8375 34.4063 14.8188 34.7188 14.8" fill="#BD1B21"/>
<path d="M42.2936 19.95C42.2686 19.825 42.1811 19.5625 42.1811 19.5625L42.1248 19.425L42.0811 19.25L41.9373 18.8188L41.8061 18.45L41.3873 17.5188L41.1998 17.0625L40.9623 16.5375L40.6748 16.0688L40.6123 15.9313L40.4186 15.55L40.2436 15.2625L40.1686 15.1625L38.9561 13.5188L38.7811 13.3125C38.7498 13.275 38.7436 13.2438 38.6998 13.2438H38.6936C38.6936 13.2438 38.3186 13.85 38.1623 14.025C38.0061 14.2 37.6936 14.4875 37.6936 14.4875L37.3873 14.7375L37.1436 14.9L36.8623 15.0625L36.6186 15.175C36.5844 15.1854 36.5525 15.2024 36.5248 15.225C36.5149 15.2394 36.5081 15.2558 36.5048 15.273C36.5016 15.2902 36.502 15.308 36.5061 15.325C36.514 15.3619 36.5266 15.3976 36.5436 15.4313C36.6498 15.6625 36.7561 15.9063 36.8811 16.1313C37.0623 16.475 37.1811 16.8375 37.3311 17.1938C37.3881 17.3086 37.4361 17.4277 37.4748 17.55C37.5811 17.8625 37.6748 18.1813 37.7748 18.4938L37.9061 18.9125L38.0186 19.3313C38.0248 19.3721 38.0463 19.4091 38.0788 19.4347C38.1114 19.4602 38.1524 19.4724 38.1936 19.4688H38.4686L39.4498 19.4375C39.5436 19.4375 40.1936 19.5 40.1936 19.5L40.5373 19.5438L41.2748 19.6938C41.4855 19.7386 41.6908 19.8057 41.8873 19.8938C41.985 19.9336 42.0852 19.967 42.1873 19.9938C42.2169 20.0061 42.2492 20.0105 42.2811 20.0063C42.2873 20.0063 42.2998 19.9688 42.2936 19.95Z" fill="#BD1B21"/>
<path d="M38.0437 12.6937C38.0194 12.632 37.9879 12.5732 37.9499 12.5187L37.8874 12.4062L37.7124 12.2062L37.5937 12.0312L37.3687 11.8187L37.2999 11.7562L36.1312 10.8125L35.9187 10.6437L35.5187 10.2875L33.5062 9.08125L31.9187 8.325L31.0749 8L30.7624 7.89375L29.7249 7.5375L28.9937 7.35L28.2874 7.2L28.1749 7.1875L28.1124 7.25L28.1374 7.28125L28.2437 7.33125L28.9062 7.5875C29.0499 7.64375 29.1874 7.71875 29.3374 7.7625C29.4368 7.79287 29.5331 7.83263 29.6249 7.88125L30.6312 8.475C30.8321 8.59266 31.0188 8.73318 31.1874 8.89375C31.3161 9.01808 31.4587 9.12713 31.6124 9.21875C31.6822 9.26167 31.7472 9.31196 31.8062 9.36875L31.9124 9.45625C32.1062 9.61875 32.3187 9.7625 32.4937 9.95C32.6687 10.1375 32.8812 10.3437 33.0749 10.5312C33.2668 10.7106 33.4464 10.9027 33.6124 11.1063C33.7419 11.2772 33.8817 11.44 34.0312 11.5937C34.3187 11.8812 34.5437 12.225 34.8124 12.5375C34.8437 12.575 34.8624 12.625 34.8937 12.6625C35.0624 12.9375 35.2187 13.2187 35.4249 13.4625C35.572 13.633 35.696 13.8221 35.7937 14.025C35.8555 14.1463 35.9288 14.2614 36.0124 14.3687C36.0299 14.3969 36.0536 14.4207 36.0818 14.438C36.1101 14.4554 36.1419 14.4659 36.1749 14.4688L36.2874 14.4312L36.4312 14.375L36.6812 14.2625C36.7635 14.2235 36.841 14.1752 36.9124 14.1187C37.0315 14.0351 37.1463 13.9454 37.2562 13.85C37.3624 13.7562 37.5812 13.5 37.5812 13.5L37.7374 13.2937L37.9999 12.8438C37.9999 12.8438 38.0562 12.7437 38.0437 12.6937Z" fill="#BD1B21"/>
<path d="M37.2062 19.4C37.1 19.0625 37.0125 18.7438 36.8937 18.4188C36.775 18.0938 36.7187 17.8688 36.5937 17.6063C36.5262 17.4472 36.4677 17.2845 36.4187 17.1188C36.3875 17.0313 36.35 16.9563 36.3187 16.875C36.1687 16.45 35.9687 16.1125 35.7687 15.7125L35.7312 15.6375C35.7132 15.5959 35.6826 15.561 35.6437 15.5375C35.5937 15.5125 35.55 15.5313 35.4625 15.5438C35.375 15.5563 35.0687 15.5813 34.9812 15.5813L34.2937 15.6313L34.2312 15.6125H33.9L33.0312 15.5C32.7187 15.4563 31.9875 15.275 31.9875 15.275L31.4562 15.0875L30.8 14.8625L30.75 14.8938L29.725 14.8125L29.6937 14.8313L29.1187 14.3938H29.05L28.6937 14.0688L28.675 14L28.2812 13.9438L28.2437 13.9625L27.9125 13.85L27.875 13.8125L27.125 13.8688L26.4437 13.5875L24.0812 13.7063L24.0437 13.6875L23.5937 13.7188L23.55 13.7563L22.3875 13.8438L22.3562 13.8125L20.7 14.7688L20.675 14.8375L20.6 14.9063L20.5625 14.8813L19.7312 14.8063L19.6875 14.825H18.2125L18.1812 14.8125L17.7562 14.8L17.6312 14.725L16.0875 15.9188V15.95L15.5437 16.375L14.9375 16.0875L14.9062 16.1063L14.6812 16.0375C14.6812 16.0375 13.5687 16.3188 13.575 16.3313L12.5375 16.1625L12.4625 16.1063L12.2687 16.3063L11.85 16.5063V16.5438L11.0187 17.175L9.825 18.0313L8.5 19.0188L7.9 19.4563L7.86875 19.7125L7.61875 20.2938L7.5125 20.7938L7.34375 21.8063L7.24375 22.2438L7.20625 22.7688L7.0625 23.8625L7 26.2625L7.0625 26.4063L7.10625 27.0625C7.10625 27.0625 7.11875 27.1813 7.14375 27.1813C7.16875 27.1813 7.15 27.1813 7.15 27.1875L10.0875 24.1438L11.05 23.7563L11.8562 23.7188L12.35 23.1563L12.3937 23.05L12.4562 23.075L13.7812 22.9313L13.8375 22.8875H14.3312L14.4062 22.9125L14.5625 22.7063L15.1562 22.3375L15.7875 21.9063L17.5687 21.9313L17.5812 21.9688L18.2812 22.0313L18.825 21.925L19.825 20.9063H19.8437L20.6375 20.15L21.8312 20L21.875 19.9625L21.9312 20.0188L22.55 20.3125L22.5937 20.2688L23.1375 20.2L23.1687 20.175L23.6812 20.0875L23.725 20.0563L24.2875 20.5375L24.3187 20.5L25.4687 20.475L25.5625 20.4063L26.4875 20.45L26.5375 20.4688L26.6812 20.4313L26.7062 20.3938L27.075 20.225H27.1125L27.5375 20.0313L27.575 19.9938L28.0312 19.825L28.0625 19.7688L29.3187 19.2875L29.3312 19.2688L29.55 19.2L29.6 19.15L29.6625 19.2188L30.0312 19.4H30.1437L30.55 19.625L30.575 19.5875L30.7062 19.525H30.7125L30.9187 19.4313L30.9312 19.4188L31.225 19.35L31.975 19.5438L32.1375 19.5063L32.275 19.6L32.825 19.6813L33.3687 19.8875L33.6812 19.8688L33.7812 19.9375L33.8625 19.8875C33.8625 19.8875 34.925 19.7563 35.4562 19.7125C35.8062 19.6875 36.15 19.65 36.5 19.6125L37.0875 19.5563C37.1938 19.5438 37.2437 19.5 37.2062 19.3813" fill="#BD1B21"/>
<path d="M37.9813 24.8562C37.9813 24.7812 37.9688 24.7375 37.9688 24.6625L37.9313 24.05C37.9313 23.9812 37.9188 23.9125 37.9188 23.8437C37.9 23.5875 37.8938 23.3312 37.8688 23.075C37.8438 22.8187 37.7875 22.4312 37.7438 22.1125C37.7 21.7937 37.6563 21.6125 37.6125 21.3687C37.5688 21.125 37.5188 20.8687 37.4688 20.6125C37.4188 20.3562 37.3563 20.3125 37.0813 20.3437L37.0188 20.3562L36.6813 20.4062C36.1563 20.475 35.6625 20.5 35.1438 20.5625L33.6438 21.0875L31.4813 21.025L31.2438 20.95V20.9875L30.6063 21.4562L30.5125 21.4687L30.0125 21.9375L29.9813 22L28.6875 22.175L27.5063 23.0875H27.3813L26.75 23.4625L26.5 23.4875L26.2563 23.7L26.1875 23.65L24.9813 23.5625L24.775 23.8V23.8375L23.7313 24.975L23.7188 25.0437H23.675L22.35 26.5625H21.9813L21.9563 26.6L20.8625 26.7875H20.775C20.7682 26.8069 20.7598 26.8257 20.75 26.8437L18.95 27.8437L18.1438 27.7437L17.975 27.8062L17.1688 27.7562L16.375 28.6187L15.8938 28.7125H15.625L15.3438 28.8312L15.175 28.8125L15.1875 28.8437L14.1938 29.6125L14.1 29.6312L12.55 30.8375L12.5625 30.9062L11.6063 33.225L11.6438 33.3187L10.0625 33.4625L9.54377 33.9125L9.49377 34.0812L10.2 35.0562L10.7188 35.85L11.1688 36.425L11.9063 37.2125C11.9063 37.2125 11.9063 37.2625 11.925 37.2687L12.025 37.2812C12.025 37.2875 12.4625 37.4312 12.4625 37.4312L13 37.6C13 37.6 13.0063 37.625 13.0125 37.625H13.0688L13.9625 37.975H14.025L14.075 38.0312H14.1563L14.3688 38.175L14.7375 37.9687H14.7563L14.925 37.8625L16.2813 38.2062L17.275 37.6937L19.475 37.4812L20.3813 36.025L20.7813 35.6187H20.8188L21.1313 35.325C21.1375 35.3187 21.1313 35.2875 21.1313 35.2875L21.7 34.7687L21.9688 34.4937L22.0313 34.4562C22.0438 34.4562 22.3375 34.1375 22.3375 34.1375L22.5875 33.8812L22.65 33.8687L22.5875 33.6437L22.8438 32.7125L23.3375 32.5625L23.3563 32.55L23.5 32.5125V32.4312L24.1625 31.3562L24.225 31.3312L24.4938 30.8L24.9438 30.5437L25.0063 30.4687L25.0938 30.4812C25.0938 30.4812 25.3563 30.325 25.3625 30.3312H25.3938L25.8813 30.1187L25.925 30.0562L27.5438 29.3125H27.6375L27.6625 29.225L27.725 29.175L27.8875 28.6125L28.4 28.3875L28.9938 28.3187L29.5313 27.9437L30.3 27.975L30.375 28.0437L30.4125 27.9937L31.4813 27.5125V27.375L31.7438 26.8812L32.2688 26.7437L32.2938 26.7062L33.0125 26.5562L33.2938 26.2312H33.325L33.5 26.0625L33.9938 26.1312L34.0188 26.15L34.2875 26.1875L34.4563 26.2062C34.4563 26.2062 35.1875 25.8625 35.4938 25.75C35.6188 25.7 35.7438 25.6687 35.8625 25.625L36.3688 25.45L36.625 25.375L36.9625 25.3125L37.3563 25.2437L37.6 25.2312L37.7563 25.2062C37.8142 25.2063 37.8709 25.1889 37.9188 25.1562C37.9373 25.1386 37.9519 25.1172 37.9616 25.0935C37.9713 25.0698 37.9759 25.0443 37.975 25.0187C37.9807 24.9731 37.9828 24.9272 37.9813 24.8812" fill="#BD1B21"/>
<path d="M37.9687 26.275C37.9687 26.2187 37.9749 26.125 37.9312 26.0687C37.892 26.0326 37.8407 26.0126 37.7874 26.0125L37.5624 26.0375L37.2499 26.0875C37.214 26.0902 37.1784 26.0964 37.1437 26.1062C36.9562 26.15 36.7687 26.1875 36.5812 26.2437C36.3721 26.2943 36.1673 26.3612 35.9687 26.4437C35.7624 26.5312 35.5312 26.6062 35.3249 26.7062L34.2374 27.2375L33.8312 27.6687L33.8187 27.7625L33.7624 27.7375L33.5062 27.7562L33.4937 27.775L32.6687 28.05V28.1437L32.5874 28.225V28.2812L32.1999 28.9562H32.1437V29.025L31.9749 29.3L30.2312 30.4187H30.1937L29.9312 30.6375L29.7499 31.375L29.5812 31.5375L28.8999 34.0562L28.9874 34.3375L27.9812 34.8187H27.8187L27.6249 35.7L27.5937 35.725L27.3437 36.5187L27.3624 36.5625L27.2562 37.25L27.2187 37.2937L27.2562 37.3625L26.2874 38.8937L26.2124 38.9125L25.9749 39.2875V39.3625L25.1437 40.525C25.1437 40.5187 24.2749 41.0375 24.2749 41.0375L24.3187 41.1125C24.3187 41.125 24.2749 41.4625 24.2749 41.4625L24.3499 41.5937L24.2312 41.6312L23.5937 42.0062L23.5312 41.9937L22.6062 42.5375L22.4937 42.7125C22.6135 42.7373 22.7345 42.7561 22.8562 42.7687L23.4562 42.8187L23.8624 42.8375H24.5624L24.9187 42.85L25.2749 42.8375L26.5687 42.6812L27.3374 42.55L27.9187 42.3874L28.5499 42.2062L29.3562 41.8875L29.4124 41.8562L29.6374 41.725C29.6374 41.725 30.2874 41.3812 30.5812 41.1625C31.0812 40.7812 31.5874 40.4062 32.0437 39.975L32.5062 39.525L32.9437 39.0875C32.9687 39.0625 33.0062 39.0375 33.0187 39.0062C33.0312 38.975 33.1562 38.8062 33.2437 38.7187C33.3085 38.658 33.3671 38.591 33.4187 38.5187C33.5124 38.3625 33.6624 38.25 33.7937 38.125C33.8941 38.0182 33.988 37.9055 34.0749 37.7875C34.2249 37.5687 34.3687 37.3437 34.5124 37.125C34.6562 36.9062 34.9187 36.5437 35.0874 36.2312C35.2562 35.9187 35.4374 35.5687 35.6249 35.2437C35.7889 34.969 35.937 34.6852 36.0687 34.3937C36.2749 33.9062 36.4812 33.425 36.6687 32.9312C36.8635 32.4071 37.0304 31.873 37.1687 31.3312C37.2749 30.9312 37.3374 30.5187 37.4874 30.125C37.5038 30.0743 37.5143 30.0218 37.5187 29.9687C37.5812 29.6396 37.6374 29.3083 37.6874 28.975C37.7374 28.6625 37.7812 28.35 37.8249 28.0375C37.8562 27.825 37.8874 27.6125 37.9062 27.4C37.9249 27.1875 37.9437 26.8062 37.9562 26.5062C37.9562 26.475 37.9624 26.4125 37.9624 26.4125C37.9624 26.4125 37.9624 26.3187 37.9687 26.2625" fill="#BD1B21"/>
</g>
<defs>
<clipPath id="clip0">
<rect width="36" height="35.8625" fill="white" transform="translate(7 7)"/>
</clipPath>
</defs>
</svg>
