<svg width="50" height="50" viewBox="0 0 50 50" fill="none" xmlns="http://www.w3.org/2000/svg">
<g clip-path="url(#clip0_1020_9584)">
<path fill-rule="evenodd" clip-rule="evenodd" d="M34.712 12.7093C43.4742 19.3773 36.8061 20.3755 29.9633 21.3493C29.9633 21.3493 27.0757 20.5527 22.0722 18.0673C10.7243 12.4311 14.297 9.77535 23.2157 8.16846C8.94146 1.95002 -2.95561 12.7769 10.1689 23.305L6.56744 25.8795C9.52573 27.693 15.6552 31.4973 14.7648 37.3231L11.7225 39.4974L21.0132 43.7075L28.3445 40.3854C28.3977 37.1591 34.1641 35.4832 36.6451 28.9204C50.3031 25.7868 46.8245 13.7726 34.712 12.7093Z" fill="white"/>
<path fill-rule="evenodd" clip-rule="evenodd" d="M24.1484 32.6277L21.5145 29.6319L18.4905 30.0827L19.8882 27.7801L17.2549 24.7824L20.753 26.3567L22.1476 24.0534L22.9104 27.328L26.4078 28.8998L23.3825 29.3519L24.1484 32.6277ZM28.469 21.9645C11.3244 15.3428 10.189 9.91032 20.8905 8.0329C7.50689 4.39643 -0.299584 14.096 12.9425 23.3459L9.38932 25.8858C13.1623 28.4065 17.1607 32.14 15.8044 38.0152L14.0139 39.2933L20.8905 42.4106C27.2899 35.4013 30.6371 28.5911 28.469 21.9645Z" fill="#03202F"/>
<path fill-rule="evenodd" clip-rule="evenodd" d="M37.172 13.7522C43.0559 18.3588 38.9704 21.302 31.7971 22.1017C33.6119 29.7516 28.0473 36.7583 22.1557 42.184L27.5576 39.7367C27.9571 36.6275 33.4378 35.0106 36.0347 28.1115C48.2329 25.3899 46.2422 16.636 37.172 13.7522Z" fill="#A71930"/>
</g>
<defs>
<clipPath id="clip0_1020_9584">
<rect width="50" height="50" fill="white"/>
</clipPath>
</defs>
</svg>
