<svg width="50" height="50" viewBox="0 0 50 50" fill="none" xmlns="http://www.w3.org/2000/svg">
<g clip-path="url(#clip0)">
<path d="M44.9861 12.6042C44.8264 9.81944 43.5764 7.31944 42.8333 5.82639L42.743 5.64583L42.4236 5L42.4861 5.72222C42.5764 6.72222 42.7986 10.1319 41.7847 12.0625C40.5208 14.6875 36.8125 14.4375 35.5972 14.3472H35.5C33.5 14.2083 26.9861 13.9792 24.993 13.9861C22.3542 14 19.4375 14.2153 17.0972 14.3889C15.9514 14.4722 14.9653 14.5417 14.2986 14.5694L14.0555 14.5903C10.7778 14.8958 8.70138 13.9236 7.89582 11.7153C7.40277 10.3542 7.40971 7.67361 7.41666 6.38194V5.45139L7.15971 5.93056C6.54166 7.06944 5.39582 9.19444 5.00693 12.7153C4.79166 16.8611 6.94443 18.3542 8.59027 19.1111C10.2361 19.8681 12.0555 20.0139 12.625 20.0556H12.6528C12.7839 20.0749 12.9161 20.0865 13.0486 20.0903C13.2374 20.0922 13.4256 20.1108 13.6111 20.1458L12.5347 20.3333L11.6111 20.5C11.2222 20.5833 9.56943 20.9722 8.68054 21.2708C7.9236 21.5347 7.1111 21.9167 7.10416 21.9167L6.95138 21.9931L7.0486 22.125C7.22459 22.3609 7.41476 22.5858 7.61804 22.7986C8.20138 23.3681 9.81249 24.3889 11.7708 24.1458C13.3333 23.9514 14.1667 23.5903 14.493 23.4167C14.5903 23.75 14.8333 24.5347 15.0764 25.1389C15.7847 26.8889 17.3819 30.2153 17.9861 31.375C18.4722 32.3125 18.9583 33.1458 19.2778 33.7014L19.3958 33.8958C19.2847 34.2569 19.0347 34.4792 18.8472 34.6458L18.7222 34.7639L18.6875 34.7986V34.8542C18.6736 35.1736 18.5972 38.0694 20.5694 40.1944L20.5903 40.2153L20.618 40.2292C21.5972 40.6042 22.8819 40.9861 24.9444 40.9861C27.0069 40.9861 28.8194 40.4861 29.4444 40.1736L29.4653 40.1597L29.4861 40.1389C30.8611 38.5139 31.4861 36.0694 31.5 35.1806V35.125L31.4583 35.0833C31.4305 35.0486 31.3889 35.0139 31.3541 34.9792C31.0351 34.7019 30.8135 34.3294 30.7222 33.9167C30.8889 33.6319 31.2222 32.9444 31.4861 32.3889L31.8333 31.6667C32.4166 30.5347 34.118 26.8889 34.7916 25.1667C35.2153 24.0833 35.4583 23.5347 35.5625 23.3125C35.8541 23.4722 36.6597 23.8264 38.1805 23.9861C40.1458 24.1875 42.0278 22.8681 42.5486 22.1528L42.7847 21.8542L42.9028 21.7153L42.7361 21.6458L42.368 21.5069L41.2778 21.1458L40.1944 20.7778C39.8958 20.6806 38.5694 20.3889 37.5972 20.1806L36.8611 20.0208L37.1041 19.9792C39.3472 19.5764 45.3194 18.5208 44.9861 12.6042Z" fill="white"/>
<path d="M44.9861 12.6042C44.8264 9.81944 43.5764 7.31944 42.8333 5.82639L42.743 5.64583L42.4236 5L42.4861 5.72222C42.5764 6.72222 42.7986 10.1319 41.7847 12.0625C40.5208 14.6875 36.8125 14.4375 35.5972 14.3472H35.5C33.5 14.2083 26.9861 13.9792 24.993 13.9861C22.3542 14 19.4375 14.2153 17.0972 14.3889C15.9514 14.4722 14.9653 14.5417 14.2986 14.5694L14.0555 14.5903C10.7778 14.8958 8.70138 13.9236 7.89582 11.7153C7.40277 10.3542 7.40971 7.67361 7.41666 6.38194V5.45139L7.15971 5.93056C6.54166 7.06944 5.39582 9.19444 5.00693 12.7153C4.79166 16.8611 6.94443 18.3542 8.59027 19.1111C10.2361 19.8681 12.0555 20.0139 12.625 20.0556H12.6528C12.7839 20.0749 12.9161 20.0865 13.0486 20.0903C13.2374 20.0922 13.4256 20.1108 13.6111 20.1458L12.5347 20.3333L11.6111 20.5C11.2222 20.5833 9.56943 20.9722 8.68054 21.2708C7.9236 21.5347 7.1111 21.9167 7.10416 21.9167L6.95138 21.9931L7.0486 22.125C7.22459 22.3609 7.41476 22.5858 7.61804 22.7986C8.20138 23.3681 9.81249 24.3889 11.7708 24.1458C13.3333 23.9514 14.1667 23.5903 14.493 23.4167C14.5903 23.75 14.8333 24.5347 15.0764 25.1389C15.7847 26.8889 17.3819 30.2153 17.9861 31.375C18.4722 32.3125 18.9583 33.1458 19.2778 33.7014L19.3958 33.8958C19.2847 34.2569 19.0347 34.4792 18.8472 34.6458L18.7222 34.7639L18.6875 34.7986V34.8542C18.6736 35.1736 18.5972 38.0694 20.5694 40.1944L20.5903 40.2153L20.618 40.2292C21.5972 40.6042 22.8819 40.9861 24.9444 40.9861C27.0069 40.9861 28.8194 40.4861 29.4444 40.1736L29.4653 40.1597L29.4861 40.1389C30.8611 38.5139 31.4861 36.0694 31.5 35.1806V35.125L31.4583 35.0833C31.4305 35.0486 31.3889 35.0139 31.3541 34.9792C31.0351 34.7019 30.8135 34.3294 30.7222 33.9167C30.8889 33.6319 31.2222 32.9444 31.4861 32.3889L31.8333 31.6667C32.4166 30.5347 34.118 26.8889 34.7916 25.1667C35.2153 24.0833 35.4583 23.5347 35.5625 23.3125C35.8541 23.4722 36.6597 23.8264 38.1805 23.9861C40.1458 24.1875 42.0278 22.8681 42.5486 22.1528L42.7847 21.8542L42.9028 21.7153L42.7361 21.6458L42.368 21.5069L41.2778 21.1458L40.1944 20.7778C39.8958 20.6806 38.5694 20.3889 37.5972 20.1806L36.8611 20.0208L37.1041 19.9792C39.3472 19.5764 45.3194 18.5208 44.9861 12.6042Z" fill="#061922"/>
<path d="M5.52085 11.4097C5.84949 9.74538 6.39097 8.13026 7.13196 6.60416V6.59027H7.16668H7.20141V6.62499C7.18057 7.07638 7.16668 7.5486 7.16668 8.02083C7.16668 9.13888 7.24307 10.2847 7.49307 11.3125L7.52085 11.4097L7.44446 11.3403C7.11807 11.0486 6.79168 10.7153 6.45141 10.4236C6.15974 10.7569 5.86807 11.118 5.56946 11.4375L5.49307 11.5139L5.51391 11.4097H5.52085Z" fill="#CE1141"/>
<path d="M44.4097 10.7153C43.9722 9.27777 43.5833 7.83332 42.875 6.51388L42.8195 6.53471C42.8472 6.98842 42.8611 7.4398 42.8611 7.88888C42.8615 8.96837 42.7733 10.0461 42.5972 11.1111L42.5833 11.1736L42.6389 11.1458C42.9861 10.9792 43.3195 10.75 43.6736 10.5972L44.5347 11.2153L44.4097 10.7153Z" fill="#CE1141"/>
<path d="M30.3958 26.0208L30.3264 26.0556C29.8403 26.2708 29.3403 26.4792 28.8125 26.5833C28.475 26.6738 28.1272 26.7205 27.7778 26.7222C26.7083 26.7222 25.6806 26.2778 25.0486 25.3056L25.0278 25.2778L25 25.2986C24.875 25.4097 24.7986 25.5486 24.6667 25.6667C23.9931 26.4444 23.0069 26.7431 22.0069 26.7431C21.2442 26.7355 20.4899 26.5823 19.7847 26.2917L19.7153 26.2639L19.743 26.3333C20.271 27.7151 20.5462 29.1806 20.5555 30.6597C20.5566 31.3312 20.4914 32.0011 20.3611 32.6597C20.2708 33.125 20.1111 33.6042 19.993 34.0556L19.9722 34.125L20.0347 34.0903C21.4653 33.3333 23.2083 32.9514 24.9444 32.9514C26.6806 32.9514 28.2361 33.2917 29.6042 33.9861C29.8264 34.0833 30.0347 34.2361 30.2431 34.3056L30.3056 34.3264L30.2847 34.2639C29.8688 33.0573 29.6553 31.7902 29.6528 30.5139V30.4653C29.6458 30.375 29.6458 30.2917 29.6458 30.2083C29.6458 28.7778 29.9514 27.3681 30.3681 26.0903L30.3958 26.0208Z" fill="#CE1141"/>
<path d="M16.4236 27.4097C16.2661 27.2264 16.1563 27.0069 16.1042 26.7708L16.0903 26.7014L16.1528 26.7431C16.4012 26.8957 16.6876 26.9751 16.9792 26.9722C17.5764 26.9722 18.2014 26.6806 18.6736 26.3542L18.6944 26.3333L18.7153 26.3542L18.7292 26.3681L18.7083 26.3958L18.7292 26.3681L18.743 26.3819V26.3958C18.6805 27.0069 18.4653 27.7014 17.8194 27.9444C17.726 27.9659 17.6306 27.9775 17.5347 27.9792C17.1042 27.9792 16.7222 27.7222 16.4305 27.4097H16.4236Z" fill="#CE1141"/>
<path d="M31.6042 27.1806C31.4708 26.974 31.381 26.7425 31.3403 26.5L31.3264 26.4167L31.3889 26.4653C31.7153 26.7222 32.1181 26.8264 32.5278 26.8333C33.0127 26.8308 33.4869 26.6912 33.8958 26.4306L33.9722 26.3819L33.9444 26.4722C33.75 27.0208 33.2778 27.5833 32.6944 27.7083L32.5417 27.7222C32.3523 27.7187 32.167 27.6672 32.003 27.5724C31.839 27.4777 31.7018 27.3429 31.6042 27.1806Z" fill="#CE1141"/>
<path d="M32.3472 27.9861C32.4196 28.006 32.4944 28.0154 32.5694 28.0139C32.7919 28.0039 33.0118 27.9618 33.2222 27.8889L33.2917 27.8681L33.2639 27.9306C32.4653 29.9306 31.493 31.8681 30.5 33.7917L30.4653 33.8542L30.4375 33.7847C30.2361 33.2361 30.1805 32.6458 30.1805 32.0486C30.1805 31.6042 30.2083 31.1597 30.2361 30.7083C30.3819 29.4167 30.6944 28.1736 31.0833 26.9792L31.1042 26.9028L31.1389 26.9722C31.375 27.4375 31.8264 27.9097 32.3403 27.9861" fill="#CE1141"/>
<path d="M19.6944 33.7986C18.4861 31.9583 17.5625 30.0069 16.6806 28.0278L16.6389 27.9444L16.7222 27.9861C16.989 28.1309 17.2867 28.2095 17.5903 28.2153C17.7923 28.2244 17.9919 28.1684 18.1597 28.0556C18.5486 27.7847 18.7778 27.3611 18.9305 26.9306L18.9583 26.8542L18.993 26.9236C19.6597 28.2708 19.9791 29.9028 19.9791 31.5208C19.9783 32.2759 19.9063 33.0293 19.7639 33.7708V33.7847H19.7569L19.7153 33.8264L19.6944 33.7917V33.7986Z" fill="#CE1141"/>
<path d="M20.7569 39.9722H20.743C19.5139 38.618 19.0486 36.8819 18.9792 35.0417V35.0278H18.993C20.6111 33.8472 22.7778 33.2222 24.9097 33.2222C26.3125 33.2222 27.7014 33.4931 28.9167 34.0486C29.6875 34.3958 30.4375 34.7708 31.118 35.3264L31.0972 35.3472L31.118 35.3264H31.1319V35.3472C30.9236 37.0764 30.3055 38.618 29.2153 39.9513H29.2014C27.9028 40.4583 26.375 40.7291 24.8472 40.7291C23.4097 40.7291 21.9792 40.4861 20.7569 39.9652V39.9722Z" fill="#CE1141"/>
<path d="M42.4098 21.8056L41.4514 21.4375C39.3612 20.6528 36.6806 20.1736 34.4028 20.1181C34.1806 17.5764 33.8889 15.9931 33.3959 14.5556V14.5347H33.375C32.2014 14.4653 26.9861 14.2569 24.9653 14.2569C22.9445 14.2569 17.8334 14.5694 16.6528 14.6389H16.632V14.6597C16.1597 16.0278 15.625 17.7361 15.375 20.25C13.0695 20.3889 9.96529 21.0486 7.87501 21.8333C7.76056 21.8766 7.64919 21.9277 7.54168 21.9861L7.45835 22.0347C7.4514 22.0347 7.44446 22.0347 7.44446 22.0417L7.38196 21.9653L7.40279 22.0833C7.40279 22.0903 7.40279 22.0972 7.40974 22.0972C7.72918 22.4583 8.90279 23.8681 11.0903 23.9236H11.2014C11.9097 23.9236 13.1181 23.7847 13.9306 23.4306C14.125 23.3403 14.507 23.1875 14.6111 23.1458C14.6921 23.2907 14.7618 23.4416 14.8195 23.5972C15.0556 24.25 15.3334 25.1875 15.5417 25.5903C15.8472 26.2014 16.3403 26.6875 17.1389 26.7014H17.1736C17.8959 26.7014 18.3959 26.125 18.4861 26L18.5209 25.9514H18.4584C16.4445 25.8472 15.6181 24.7778 15.4792 23.1597V23.1319H15.4514C15.2153 23.0833 15.0625 23.0556 14.9722 23C14.9263 22.9785 14.8868 22.9454 14.8576 22.904C14.8284 22.8626 14.8104 22.8143 14.8056 22.7639C14.7918 22.7094 14.7848 22.6534 14.7847 22.5972C14.7847 22.3958 14.8611 22.1806 15.0139 21.9306C15.1667 21.6806 15.4028 21.5208 15.8611 21.5208C16.0971 21.5265 16.331 21.5663 16.5556 21.6389C17.1806 21.8403 17.6875 22.2431 18.0347 22.5556C18.382 22.8681 19.6736 24.1875 20.4097 24.6319C20.9452 24.9477 21.5522 25.1222 22.1736 25.1389C22.7084 25.1389 23.257 24.9792 23.6945 24.5486C24.632 23.6319 24.7431 22.8403 24.8681 22.3472V22.3125H24.8334C23.3041 22.2602 21.7787 22.1257 20.2639 21.9097C20.0972 21.8819 20.0486 21.8194 20.0486 21.7569C20.0486 21.6944 20.132 21.6042 20.257 21.6042H20.3403C20.3472 21.6042 23.0139 21.9583 24.882 21.9722H24.9097V21.9514C24.9236 21.7292 24.9306 21.3472 24.9445 20.9167V20.8889H24.9097C23.8056 20.8611 21.9445 20.7431 20.1806 20.3889C20.0278 20.3611 19.9722 20.2639 19.9722 20.1875C19.972 20.1674 19.9762 20.1474 19.9844 20.1291C19.9927 20.1107 20.0048 20.0943 20.02 20.0811C20.0352 20.0679 20.0531 20.0582 20.0724 20.0525C20.0917 20.0469 20.1121 20.0456 20.132 20.0486L20.2153 20.0625C20.4792 20.1319 23.3472 20.5347 24.9097 20.5347H24.9514V20.5069C24.9584 20.1736 24.9653 19.7014 24.9653 19.25V19.2153H24.8334C23.8264 19.2153 22.3611 19.1181 20.2847 18.7986C20.1181 18.7708 20.0556 18.6875 20.0556 18.625C20.0556 18.5625 20.1181 18.4931 20.2431 18.4931H20.2847C20.2847 18.4931 22.8195 18.8681 24.7986 18.8681H24.9653V18.8403C24.9653 18.5278 24.9653 18.1736 24.9584 17.8125C24.9653 17.6181 25.0486 17.5417 25.1111 17.5417C25.1736 17.5417 25.25 17.6111 25.25 17.7917C25.25 17.9722 25.257 18.3125 25.257 18.7986V18.8542H25.2917C27.2014 18.7986 28.882 18.5764 29.6736 18.4306H29.7917C29.9514 18.4306 29.9931 18.4931 29.9931 18.5556C29.9918 18.5915 29.9778 18.6258 29.9537 18.6525C29.9296 18.6792 29.8968 18.6965 29.8611 18.7014C29.6042 18.75 27.3889 19.1806 25.2778 19.2222H25.2431V19.2569C25.2431 19.6319 25.257 20.1111 25.2639 20.5069V20.5417H25.2986C26.7153 20.4931 28.3611 20.4444 29.7709 20.1319L29.9445 20.1111C30.1042 20.1111 30.1667 20.1736 30.1667 20.2292C30.1667 20.2847 30.0834 20.3958 29.882 20.4236C28.5 20.6597 26.507 20.8958 25.3125 20.9028H25.2778V20.9375C25.2847 21.2778 25.2917 21.7014 25.3056 21.9722V22H25.3403C26.9383 21.9563 28.5318 21.8102 30.1111 21.5625H30.1806C30.3264 21.5694 30.3889 21.6389 30.3889 21.7153C30.3889 21.7917 30.3264 21.8681 30.1528 21.8958C29.757 21.9514 27.1042 22.2917 25.4028 22.3333H25.3611L25.375 22.375C25.5417 22.9514 25.5764 23.7847 26.4098 24.5069C26.8195 24.8542 27.3681 25.0139 27.9306 25.0139C28.4959 25.0129 29.0512 24.8645 29.5417 24.5833C30.2848 24.1528 31.4653 22.8611 31.882 22.4931C32.2986 22.125 33.0278 21.4583 34.0903 21.4583H34.132C34.6806 21.4653 34.9445 21.6111 35.0834 21.7708C35.2223 21.9306 35.2361 22.0972 35.2709 22.1944C35.303 22.2715 35.3195 22.3541 35.3195 22.4375C35.3242 22.5056 35.3106 22.5737 35.2801 22.6348C35.2495 22.6959 35.2032 22.7476 35.1459 22.7847C34.9584 22.8958 34.7848 22.8681 34.5834 22.9583H34.5695V22.9722C34.4306 23.8611 34.1528 24.8681 33.4584 25.3889C33.0834 25.6736 32.5973 25.8333 32.2084 25.9236C31.9847 25.9768 31.7571 26.0116 31.5278 26.0278H31.4584L31.5 26.0764C31.507 26.0764 31.6667 26.2569 31.7223 26.3056C31.7778 26.3542 32.1945 26.5972 32.6528 26.5972H32.8056C33.2986 26.5556 33.875 26.1736 34.125 25.9236C34.4931 25.4375 34.8403 24.4375 35.0903 23.7917C35.1806 23.5625 35.382 23.1667 35.4653 22.9583C35.6667 23.0556 35.7848 23.1181 36.1806 23.2778C37 23.6042 38.0348 23.75 38.7292 23.75H38.8473C39.9792 23.7222 41.2639 23.0347 42.0417 22.3125C42.1737 22.1875 42.4306 21.875 42.4306 21.875L42.4584 21.8403L42.4098 21.8056Z" fill="#CE1141"/>
<path d="M26.1667 35.7569C26.0502 35.9622 25.9903 36.1946 25.993 36.4305C25.996 36.8101 26.1228 37.1783 26.3542 37.4792C26.3602 37.4882 26.3685 37.4956 26.3782 37.5004C26.388 37.5053 26.3988 37.5075 26.4097 37.5069C26.4363 37.5041 26.4609 37.4918 26.4792 37.4722V37.4514C26.4792 37.2292 26.3333 37.0347 26.3333 36.7847C26.3328 36.7234 26.3422 36.6625 26.3611 36.6042L26.3819 36.5417L26.4236 36.5972C26.6389 36.9653 27 37.1944 27.368 37.3194C27.5106 37.3584 27.6578 37.3771 27.8055 37.375C28.0529 37.374 28.2968 37.3174 28.5193 37.2092C28.7417 37.101 28.9368 36.944 29.0903 36.75C29.2539 36.5303 29.3482 36.2667 29.3611 35.993C29.3617 35.8634 29.3332 35.7353 29.2778 35.618C29.0416 35.1667 28.5625 34.9028 28.0903 34.8194L27.8403 34.8055C27.1528 34.8125 26.5069 35.118 26.1667 35.7569Z" fill="#061922"/>
<path d="M23.4583 37.6597C23.5 37.6666 23.5486 37.618 23.5764 37.5625C23.7728 37.2605 23.8788 36.9088 23.8819 36.5486C23.888 36.3101 23.828 36.0745 23.7083 35.868L23.7361 35.8542L23.7083 35.868C23.4997 35.4989 23.1602 35.2214 22.7569 35.0903C22.5465 35.0191 22.3262 34.9816 22.1042 34.9792C21.5694 34.9792 21.0486 35.1875 20.7222 35.625C20.5984 35.7967 20.5327 36.0035 20.5347 36.2153C20.5334 36.326 20.5498 36.4361 20.5833 36.5416C20.6763 36.7831 20.8277 36.9977 21.0241 37.1662C21.2204 37.3346 21.4556 37.4517 21.7083 37.5069C21.816 37.5262 21.9253 37.5355 22.0347 37.5347C22.6042 37.5347 23.1042 37.2569 23.4653 36.7708L23.5 36.7152L23.5208 36.7777C23.5351 36.8203 23.5421 36.8649 23.5417 36.9097C23.5417 37.0069 23.5139 37.1111 23.5069 37.1944C23.4861 37.3333 23.375 37.4444 23.375 37.5486C23.378 37.5846 23.3926 37.6188 23.4167 37.6458C23.422 37.6512 23.4286 37.6553 23.4358 37.6577C23.4431 37.6601 23.4508 37.6608 23.4583 37.6597Z" fill="#061922"/>
<path d="M20.8819 39.5417C22.2179 38.9962 23.6472 38.7155 25.0903 38.7153C26.2083 38.7153 27.3125 38.8889 28.3055 39.2708C28.5576 39.3745 28.8149 39.4649 29.0764 39.5417C29.1236 39.4863 29.1677 39.4284 29.2083 39.3681C27.993 38.7708 26.5694 38.4931 25.1389 38.4931C23.6111 38.4931 22.0764 38.8125 20.7778 39.3889C20.8018 39.4464 20.8372 39.4983 20.8819 39.5417Z" fill="#061922"/>
<path d="M21.9653 30.3403C22.7083 31.2708 23.8264 31.6806 24.9583 31.6806C25.3777 31.6797 25.7954 31.626 26.2014 31.5208C28.0972 30.9931 29.2431 28.9306 29.6319 27.125C29.5833 27.0811 29.523 27.0521 29.4583 27.0417C29.2222 28.1225 28.7581 29.1405 28.0972 30.0278C27.7116 30.4886 27.2292 30.8588 26.6843 31.1121C26.1393 31.3653 25.5453 31.4954 24.9444 31.4931C24.5298 31.4935 24.1176 31.4303 23.7222 31.3056C21.9931 30.7708 21.0903 28.8681 20.9236 27.1458C20.8628 27.1412 20.8021 27.1558 20.75 27.1875C20.8611 28.375 21.2222 29.4306 21.9653 30.3403Z" fill="#061922"/>
<path d="M7.87502 12.5C8.86808 14.4167 10.875 15.0347 12.9098 14.9375C14.0556 14.9305 15.1459 14.8055 16.2709 14.7361V14.8125C15.7128 16.4193 15.3173 18.0781 15.0903 19.7639C12.1389 19.875 9.11808 19.6389 6.93752 17.6736C5.45835 16.1667 5.08335 14.1111 5.40279 12.0764C5.75696 11.6597 6.11807 11.3125 6.48613 10.8889C6.97224 11.3889 7.74307 11.7986 7.87502 12.5Z" fill="white"/>
<path d="M44.5694 11.6389C44.6278 11.9321 44.6649 12.2292 44.6805 12.5278C44.8263 14.7986 43.8402 16.8889 41.9097 18.0417C39.7847 19.3264 37.3333 19.7639 34.7361 19.8264C34.6944 19.5903 34.6597 19.2986 34.6319 19.0347C34.4305 17.5417 34.1458 16.0278 33.7292 14.5972C36.5139 14.5625 39.8958 15.2986 41.7361 12.7431C41.9791 12.3889 42.2291 12.0625 42.4444 11.6736C42.8541 11.4931 43.2499 11.2292 43.6458 11.0139C43.9791 11.1875 44.2361 11.4514 44.5694 11.6389Z" fill="white"/>
<path d="M33.9861 23.1319C34 24 33.7222 24.9028 32.9444 25.3194C32.5752 25.5139 32.1595 25.6028 31.7431 25.5764C31.7292 25.5 31.6944 25.4028 31.7292 25.3125C32.3681 25.3333 32.9792 25.1042 33.3125 24.5764C33.5379 24.179 33.6507 23.7276 33.6389 23.2708C33.747 23.2075 33.8641 23.1607 33.9861 23.1319Z" fill="white"/>
<path d="M18.2778 25.4931C18.1533 25.529 18.0215 25.5314 17.8958 25.5C16.868 25.5 15.7986 24.6736 15.8611 23.2847C15.9861 23.244 16.1214 23.249 16.243 23.2986C16.243 24.0903 16.5625 25.1667 18.2361 25.1667C18.3542 25.3472 18.243 25.3681 18.2778 25.4931Z" fill="white"/>
</g>
<defs>
<clipPath id="clip0">
<rect width="40" height="35.9931" fill="white" transform="translate(5 5)"/>
</clipPath>
</defs>
</svg>
