<svg width="50" height="50" viewBox="0 0 50 50" fill="none" xmlns="http://www.w3.org/2000/svg">
<g clip-path="url(#clip0_1020_9527)">
<path fill-rule="evenodd" clip-rule="evenodd" d="M30.6925 18.0976C30.7245 18.2473 30.7747 18.3782 30.8071 18.4554C30.8143 18.4725 30.8207 18.4871 30.8257 18.4987C30.831 18.5111 30.8349 18.5202 30.8367 18.5249C30.8367 18.5249 31.2676 19.7645 31.4038 20.1582C29.4638 20.5476 27.5655 21.061 26.4987 21.5078C26.4987 21.5078 25.7 21.7967 25.1337 22.2586C25.1126 22.276 25.1029 22.2907 25.1008 22.3035C24.9395 22.3506 24.7837 22.4598 24.6792 22.6012C24.5996 22.6637 24.4162 22.8111 24.3349 22.9031C24.1106 23.162 23.914 23.3907 23.6634 23.7354C23.4445 24.0612 22.6582 25.3059 21.956 26.4425C21.8961 26.465 21.837 26.4961 21.7814 26.5399C21.5968 26.6855 21.4758 26.9377 21.521 27.1984C21.0181 28.0142 20.6981 28.5269 20.5349 28.7884C20.5135 28.8226 20.4949 28.8525 20.4788 28.8782C20.1655 28.9017 20.0073 29.1481 19.9913 29.1797C19.854 29.455 19.2566 30.4352 19.1488 30.5433C19.0855 30.6066 18.9431 30.8692 19.0048 31.1684L18.9514 31.274C18.9514 31.274 17.6363 33.2349 17.6384 33.2312C17.5253 33.3911 17.5079 33.5704 17.5877 33.74C17.6961 33.9683 17.9663 34.1399 18.246 34.1591C18.397 34.169 18.5337 34.1309 18.6423 34.0531L25.6246 35.2162C25.2899 38.1717 22.155 39.5879 19.3921 39.3284C17.8756 39.2651 16.0933 38.6332 14.8159 37.9751C14.1929 37.6151 12.7068 36.8371 12.1129 36.8053C12.7961 36.9562 14.221 37.755 14.7263 38.0943C15.8246 38.6929 17.6661 39.5317 19.3915 39.5958C23.5298 39.8545 25.8441 37.6067 25.9658 35.273L26.512 35.3638C26.531 35.9043 26.4788 36.4794 26.2764 37.0467C26.1674 37.3581 26.0375 37.6308 25.8274 37.9296C25.8274 37.9296 25.8056 37.9662 25.8072 37.9662C25.3441 38.6535 24.7295 39.1734 24.017 39.5448C21.237 40.9948 16.963 40.2055 14.3629 38.3905C14.294 38.3423 14.2256 38.2937 14.1594 38.2445C13.0517 37.4189 12.2899 37.2308 11.3816 37.3692C11.0787 37.4151 10.7596 37.4973 10.4061 37.6044C8.84509 38.0769 8.90498 37.1715 8.90498 37.1715C7.59668 35.307 6.39107 33.3176 5.36086 29.5666C4.01447 24.1766 5.05321 19.664 7.42934 16.3041C7.43305 16.2988 7.43665 16.2936 7.44025 16.2883C7.44385 16.2831 7.44744 16.2779 7.45115 16.2726C7.45967 16.2606 7.46841 16.2487 7.47716 16.2369C7.4848 16.2265 7.49246 16.216 7.49997 16.2055C9.48045 13.4544 12.3624 11.4883 15.5606 10.4625C17.8401 10.0743 19.9565 10.205 21.863 10.6883C21.8702 10.6902 21.8775 10.6919 21.8848 10.6934C21.891 10.6949 21.8973 10.6962 21.9034 10.6978C21.9135 10.7005 21.9235 10.7033 21.9336 10.7062C21.9452 10.7096 21.9568 10.7129 21.9686 10.7159C23.8586 11.2104 25.5393 12.0505 26.9627 13.0762C28.6903 14.3213 30.0392 15.8384 30.9244 17.3367C30.9112 17.3443 30.8993 17.3532 30.8875 17.3622C30.8821 17.3661 30.8768 17.3702 30.8713 17.3742C30.8389 17.3972 30.8106 17.4235 30.7858 17.4531C30.7818 17.4579 30.7776 17.4624 30.7733 17.4669C30.7658 17.4746 30.7584 17.4824 30.7525 17.4916C30.7154 17.5495 30.6926 17.614 30.6788 17.6809C30.6507 17.8169 30.6637 17.964 30.6925 18.0976ZM27.5196 23.2519C28.4207 22.7648 28.9755 22.5001 30.4042 22.3176C30.3984 22.3182 30.7599 22.2683 30.7599 22.2683C31.0029 22.232 31.4666 22.1357 31.6005 21.8938C31.6763 21.7562 31.7054 21.5726 31.6953 21.3519C30.1716 21.6707 28.5795 22.0523 27.2017 22.6128C26.7294 22.7835 26.3536 23.0255 25.9858 23.2625L25.9784 23.2672L26.0538 23.4338L26.3652 24.1208C26.7288 23.7702 27.0884 23.5217 27.3565 23.3611C27.4081 23.3225 27.5196 23.2519 27.5196 23.2519ZM24.953 29.0935C24.3721 28.5351 23.5965 27.7467 23.0754 27.1909C23.808 26.0069 24.5135 24.8784 24.5135 24.8798C24.7044 24.5802 24.907 24.2715 25.0184 24.1044L25.5133 25.1953C25.2771 25.5971 25.0804 26.0642 24.9632 26.604C24.7896 27.3985 24.8211 28.258 24.953 29.0935ZM23.9336 29.7651C24.4149 30.2872 24.9054 30.6716 25.3944 30.9573C25.559 31.5004 25.7342 31.995 25.8802 32.4068V32.4069L25.8803 32.4071V32.4072C26.0278 32.8233 26.1453 33.1548 26.1914 33.3662C26.2055 33.4307 26.2208 33.4985 26.2367 33.5696L26.2368 33.5697C26.2708 33.7206 26.308 33.8857 26.3438 34.0622L25.8392 33.9818C25.6394 32.9611 25.2858 32.0284 24.946 31.2979C25.0058 31.5372 25.0776 31.7871 25.1523 32.0468V32.0469C25.3204 32.632 25.5029 33.2672 25.5954 33.943C23.0677 33.5402 19.9883 33.0498 19.423 32.9599L20.018 32.0795C20.7905 32.5408 21.886 33.2212 21.886 33.2212C22.6414 33.7019 23.2231 33.011 23.4073 32.7663C23.5498 32.5753 23.9889 31.9847 23.9745 31.4782C23.9586 30.9863 23.5821 30.7228 23.2453 30.5006L21.6761 29.4709L21.7377 29.3711L21.738 29.3707L21.7382 29.3704L21.7393 29.3684L21.7406 29.3665C21.8873 29.1287 22.1037 28.7779 22.4113 28.2807C23.0276 28.897 23.725 29.5652 23.8949 29.7279L23.9336 29.7651Z" fill="#FF3C00"/>
<path fill-rule="evenodd" clip-rule="evenodd" d="M34.7673 17.5216L35.0058 17.4268L36.0501 19.7874C35.933 19.7643 35.6241 19.7372 35.5047 19.7267C35.4935 19.7257 35.484 19.7249 35.4765 19.7242C35.4783 19.729 35.216 19.7164 35.216 19.7164C34.9899 19.0164 34.6928 18.1252 34.489 17.6053C34.3738 17.5784 34.1666 17.5753 34.1162 17.5753C34.1177 17.58 34.1208 17.5848 34.1241 17.5895C34.2233 17.7742 34.4471 18.422 34.641 18.9831C34.7589 19.3245 34.8658 19.6339 34.9269 19.7874C35.1497 20.3531 35.1336 20.6723 35.1336 20.6723L34.0957 20.6518C34.0798 20.3483 33.7922 19.7779 33.7922 19.7779L33.4052 18.9974L33.2994 18.7746L32.8996 17.9308L32.8947 17.9324C32.8522 17.8376 32.7795 17.6353 32.7605 17.4662C32.6892 16.9211 33.2266 16.9211 33.2409 16.9211C33.5204 16.9258 33.7481 17.0285 33.9725 17.3446C34.0213 17.3461 34.0719 17.3461 34.1162 17.3461C33.8955 16.9071 33.7409 16.6754 33.5969 16.4596C33.5294 16.3584 33.4641 16.2608 33.3956 16.1469C29.3601 10.3922 22.6526 8.69207 16.7447 10.1299C24.2311 9.03336 29.9432 12.2551 32.7922 17.0697C32.5534 17.1881 32.1601 17.3857 31.9751 17.4852L31.9679 17.4851C31.8777 17.4833 31.5853 17.4775 31.4853 17.4852L31.4772 17.4859C31.3017 17.5014 31.1428 17.5153 31.2625 17.9324C31.3381 18.1952 31.3727 18.2885 31.4238 18.4269C31.4335 18.4532 31.4439 18.4812 31.4552 18.5123C31.4745 18.5646 31.5031 18.6405 31.5382 18.7335C31.6591 19.0543 31.857 19.5785 32.01 20.0402C31.9752 20.0473 31.9404 20.0541 31.9056 20.0607C31.8709 20.0675 31.8361 20.0742 31.8012 20.0814C31.7651 19.9754 31.7238 19.8648 31.6798 19.7479C31.4457 19.1554 31.1662 18.3875 31.0839 18.1252C31.043 17.9908 30.9797 17.7333 31.054 17.5105C31.054 17.5105 30.7712 17.7333 31.0238 18.3337L31.6638 20.1066C31.618 20.1157 31.5726 20.1249 31.5273 20.1341C31.4865 20.1423 31.4458 20.1505 31.4049 20.1587L31.4047 20.1582C31.2684 19.7645 30.8376 18.5249 30.8376 18.5249C30.8358 18.5202 30.832 18.5112 30.8265 18.4989C30.8215 18.4872 30.8152 18.4725 30.808 18.4554C30.7758 18.3781 30.7255 18.2472 30.6933 18.0977C30.6646 17.964 30.6516 17.8169 30.6798 17.681C30.6936 17.614 30.7163 17.5497 30.7536 17.4916C30.7595 17.4825 30.7667 17.4748 30.7741 17.467C30.7784 17.4625 30.7827 17.4579 30.7867 17.4531C30.8115 17.4236 30.8398 17.3972 30.8722 17.3742C30.8777 17.3702 30.883 17.3662 30.8884 17.3622C30.9004 17.3532 30.9124 17.3443 30.9259 17.3367C30.0407 15.8386 28.6916 14.3216 26.9635 13.0764C25.5402 12.0505 23.8595 11.2104 21.9696 10.716C21.9585 10.7131 21.9477 10.71 21.9369 10.7069C21.926 10.7037 21.9153 10.7006 21.9042 10.6978C21.8981 10.6962 21.8919 10.6949 21.8856 10.6935C21.8783 10.6919 21.871 10.6902 21.8638 10.6883C19.9575 10.2048 17.8407 10.074 15.5613 10.4618C12.3634 11.488 9.48133 13.4545 7.50085 16.2055C7.49333 16.216 7.48568 16.2265 7.47803 16.2369C7.46928 16.2487 7.46054 16.2606 7.45203 16.2727C7.44831 16.2779 7.44472 16.2831 7.44112 16.2884C7.43753 16.2936 7.43394 16.299 7.43022 16.3042C5.05409 19.664 4.01534 24.1766 5.36174 29.5666C6.39195 33.3177 7.59755 35.307 8.90586 37.1715C8.90586 37.1715 8.84598 38.0769 10.4069 37.6045C10.7606 37.4973 11.0796 37.4151 11.3825 37.3692C12.2909 37.2312 13.053 37.4196 14.1597 38.2444C14.2261 38.2938 14.2948 38.3423 14.3638 38.3905C16.9638 40.2055 21.2379 40.9948 24.0179 39.5448C24.7304 39.1734 25.3451 38.6536 25.8082 37.9662C25.8064 37.9662 25.8282 37.9296 25.8282 37.9296C26.0384 37.6308 26.1683 37.3581 26.2773 37.0467C26.4797 36.4794 26.5319 35.9043 26.5129 35.3638C26.5953 35.3776 26.6759 35.3911 26.755 35.4045C26.8228 35.4159 26.8895 35.4272 26.9552 35.4381C26.8874 36.2408 26.6865 36.9455 26.3802 37.5539L26.5032 37.5697C28.4309 37.7262 29.8043 37.3832 30.7536 36.7401C30.8358 36.895 30.9229 37.0451 31.0128 37.1904C30.2702 37.6819 29.3205 37.9979 28.1418 38.0754C28.1418 38.0754 27.0105 38.2285 26.1003 38.0405C23.825 41.523 17.6596 41.2892 13.891 38.3471C13.8215 38.2949 13.7488 38.2428 13.6761 38.1922C13.4202 38.3897 12.3078 39.1608 10.1827 39.4895C8.3955 39.834 7.65918 38.6743 7.87249 37.8873C7.3449 36.7227 7.19779 36.3198 7.02398 35.6625C6.9167 35.1996 6.98306 34.8519 7.02889 34.6671C6.4994 33.6558 5.94004 32.398 5.4883 30.9554C-0.939638 10.4507 25.7716 1.86295 34.4432 17.3573C34.4797 17.3604 34.5142 17.3651 34.5445 17.3715C34.6549 17.392 34.726 17.4362 34.7673 17.5216ZM37.3896 19.9371L35.798 17.0642L35.1812 17.3495L36.2946 19.8302L36.4202 19.8446C36.4351 19.8471 36.45 19.8493 36.4661 19.8517H36.4662H36.4664H36.4666L36.4667 19.8518C36.548 19.8635 36.661 19.88 36.9584 19.9668C37.4267 20.1026 37.5087 21.1572 36.6167 21.0679C36.473 21.0493 36.3334 21.0334 36.2181 21.0211L36.2163 21.0183C36.0636 20.9902 35.8717 20.9619 35.6496 20.9459L35.6005 20.9401C35.8278 21.8266 35.7617 23.0201 34.5647 23.2864C35.1484 23.031 34.6978 22.8508 34.62 22.8197L34.6104 22.8158C33.8437 22.6401 32.7762 22.709 31.9862 22.7599C31.4458 22.7947 31.0353 22.8211 30.9397 22.7553C32.3171 22.6221 32.4213 21.9354 32.309 21.2253C32.2696 21.2332 32.2298 21.2415 32.19 21.2497L32.097 21.2687C32.2296 22.0158 31.9181 22.2937 31.5046 22.4478C30.8735 22.6619 30.4197 22.6677 30.3991 22.6652L29.9885 22.6508C30.0813 22.6197 30.221 22.6006 30.3945 22.5771C30.5544 22.5553 30.7429 22.5297 30.9498 22.487C31.6121 22.3495 31.9971 22.0593 31.9505 21.2991L31.8698 21.3157C31.812 21.3276 31.7542 21.3395 31.6961 21.3517C31.7062 21.5724 31.6772 21.756 31.6012 21.8936C31.4675 22.1356 31.0037 22.2318 30.7607 22.2681C30.7607 22.2681 30.3991 22.3181 30.405 22.3174C28.9763 22.4999 28.4215 22.7646 27.5204 23.2518C27.5204 23.2518 27.4088 23.3224 27.3574 23.3609C27.0891 23.5215 26.7296 23.77 26.366 24.1206L26.4927 24.4006C26.6553 24.2386 26.8338 24.0808 27.0316 23.9283C27.0316 23.9283 27.4326 23.5758 27.9382 23.3521C27.2138 23.8163 26.7647 24.2726 26.544 24.5137L28.6447 29.1508C28.4707 27.8558 30.9528 26.8725 31.8616 29.0227C32.0344 29.4323 32.1887 29.8878 32.3126 30.369C32.4931 30.351 32.676 30.3327 32.8619 30.3133C32.8025 30.0719 32.7349 29.8304 32.6585 29.5895C32.5271 29.0404 32.4278 28.2728 32.4329 27.4598C32.4321 27.4191 32.4316 27.379 32.4316 27.3391C32.8064 27.7755 34.1512 29.234 35.7586 29.7008L35.3576 28.7177C35.3576 28.7177 33.7383 28.0256 32.5353 26.1765C32.552 26.0845 32.5669 26.0152 32.577 25.9716C32.713 25.2933 32.9538 24.6547 33.3501 24.1584C33.369 24.135 33.3867 24.1142 33.4045 24.0934L33.4259 24.0682C33.4487 24.0341 33.4909 23.9778 33.5551 23.9136L36.1055 29.8937C36.1055 29.8937 36.5313 29.8649 36.919 29.795C36.919 29.795 34.9002 25.0139 34.2863 23.5578C34.3282 23.5518 34.3721 23.5475 34.4176 23.545C34.4259 23.544 34.4337 23.5428 34.4415 23.5417L34.4639 23.5386L34.4771 23.5371V23.5364C34.5147 23.5343 34.548 23.5319 34.5633 23.5291C35.1724 23.4197 35.4918 23.1473 35.724 22.7254C35.9236 22.362 35.9506 21.8826 35.9184 21.4937C35.949 21.4514 35.9818 21.4134 36.0209 21.3779C36.0738 21.33 36.1392 21.2861 36.2281 21.2407C36.9032 21.5941 38.1289 21.1102 37.3896 19.9371ZM32.9234 19.8526C32.6405 19.1528 32.4169 18.4534 32.4169 18.4534C32.4169 18.4534 32.1271 17.6944 32.32 17.4634L32.5865 17.3247C32.5865 17.3247 32.6088 17.3103 32.6078 17.3141C32.593 17.3437 32.5963 17.4147 32.5963 17.4147C32.5905 17.5085 32.5941 17.5561 32.6946 17.8279C32.7868 18.0774 33.1076 18.7671 33.3766 19.3454L33.3767 19.3456C33.5666 19.754 33.7307 20.1066 33.7702 20.2094C34.2462 21.4449 33.0164 21.6736 32.8886 21.1276C34.1967 21.0282 33.6657 19.659 32.9234 19.8526ZM25.2051 29.3327C25.1275 29.2602 25.0422 29.1787 24.9538 29.0937C24.8219 28.2582 24.7905 27.3989 24.9639 26.6042C25.0812 26.0645 25.2779 25.5974 25.5141 25.1955L25.6584 25.5134C25.0085 26.7318 25.0178 28.0909 25.2689 29.3817C25.2476 29.3652 25.2265 29.3495 25.2051 29.3327ZM16.2625 29.7855C15.8182 29.7828 15.4067 29.9507 15.1037 30.2594C14.4307 30.9443 14.4789 32.1253 15.2096 32.8909C15.5816 33.2819 16.0846 33.5077 16.5888 33.5113C16.772 33.5135 16.95 33.4855 17.1164 33.4302L18.2222 31.7947C18.213 31.3052 18.0184 30.7993 17.6416 30.4055C17.2697 30.0152 16.7667 29.7886 16.2625 29.7855ZM25.8401 33.982L25.5962 33.9432C25.5037 33.2674 25.3212 32.6323 25.1531 32.0471C25.0785 31.7874 25.0066 31.5375 24.9469 31.2982C25.2867 32.0286 25.6403 32.9615 25.8401 33.982ZM14.817 37.9752C16.0944 38.6332 17.8766 39.2651 19.3932 39.3285C22.156 39.5879 25.2909 38.1718 25.6257 35.2164L25.9669 35.2731C25.8452 37.6067 23.5308 39.8545 19.3926 39.5958C17.6672 39.5317 15.8257 38.693 14.7274 38.0943C14.2221 37.7551 12.7972 36.9563 12.1139 36.8054C12.7079 36.8372 14.1939 37.6152 14.817 37.9752ZM19.6079 35.1636C18.2299 36.6219 15.4985 36.6125 13.9464 34.6233C16.3781 36.8791 18.6578 35.6669 19.4475 35.2471V35.247H19.4476L19.4477 35.2469C19.5108 35.2133 19.5645 35.1849 19.6079 35.1636ZM21.9595 36.5222C21.7452 36.5222 21.562 36.3927 21.4765 36.2066C21.3095 36.0554 21.2026 35.839 21.2035 35.5956C21.2048 35.142 21.5733 34.775 22.027 34.7757C22.4804 34.7781 22.8475 35.1462 22.8457 35.6015C22.8448 35.9394 22.6397 36.228 22.3478 36.3531C22.2498 36.4574 22.1123 36.5228 21.9595 36.5222ZM14.2861 36.6861C14.2466 36.3957 14.3362 36.1066 14.5422 35.9609C14.8533 35.7421 15.3251 35.877 15.5962 36.2608C15.8671 36.6466 15.8539 37.128 15.5592 37.373C15.4412 37.4721 15.2814 37.5087 15.1153 37.4952C14.9307 37.6105 14.644 37.5459 14.4398 37.3302C14.2499 37.13 14.1939 36.8655 14.2861 36.6861ZM31.9033 35.8498C31.9033 35.8498 31.8245 35.863 31.6859 35.8783L31.7707 36.0467C31.8273 36.154 31.8874 36.2577 31.9495 36.3589C32.0977 36.1836 32.2326 35.9981 32.3524 35.8027C32.2004 35.8189 32.0498 35.8348 31.9033 35.8498ZM32.3597 34.5018C32.64 33.585 32.6707 32.5625 32.5454 31.5769C32.7239 31.5579 32.9044 31.5384 33.086 31.5181C33.1061 31.6794 33.1211 31.8397 33.1327 31.999C33.1346 32.0397 33.1363 32.0807 33.1378 32.1223L37.0358 32.7915C37.1101 33.0051 37.3891 33.636 37.3891 33.636L33.1461 32.9146C33.1459 32.9461 33.1454 32.9783 33.1449 33.011L33.1444 33.0469C33.1184 33.5327 33.0467 34.0011 32.9267 34.4447C32.7394 34.4647 32.5504 34.4836 32.3597 34.5018ZM25.3961 30.9574C25.5607 31.5007 25.736 31.9955 25.882 32.4073L25.8821 32.4074C26.0295 32.8234 26.147 33.1549 26.1931 33.3664C26.2072 33.4307 26.2225 33.4985 26.2384 33.5695L26.2385 33.5697V33.5698L26.2386 33.5704C26.2726 33.7211 26.3098 33.886 26.3456 34.0622L26.9948 34.1657C26.9932 34.1238 26.9912 34.0823 26.9888 34.0409C27.7036 33.5251 28.2553 32.6789 28.552 31.8893L28.5023 31.7798L28.4977 31.7796L28.4269 31.7753L28.3975 31.7734C27.6499 31.7315 26.8318 31.6207 25.9969 31.2606C26.0226 31.3585 26.0485 31.456 26.0742 31.5531L26.075 31.556L26.0751 31.5565L26.0752 31.5569C26.2601 32.2539 26.439 32.9286 26.5438 33.5647C26.4507 33.1716 26.2808 32.6907 26.0898 32.1498L26.0897 32.1496V32.1495L26.0896 32.1493C25.9777 31.8325 25.8585 31.4952 25.7432 31.1429C25.6277 31.0858 25.5121 31.025 25.3961 30.9574ZM27.927 30.5135L25.7832 25.7884C25.291 27.0326 25.3628 28.3455 25.612 29.635C26.2916 30.1126 26.936 30.4018 27.927 30.5135ZM31.8669 17.6784C31.8669 17.6784 31.7531 17.9122 31.912 18.394C32.1205 19.027 32.452 19.9415 32.452 19.9415L32.7194 19.8917L32.2096 18.4679C32.2096 18.4679 32.0001 17.9185 32.1104 17.5627L31.8669 17.6784ZM34.044 21.0083C34.044 21.0083 34.6689 21.0083 34.9865 21.0133C34.9865 21.0133 34.7525 21.4547 33.7611 21.3851C33.7611 21.3851 34.0297 21.2023 34.044 21.0083ZM22.5622 26.6041L22.9333 27.0118L24.3126 24.7484C24.4765 24.4908 24.7339 24.1559 24.8559 23.9971L24.856 23.997L24.8561 23.9969C24.9041 23.9343 24.9312 23.8991 24.9231 23.9069C24.9231 23.9069 24.7526 23.4843 24.6682 23.3158C24.5638 23.105 24.5795 22.9084 24.5795 22.9084C24.6535 22.8201 24.0932 23.4807 23.8583 23.8666C23.6347 24.2015 22.9767 25.2425 22.2549 26.414C22.4036 26.414 22.5622 26.6041 22.5622 26.6041ZM39.7404 29.1954C40.1381 29.2235 41.3219 29.1055 41.3219 29.1055C41.0983 29.195 40.0569 29.3277 40.0569 29.3277C39.9171 29.2137 39.7772 29.1978 39.7404 29.1954ZM40.1365 32.9259C40.1365 32.9259 39.4179 32.9359 38.4215 32.9201L38.719 33.6052L39.8447 33.383C39.8447 33.383 40.2559 33.3673 40.1365 32.9259ZM36.5907 31.0996C36.7086 31.085 37.3735 30.976 37.3735 30.976C37.8783 32.3818 38.524 33.665 38.524 33.665C38.3906 33.7246 37.7372 33.8188 37.7372 33.8188C37.5806 33.5222 36.5907 31.0996 36.5907 31.0996ZM39.1148 34.8457C39.1148 34.8457 38.4409 34.9951 38.2769 35.0254C38.2769 35.0254 39.2287 36.7655 41.0278 37.6449C41.0278 37.6449 41.0033 36.9597 40.9739 36.6909C40.9739 36.6909 39.8282 35.9171 39.1148 34.8457ZM42.4715 38.8648C44.7619 38.5666 44.5528 37.9425 44.5528 37.9425C45.4898 38.5524 44.5672 38.9839 44.0924 39.1173C43.6709 39.2367 42.3072 39.5948 42.3072 39.5948C42.3813 39.2668 42.3669 38.7456 42.3669 38.7456C44.9998 38.1804 42.5001 37.9425 42.5001 37.9425C43.0812 38.1211 43.0653 38.3284 43.0653 38.3284C42.8125 38.3434 42.3669 38.2097 42.3669 38.2097C42.3813 38.0459 42.3377 37.3764 42.3377 37.3764C42.7873 37.5721 42.9885 37.6022 43.2751 37.6451H43.2752C43.4245 37.6675 43.5969 37.6933 43.8396 37.7478C44.5672 37.9121 44.2109 38.2097 44.2109 38.2097C43.8396 38.6714 42.4715 38.8648 42.4715 38.8648ZM28.7033 31.8035C28.9279 32.2952 29.1117 32.7016 29.2663 33.0431L29.2664 33.0432V33.0433L29.2665 33.0436C29.6316 33.8504 29.8332 34.2958 30.021 34.6511C30.5862 34.696 30.9188 34.6309 30.9188 34.6309L29.6054 31.8081C29.6054 31.8081 29.2175 31.8625 28.7033 31.8035ZM29.0898 30.5725C29.0898 30.5725 28.5886 30.5953 28.1965 30.5132C27.1648 28.256 26.0149 25.7399 25.3644 24.3164L24.8401 23.1694C24.7649 23.0349 24.7662 22.902 24.8424 22.7724C24.9434 22.6039 25.1424 22.5036 25.2761 22.506C25.3715 22.507 25.459 22.5365 25.4636 22.5443L29.0898 30.5725ZM42.0797 39.3512C42.3658 36.1144 41.1292 31.8302 39.8781 29.5232C39.6982 29.3761 39.4828 29.3775 39.322 29.4515C39.2374 29.4897 39.1364 29.5706 39.1333 29.5964L39.123 29.6703L39.1265 29.7042C39.1265 29.7042 38.993 29.7566 38.7703 29.7861C37.0156 30.1321 31.0477 30.8621 29.4101 30.8206C29.4058 30.8205 29.3929 30.8205 29.3723 30.8206C29.2012 30.8209 28.5042 30.8222 27.9036 30.7508C26.6609 30.6105 26.0206 30.2478 25.1304 29.5535C24.3281 28.803 22.7036 27.1239 22.4195 26.7442C22.2866 26.5892 22.0489 26.6322 21.9295 26.7277C21.76 26.8609 21.6741 27.1136 21.8356 27.3429C22.4307 27.9951 23.8386 29.3435 24.072 29.5669V29.567L24.0721 29.5671L24.1048 29.5984C25.5571 31.1747 27.0172 31.5015 28.3329 31.5754C29.0438 31.6247 29.9113 31.6033 30.1785 31.5968H30.1786H30.1787H30.1788H30.1789C30.2588 31.5948 30.2849 31.5941 30.2366 31.5971C32.6572 31.4511 36.7762 30.8756 39.031 30.4656C39.1997 30.4275 39.3379 30.4005 39.3379 30.4005L39.4161 30.3993C39.514 30.4447 39.6077 30.7232 39.6273 30.7884C39.8424 31.3301 40.2544 32.6636 40.3255 32.8939L40.336 32.9278C40.336 32.9278 40.4652 33.3974 40.4141 33.4492C40.335 33.529 39.7092 33.6771 39.7092 33.6771C38.5526 33.9852 33.7683 34.6947 31.1804 34.8384C31.1624 34.8424 30.4816 34.9478 29.0179 34.7285C29.0158 34.7285 19.4135 33.1511 19.4135 33.1511L18.8801 33.8818C18.8388 33.8827 28.8136 35.5059 28.8136 35.5059C29.7198 35.6497 30.439 35.6809 30.9464 35.6754L31.2351 35.6673C31.5525 35.654 31.7491 35.6279 31.7957 35.6218L31.8062 35.6205C34.4806 35.3498 37.8683 34.9172 40.0587 34.3959C40.0587 34.3959 40.3079 34.3431 40.498 34.3502C40.5744 34.3523 40.6813 34.3972 40.6813 34.3972C40.719 34.432 40.7663 34.5241 40.801 34.6724C41.1813 36.0444 41.2694 38.0874 41.2781 38.2911L41.2787 38.304C41.2787 38.304 41.2866 38.7432 41.2127 38.9139C41.1213 39.012 40.7967 39.0677 40.7967 39.0677C37.246 39.9768 33.1021 39.3352 31.4949 35.8915C31.1476 35.9202 30.6184 35.9101 30.6184 35.9101C30.6478 36.0294 30.7803 36.2787 30.7803 36.2787C31.8159 38.5724 33.6816 39.487 35.2589 39.9034C36.9966 40.3629 39.0606 40.3337 40.9858 39.8383C41.2977 39.734 41.2866 39.7104 41.2866 39.7104C41.5762 39.8589 41.8626 39.7294 41.8626 39.7294C41.9944 39.6622 42.064 39.5228 42.0797 39.3512ZM19.6012 31.5611L19.6066 31.5643L19.6109 31.5676L21.2523 32.5741L21.4435 32.6896L21.4427 32.6908L21.9711 33.0169C22.3603 33.2752 22.8269 33.0671 23.0703 32.7405C23.2846 32.4505 23.368 32.0359 22.9286 31.618C22.9286 31.618 22.8528 31.5172 22.4735 31.306C22.1209 31.1103 20.896 30.3691 20.314 30.004C20.314 30.004 20.0844 29.8705 20.009 29.7066C19.9347 29.8359 19.7662 30.1153 19.4194 30.6031C19.2674 30.8175 19.2133 31.0114 19.2591 31.1814C19.3265 31.43 19.5902 31.5558 19.6009 31.5609L19.6012 31.5611ZM21.6095 29.6883C22.2128 30.0769 23.0062 30.5972 23.349 30.8579C23.9635 31.3239 23.6312 31.8844 23.6312 31.8844C23.693 31.5475 23.5404 31.2117 23.148 30.9464C22.805 30.716 21.4675 29.8255 21.4675 29.8255L21.6095 29.6883ZM20.4181 29.8485C20.9951 30.2101 22.8766 31.3182 22.8766 31.3182C22.8766 31.3182 23.3848 31.6421 23.4071 32.0512C23.5608 31.6138 23.3027 31.2905 23.0398 31.1019L21.2888 29.9301C20.9613 30.0191 20.2697 29.6559 20.295 29.2044C20.1211 29.355 20.0877 29.6415 20.4181 29.8485ZM40.2375 29.5526C40.7744 29.4605 41.4639 29.3223 41.9412 29.182C42.0898 29.1371 42.3697 29.1021 42.3697 29.1021C42.5831 29.1383 42.6752 29.2644 42.7007 29.4371C42.7109 29.5022 42.6781 29.7492 42.4077 29.7998L42.3098 29.821C42.0656 29.8971 41.5774 30.0121 41.0891 30.104L41.0869 30.1044C40.785 30.1622 40.507 30.2154 40.5319 30.2009C40.5136 30.1606 40.4971 30.1201 40.4782 30.0743V30.0741C40.4309 29.9587 40.3702 29.8105 40.2375 29.5526ZM43.0114 32.5385C42.6239 32.6286 41.4649 32.8519 41.4649 32.8519L41.5388 33.0598C41.8514 33.0303 43.2047 32.6879 43.2047 32.6879C43.4621 32.6831 43.4722 32.8561 43.4722 32.8561C42.9522 33.0505 41.6187 33.3281 41.6187 33.3281C41.678 33.5805 41.8063 34.0718 41.8063 34.0718C43.3835 33.7897 43.725 33.6157 43.725 33.6157C44.1857 33.4223 44.0081 32.8821 44.0081 32.8821C43.8295 32.2563 43.0114 32.5385 43.0114 32.5385ZM43.3139 32.2404C43.037 30.9904 42.6345 29.9939 42.6345 29.9939C43.2599 29.6515 42.967 29.0752 42.6241 28.9709C42.6241 28.9709 43.2498 28.8371 43.5375 29.9183C44.5836 32.8518 45.3955 36.87 45.1629 38.2592C45.1629 38.0806 44.8855 37.7478 44.4096 37.6493C44.4096 37.6493 44.419 37.4661 44.4047 37.2425C44.2855 36.0316 43.8496 33.8291 43.8496 33.8291C44.5234 33.611 44.4643 32.2316 43.3139 32.2404ZM38.8969 29.4931C38.8969 29.4931 38.9121 29.2843 39.1341 29.255C39.1341 29.255 38.1629 29.3595 36.8691 29.1812L37.1229 29.7616C37.1229 29.7616 38.361 29.627 38.8969 29.4931ZM18.8688 33.3619L18.8671 33.3645L18.8662 33.3657C18.7114 33.5958 18.6017 33.759 18.6013 33.7594C18.5142 33.8926 18.3772 33.9131 18.2775 33.9065C18.0861 33.8945 17.8892 33.7717 17.819 33.6231C17.7756 33.5335 17.7856 33.4424 17.8496 33.3514L19.0987 31.4441C19.1775 31.595 19.8051 31.9711 19.8051 31.9711C19.632 32.2271 19.1676 32.9176 18.8688 33.3619ZM25.6999 22.512C25.7628 22.6223 25.9371 23.0002 25.9371 23.0002C26.253 22.7602 26.5537 22.5891 27.1177 22.3857C28.909 21.6575 31.0514 21.2289 32.9433 20.8503L32.9446 20.8501L33.088 20.8217C33.397 20.7723 33.4789 20.584 33.4557 20.4226C33.4284 20.2412 33.2191 20.0681 32.9676 20.1028C30.6042 20.4843 27.8703 21.1896 26.5528 21.742C26.0979 21.9321 25.762 22.0965 25.5033 22.2707C25.5865 22.3176 25.6002 22.3352 25.6999 22.512ZM22.2342 28.1427L21.2773 29.6605C21.1485 29.7625 20.878 29.658 20.7089 29.4953C20.6702 29.4578 20.4848 29.2661 20.5963 29.1324L20.6019 29.1255L20.6062 29.1175L20.6341 29.0718V29.0717C20.7122 28.9433 20.9673 28.5235 21.6156 27.471C21.8537 27.7987 22.2342 28.1427 22.2342 28.1427ZM35.332 20.6747L35.3471 20.6761C35.7243 20.7122 36.438 20.7805 36.7127 20.841C37.0206 20.841 37.0746 20.6371 37.0833 20.5473C37.0984 20.3803 37.0059 20.1786 36.8499 20.1561L36.84 20.1547L36.8299 20.1512C36.6106 20.0777 35.5532 19.9557 35.1402 19.9157C35.1402 19.9157 35.332 20.3625 35.332 20.6747Z" fill="#311D00"/>
<path fill-rule="evenodd" clip-rule="evenodd" d="M42.3076 39.5946C42.3817 39.2666 42.3673 38.7454 42.3673 38.7454C45.0002 38.1803 42.5005 37.9423 42.5005 37.9423C43.0817 38.121 43.0657 38.3283 43.0657 38.3283C42.8129 38.3433 42.3673 38.2095 42.3673 38.2095C42.3817 38.0458 42.3381 37.3761 42.3381 37.3761C43.0218 37.6739 43.1311 37.5885 43.84 37.7476C44.5676 37.912 44.2112 38.2095 44.2112 38.2095C43.84 38.6711 42.4719 38.8646 42.4719 38.8646C44.7623 38.5665 44.5532 37.9423 44.5532 37.9423C45.4902 38.5522 44.5676 38.9837 44.0928 39.1171C43.6714 39.2366 42.3076 39.5946 42.3076 39.5946ZM41.0399 37.9159C41.0612 38.2247 41.0706 38.423 41.0709 38.4283C41.07 38.6869 40.9251 38.7798 40.9037 38.7929C37.6181 39.6832 33.711 39.2308 31.9499 36.3584C31.8878 36.2573 31.8277 36.1535 31.7711 36.0462L31.6864 35.8779C31.8249 35.8626 31.9037 35.8494 31.9037 35.8494C32.0502 35.8344 32.2008 35.8183 32.3528 35.8023C34.1144 35.6131 36.2139 35.3355 38.0293 35.0235C38.8306 36.4633 39.9262 37.4036 41.0399 37.9159ZM39.3691 34.7754C39.7371 34.7017 40.0849 34.6269 40.3998 34.5519C40.4796 34.5302 40.5126 34.553 40.5239 34.5608C40.5821 34.6026 40.6044 34.7103 40.6068 34.7439L40.608 34.7565L40.611 34.7679C40.7294 35.188 40.8207 35.749 40.8896 36.305C40.2999 35.8731 39.7814 35.355 39.3691 34.7754ZM38.2773 35.0252C38.4414 34.9949 39.1152 34.8456 39.1152 34.8456C39.8286 35.9169 40.9744 36.6908 40.9744 36.6908C41.0037 36.9596 41.0282 37.6447 41.0282 37.6447C39.2292 36.7654 38.2773 35.0252 38.2773 35.0252ZM41.2871 39.7102C41.2871 39.7102 41.2981 39.7337 40.9861 39.8382C39.061 40.3335 36.9971 40.3628 35.2594 39.9033C33.6821 39.4868 31.8164 38.5722 30.7807 36.2785C30.7807 36.2785 30.6482 36.0293 30.6187 35.91C30.6187 35.91 31.1479 35.9201 31.4953 35.8914C33.1025 39.3351 37.2465 39.9767 40.7972 39.0676C40.7972 39.0676 41.1218 39.0118 41.2131 38.9136C41.2871 38.743 41.2792 38.3037 41.2792 38.3037C41.2746 38.2036 41.1925 36.0831 40.8015 34.6723C40.7668 34.5239 40.7195 34.4318 40.6817 34.397C40.6817 34.397 40.5747 34.3522 40.4984 34.3501C40.3083 34.343 40.0592 34.3957 40.0592 34.3957C37.8686 34.917 34.481 35.3497 31.8067 35.6203C31.802 35.6203 31.597 35.6519 31.2355 35.6671L30.9468 35.6753C30.4395 35.6808 29.7202 35.6496 28.8141 35.5057C28.8141 35.5057 18.8393 33.8825 18.8805 33.8816L19.414 33.1509C19.414 33.1509 29.0162 34.7283 29.0183 34.7283C30.4821 34.9477 31.1628 34.8423 31.1808 34.8383C33.7686 34.6946 38.553 33.9851 39.7097 33.677C39.7097 33.677 40.3353 33.5287 40.4145 33.449C40.4655 33.3973 40.3365 32.9277 40.3365 32.9277C40.3312 32.9122 39.8623 31.3791 39.6276 30.7882L39.6311 30.8006C39.6254 30.7766 39.5235 30.4486 39.4166 30.3991L39.3383 30.4003C39.3383 30.4003 39.2001 30.4274 39.0315 30.4654C36.7767 30.8755 32.6576 31.4509 30.2371 31.597C30.4462 31.584 29.2575 31.6393 28.3333 31.5753C27.0176 31.5014 25.5575 31.1746 24.1052 29.5983C24.0894 29.5825 22.4828 28.0516 21.836 27.3427C21.6746 27.1134 21.7604 26.8608 21.9299 26.7276C22.0494 26.632 22.287 26.5891 22.4199 26.7441C22.704 27.1237 24.3284 28.8029 25.1308 29.5534C26.021 30.2477 26.6614 30.6103 27.9041 30.7506C28.577 30.8306 29.371 30.8194 29.4105 30.8205C31.0481 30.8619 37.016 30.1319 38.7707 29.786C38.9934 29.7565 39.1269 29.704 39.1269 29.704L39.1234 29.6702L39.1337 29.5962C39.1369 29.5705 39.2378 29.4896 39.3224 29.4514C39.4832 29.3774 39.6985 29.3759 39.8785 29.5231C41.1297 31.83 42.3662 36.1143 42.0801 39.351C42.0645 39.5227 41.9948 39.662 41.863 39.7292C41.863 39.7292 41.5767 39.8587 41.2871 39.7102ZM18.2778 33.9064C18.0865 33.8943 17.8896 33.7716 17.8195 33.623C17.776 33.5334 17.7859 33.4423 17.85 33.3512L19.0992 31.444C19.1779 31.5948 19.8055 31.971 19.8055 31.971C19.542 32.3607 18.603 33.7579 18.6018 33.7592C18.5147 33.8924 18.3776 33.9129 18.2778 33.9064ZM19.4198 30.6029C19.7667 30.1152 19.9351 29.8358 20.0095 29.7065C20.0847 29.8704 20.3145 30.0037 20.3145 30.0037C20.8965 30.369 22.1212 31.1102 22.474 31.3059C22.8532 31.5171 22.9291 31.6178 22.9291 31.6178C23.3684 32.0358 23.285 32.4504 23.0707 32.7403C22.8273 33.067 22.3606 33.275 21.9715 33.0167L21.4431 32.6907L21.444 32.6895L21.2527 32.574L19.6114 31.5674L19.6071 31.5642L19.6017 31.5609C19.5992 31.5597 19.328 31.434 19.2596 31.1812C19.2137 31.0112 19.2678 30.8174 19.4198 30.6029ZM20.2954 29.2043C20.2701 29.6558 20.9617 30.019 21.2893 29.93L23.0401 31.1018C23.303 31.2904 23.5612 31.6137 23.4075 32.051C23.3852 31.642 22.8771 31.3181 22.8771 31.3181C22.8771 31.3181 20.9955 30.21 20.4184 29.8484C20.0881 29.6412 20.1216 29.3548 20.2954 29.2043ZM20.5967 29.1322L20.6022 29.1254L20.6067 29.1174C20.6214 29.094 20.8289 28.7489 21.616 27.4709C21.8542 27.7986 22.2346 28.1426 22.2346 28.1426L21.2777 29.6604C21.149 29.7624 20.8784 29.6579 20.7094 29.4952C20.6706 29.4577 20.4851 29.266 20.5967 29.1322ZM23.1484 30.9462C22.8054 30.7158 21.4678 29.8253 21.4678 29.8253L21.6099 29.6882C22.2131 30.0768 23.0067 30.5971 23.3494 30.8578C23.9639 31.3237 23.6316 31.8842 23.6316 31.8842C23.6934 31.5473 23.5407 31.2116 23.1484 30.9462ZM30.9192 34.6307C30.9192 34.6307 30.5866 34.6958 30.0214 34.6509C29.7541 34.1452 29.4588 33.4569 28.7037 31.8033C29.2179 31.8623 29.6058 31.8079 29.6058 31.8079L30.9192 34.6307ZM36.9699 32.6023L33.1299 31.9306C33.131 31.9531 33.132 31.9762 33.1331 31.999C33.135 32.0398 33.1368 32.0808 33.1381 32.1224L37.0362 32.7916C37.1105 33.0052 37.3895 33.6361 37.3895 33.6361L33.1466 32.9147C33.1462 32.9576 33.1454 33.002 33.1448 33.0469C33.1445 33.0679 33.1442 33.0878 33.1439 33.1092L37.3303 33.8206C35.933 34.0586 34.4831 34.2798 32.9272 34.4448C32.7398 34.4647 32.5508 34.4836 32.3601 34.5019C32.6404 33.5851 32.671 32.5626 32.5457 31.577C32.7244 31.558 32.9048 31.5385 33.0865 31.5181C34.166 31.3979 35.2939 31.2521 36.3405 31.1015C36.5658 31.6384 36.7792 32.1475 36.9699 32.6023ZM38.3408 32.7085L37.5845 30.9137C38.0926 30.8336 38.5627 30.7547 38.9747 30.6799L38.9826 30.6775L38.9903 30.6755C39.096 30.6402 39.1844 30.6419 39.2545 30.6775C39.3629 30.7347 39.4027 30.8639 39.4027 30.8639L39.4048 30.8709L39.4074 30.8761C39.5752 31.2998 39.8799 32.2094 40.0389 32.6892C39.3926 32.715 38.7994 32.7158 38.3408 32.7085ZM38.7195 33.6051L38.4219 32.92C39.4183 32.9358 40.1369 32.9258 40.1369 32.9258C40.2564 33.3672 39.8451 33.3829 39.8451 33.3829L38.7195 33.6051ZM38.5245 33.6648C38.391 33.7244 37.7376 33.8187 37.7376 33.8187C37.581 33.522 36.5911 31.0994 36.5911 31.0994C36.7091 31.0849 37.374 30.9758 37.374 30.9758C37.8787 32.3817 38.5245 33.6648 38.5245 33.6648ZM25.997 31.2603C26.8319 31.6204 27.65 31.7311 28.3976 31.7732C28.432 31.7754 28.4673 31.7775 28.5023 31.7796L28.5521 31.8891C28.2553 32.6786 27.7037 33.5249 26.989 34.0406C26.9912 34.0821 26.9933 34.1236 26.9949 34.1655C26.7881 34.1324 26.5705 34.0978 26.3456 34.062C26.1811 34.0357 26.0127 34.0089 25.841 33.9816C25.7602 33.9687 25.6791 33.9558 25.5972 33.9428C23.0696 33.5401 19.9901 33.0496 19.4248 32.9597L20.0198 32.0793C20.7923 32.5406 21.8878 33.221 21.8878 33.221C22.6432 33.7017 23.2249 33.0109 23.4091 32.7661C23.5517 32.5751 23.9907 31.9845 23.9764 31.478C23.9604 30.9861 23.584 30.7226 23.2471 30.5004L21.6779 29.4707C21.8228 29.2359 22.0569 28.8564 22.4131 28.2806C23.1177 28.9852 23.9284 29.7577 23.9354 29.7649C24.4167 30.287 24.9072 30.6715 25.3962 30.9571C25.5122 31.0247 25.6278 31.0855 25.7433 31.1426C26.0555 32.0968 26.3962 32.941 26.544 33.5644C26.4244 32.8386 26.2082 32.0624 25.997 31.2603ZM23.8587 23.8665C24.0936 23.4806 24.654 22.82 24.5799 22.9083C24.5799 22.9083 24.5642 23.1049 24.6686 23.3156C24.753 23.4841 24.9235 23.9068 24.9235 23.9068C24.9521 23.8791 24.5418 24.389 24.313 24.7483L22.9337 27.0116L22.5626 26.604C22.5626 26.604 22.4041 26.4139 22.2552 26.4139C22.9772 25.2424 23.6351 24.2013 23.8587 23.8665ZM25.7846 25.7882L27.9283 30.5133C26.9374 30.4017 26.293 30.1125 25.6133 29.6348C25.3642 28.3453 25.2924 27.0324 25.7846 25.7882ZM25.5152 25.1951L25.6594 25.513C25.0095 26.7313 25.0189 28.0905 25.2699 29.3812C25.2486 29.3648 25.2276 29.3491 25.2061 29.3323C25.1285 29.2597 25.0432 29.1783 24.9549 29.0933C24.3741 28.535 23.5983 27.7465 23.0773 27.1907C23.8098 26.0067 24.5153 24.8783 24.5153 24.8796C24.7064 24.58 24.9089 24.2713 25.0203 24.1043L25.5152 25.1951ZM24.8428 22.7718C24.9439 22.6032 25.1428 22.503 25.2766 22.5054C25.372 22.5064 25.4595 22.5359 25.4641 22.5436L29.0902 30.5719C29.0902 30.5719 28.5891 30.5946 28.197 30.5126C26.6522 27.1331 24.8428 23.1733 24.8405 23.1688C24.7653 23.0343 24.7667 22.9014 24.8428 22.7718ZM26.5532 21.7414C27.8707 21.189 30.6047 20.4836 32.968 20.1022C33.2196 20.0675 33.4289 20.2406 33.4561 20.4221C33.4794 20.5833 33.3974 20.7717 33.0884 20.821L32.945 20.8495C31.0528 21.228 28.9099 21.6567 27.1181 22.3851C26.5542 22.5884 26.2534 22.7596 25.9375 22.9996C25.9375 22.9996 25.7631 22.6217 25.7003 22.5114C25.6006 22.3346 25.587 22.317 25.5037 22.2701C25.7624 22.0958 26.0983 21.9315 26.5532 21.7414ZM32.21 18.4677L32.7198 19.8916L32.4524 19.9414C32.4524 19.9414 32.1209 19.0268 31.9123 18.3939C31.7535 17.9121 31.8673 17.6783 31.8673 17.6783L32.1108 17.5625C32.0005 17.9183 32.21 18.4677 32.21 18.4677ZM32.3203 17.4632L32.5869 17.3245C32.5869 17.3245 32.6092 17.3101 32.6082 17.314C32.5934 17.3436 32.5967 17.4146 32.5967 17.4146C32.5908 17.5084 32.5945 17.556 32.695 17.8278C32.8522 18.2534 33.6753 19.9607 33.7705 20.2093C34.2467 21.4448 33.0169 21.6735 32.8891 21.1275C34.1972 21.0281 33.6661 19.6587 32.9237 19.8525C32.6409 19.1527 32.4172 18.4533 32.4172 18.4533C32.4172 18.4533 32.1274 17.6943 32.3203 17.4632ZM34.0445 21.0081C34.0445 21.0081 34.6694 21.0081 34.987 21.0132C34.987 21.0132 34.7529 21.4546 33.7616 21.385C33.7616 21.385 34.0301 21.2022 34.0445 21.0081ZM36.8303 20.151L36.8404 20.1546L36.8502 20.1559C37.0064 20.1785 37.0987 20.3802 37.0837 20.5472C37.0749 20.637 37.021 20.8409 36.7131 20.8409C36.4347 20.7796 35.7053 20.7102 35.3324 20.6746C35.3324 20.3623 35.1406 19.9156 35.1406 19.9156C35.5536 19.9556 36.611 20.0776 36.8303 20.151ZM39.1346 29.2549C38.9125 29.2841 38.8973 29.493 38.8973 29.493C38.3615 29.6268 37.1233 29.7615 37.1233 29.7615L36.8696 29.181C38.1633 29.3593 39.1346 29.2549 39.1346 29.2549ZM41.322 29.1054C41.0984 29.1948 40.057 29.3275 40.057 29.3275C39.9172 29.2136 39.7773 29.1977 39.7405 29.1953C39.7374 29.1951 39.7334 29.1951 39.7304 29.1948C39.7304 29.1948 39.7344 29.195 39.7405 29.1953C40.1382 29.2234 41.322 29.1054 41.322 29.1054ZM42.37 29.102C42.5835 29.1382 42.6756 29.2643 42.701 29.437C42.7114 29.5021 42.6784 29.7491 42.4081 29.7996L42.3102 29.8209C42.066 29.897 41.5778 30.012 41.0896 30.1037C40.7868 30.1618 40.5073 30.2153 40.5323 30.2008C40.4682 30.0592 40.4234 29.913 40.2379 29.5525C40.7748 29.4603 41.4644 29.3221 41.9417 29.1818C42.0902 29.1369 42.37 29.102 42.37 29.102ZM43.5379 29.9182C44.5841 32.8517 45.3959 36.8698 45.1633 38.2591C45.1633 38.0805 44.8859 37.7477 44.41 37.6491C44.41 37.6491 44.4195 37.4659 44.4051 37.2424C44.2859 36.0315 43.85 33.829 43.85 33.829C44.5239 33.6109 44.4647 32.2315 43.3144 32.2403C43.0374 30.9903 42.6349 29.9937 42.6349 29.9937C43.2603 29.6514 42.9674 29.0751 42.6246 28.9708C42.6246 28.9708 43.2502 28.837 43.5379 29.9182ZM43.7264 33.6155C43.7264 33.6155 43.3849 33.7896 41.8076 34.0716C41.8076 34.0716 41.6794 33.5803 41.6201 33.328C41.6201 33.328 42.9535 33.0503 43.4735 32.856C43.4735 32.856 43.4634 32.683 43.206 32.6877C43.206 32.6877 41.8528 33.0301 41.5401 33.0597L41.4661 32.8518C41.4661 32.8518 42.6253 32.6284 43.0127 32.5384C43.0127 32.5384 43.8307 32.2562 44.0095 32.8819C44.0095 32.8819 44.1871 33.4222 43.7264 33.6155ZM42.3466 30.0427C42.3469 30.0424 42.3472 30.0419 42.3475 30.0416L42.3932 30.0411C42.5696 30.4499 42.8495 31.3261 42.9246 31.6382L43.093 32.329C42.5498 32.4556 41.9525 32.5424 41.3546 32.6008C41.121 31.8195 40.8587 31.0827 40.5803 30.4309C41.9271 30.2424 42.3466 30.0427 42.3466 30.0427ZM42.2529 37.0912C42.1643 36.1765 42.0065 35.2319 41.8002 34.3097C42.3166 34.2146 43.2727 33.9747 43.6225 33.8857L43.6499 34.0349C43.83 35.0092 44.103 36.4829 44.2059 37.3849C44.2111 37.4745 44.2039 37.5469 44.1909 37.6084C44.0195 37.5741 43.8862 37.5652 43.8577 37.5637C43.3064 37.4764 42.7666 37.3144 42.2529 37.0912ZM45.4848 37.6121C45.2953 35.0421 44.7177 32.4797 43.7457 29.7581L43.6279 29.476C43.3819 28.8358 42.9371 28.7142 42.2352 28.802L41.6262 28.8687C40.3889 28.9792 38.3907 29.1899 36.7356 28.9008L34.4766 23.5411C34.4564 23.5416 34.4378 23.5436 34.4183 23.5448C34.3729 23.5473 34.329 23.5516 34.2871 23.5576C34.9009 25.0136 36.9198 29.7948 36.9198 29.7948C36.5321 29.8646 36.1062 29.8935 36.1062 29.8935L33.5558 23.9134C33.4917 23.9776 33.4495 24.0339 33.4268 24.0679C33.4128 24.0887 33.4052 24.1022 33.4052 24.1022C33.4052 24.1022 34.2593 26.1391 35.2145 28.4168C35.1064 28.361 35.0051 28.3003 34.9397 28.2425C34.4876 27.9648 33.4599 27.2159 32.5905 25.9174C32.5905 25.9174 32.5855 25.9373 32.5777 25.9714C32.5676 26.0149 32.5528 26.0843 32.536 26.1763C33.7391 28.0254 35.3583 28.7175 35.3583 28.7175L35.7594 29.7006C34.152 29.2337 32.8072 27.7753 32.4324 27.3389C32.4324 27.3786 32.4328 27.4189 32.4336 27.4596C32.4345 27.4947 32.4351 27.5295 32.4365 27.5651C33.3477 28.7181 34.5415 29.5382 35.8104 29.9709C34.8645 30.0917 33.835 30.2117 32.8626 30.313C32.6768 30.3325 32.4939 30.3508 32.3134 30.3686C32.1895 29.8875 32.0351 29.432 31.8624 29.0225C30.9535 26.8723 28.4715 27.8555 28.6454 29.1506C27.8889 27.4804 27.1192 25.7814 26.5448 24.5135C26.7654 24.2724 27.2146 23.816 27.939 23.3519C27.4333 23.5756 27.0324 23.9281 27.0324 23.9281C26.8346 24.0806 26.656 24.2384 26.4934 24.4004C26.4499 24.3042 26.4078 24.2111 26.3668 24.1204C26.2194 23.7954 26.089 23.5075 25.98 23.2669C26.3502 23.0284 26.7278 22.7843 27.2032 22.6124C28.581 22.0519 30.1731 21.6703 31.6969 21.3515C31.782 21.3336 31.8664 21.3164 31.9512 21.2989C31.9978 22.0591 31.6128 22.3493 30.9506 22.4868C30.5191 22.5757 30.1676 22.5907 29.9893 22.6506L30.3999 22.665C30.4204 22.6675 30.8743 22.6617 31.5053 22.4476C31.9189 22.2935 32.2303 22.0155 32.0977 21.2685C32.1685 21.2542 32.2398 21.2392 32.3098 21.2251C32.4221 21.9351 32.3178 22.6219 30.9404 22.755C31.1759 22.9172 33.3202 22.5198 34.6111 22.8155C34.6423 22.8298 35.1833 23.0159 34.5655 23.2861C35.7626 23.0199 35.8286 21.8263 35.6012 20.9399L35.6504 20.9457C35.8725 20.9617 36.0644 20.9899 36.2172 21.018C36.2178 21.0191 36.2182 21.02 36.2189 21.0209C36.3343 21.0332 36.4737 21.0491 36.6175 21.0677C37.5095 21.157 37.4275 20.1024 36.9592 19.9666C36.6019 19.8622 36.5107 19.8596 36.4209 19.8444L36.2953 19.83L35.1821 17.3493L35.7987 17.0639L37.3903 19.9368C38.1297 21.11 36.9041 21.5939 36.2289 21.2405C36.14 21.2859 36.0746 21.3298 36.0217 21.3777C36.2117 21.5065 36.4524 21.5798 36.7149 21.5798C37.1624 21.5798 37.5532 21.3759 37.7347 21.0473C37.8669 20.8071 37.948 20.3986 37.5876 19.8276L35.8962 16.7746L34.5448 17.3709C34.6552 17.3923 34.7264 17.4361 34.7676 17.5215L35.006 17.4259L36.0512 19.7876C35.922 19.7616 35.565 19.7319 35.4771 19.7248C35.4783 19.7289 35.2171 19.7157 35.2171 19.7157C34.9899 19.0157 34.6931 18.1255 34.49 17.6045C34.374 17.5786 34.1679 17.5754 34.1161 17.5749C34.119 17.5803 34.1218 17.5844 34.1247 17.5899C34.2834 17.8861 34.7665 19.3804 34.9273 19.7876C35.1498 20.3534 35.1346 20.6714 35.1346 20.6714L34.0957 20.6517C34.0798 20.3482 33.7922 19.778 33.7922 19.778L33.4061 18.9975L33.3005 18.7742L32.8993 17.9303L32.8959 17.9314C32.8527 17.8369 32.7805 17.6345 32.7602 17.466C32.6905 16.9201 33.2276 16.9201 33.242 16.9204C33.5203 16.9255 33.7481 17.0282 33.9725 17.3444C34.0224 17.3452 34.0717 17.3459 34.1165 17.3465C33.7927 16.7015 33.6105 16.5031 33.396 16.146C29.3608 10.3926 22.6535 8.69246 16.745 10.1291C24.2324 9.03329 29.9435 12.2548 32.7928 17.0699C32.5547 17.1881 32.1603 17.3854 31.9762 17.485C31.8945 17.4829 31.5883 17.4768 31.4862 17.4853C31.3078 17.5 31.1416 17.5089 31.2626 17.932C31.3525 18.2449 31.3854 18.3185 31.4562 18.5127C31.5404 18.7445 31.8124 19.4448 32.0103 20.0406C31.9406 20.0535 31.8711 20.0672 31.8012 20.0804C31.7653 19.9746 31.725 19.8639 31.6795 19.7478C31.4471 19.1556 31.1666 18.3869 31.0843 18.1254C31.0427 17.9906 30.9798 17.733 31.055 17.5103C31.055 17.5103 30.7722 17.733 31.0247 18.334L31.6642 20.1067C31.5777 20.1234 31.4916 20.1408 31.4055 20.158C29.4653 20.5472 27.5669 21.0608 26.5001 21.5076C26.5001 21.5076 25.7014 21.7965 25.1351 22.2584C25.1139 22.2758 25.1043 22.2905 25.1022 22.3033C24.9409 22.3504 24.7851 22.4596 24.6806 22.601C24.601 22.6635 24.4176 22.8109 24.3361 22.9029C24.112 23.1618 23.9154 23.3905 23.6648 23.7352C23.4459 24.0609 22.6596 25.3057 21.9574 26.4423C21.8975 26.4648 21.8384 26.4959 21.7828 26.5397C21.5982 26.6853 21.4772 26.9375 21.5224 27.1982C20.9537 28.1205 20.6189 28.6555 20.4801 28.878C20.1669 28.9015 20.0086 29.1479 19.9927 29.1795C19.8554 29.4548 19.2579 30.435 19.1502 30.5431C19.0869 30.6064 18.9445 30.869 19.0061 31.1682L18.9528 31.2737C18.9528 31.2737 17.6377 33.2346 17.6398 33.231C17.5267 33.3909 17.5093 33.5702 17.5891 33.7398C17.6975 33.9681 17.9677 34.1397 18.2473 34.1589C18.3984 34.1687 18.5351 34.1307 18.6436 34.0529C19.1761 34.1416 22.8536 34.7542 25.626 35.216C25.7414 35.2352 25.8554 35.2542 25.9672 35.2728C26.155 35.3041 26.3372 35.3344 26.5133 35.3636C26.6658 35.3893 26.8137 35.4139 26.9555 35.4374C26.8871 36.2409 26.6871 36.9447 26.3812 37.553L26.5035 37.5693C28.4309 37.726 29.8041 37.3833 30.7544 36.7391C30.8361 36.8946 30.9226 37.0452 31.014 37.191C31.9386 38.6654 33.3511 39.6446 35.199 40.1337C37.0965 40.6347 39.2503 40.5853 41.3255 39.9767C41.5734 40.1032 41.8103 40.026 41.9734 39.9421C42.0205 39.9174 42.0624 39.887 42.1003 39.8525C44.3432 39.3414 44.7254 39.1552 44.8626 39.0296C44.8789 39.0204 44.893 39.0106 44.9078 39.0011C45.5177 38.6432 45.4872 37.6588 45.4848 37.6121Z" fill="white"/>
<path fill-rule="evenodd" clip-rule="evenodd" d="M33.9317 19.1445C33.7529 18.9675 33.6615 18.7716 33.644 18.4872C33.9236 18.5456 34.0959 18.8948 33.9317 19.1445ZM33.5648 18.179C33.4132 18.0809 33.1826 17.7507 33.2172 17.4805C33.5727 17.4852 33.6755 18.002 33.5648 18.179ZM33.919 18.2264C34.0769 18.3844 34.1921 18.5345 34.2745 18.8995C34.3676 19.3119 34.0689 19.5346 33.7735 19.1933C33.6487 19.0511 33.5903 18.92 33.5381 18.7509L33.5302 18.7256C33.4795 18.5092 33.5049 18.3306 33.5049 18.3306C33.4162 18.2516 33.3532 18.1773 33.3041 18.1078L33.2941 18.0966L33.2832 18.0836L33.2796 18.0793C33.2736 18.0717 33.2681 18.0645 33.263 18.0573C33.1856 17.9498 33.1431 17.8424 33.1226 17.7728L33.113 17.7339L33.1083 17.7144L33.1074 17.7095L33.107 17.7065L33.1067 17.7039L33.1066 17.7018C33.0957 17.6291 33.0908 17.5674 33.0908 17.5169C33.0908 17.4094 33.1114 17.3415 33.1368 17.3004L33.1382 17.2987C33.1414 17.2931 33.1448 17.288 33.1483 17.2833C33.1537 17.2762 33.1595 17.2704 33.1651 17.2656L33.1658 17.2644L33.1662 17.264L33.1672 17.2632L33.1681 17.2627L33.1692 17.2622L33.17 17.2619L33.1714 17.2608C33.1762 17.2561 33.1826 17.2514 33.1874 17.2482C33.2646 17.1993 33.3626 17.2246 33.3626 17.2246C33.6219 17.2593 33.9203 17.6306 33.9203 18.1616C33.9203 18.1754 33.9203 18.1887 33.92 18.2022L33.9195 18.217L33.919 18.2264ZM21.739 35.4421C21.6641 35.4882 21.5864 35.4274 21.682 35.33C21.8698 35.1657 22.2197 35.1747 22.3799 35.4127C22.4603 35.5334 22.3745 35.6151 22.3124 35.5195C22.1968 35.3904 21.9061 35.33 21.739 35.4421ZM22.0319 35.1012C22.543 35.1234 22.7015 35.6533 22.5077 36.0697C22.9539 35.6083 22.5812 34.9221 22.0466 34.9232C21.2993 34.9262 21.2378 35.7226 21.4173 35.8917C21.3248 35.6129 21.5007 35.0804 22.0319 35.1012ZM21.9573 35.5218C22.2037 35.5218 22.4042 35.725 22.4042 35.9743C22.4042 36.2249 22.2037 36.427 21.9573 36.427C21.7098 36.427 21.51 36.2249 21.51 35.9743C21.51 35.725 21.7098 35.5218 21.9573 35.5218ZM21.9536 36.3284C21.7564 36.3284 21.5962 36.1689 21.5962 35.971C21.5962 35.7735 21.7564 35.6143 21.9536 35.6143C22.1511 35.6143 22.3115 35.7735 22.3115 35.971C22.3115 36.1689 22.1511 36.3284 21.9536 36.3284ZM21.7306 35.9952C21.8281 36.149 22.0993 36.1611 22.1815 36.042C22.2236 35.9818 22.2229 36.0644 22.2229 36.0644C22.0525 36.4006 21.6634 36.1881 21.6898 35.9833C21.6998 35.9375 21.7206 35.96 21.7306 35.9952ZM21.4639 32.3058C21.4639 32.3058 21.4907 32.3823 21.5473 32.4877L21.5478 32.4868C21.5977 32.5785 21.6812 32.6648 21.7751 32.7216C22.4556 33.1258 22.8343 32.6232 22.848 32.6051L22.8483 32.6046L22.8487 32.6041C22.8612 32.587 23.158 32.1828 22.707 31.7397C22.6949 31.7283 22.4149 31.4793 22.0336 31.5264C21.9939 31.369 21.7946 30.9266 21.2226 30.9453H21.2184L21.2147 30.9465C20.7573 30.9782 20.6504 31.2253 20.5981 31.3679C20.5981 31.3679 20.4807 31.6825 20.654 31.9533L20.6544 31.9542C20.6664 31.9765 20.8909 32.3947 21.4639 32.3058ZM21.7381 32.0732C21.3573 32.2137 20.6789 32.1056 20.7381 31.3621C20.5348 31.9105 21.0773 32.297 21.5568 32.1508C21.67 32.7167 22.281 32.8519 22.5981 32.6507C22.345 32.691 21.8209 32.6756 21.7381 32.0732ZM20.8695 31.2042C20.9848 31.1073 21.0767 31.0641 21.2485 31.0724C21.1755 31.186 21.1482 31.3568 21.1379 31.5297C21.1228 31.5171 21.1091 31.5097 21.0955 31.5025C21.0772 31.4927 21.0593 31.4831 21.0391 31.4612L21.0385 31.5856C21.0553 31.6156 21.0795 31.6301 21.1094 31.6481L21.1257 31.6581L21.1348 31.6639L21.1427 31.6691C21.1442 31.7779 21.1489 31.8608 21.1694 31.9339C21.1568 31.9297 21.147 31.922 21.1369 31.9141V31.914H21.1368C21.1319 31.9101 21.1268 31.906 21.1212 31.9024C21.119 31.9009 21.1167 31.8995 21.1142 31.898L21.1078 31.8948C20.7506 31.6936 20.8695 31.2042 20.8695 31.2042ZM21.8943 31.6297C21.907 31.3997 21.7208 31.175 21.4653 31.094C21.3872 31.2398 21.3461 31.4172 21.3397 31.6115C21.4089 31.6421 21.4723 31.6654 21.5439 31.6712C21.5439 31.6712 21.541 31.6936 21.5389 31.7192L21.5381 31.7287L21.5373 31.7416C21.5366 31.7544 21.5362 31.7666 21.5369 31.7757C21.4662 31.7791 21.4002 31.768 21.3415 31.7475L21.3427 31.7727V31.7731C21.3461 31.8432 21.3493 31.9081 21.366 31.9732C21.7258 32.0285 21.9025 31.8005 21.9236 31.6326L21.8943 31.6297ZM22.0673 31.644C22.5826 31.6285 22.985 32.1439 22.7264 32.5217L22.6325 32.5373C22.1834 32.5957 21.9306 32.4181 21.8554 32.017C21.9253 31.9664 22.0403 31.8283 22.0673 31.644ZM32.1048 28.1283C31.8477 26.9321 32.1204 24.7093 32.9924 24.0745C31.7466 24.2252 31.3996 27.3491 32.1048 28.1283ZM13.3312 38.1619C13.3821 38.1261 13.4352 38.0877 13.4756 38.0578C12.7717 37.6087 11.8989 37.3154 10.4801 37.7834L10.4606 37.7897L10.4425 37.7952L10.4164 37.8033C10.7573 37.7346 11.2287 37.6558 11.5229 37.6762C11.8985 37.7034 12.4494 37.7576 12.9721 38.0882L12.7102 38.2305C11.4732 38.831 10.4284 38.9984 9.83796 39.0399C9.25775 39.0816 9.36977 38.7424 9.75169 38.5495C9.96214 38.4425 10.1397 38.2394 10.2172 37.8673C10.1758 37.8885 10.1614 37.8901 10.1306 37.8935C10.1143 37.8953 10.0933 37.8976 10.0612 37.9036L10.0548 37.9052L10.0509 37.906C9.9239 38.8179 8.14079 38.7239 8.33798 37.4824C8.33798 37.4824 8.08137 36.9554 7.93443 36.6495C7.93493 36.6516 7.93426 36.6478 7.9329 36.64V36.6399C7.92597 36.6001 7.90105 36.4569 7.91768 36.4533C7.91768 36.4533 8.35378 37.1602 8.53344 37.3845C8.29279 38.2316 9.53047 38.5845 9.8626 37.9468C8.77139 38.15 8.73063 37.5919 8.74627 37.405C8.739 37.3829 8.73348 37.3587 8.72797 37.3347L8.72795 37.3346L8.724 37.3174C8.53375 37.1241 7.9161 36.3028 7.21249 35.0133C7.12928 35.6764 7.78179 37.107 7.98506 37.5526L7.98511 37.5527L7.98572 37.5541C8.01254 37.6129 8.03144 37.6544 8.03967 37.6744L8.1125 37.8541C7.85543 38.5657 8.59585 39.4985 9.92581 39.2842C11.2343 39.1606 12.7041 38.6122 13.3312 38.1619ZM14.9007 36.49C14.801 36.4707 14.839 36.3091 14.9586 36.3505C15.0696 36.3889 15.2416 36.5347 15.2837 36.6046C15.3936 36.7852 15.2768 36.8764 15.2292 36.7754C15.1752 36.6586 14.9992 36.5089 14.9007 36.49ZM14.4244 36.454C14.8456 35.7936 15.9132 36.6248 15.3645 37.3384C16.1917 36.7295 14.7757 35.3758 14.4244 36.454ZM14.4185 36.6394C14.57 36.497 14.8471 36.5435 15.0387 36.7461C15.2307 36.9487 15.2636 37.2292 15.1127 37.3717C14.9623 37.5156 14.6844 37.4674 14.4924 37.265C14.3005 37.0629 14.2677 36.7831 14.4185 36.6394ZM15.0341 37.3284C14.9084 37.4212 14.6965 37.3452 14.541 37.2024C14.3732 37.0486 14.3597 36.8117 14.475 36.6995C14.604 36.5756 14.8333 36.6531 14.9706 36.8104C15.0821 36.9382 15.1778 37.2195 15.0341 37.3284ZM14.5351 36.8407C14.5351 36.8407 14.6054 36.7439 14.6184 36.8336C14.641 36.9866 14.8026 37.1475 14.9559 37.1879C14.9929 37.1968 15.0049 37.2528 14.9278 37.2668C14.6707 37.2912 14.4403 36.9791 14.5351 36.8407Z" fill="white"/>
</g>
<defs>
<clipPath id="clip0_1020_9527">
<rect width="50" height="50" fill="white"/>
</clipPath>
</defs>
</svg>
