<svg width="50" height="50" viewBox="0 0 50 50" fill="none" xmlns="http://www.w3.org/2000/svg">
<g clip-path="url(#clip0_1020_9775)">
<path fill-rule="evenodd" clip-rule="evenodd" d="M41.2276 31.7503C39.0401 31.313 36.1682 31.1969 34.9553 31.1969L6.08982 31.2033C4.29397 31.2033 2.43682 31.2033 1.48383 29.7351C0.517012 28.2457 1.04235 26.7803 2.67277 23.848C2.79443 23.6301 7.73821 14.3351 7.73821 14.3351C7.73821 14.3351 8.24328 14.9623 8.7525 15.3619C9.25526 15.7558 9.77185 15.966 11.1493 15.966C13.5958 15.966 29.3783 15.9315 29.5391 15.9305C32.7428 15.9305 35.9787 16.2623 38.0755 18.5619C39.164 18.678 42.6778 19.1425 45.5737 20.5273C47.2682 21.3365 48.3861 22.5461 48.8087 24.0236C48.9363 24.4701 49 24.9397 49 25.4264C49 26.8286 48.4751 28.3817 47.4456 29.9955C45.2709 33.4066 43.2654 34.5987 43.1755 34.6628C41.9396 35.5324 40.7428 35.5729 40.7428 35.5729C40.7428 35.5729 41.8207 34.3471 42.1842 33.1213C42.5483 31.8955 41.2276 31.7503 41.2276 31.7503Z" fill="white"/>
<path fill-rule="evenodd" clip-rule="evenodd" d="M37.6757 19.3556C37.6757 19.3556 41.9158 19.6966 45.2168 21.275C48.5168 22.8533 49.0955 25.869 46.748 29.5509C44.6425 32.8509 42.5168 34.2509 42.5168 34.2509C42.5168 34.2509 44.5651 31.5726 41.3896 30.9372C38.9978 30.4598 35.9347 30.3685 34.9554 30.3685C34.4075 30.3685 31.745 30.374 29.0098 30.3796H29.0082C26.1194 30.3854 23.1499 30.3916 22.5048 30.3916C21.2485 30.3916 20.9015 30.2201 20.6259 29.8408C20.3508 29.4629 20.3029 28.9459 20.8181 28.1712C21.3352 27.3971 22.1204 26.1842 22.1204 26.1842L18.7263 23.4533C21.5744 20.6114 23.8489 19.6583 25.8347 19.6583C27.848 19.6583 28.7356 19.9542 32.0499 21.345C35.3647 22.7367 36.46 21.257 36.46 21.257C35.0683 21.8486 33.8255 21.345 31.4868 20.31C29.1489 19.2735 27.7582 18.8007 25.6577 18.8007C23.5559 18.8007 21.7807 19.392 19.5568 21.0279C19.3933 21.1481 19.2418 21.2609 19.0995 21.3667C17.4198 22.6155 17.0579 22.8846 14.1472 22.8846H4.11578L7.97892 15.6515C7.97892 15.6515 8.26786 16.7943 11.1495 16.7943C13.625 16.7943 29.5393 16.7593 29.5393 16.7593C32.6991 16.7593 35.8255 17.0943 37.6757 19.3556ZM39.167 20.6391C39.167 20.6391 37.8835 21.5081 39.385 21.8676C42.3867 22.2832 48.2601 23.3832 44.3025 30.0289C41.52 28.5805 36.2546 26.6855 29.6495 26.6819C26.7591 26.845 25.6559 27.4317 24.1947 29.6077H22.5955C23.9527 27.2178 25.2711 25.8146 28.1025 25.8146H31.5979C31.6986 25.8146 31.7972 25.8149 31.8933 25.8152C33.7455 25.8211 34.7745 25.8244 35.9107 23.5385C35.9472 23.4662 35.9827 23.3976 36.0172 23.3307C36.2029 22.8376 37.0066 21.0754 39.167 20.6391ZM27.0916 29.5824C27.8304 28.4658 29.3323 28.0866 31.7539 28.2262C37.73 28.5723 41.1659 29.7358 43.8355 30.7303C40.5437 28.8036 34.6774 27.4147 30.6 27.4276C28.6074 27.4335 26.8673 27.782 25.8451 29.5824H27.0916ZM28.7918 24.2483C31.7009 24.447 32.7267 24.076 33.5055 22.9894C33.953 23.0456 34.4254 23.0511 34.9503 22.9857C34.6714 23.594 33.9369 24.9622 30.8963 24.9622H27.6263C25.877 24.9622 24.5876 24.7622 22.6539 22.8498C22.6539 22.8498 24.5484 20.8534 27.142 21.0133C26.9549 21.353 26.7705 21.6903 26.6627 21.889C26.6655 21.8903 26.6743 21.8903 26.6743 21.8903C26.6665 21.9041 26.6586 21.9181 26.6506 21.9324C26.2476 22.6475 25.4728 24.0229 28.7918 24.2483Z" fill="#002244"/>
<path fill-rule="evenodd" clip-rule="evenodd" d="M32.0293 22.6653C31.9675 22.6404 31.9036 22.6142 31.8395 22.5879C31.5413 22.9022 31.027 23.0842 30.5289 23.0201C29.8731 22.9363 29.4952 22.4598 29.6814 21.957C29.7081 21.8832 29.7473 21.8142 29.7939 21.7478C29.4579 21.6159 29.1201 21.4893 28.7911 21.3745C28.1173 22.4644 27.7224 23.1865 30.0602 23.3838C31.5164 23.5077 31.9114 23.2583 32.2173 22.7358C32.1547 22.7119 32.0939 22.6911 32.0293 22.6653Z" fill="#69BE28"/>
<path fill-rule="evenodd" clip-rule="evenodd" d="M20.2886 26.8075C19.0825 28.9006 18.6042 29.3812 19.4512 30.3748C19.4512 30.3748 8.52771 30.3748 6.09037 30.3748C4.11987 30.3748 2.83876 30.3006 2.17978 29.2845C1.53876 28.2978 1.67056 27.3569 3.39775 24.2513C3.39775 24.2513 12.8023 24.2513 14.7576 24.2513C16.7135 24.2513 17.2162 24.3628 18.2775 25.1864C19.3388 26.0107 20.2886 26.8075 20.2886 26.8075Z" fill="#A5ACAF"/>
</g>
<defs>
<clipPath id="clip0_1020_9775">
<rect width="50" height="50" fill="white"/>
</clipPath>
</defs>
</svg>
