<svg width="50" height="50" viewBox="0 0 50 50" fill="none" xmlns="http://www.w3.org/2000/svg">
<g clip-path="url(#clip0)">
<path d="M11.4417 16.675C11.4417 16.675 15.5333 10 23.9 10C32.2667 10 36.1583 16.4833 36.1583 16.4833H47.5083L47.05 19.275C47.05 19.275 46.7333 20.375 46.2083 20.5H46.9917C46.9917 20.5 47.25 21.475 45.6917 24.85H49C49 24.85 49.1333 30.75 41.9917 33.5417C41.9917 33.5417 38.3 34.7083 36.4167 32.7C36.4167 32.7 32.65 39.7 23.9 39.7C15.15 39.7 11.1833 32.5 11.1833 32.5H1L2.625 29.5833H1.51667L2.81667 27.1833H5.025L5.40833 26.275H4.375L6.9 21.6083H8.33333L8.91667 20.1833H7.68333L9.55833 16.675H11.4417Z" fill="white"/>
<path d="M24.0167 38.1417C31.175 38.1417 36.9833 32.25 36.9833 24.9833C36.9833 17.7167 31.175 11.825 24.0167 11.825C16.8584 11.825 11.0583 17.7167 11.0583 24.9833C11.0583 32.25 16.8584 38.1417 24.0167 38.1417Z" fill="#FDB927"/>
<path d="M29.925 26.3333C28.7166 27.8 28.0333 28.3 26.8 28.3C26.3833 28.3 26.1666 28.2083 26.2833 28.0083L27.7416 25.075H28.3C28.9166 25.075 28.8333 25.5917 28.6666 26.3C28.6333 26.4 28.7083 26.4083 28.7833 26.325L30.1666 23.8833C30.2333 23.7333 30.0583 23.7 29.975 23.8167C29.2833 24.7583 28.55 24.6917 28.2416 24.6917H27.9916L29.55 21.7167H30.175C30.9666 21.7667 31.3333 22.4417 31.1083 24.0583H31.4333L32.5833 21.8C32.675 21.6083 32.475 21.4333 32.2583 21.4333H24.4916C24.0416 21.4333 24.0166 21.7833 24.45 21.7833C24.8833 21.7833 24.7833 22.2833 24.4666 22.525L21.1666 25.1417L21.8333 28.2417C21.8833 28.475 22.0333 28.5833 22.2916 28.5833H28.7166C28.8064 28.5895 28.8962 28.5729 28.9778 28.535C29.0594 28.4971 29.1301 28.4392 29.1833 28.3667L30.3416 26.3583C30.5 26.0667 30.1333 26.0833 29.925 26.3333ZM25.45 24.9167H24.8833C24.8739 24.9155 24.8643 24.9163 24.8552 24.9191C24.8461 24.922 24.8378 24.9267 24.8307 24.933C24.8236 24.9393 24.8179 24.9471 24.814 24.9557C24.8102 24.9644 24.8082 24.9738 24.8083 24.9833C24.8083 25.0032 24.8162 25.0223 24.8303 25.0364C24.8443 25.0504 24.8634 25.0583 24.8833 25.0583H25.4583C25.65 25.0583 25.8333 25.0833 25.7833 25.1667L24.2916 28.0083C24.1083 28.35 23.7166 28.2583 23.6583 27.9917L22.9166 24.175L25.5083 22.1667C25.7666 21.95 26.2583 21.5917 26.5166 21.5917H27.075C27.425 21.5917 27.5416 21.75 27.4666 21.9583L27.3666 22.15C27.3 22.2583 27.0916 22.2667 26.925 22.2667H26.6C26.5801 22.2667 26.561 22.2746 26.5469 22.2886C26.5329 22.3027 26.525 22.3218 26.525 22.3417C26.525 22.3616 26.5329 22.3806 26.5469 22.3947C26.561 22.4088 26.5801 22.4167 26.6 22.4167H26.9166C27.0583 22.4167 27.2333 22.4167 27.1666 22.525L25.9666 24.8083C25.9083 24.9 25.6583 24.9167 25.45 24.9167Z" fill="#552583"/>
<path d="M20.1167 28.2417C20.0441 28.24 19.9739 28.2159 19.9157 28.1726C19.8574 28.1293 19.8141 28.069 19.7917 28C19.7333 27.8333 19.7333 27.5417 19.8083 27.4083L22.8 22.0917C22.85 21.9917 22.975 21.7833 23.125 21.7833C23.275 21.7833 23.5 21.4417 23.05 21.4417H20.65C20.2 21.4417 20.2 21.7833 20.625 21.7833C20.659 21.7808 20.693 21.787 20.7239 21.8013C20.7548 21.8157 20.7815 21.8376 20.8016 21.8652C20.8216 21.8927 20.8343 21.9249 20.8384 21.9587C20.8425 21.9925 20.8379 22.0268 20.825 22.0583L20.1583 23.2583C20.075 23.3917 19.8917 23.4 19.7 23.4H19.125C19.1066 23.4021 19.0896 23.4109 19.0773 23.4247C19.065 23.4386 19.0582 23.4565 19.0583 23.475C19.0583 23.4927 19.0654 23.5096 19.0779 23.5222C19.0904 23.5347 19.1073 23.5417 19.125 23.5417H19.6917C19.85 23.5417 19.975 23.5917 19.8833 23.7667L17.6667 27.8C17.5083 28.025 17.1917 28.075 17.2083 27.65L18 21.7417C18.025 21.5583 17.9833 21.4333 17.7833 21.4333H16.5917C16.5325 21.4319 16.474 21.4467 16.4226 21.4761C16.3712 21.5054 16.3288 21.5483 16.3 21.6L15.875 22.1333C15.8167 22.1833 15.7 22.1833 15.5667 22.1833H14.5667C14.5483 22.1854 14.5313 22.1942 14.5189 22.2081C14.5066 22.2219 14.4999 22.2398 14.5 22.2583C14.5018 22.2754 14.5094 22.2913 14.5215 22.3035C14.5337 22.3156 14.5496 22.3232 14.5667 22.325H15.3833C15.525 22.325 15.7 22.3583 15.6333 22.425L14.4917 23.8667C14.4583 23.9083 14.35 23.9167 14.2833 23.9167H13.9583C13.9398 23.9166 13.9219 23.9233 13.908 23.9356C13.8942 23.9479 13.8854 23.9649 13.8833 23.9833C13.8833 24.0032 13.8912 24.0223 13.9053 24.0364C13.9194 24.0504 13.9384 24.0583 13.9583 24.0583H14.225C14.3083 24.0583 14.3083 24.1 14.275 24.1333L13.2 25.4833C13.15 25.5417 13.0417 25.55 12.9333 25.55H11.9917C11.9731 25.5499 11.9552 25.5566 11.9414 25.569C11.9275 25.5813 11.9187 25.5983 11.9167 25.6167C11.9167 25.6366 11.9246 25.6556 11.9386 25.6697C11.9527 25.6838 11.9718 25.6917 11.9917 25.6917H12.8C12.925 25.6917 13.025 25.7167 12.9583 25.8L11.4333 27.7083C11.1417 28.075 9.76667 28.2583 9.49167 28.2583L14.65 18.6084C14.6948 18.5285 14.7585 18.461 14.8355 18.4116C14.9125 18.3622 15.0005 18.3324 15.0917 18.325H16.1917C16.7083 18.325 16.6917 17.9834 16.2417 17.9834H10.7333C10.2833 17.9834 10.2667 18.325 10.7833 18.325H11.8C12.0917 18.325 12.1833 18.5 12.1083 18.6417L11.9667 18.9084C11.9167 19 11.85 19.0334 11.5667 19.0334H9.76667C9.75724 19.0322 9.74767 19.033 9.73859 19.0358C9.72951 19.0386 9.72114 19.0434 9.71404 19.0497C9.70694 19.056 9.70127 19.0637 9.69741 19.0724C9.69355 19.0811 9.69159 19.0905 9.69167 19.1C9.69167 19.1199 9.69957 19.139 9.71363 19.1531C9.7277 19.1671 9.74678 19.175 9.76667 19.175H11.5667C11.6583 19.175 11.8083 19.2 11.7167 19.375L11.4667 19.8417C11.4314 19.8809 11.3873 19.9111 11.338 19.9299C11.2888 19.9488 11.2358 19.9557 11.1833 19.95H10.3667C10.3572 19.9488 10.3477 19.9497 10.3386 19.9525C10.3295 19.9553 10.3211 19.96 10.314 19.9663C10.3069 19.9726 10.3013 19.9804 10.2974 19.9891C10.2936 19.9978 10.2916 20.0072 10.2917 20.0167C10.2917 20.0366 10.2996 20.0556 10.3136 20.0697C10.3277 20.0838 10.3468 20.0917 10.3667 20.0917H11.175C11.2917 20.0917 11.3 20.1667 11.2333 20.275L10.65 21.35C10.6 21.4417 10.5083 21.4583 10.325 21.4583H10C9.98147 21.4582 9.96356 21.465 9.94971 21.4773C9.93586 21.4896 9.92706 21.5066 9.925 21.525C9.925 21.5449 9.9329 21.564 9.94697 21.578C9.96103 21.5921 9.98011 21.6 10 21.6H10.3167C10.4417 21.6 10.475 21.6667 10.4167 21.7833L9.94167 22.675C9.86667 22.8 9.76667 22.85 9.45 22.85H7.65C7.64057 22.8488 7.631 22.8497 7.62192 22.8525C7.61285 22.8553 7.60448 22.86 7.59738 22.8663C7.59027 22.8726 7.5846 22.8804 7.58074 22.8891C7.57688 22.8978 7.57493 22.9072 7.575 22.9167C7.575 22.9366 7.5829 22.9556 7.59697 22.9697C7.61103 22.9838 7.63011 22.9917 7.65 22.9917H9.45C9.65 22.9917 9.725 23.0833 9.64167 23.225L8.71667 24.975C8.65834 25.0583 8.50834 25.0667 8.25 25.0667H6.45C6.43147 25.0666 6.41356 25.0733 6.39971 25.0856C6.38586 25.0979 6.37706 25.1149 6.375 25.1333C6.375 25.1532 6.3829 25.1723 6.39697 25.1864C6.41103 25.2004 6.43011 25.2083 6.45 25.2083H8.24167C8.45834 25.2083 8.59167 25.2167 8.525 25.3333L7.99167 26.3417C7.89167 26.4917 7.61667 26.4917 7.50833 26.4917H6.93333C6.91492 26.4937 6.89792 26.5025 6.88561 26.5164C6.8733 26.5302 6.86655 26.5481 6.86667 26.5667C6.86848 26.5837 6.87608 26.5997 6.88822 26.6118C6.90035 26.6239 6.91627 26.6315 6.93333 26.6333H7.5C7.7 26.6333 7.80833 26.6667 7.75834 26.775L7.04167 28.125C6.975 28.2417 6.7 28.25 6.48334 28.25H3.69167C3.67461 28.2518 3.65868 28.2594 3.64655 28.2716C3.63442 28.2837 3.62681 28.2996 3.625 28.3167C3.62489 28.3352 3.63163 28.3531 3.64394 28.367C3.65625 28.3808 3.67325 28.3896 3.69167 28.3917H6.475C6.65833 28.3917 6.89167 28.4167 6.80833 28.5583L6.35 29.425C6.30833 29.4917 6.15 29.5 5.925 29.5H5.35834C5.33981 29.4999 5.32189 29.5066 5.30804 29.5189C5.29419 29.5313 5.28539 29.5483 5.28333 29.5667C5.28333 29.5866 5.29124 29.6056 5.3053 29.6197C5.31937 29.6338 5.33844 29.6417 5.35834 29.6417H5.925C6.05833 29.6417 6.225 29.6583 6.16667 29.7583L5.88333 30.3083C5.79167 30.45 5.7 30.5667 5.475 30.5667H4.08333C3.56667 30.5667 3.58333 30.9167 4.03333 30.9167H12.2417C12.4833 30.9167 12.4917 30.8833 12.6 30.7083L13.8167 28.5833H20.0417C20.4917 28.5833 20.375 28.25 20.1167 28.2417ZM15.2333 27.6083C15.175 27.9583 14.8167 28.1917 14.375 28.3083L13.9167 28.4167L14.2917 27.7417C14.3917 27.5583 14.175 27.45 13.9417 27.725C12.35 29.575 11.8417 30.4583 9.39167 30.4667H8.73334C8.53334 30.4667 8.31667 30.3917 8.45 30.2L9.31667 28.5833H12.6167C13.0583 28.5833 12.95 28.25 12.6833 28.2417C12.5797 28.2327 12.4799 28.1984 12.3927 28.1417C12.3055 28.085 12.2336 28.0077 12.1833 27.9167C12.1429 27.8437 12.1224 27.7614 12.1239 27.6781C12.1253 27.5947 12.1487 27.5131 12.1917 27.4417L13.45 25.7667H15.55L15.2333 27.6083ZM15.7083 25.4833H13.6583L16.25 22.075L15.7083 25.4833Z" fill="#552583"/>
<path d="M46.8249 26.5417C46.7916 26.375 46.7333 26.475 46.6249 26.6917C46.5916 26.75 46.4833 26.75 46.3749 26.75H46.0416C46.0239 26.75 46.007 26.757 45.9945 26.7695C45.9819 26.782 45.9749 26.799 45.9749 26.8167C45.9748 26.8352 45.9816 26.8531 45.9939 26.8669C46.0062 26.8808 46.0232 26.8896 46.0416 26.8917H46.3666C46.4916 26.8917 46.4916 26.975 46.4333 27.1C46.2271 27.5269 45.9696 27.9271 45.6666 28.2916C45.5912 28.3601 45.4934 28.3987 45.3916 28.4H45.0666C45.0572 28.3988 45.0476 28.3996 45.0385 28.4024C45.0294 28.4053 45.0211 28.41 45.014 28.4163C45.0069 28.4226 45.0012 28.4304 44.9973 28.4391C44.9935 28.4477 44.9915 28.4571 44.9916 28.4666C44.9916 28.4865 44.9995 28.5056 45.0136 28.5197C45.0276 28.5337 45.0467 28.5416 45.0666 28.5416H45.3833C45.5499 28.5416 45.3833 28.6416 45.3583 28.675C44.9655 29.2219 44.4969 29.7101 43.9666 30.125C43.9166 30.1666 43.6749 30.15 43.5083 30.15H43.1833C43.1656 30.15 43.1486 30.157 43.1361 30.1695C43.1236 30.182 43.1166 30.199 43.1166 30.2166C43.1165 30.2352 43.1232 30.2531 43.1355 30.2669C43.1479 30.2808 43.1649 30.2896 43.1833 30.2916H43.5083C43.7499 30.2916 43.5666 30.4333 43.5333 30.4666C42.6416 31.2083 41.3083 31.45 40.6916 31.375C38.7166 31.125 38.3083 29.625 38.1583 29.0166C38.1333 28.8916 38.0333 28.6416 38.0083 28.475C37.9416 28.1666 38.8333 28.075 39.0833 28.2416C39.4583 28.4916 40.3249 28.75 41.0166 28.75C41.7083 28.75 42.9499 28.2916 43.3249 27.2C43.6999 26.1083 42.7416 24.85 42.3166 24.4167C41.8916 23.9833 41.2583 23.0083 41.4749 22.375C41.6333 21.8917 41.9083 21.675 42.4916 21.675C43.2499 21.675 43.7999 22.1583 43.7999 22.85C43.7999 22.9083 43.7666 22.9833 43.7166 22.9833H43.4499C43.43 22.9833 43.411 22.9912 43.3969 23.0053C43.3828 23.0194 43.3749 23.0384 43.3749 23.0583C43.3749 23.0782 43.3828 23.0973 43.3969 23.1114C43.411 23.1254 43.43 23.1333 43.4499 23.1333H43.6999C43.7666 23.1333 43.8166 23.1833 43.7999 23.275C43.7499 23.5 43.7333 23.6667 43.6833 23.9C43.6333 24.1333 43.8499 24.125 43.9166 24.025L45.1083 21.9C45.1916 21.7417 44.9999 21.7 44.8583 21.75C44.5333 21.8583 44.0083 21.9417 43.8166 21.8C43.3749 21.4833 42.9666 21.275 42.3416 21.275C41.2916 21.275 40.5499 21.5417 40.0749 22.4083C40.0333 22.475 39.9333 22.475 39.8416 22.475H39.6416C39.6217 22.475 39.6026 22.4829 39.5886 22.497C39.5745 22.511 39.5666 22.5301 39.5666 22.55C39.5665 22.5595 39.5685 22.5689 39.5724 22.5776C39.5762 22.5863 39.5819 22.594 39.589 22.6003C39.5961 22.6067 39.6045 22.6114 39.6135 22.6142C39.6226 22.617 39.6322 22.6179 39.6416 22.6167H39.8083C39.8833 22.6167 39.9333 22.6417 39.8999 22.725C39.8631 22.8059 39.8324 22.8894 39.8083 22.975C39.6916 23.35 39.7249 23.875 39.9166 24.35C39.9249 24.3833 39.8916 24.3917 39.8166 24.3917H39.4916C39.4822 24.3905 39.4726 24.3913 39.4635 24.3941C39.4545 24.3969 39.4461 24.4017 39.439 24.408C39.4319 24.4143 39.4262 24.422 39.4224 24.4307C39.4185 24.4394 39.4165 24.4488 39.4166 24.4583C39.4166 24.4782 39.4245 24.4973 39.4386 24.5114C39.4526 24.5254 39.4717 24.5333 39.4916 24.5333H39.8166C39.9583 24.5333 39.9916 24.55 40.0583 24.6333C40.2249 24.8667 40.3916 25.0417 40.6083 25.3167C40.6749 25.4 40.3916 25.425 40.2333 25.425H38.9499C38.9404 25.4249 38.931 25.4269 38.9224 25.4307C38.9137 25.4346 38.9059 25.4403 38.8996 25.4474C38.8933 25.4545 38.8886 25.4628 38.8857 25.4719C38.8829 25.481 38.8821 25.4906 38.8833 25.5C38.8833 25.5177 38.8903 25.5346 38.9028 25.5471C38.9153 25.5596 38.9323 25.5667 38.9499 25.5667H40.2499C40.4583 25.5667 40.8166 25.5667 40.8583 25.6083C41.1749 25.975 41.5499 26.5333 41.6166 27C41.6333 27.1333 41.5833 27.1917 41.4166 27.1917H41.2416C41.2321 27.1916 41.2227 27.1935 41.214 27.1974C41.2053 27.2013 41.1976 27.2069 41.1913 27.214C41.1849 27.2211 41.1802 27.2295 41.1774 27.2386C41.1746 27.2476 41.1737 27.2572 41.1749 27.2667C41.1735 27.2757 41.1743 27.285 41.1771 27.2938C41.1799 27.3025 41.1848 27.3104 41.1913 27.3169C41.1978 27.3234 41.2058 27.3283 41.2145 27.3312C41.2232 27.334 41.2325 27.3347 41.2416 27.3333H41.3999C41.5249 27.3333 41.5999 27.3583 41.5666 27.4583C41.3999 27.9916 41.1499 28.3833 40.1249 28.375C39.0999 28.3666 38.8249 27.3166 39.1416 26.2167C39.1999 25.9917 39.1333 25.9 39.0416 26.075L38.2916 27.25C38.267 27.2817 38.2354 27.3072 38.1993 27.3246C38.1631 27.3419 38.1234 27.3506 38.0833 27.35H37.9749C37.9659 27.3486 37.9566 27.3493 37.9478 27.3521C37.9391 27.355 37.9312 27.3599 37.9247 27.3664C37.9182 27.3729 37.9133 27.3808 37.9104 27.3895C37.9076 27.3983 37.9069 27.4076 37.9083 27.4166C37.9082 27.4352 37.9149 27.4531 37.9272 27.4669C37.9395 27.4808 37.9565 27.4896 37.9749 27.4917C38.0749 27.4917 38.1083 27.5416 38.0749 27.5916L37.7999 28.025C37.3416 26.9833 36.5833 25.7083 36.1833 25.2417V25.225C37.175 25.1583 38.6499 24.225 38.8916 23.3917C39.3166 21.9333 37.8999 21.4 37.1333 21.4H33.7666C33.3166 21.4 33.2833 21.7417 33.7166 21.7417C33.95 21.7417 34.15 21.9417 34.05 22.15L33.3 23.5C33.2333 23.6083 33.0083 23.6 32.7083 23.6H32.375C32.3551 23.6 32.336 23.6079 32.3219 23.622C32.3079 23.636 32.3 23.6551 32.3 23.675C32.3 23.6949 32.3079 23.714 32.3219 23.728C32.336 23.7421 32.3551 23.75 32.375 23.75H32.7C32.9166 23.75 33.15 23.7583 33.075 23.9167L32.1833 25.5083C32.1416 25.5833 32.025 25.5917 31.725 25.5917H31.4C31.3905 25.5916 31.3811 25.5935 31.3724 25.5974C31.3637 25.6013 31.3559 25.6069 31.3496 25.614C31.3433 25.6211 31.3386 25.6295 31.3358 25.6386C31.333 25.6477 31.3321 25.6572 31.3333 25.6667C31.3319 25.6757 31.3326 25.685 31.3355 25.6938C31.3383 25.7025 31.3432 25.7104 31.3497 25.7169C31.3562 25.7234 31.3641 25.7283 31.3729 25.7312C31.3816 25.734 31.3909 25.7347 31.4 25.7333H31.7166C31.9583 25.7333 32.05 25.7667 31.975 25.8917L30.8 28.025C30.6583 28.1833 30.4833 28.2083 30.2 28.2083C29.7666 28.2083 29.775 28.55 30.225 28.55H33.1166C33.5666 28.55 33.45 28.2083 33.1833 28.2083C32.9166 28.2083 32.8666 27.9166 32.9666 27.75L34.4416 24.95H34.5916C35.25 24.95 35.4083 26.025 35.5333 27.2C35.5416 27.2917 35.3833 27.2916 35.0583 27.2916H34.2333C34.2134 27.2916 34.1943 27.2996 34.1803 27.3136C34.1662 27.3277 34.1583 27.3468 34.1583 27.3667C34.1583 27.3865 34.1662 27.4056 34.1803 27.4197C34.1943 27.4337 34.2134 27.4417 34.2333 27.4417H35.05C35.2583 27.4417 35.5666 27.4416 35.575 27.5083C35.625 28.025 35.6666 28.4833 35.7666 28.8916C35.8 29.025 35.5666 29 35.325 29H34.275C34.2551 29 34.236 29.0079 34.2219 29.0219C34.2079 29.036 34.2 29.0551 34.2 29.075C34.2 29.0949 34.2079 29.1139 34.2219 29.128C34.236 29.1421 34.2551 29.15 34.275 29.15H35.325C35.65 29.15 35.8166 29.15 35.8416 29.2166C36.2916 30.8666 38.2166 32.1666 40.0916 32.0916C41.7083 32.0333 43.0666 31.1583 43.7583 30.6C44.6833 29.8583 46.0499 28.3 46.5999 27.1666C46.6999 26.9917 46.8666 26.725 46.8249 26.5417ZM36.0083 24.3417C35.7833 24.5333 35.425 24.7417 35.3583 24.675C35.1856 24.5311 34.9985 24.4054 34.8 24.3L36.1416 21.85C36.1677 21.8037 36.2071 21.7663 36.2546 21.7426C36.3021 21.7188 36.3556 21.7098 36.4083 21.7167C36.925 21.7167 37.0999 22.2833 36.8583 22.9917C36.6833 23.4833 36.4083 24.0167 36.0083 24.3417Z" fill="#552583"/>
<path d="M19.7166 19.2583C19.4416 19.6083 19.0833 19.7 18.6833 19.7H18.5666L19.2749 18.2833C19.2963 18.2497 19.3258 18.2221 19.3608 18.2032C19.3959 18.1842 19.4351 18.1745 19.4749 18.175C19.5666 18.175 19.5583 17.9917 19.4416 17.9917H18.3166C18.2249 17.9917 18.1916 18.175 18.2749 18.175C18.3583 18.175 18.3916 18.275 18.3416 18.3667L17.7083 19.625C17.6594 19.6829 17.5914 19.7213 17.5166 19.7333C17.425 19.75 17.3583 19.925 17.4666 19.925H19.2583C19.2989 19.9297 19.34 19.9228 19.3769 19.9051C19.4138 19.8874 19.4449 19.8596 19.4666 19.825L19.8249 19.2667C19.8749 19.2 19.7666 19.1917 19.7166 19.2583Z" fill="#552583"/>
<path d="M25.1084 18.0417C25.0714 18.0621 25.0298 18.0728 24.9875 18.0728C24.9453 18.0728 24.9037 18.0621 24.8667 18.0417C24.7009 17.9207 24.5046 17.8486 24.3 17.8333C23.875 17.8333 23.575 17.9167 23.3917 18.3167C23.2083 18.7167 23.3917 18.9417 23.7667 19.1083C23.925 19.1833 24.1417 19.2833 24.0583 19.475C23.975 19.6667 23.8333 19.6333 23.6833 19.6333C23.5333 19.6333 23.1833 19.4833 23.1333 19.2C23.1293 19.1845 23.1208 19.1704 23.1089 19.1596C23.097 19.1488 23.0823 19.1416 23.0664 19.1389C23.0506 19.1363 23.0343 19.1383 23.0196 19.1447C23.0048 19.1511 22.9922 19.1616 22.9833 19.175L22.725 19.6833C22.6917 19.75 22.7917 19.825 22.8333 19.7833C22.8815 19.7376 22.9428 19.7082 23.0086 19.6992C23.0744 19.6902 23.1414 19.7022 23.2 19.7333C23.325 19.8167 23.65 19.9667 23.85 19.9583C24.275 19.9583 24.5584 19.85 24.7917 19.4833C25.025 19.1167 24.875 18.8167 24.4833 18.6333C24.275 18.5333 24.1 18.3583 24.1917 18.175C24.2833 17.9917 24.4417 18.075 24.5334 18.0917C24.625 18.1083 24.925 18.2833 24.95 18.425C24.9514 18.4392 24.9574 18.4526 24.967 18.4631C24.9766 18.4737 24.9893 18.4809 25.0033 18.4837C25.0173 18.4865 25.0318 18.4847 25.0447 18.4787C25.0576 18.4726 25.0682 18.4626 25.075 18.45L25.2084 18.1333C25.2417 18.075 25.1417 18.025 25.1084 18.0417Z" fill="#552583"/>
<path d="M37.5333 18.55L37.6917 18.2583C37.7583 18.1333 37.65 17.9917 37.4667 17.9917H35.375C35.3557 17.9903 35.3364 17.9958 35.3207 18.0071C35.3049 18.0184 35.2936 18.0348 35.2887 18.0536C35.2837 18.0723 35.2855 18.0922 35.2936 18.1098C35.3018 18.1274 35.3158 18.1416 35.3333 18.15C35.4667 18.15 35.5083 18.3083 35.425 18.45L34.8 19.6083C34.7 19.7167 34.6417 19.7667 34.5083 19.7667C34.375 19.7667 34.3667 19.925 34.5167 19.925H36.6333C36.6639 19.9267 36.6944 19.9207 36.722 19.9076C36.7497 19.8945 36.7736 19.8747 36.7917 19.85L37.075 19.4667C37.15 19.375 36.9917 19.375 36.95 19.4167C36.5833 19.7833 36.1917 19.775 35.9083 19.775H35.6583L35.95 19.125H36.0083C36.2 19.125 36.4167 19.125 36.4667 19.2667C36.4761 19.2773 36.4876 19.2858 36.5005 19.2917C36.5135 19.2975 36.5275 19.3005 36.5417 19.3005C36.5559 19.3005 36.5699 19.2975 36.5828 19.2917C36.5958 19.2858 36.6073 19.2773 36.6167 19.2667L36.8583 18.775C36.9 18.7 36.7917 18.6833 36.7583 18.7417C36.725 18.8 36.2333 18.8667 36.1167 18.8667H36.0583L36.4167 18.15H36.825C36.9406 18.1544 37.0524 18.1922 37.1471 18.2587C37.2417 18.3253 37.3151 18.4177 37.3583 18.525C37.375 18.5667 37.5083 18.6083 37.5333 18.55Z" fill="#552583"/>
<path d="M32.1833 17.9917H31.4417C31.2917 17.9917 31.3333 18.15 31.4 18.15C31.4415 18.1514 31.4821 18.1632 31.5179 18.1842C31.5538 18.2053 31.5838 18.2349 31.6053 18.2705C31.6269 18.3061 31.6392 18.3465 31.6411 18.388C31.6431 18.4295 31.6347 18.4709 31.6167 18.5083L31.3083 19.075L30.625 18.075C30.5934 18.0436 30.5556 18.0192 30.5139 18.0034C30.4723 17.9876 30.4278 17.9808 30.3833 17.9833H29.65C29.5 17.9833 29.5333 18.1417 29.5917 18.1417C29.65 18.1417 29.7083 18.2583 29.6667 18.3417L29.0917 19.4667C29.0781 19.4886 29.0589 19.5065 29.036 19.5183C29.0131 19.5301 28.9874 19.5354 28.9616 19.5337C28.9359 19.532 28.9112 19.5233 28.89 19.5085C28.8689 19.4938 28.8522 19.4736 28.8417 19.45L28.3917 17.9833C28.375 17.925 28.1083 17.925 28.0417 17.9833L26.9083 18.9167H26.325C26.2083 18.9167 26.1583 18.9667 26.1583 19.025C26.1583 19.0833 26.2083 19.1417 26.325 19.1417H26.6333L26.325 19.3917C26.1583 19.525 25.9833 19.7 25.8667 19.7H25.7917C25.6833 19.7 25.625 19.7167 25.625 19.8C25.625 19.8833 25.6667 19.925 25.775 19.925H26.6833C26.8583 19.925 26.825 19.7 26.7417 19.7C26.6583 19.7 26.4917 19.575 26.6333 19.4083L26.9083 19.1417H27.4583C27.7833 19.1417 28.0167 19.5167 27.8167 19.6333L27.6667 19.7167C27.6 19.7583 27.5667 19.925 27.6667 19.925H29.45C29.5833 19.925 29.5583 19.75 29.5 19.75C29.4417 19.75 29.4 19.4833 29.4333 19.4167L29.9083 18.525L30.5667 19.8C30.6083 19.8833 30.6417 19.925 30.725 19.925H30.975C31.05 19.925 31.0833 19.875 31.1167 19.8167L31.8667 18.4583C31.9917 18.2167 32.0833 18.15 32.2333 18.15C32.3833 18.15 32.3333 17.9917 32.1833 17.9917ZM27.2 18.9167L27.8917 18.3417V18.9167H27.2Z" fill="#552583"/>
<path d="M21.625 17.9083C20.9916 17.9083 20.35 18.2167 20.2166 18.875C20.1861 19.019 20.1888 19.168 20.2246 19.3107C20.2603 19.4535 20.3282 19.5862 20.4231 19.6987C20.5179 19.8113 20.6372 19.9006 20.7719 19.9601C20.9065 20.0195 21.0529 20.0474 21.2 20.0417C21.8666 20.0417 22.4833 19.6083 22.6083 18.975C22.7333 18.3417 22.2583 17.9083 21.625 17.9083ZM21.8 19.1167C21.6 19.5083 21.2666 19.75 21.0583 19.6417C20.85 19.5333 20.8333 19.125 21.0333 18.725C21.2333 18.325 21.5583 18.1 21.775 18.2C21.9917 18.3 22 18.7167 21.8 19.1167Z" fill="#552583"/>
<path d="M34.3084 18.8667H33.5C33.35 18.8667 33.3917 19.025 33.4584 19.025C33.525 19.025 33.575 19.0583 33.575 19.1583C33.575 19.4833 33.4417 19.6083 33.1584 19.6083C32.875 19.6083 32.7417 19.2417 32.95 18.7833C33.0325 18.6163 33.1592 18.475 33.3165 18.3751C33.4737 18.2752 33.6554 18.2204 33.8417 18.2167C34.1 18.2167 34.3084 18.275 34.3417 18.5083C34.35 18.5667 34.4417 18.5667 34.4667 18.5167L34.6584 18.175C34.6834 18.1333 34.6501 18.0917 34.5917 18.0833C34.5334 18.075 34.4334 18.15 34.3584 18.0917C34.1253 17.9466 33.8578 17.8661 33.5834 17.8583C33.15 17.8583 32.5417 17.9583 32.1334 18.6667C31.725 19.375 32.3084 19.9834 32.8 19.9834C33.0834 19.9834 33.4 19.775 33.5834 19.7L33.7917 19.8417C33.8319 19.8887 33.8886 19.9185 33.95 19.925H34.025C34.0917 19.925 34.125 19.825 34.15 19.7667L34.4667 19C34.5084 18.925 34.4834 18.8667 34.3084 18.8667Z" fill="#552583"/>
<path d="M45.3499 18.0417C45.3129 18.0621 45.2713 18.0728 45.2291 18.0728C45.1868 18.0728 45.1453 18.0621 45.1083 18.0417C44.9419 17.9219 44.7459 17.8498 44.5416 17.8333C44.1166 17.8333 43.8083 17.9167 43.625 18.3167C43.4416 18.7167 43.6333 18.9417 44 19.1083C44.1666 19.1833 44.3749 19.2833 44.2916 19.475C44.2083 19.6667 44.0666 19.6333 43.925 19.6333C43.7833 19.6333 43.425 19.4833 43.375 19.2C43.3709 19.1845 43.3624 19.1704 43.3505 19.1596C43.3387 19.1488 43.3239 19.1416 43.3081 19.1389C43.2922 19.1363 43.2759 19.1383 43.2612 19.1447C43.2465 19.1511 43.2339 19.1616 43.225 19.175L42.9666 19.6833C42.925 19.75 43.0333 19.825 43.075 19.7833C43.1231 19.7376 43.1844 19.7082 43.2502 19.6992C43.316 19.6902 43.383 19.7022 43.4416 19.7333C43.5666 19.8167 43.8916 19.9667 44.0833 19.9583C44.5166 19.9583 44.7999 19.85 45.0333 19.4833C45.2666 19.1167 45.1166 18.8167 44.7249 18.6333C44.5166 18.5333 44.3416 18.3583 44.4333 18.175C44.5249 17.9917 44.6749 18.075 44.7666 18.0917C44.8583 18.1083 45.1666 18.2833 45.1916 18.425C45.193 18.4392 45.199 18.4526 45.2085 18.4631C45.2181 18.4737 45.2309 18.4809 45.2448 18.4837C45.2588 18.4865 45.2734 18.4847 45.2863 18.4787C45.2992 18.4726 45.3098 18.4626 45.3166 18.45L45.4499 18.1333C45.4832 18.075 45.3832 18.025 45.3499 18.0417Z" fill="#552583"/>
<path d="M39.7416 19.2583C39.4749 19.6083 39.1083 19.7 38.7083 19.7H38.5916L39.3083 18.2833C39.3296 18.2497 39.3592 18.2221 39.3942 18.2031C39.4292 18.1842 39.4685 18.1745 39.5083 18.175C39.5999 18.175 39.5833 17.9917 39.4666 17.9917H38.3499C38.2499 17.9917 38.2166 18.175 38.3083 18.175C38.3999 18.175 38.4166 18.275 38.3749 18.3667L37.7333 19.625C37.6875 19.6823 37.6222 19.7209 37.5499 19.7333C37.4499 19.75 37.3833 19.925 37.4916 19.925H39.2833C39.4249 19.925 39.4583 19.875 39.4916 19.825L39.8499 19.2667C39.8999 19.2 39.7916 19.1917 39.7416 19.2583Z" fill="#552583"/>
<path d="M42.4417 18.15C42.5584 18.1539 42.6716 18.1913 42.7677 18.2578C42.8637 18.3243 42.9386 18.4171 42.9833 18.525C43 18.5667 43.1333 18.6083 43.1583 18.55L43.3167 18.2583C43.3833 18.1333 43.2667 17.9917 43.0917 17.9917H41C40.85 17.9917 40.8917 18.15 40.9583 18.15C41.025 18.15 41.1333 18.3083 41.05 18.45L40.4167 19.6083C40.325 19.7167 40.2667 19.7667 40.1333 19.7667C40 19.7667 39.9833 19.925 40.1333 19.925H42.2583C42.2879 19.9278 42.3176 19.9222 42.3441 19.909C42.3706 19.8957 42.3929 19.8753 42.4083 19.85L42.7 19.4667C42.7667 19.375 42.6167 19.375 42.5667 19.4167C42.2083 19.7833 41.8167 19.775 41.525 19.775H41.2833L41.575 19.125H41.6333C41.8167 19.125 42.0333 19.125 42.0917 19.2667C42.1003 19.2771 42.1111 19.2856 42.1233 19.2914C42.1356 19.2971 42.149 19.3001 42.1625 19.3001C42.1761 19.3001 42.1894 19.2971 42.2017 19.2914C42.2139 19.2856 42.2247 19.2771 42.2333 19.2667L42.4833 18.775C42.525 18.7 42.4083 18.6833 42.3833 18.7417C42.3583 18.8 41.85 18.8667 41.7417 18.8667H41.6833L42.0417 18.15H42.4417Z" fill="#552583"/>
<path d="M29.925 26.3333C28.7166 27.8 28.0333 28.3 26.8 28.3C26.3833 28.3 26.1666 28.2083 26.2833 28.0083L27.7416 25.075H28.3C28.9166 25.075 28.8333 25.5917 28.6666 26.3C28.6333 26.4 28.7083 26.4083 28.7833 26.325L30.1666 23.8833C30.2333 23.7333 30.0583 23.7 29.975 23.8167C29.2833 24.7583 28.55 24.6917 28.2416 24.6917H27.9916L29.55 21.7167H30.175C30.9666 21.7667 31.3333 22.4417 31.1083 24.0583H31.4333L32.5833 21.8C32.675 21.6083 32.475 21.4333 32.2583 21.4333H24.4916C24.0416 21.4333 24.0166 21.7833 24.45 21.7833C24.8833 21.7833 24.7833 22.2833 24.4666 22.525L21.1666 25.1417L21.8333 28.2417C21.8833 28.475 22.0333 28.5833 22.2916 28.5833H28.7166C28.8064 28.5895 28.8962 28.5729 28.9778 28.535C29.0594 28.4971 29.1301 28.4392 29.1833 28.3667L30.3416 26.3583C30.5 26.0667 30.1333 26.0833 29.925 26.3333ZM25.45 24.9167H24.8833C24.8739 24.9155 24.8643 24.9163 24.8552 24.9191C24.8461 24.9219 24.8378 24.9267 24.8307 24.933C24.8236 24.9393 24.8179 24.9471 24.814 24.9557C24.8102 24.9644 24.8082 24.9738 24.8083 24.9833C24.8083 25.0032 24.8162 25.0223 24.8303 25.0364C24.8443 25.0504 24.8634 25.0583 24.8833 25.0583H25.4583C25.65 25.0583 25.8333 25.0833 25.7833 25.1667L24.2916 28.0083C24.1083 28.35 23.7166 28.2583 23.6583 27.9917L22.9166 24.175L25.5083 22.1667C25.7666 21.95 26.2583 21.5917 26.5166 21.5917H27.075C27.425 21.5917 27.5416 21.75 27.4666 21.9583L27.3666 22.15C27.3 22.2583 27.0916 22.2667 26.925 22.2667H26.6C26.5801 22.2667 26.561 22.2746 26.5469 22.2886C26.5329 22.3027 26.525 22.3218 26.525 22.3417C26.525 22.3616 26.5329 22.3806 26.5469 22.3947C26.561 22.4088 26.5801 22.4167 26.6 22.4167H26.9166C27.0583 22.4167 27.2333 22.4167 27.1666 22.525L25.9666 24.8083C25.9083 24.9 25.6583 24.9167 25.45 24.9167Z" fill="#552583"/>
<path d="M20.1167 28.2417C20.0441 28.24 19.9739 28.2159 19.9157 28.1726C19.8574 28.1293 19.8141 28.069 19.7917 28C19.7333 27.8333 19.7333 27.5417 19.8083 27.4083L22.8 22.0917C22.85 21.9917 22.975 21.7833 23.125 21.7833C23.275 21.7833 23.5 21.4417 23.05 21.4417H20.65C20.2 21.4417 20.2 21.7833 20.625 21.7833C20.659 21.7808 20.693 21.787 20.7239 21.8013C20.7548 21.8156 20.7815 21.8376 20.8016 21.8652C20.8216 21.8927 20.8343 21.9249 20.8384 21.9587C20.8425 21.9925 20.8379 22.0268 20.825 22.0583L20.1583 23.2583C20.075 23.3917 19.8917 23.4 19.7 23.4H19.125C19.1066 23.4021 19.0896 23.4109 19.0773 23.4247C19.065 23.4386 19.0582 23.4565 19.0583 23.475C19.0583 23.4927 19.0654 23.5096 19.0779 23.5221C19.0904 23.5346 19.1073 23.5417 19.125 23.5417H19.6917C19.85 23.5417 19.975 23.5917 19.8833 23.7667L17.6667 27.8C17.5083 28.025 17.1917 28.075 17.2083 27.65L18 21.7417C18.025 21.5583 17.9833 21.4333 17.7833 21.4333H16.5917C16.5325 21.4319 16.474 21.4467 16.4226 21.4761C16.3712 21.5054 16.3288 21.5483 16.3 21.6L15.875 22.1333C15.8167 22.1833 15.7 22.1833 15.5667 22.1833H14.5667C14.5483 22.1854 14.5313 22.1942 14.5189 22.208C14.5066 22.2219 14.4999 22.2398 14.5 22.2583C14.5018 22.2754 14.5094 22.2913 14.5215 22.3035C14.5337 22.3156 14.5496 22.3232 14.5667 22.325H15.3833C15.525 22.325 15.7 22.3583 15.6333 22.425L14.4917 23.8667C14.4583 23.9083 14.35 23.9167 14.2833 23.9167H13.9583C13.9398 23.9166 13.9219 23.9233 13.908 23.9356C13.8942 23.9479 13.8854 23.9649 13.8833 23.9833C13.8833 24.0032 13.8912 24.0223 13.9053 24.0364C13.9194 24.0504 13.9384 24.0583 13.9583 24.0583H14.225C14.3083 24.0583 14.3083 24.1 14.275 24.1333L13.2 25.4833C13.15 25.5417 13.0417 25.55 12.9333 25.55H11.9917C11.9731 25.5499 11.9552 25.5566 11.9414 25.5689C11.9275 25.5813 11.9187 25.5983 11.9167 25.6167C11.9167 25.6366 11.9246 25.6556 11.9386 25.6697C11.9527 25.6838 11.9718 25.6917 11.9917 25.6917H12.8C12.925 25.6917 13.025 25.7167 12.9583 25.8L11.4333 27.7083C11.1417 28.075 9.76667 28.2583 9.49167 28.2583L14.65 18.6083C14.6948 18.5285 14.7585 18.461 14.8355 18.4116C14.9125 18.3622 15.0005 18.3324 15.0917 18.325H16.1917C16.7083 18.325 16.6917 17.9833 16.2417 17.9833H10.7333C10.2833 17.9833 10.2667 18.325 10.7833 18.325H11.8C12.0917 18.325 12.1833 18.5 12.1083 18.6417L11.9667 18.9083C11.9167 19 11.85 19.0333 11.5667 19.0333H9.76667C9.75724 19.0322 9.74767 19.033 9.73859 19.0358C9.72951 19.0386 9.72114 19.0433 9.71404 19.0497C9.70694 19.056 9.70127 19.0637 9.69741 19.0724C9.69355 19.0811 9.69159 19.0905 9.69167 19.1C9.69167 19.1199 9.69957 19.139 9.71363 19.153C9.7277 19.1671 9.74678 19.175 9.76667 19.175H11.5667C11.6583 19.175 11.8083 19.2 11.7167 19.375L11.4667 19.8417C11.4314 19.8809 11.3873 19.9111 11.338 19.9299C11.2888 19.9488 11.2358 19.9557 11.1833 19.95H10.3667C10.3572 19.9488 10.3477 19.9497 10.3386 19.9525C10.3295 19.9553 10.3211 19.96 10.314 19.9663C10.3069 19.9726 10.3013 19.9804 10.2974 19.9891C10.2936 19.9978 10.2916 20.0072 10.2917 20.0167C10.2917 20.0366 10.2996 20.0556 10.3136 20.0697C10.3277 20.0838 10.3468 20.0917 10.3667 20.0917H11.175C11.2917 20.0917 11.3 20.1667 11.2333 20.275L10.65 21.35C10.6 21.4417 10.5083 21.4583 10.325 21.4583H10C9.98147 21.4582 9.96356 21.465 9.94971 21.4773C9.93586 21.4896 9.92706 21.5066 9.925 21.525C9.925 21.5449 9.9329 21.564 9.94697 21.578C9.96103 21.5921 9.98011 21.6 10 21.6H10.3167C10.4417 21.6 10.475 21.6667 10.4167 21.7833L9.94167 22.675C9.86667 22.8 9.76667 22.85 9.45 22.85H7.65C7.64057 22.8488 7.631 22.8497 7.62192 22.8525C7.61285 22.8553 7.60448 22.86 7.59738 22.8663C7.59027 22.8726 7.5846 22.8804 7.58074 22.8891C7.57688 22.8978 7.57493 22.9072 7.575 22.9167C7.575 22.9366 7.5829 22.9556 7.59697 22.9697C7.61103 22.9838 7.63011 22.9917 7.65 22.9917H9.45C9.65 22.9917 9.725 23.0833 9.64167 23.225L8.71667 24.975C8.65834 25.0583 8.50834 25.0667 8.25 25.0667H6.45C6.43147 25.0666 6.41356 25.0733 6.39971 25.0856C6.38586 25.0979 6.37706 25.1149 6.375 25.1333C6.375 25.1532 6.3829 25.1723 6.39697 25.1864C6.41103 25.2004 6.43011 25.2083 6.45 25.2083H8.24167C8.45834 25.2083 8.59167 25.2167 8.525 25.3333L7.99167 26.3417C7.89167 26.4917 7.61667 26.4917 7.50833 26.4917H6.93333C6.91492 26.4937 6.89792 26.5025 6.88561 26.5164C6.8733 26.5302 6.86655 26.5481 6.86667 26.5667C6.86848 26.5837 6.87608 26.5997 6.88822 26.6118C6.90035 26.6239 6.91627 26.6315 6.93333 26.6333H7.5C7.7 26.6333 7.80833 26.6667 7.75834 26.775L7.04167 28.125C6.975 28.2417 6.7 28.25 6.48334 28.25H3.69167C3.67461 28.2518 3.65868 28.2594 3.64655 28.2715C3.63442 28.2837 3.62681 28.2996 3.625 28.3167C3.62489 28.3352 3.63163 28.3531 3.64394 28.367C3.65625 28.3808 3.67325 28.3896 3.69167 28.3917H6.475C6.65833 28.3917 6.89167 28.4167 6.80833 28.5583L6.35 29.425C6.30833 29.4917 6.15 29.5 5.925 29.5H5.35834C5.33981 29.4999 5.32189 29.5066 5.30804 29.5189C5.29419 29.5312 5.28539 29.5482 5.28333 29.5667C5.28333 29.5866 5.29124 29.6056 5.3053 29.6197C5.31937 29.6338 5.33844 29.6417 5.35834 29.6417H5.925C6.05833 29.6417 6.225 29.6583 6.16667 29.7583L5.88333 30.3083C5.79167 30.45 5.7 30.5667 5.475 30.5667H4.08333C3.56667 30.5667 3.58333 30.9167 4.03333 30.9167H12.2417C12.4833 30.9167 12.4917 30.8833 12.6 30.7083L13.8167 28.5833H20.0417C20.4917 28.5833 20.375 28.25 20.1167 28.2417ZM15.2333 27.6083C15.175 27.9583 14.8167 28.1917 14.375 28.3083L13.9167 28.4167L14.2917 27.7417C14.3917 27.5583 14.175 27.45 13.9417 27.725C12.35 29.575 11.8417 30.4583 9.39167 30.4667H8.73334C8.53334 30.4667 8.31667 30.3917 8.45 30.2L9.31667 28.5833H12.6167C13.0583 28.5833 12.95 28.25 12.6833 28.2417C12.5797 28.2327 12.4799 28.1984 12.3927 28.1417C12.3055 28.085 12.2336 28.0077 12.1833 27.9167C12.1429 27.8437 12.1224 27.7614 12.1239 27.6781C12.1253 27.5947 12.1487 27.5131 12.1917 27.4417L13.45 25.7667H15.55L15.2333 27.6083ZM15.7083 25.4833H13.6583L16.25 22.075L15.7083 25.4833Z" fill="#552583"/>
<path d="M46.8249 26.5416C46.7916 26.375 46.7332 26.475 46.6249 26.6916C46.5916 26.75 46.4832 26.75 46.3749 26.75H46.0416C46.0239 26.75 46.0069 26.757 45.9944 26.7695C45.9819 26.782 45.9749 26.799 45.9749 26.8166C45.9748 26.8352 45.9815 26.8531 45.9939 26.8669C46.0062 26.8808 46.0232 26.8896 46.0416 26.8916H46.3666C46.4916 26.8916 46.4916 26.975 46.4332 27.1C46.2271 27.5269 45.9696 27.927 45.6666 28.2916C45.5912 28.3601 45.4934 28.3987 45.3916 28.4H45.0666C45.0572 28.3988 45.0476 28.3996 45.0385 28.4024C45.0294 28.4053 45.0211 28.41 45.014 28.4163C45.0069 28.4226 45.0012 28.4304 44.9973 28.439C44.9935 28.4477 44.9915 28.4571 44.9916 28.4666C44.9916 28.4865 44.9995 28.5056 45.0135 28.5197C45.0276 28.5337 45.0467 28.5416 45.0666 28.5416H45.3832C45.5499 28.5416 45.3832 28.6416 45.3582 28.675C44.9655 29.2218 44.4969 29.7101 43.9666 30.125C43.9166 30.1666 43.6749 30.15 43.5083 30.15H43.1833C43.1656 30.15 43.1486 30.157 43.1361 30.1695C43.1236 30.182 43.1166 30.199 43.1166 30.2166C43.1165 30.2352 43.1232 30.2531 43.1355 30.2669C43.1478 30.2808 43.1648 30.2896 43.1833 30.2916H43.5083C43.7499 30.2916 43.5666 30.4333 43.5333 30.4666C42.6416 31.2083 41.3083 31.45 40.6916 31.375C38.7166 31.125 38.3083 29.625 38.1583 29.0166C38.1333 28.8916 38.0333 28.6416 38.0083 28.475C37.9416 28.1666 38.8333 28.075 39.0833 28.2416C39.4583 28.4916 40.3249 28.75 41.0166 28.75C41.7083 28.75 42.9499 28.2916 43.3249 27.2C43.6999 26.1083 42.7416 24.85 42.3166 24.4167C41.8916 23.9833 41.2583 23.0083 41.4749 22.375C41.6333 21.8917 41.9083 21.675 42.4916 21.675C43.2499 21.675 43.7999 22.1583 43.7999 22.85C43.7999 22.9083 43.7666 22.9833 43.7166 22.9833H43.4499C43.43 22.9833 43.411 22.9912 43.3969 23.0053C43.3828 23.0194 43.3749 23.0384 43.3749 23.0583C43.3749 23.0782 43.3828 23.0973 43.3969 23.1114C43.411 23.1254 43.43 23.1333 43.4499 23.1333H43.6999C43.7666 23.1333 43.8166 23.1833 43.7999 23.275C43.7499 23.5 43.7333 23.6667 43.6833 23.9C43.6333 24.1333 43.8499 24.125 43.9166 24.025L45.1082 21.9C45.1916 21.7417 44.9999 21.7 44.8582 21.75C44.5333 21.8583 44.0083 21.9417 43.8166 21.8C43.3749 21.4833 42.9666 21.275 42.3416 21.275C41.2916 21.275 40.5499 21.5417 40.0749 22.4083C40.0333 22.475 39.9333 22.475 39.8416 22.475H39.6416C39.6217 22.475 39.6026 22.4829 39.5886 22.497C39.5745 22.511 39.5666 22.5301 39.5666 22.55C39.5665 22.5595 39.5685 22.5689 39.5723 22.5776C39.5762 22.5863 39.5819 22.594 39.589 22.6003C39.5961 22.6067 39.6044 22.6114 39.6135 22.6142C39.6226 22.617 39.6322 22.6178 39.6416 22.6167H39.8083C39.8833 22.6167 39.9333 22.6417 39.8999 22.725C39.863 22.8059 39.8324 22.8894 39.8083 22.975C39.6916 23.35 39.7249 23.875 39.9166 24.35C39.9249 24.3833 39.8916 24.3917 39.8166 24.3917H39.4916C39.4822 24.3905 39.4726 24.3913 39.4635 24.3941C39.4545 24.3969 39.4461 24.4017 39.439 24.408C39.4319 24.4143 39.4262 24.422 39.4223 24.4307C39.4185 24.4394 39.4165 24.4488 39.4166 24.4583C39.4166 24.4782 39.4245 24.4973 39.4386 24.5114C39.4526 24.5254 39.4717 24.5333 39.4916 24.5333H39.8166C39.9583 24.5333 39.9916 24.55 40.0583 24.6333C40.2249 24.8667 40.3916 25.0417 40.6083 25.3167C40.6749 25.4 40.3916 25.425 40.2333 25.425H38.9499C38.9404 25.4249 38.931 25.4269 38.9223 25.4307C38.9137 25.4346 38.9059 25.4403 38.8996 25.4474C38.8933 25.4545 38.8886 25.4628 38.8857 25.4719C38.8829 25.481 38.8821 25.4906 38.8833 25.5C38.8833 25.5177 38.8903 25.5346 38.9028 25.5471C38.9153 25.5596 38.9323 25.5666 38.9499 25.5666H40.2499C40.4583 25.5666 40.8166 25.5666 40.8583 25.6083C41.1749 25.975 41.5499 26.5333 41.6166 27C41.6333 27.1333 41.5833 27.1916 41.4166 27.1916H41.2416C41.2321 27.1916 41.2227 27.1935 41.214 27.1974C41.2053 27.2012 41.1976 27.2069 41.1912 27.214C41.1849 27.2211 41.1802 27.2295 41.1774 27.2386C41.1746 27.2476 41.1737 27.2572 41.1749 27.2666C41.1735 27.2757 41.1742 27.285 41.1771 27.2937C41.1799 27.3025 41.1848 27.3104 41.1913 27.3169C41.1978 27.3234 41.2058 27.3283 41.2145 27.3311C41.2232 27.334 41.2325 27.3347 41.2416 27.3333H41.3999C41.5249 27.3333 41.5999 27.3583 41.5666 27.4583C41.3999 27.9916 41.1499 28.3833 40.1249 28.375C39.0999 28.3666 38.8249 27.3166 39.1416 26.2166C39.1999 25.9916 39.1333 25.9 39.0416 26.075L38.2916 27.25C38.267 27.2817 38.2354 27.3072 38.1992 27.3246C38.1631 27.3419 38.1234 27.3506 38.0833 27.35H37.9749C37.9659 27.3486 37.9566 27.3493 37.9478 27.3521C37.9391 27.355 37.9312 27.3599 37.9247 27.3664C37.9182 27.3729 37.9133 27.3808 37.9104 27.3895C37.9076 27.3983 37.9069 27.4076 37.9083 27.4166C37.9082 27.4352 37.9149 27.4531 37.9272 27.4669C37.9395 27.4808 37.9565 27.4896 37.9749 27.4916C38.0749 27.4916 38.1083 27.5416 38.0749 27.5916L37.7999 28.025C37.3416 26.9833 36.5833 25.7083 36.1833 25.2417V25.225C37.1749 25.1583 38.6499 24.225 38.8916 23.3917C39.3166 21.9333 37.8999 21.4 37.1333 21.4H33.7666C33.3166 21.4 33.2833 21.7417 33.7166 21.7417C33.95 21.7417 34.15 21.9417 34.05 22.15L33.3 23.5C33.2333 23.6083 33.0083 23.6 32.7083 23.6H32.375C32.3551 23.6 32.336 23.6079 32.3219 23.622C32.3079 23.636 32.3 23.6551 32.3 23.675C32.3 23.6949 32.3079 23.714 32.3219 23.728C32.336 23.7421 32.3551 23.75 32.375 23.75H32.7C32.9166 23.75 33.15 23.7583 33.075 23.9167L32.1833 25.5083C32.1416 25.5833 32.025 25.5916 31.725 25.5916H31.4C31.3905 25.5916 31.3811 25.5935 31.3724 25.5974C31.3637 25.6012 31.3559 25.6069 31.3496 25.614C31.3433 25.6211 31.3386 25.6295 31.3358 25.6386C31.333 25.6476 31.3321 25.6572 31.3333 25.6666C31.3319 25.6757 31.3326 25.685 31.3355 25.6938C31.3383 25.7025 31.3432 25.7104 31.3497 25.7169C31.3562 25.7234 31.3641 25.7283 31.3729 25.7312C31.3816 25.734 31.3909 25.7347 31.4 25.7333H31.7166C31.9583 25.7333 32.05 25.7666 31.975 25.8916L30.8 28.025C30.6583 28.1833 30.4833 28.2083 30.2 28.2083C29.7666 28.2083 29.775 28.55 30.225 28.55H33.1166C33.5666 28.55 33.45 28.2083 33.1833 28.2083C32.9166 28.2083 32.8666 27.9166 32.9666 27.75L34.4416 24.95H34.5916C35.25 24.95 35.4083 26.025 35.5333 27.2C35.5416 27.2916 35.3833 27.2916 35.0583 27.2916H34.2333C34.2134 27.2916 34.1943 27.2995 34.1803 27.3136C34.1662 27.3277 34.1583 27.3468 34.1583 27.3666C34.1583 27.3865 34.1662 27.4056 34.1803 27.4197C34.1943 27.4337 34.2134 27.4416 34.2333 27.4416H35.05C35.2583 27.4416 35.5666 27.4416 35.575 27.5083C35.625 28.025 35.6666 28.4833 35.7666 28.8916C35.8 29.025 35.5666 29 35.325 29H34.275C34.2551 29 34.236 29.0079 34.2219 29.0219C34.2079 29.036 34.2 29.0551 34.2 29.075C34.2 29.0949 34.2079 29.1139 34.2219 29.128C34.236 29.1421 34.2551 29.15 34.275 29.15H35.325C35.65 29.15 35.8166 29.15 35.8416 29.2166C36.2916 30.8666 38.2166 32.1666 40.0916 32.0916C41.7083 32.0333 43.0666 31.1583 43.7583 30.6C44.6832 29.8583 46.0499 28.3 46.5999 27.1666C46.6999 26.9916 46.8666 26.725 46.8249 26.5416ZM36.0083 24.3417C35.7833 24.5333 35.425 24.7417 35.3583 24.675C35.1856 24.5311 34.9985 24.4054 34.8 24.3L36.1416 21.85C36.1677 21.8037 36.2071 21.7663 36.2546 21.7426C36.3021 21.7188 36.3556 21.7098 36.4083 21.7167C36.9249 21.7167 37.0999 22.2833 36.8583 22.9917C36.6833 23.4833 36.4083 24.0167 36.0083 24.3417Z" fill="#552583"/>
<path d="M19.7166 19.2583C19.4416 19.6083 19.0833 19.7 18.6833 19.7H18.5666L19.2749 18.2833C19.2963 18.2497 19.3258 18.2221 19.3608 18.2031C19.3959 18.1842 19.4351 18.1745 19.4749 18.175C19.5666 18.175 19.5583 17.9917 19.4416 17.9917H18.3166C18.2249 17.9917 18.1916 18.175 18.2749 18.175C18.3583 18.175 18.3916 18.275 18.3416 18.3667L17.7083 19.625C17.6594 19.6829 17.5914 19.7213 17.5166 19.7333C17.425 19.75 17.3583 19.925 17.4666 19.925H19.2583C19.2989 19.9297 19.34 19.9228 19.3769 19.9051C19.4138 19.8874 19.4449 19.8596 19.4666 19.825L19.8249 19.2667C19.8749 19.2 19.7666 19.1917 19.7166 19.2583Z" fill="#552583"/>
<path d="M25.1084 18.0417C25.0714 18.0621 25.0298 18.0728 24.9875 18.0728C24.9453 18.0728 24.9037 18.0621 24.8667 18.0417C24.7009 17.9207 24.5046 17.8486 24.3 17.8333C23.875 17.8333 23.575 17.9167 23.3917 18.3167C23.2083 18.7167 23.3917 18.9417 23.7667 19.1083C23.925 19.1833 24.1417 19.2833 24.0583 19.475C23.975 19.6667 23.8333 19.6333 23.6833 19.6333C23.5333 19.6333 23.1833 19.4833 23.1333 19.2C23.1293 19.1845 23.1208 19.1704 23.1089 19.1596C23.097 19.1488 23.0823 19.1416 23.0664 19.1389C23.0506 19.1363 23.0343 19.1383 23.0196 19.1447C23.0048 19.1511 22.9922 19.1616 22.9833 19.175L22.725 19.6833C22.6917 19.75 22.7917 19.825 22.8333 19.7833C22.8815 19.7376 22.9428 19.7082 23.0086 19.6992C23.0744 19.6902 23.1414 19.7022 23.2 19.7333C23.325 19.8167 23.65 19.9667 23.85 19.9583C24.275 19.9583 24.5584 19.85 24.7917 19.4833C25.025 19.1167 24.875 18.8167 24.4833 18.6333C24.275 18.5333 24.1 18.3583 24.1917 18.175C24.2833 17.9917 24.4417 18.075 24.5334 18.0917C24.625 18.1083 24.925 18.2833 24.95 18.425C24.9514 18.4392 24.9574 18.4526 24.967 18.4631C24.9766 18.4737 24.9893 18.4809 25.0033 18.4837C25.0173 18.4865 25.0318 18.4847 25.0447 18.4787C25.0576 18.4726 25.0682 18.4626 25.075 18.45L25.2084 18.1333C25.2417 18.075 25.1417 18.025 25.1084 18.0417Z" fill="#552583"/>
<path d="M37.5333 18.55L37.6917 18.2583C37.7583 18.1333 37.65 17.9917 37.4667 17.9917H35.375C35.3557 17.9903 35.3364 17.9958 35.3207 18.0071C35.3049 18.0184 35.2936 18.0348 35.2887 18.0536C35.2837 18.0723 35.2855 18.0922 35.2936 18.1098C35.3018 18.1274 35.3158 18.1416 35.3333 18.15C35.4667 18.15 35.5083 18.3083 35.425 18.45L34.8 19.6083C34.7 19.7167 34.6417 19.7667 34.5083 19.7667C34.375 19.7667 34.3667 19.925 34.5167 19.925H36.6333C36.6639 19.9267 36.6944 19.9207 36.722 19.9076C36.7497 19.8945 36.7736 19.8747 36.7917 19.85L37.075 19.4667C37.15 19.375 36.9917 19.375 36.95 19.4167C36.5833 19.7833 36.1917 19.775 35.9083 19.775H35.6583L35.95 19.125H36.0083C36.2 19.125 36.4167 19.125 36.4667 19.2667C36.4761 19.2773 36.4876 19.2858 36.5005 19.2917C36.5135 19.2975 36.5275 19.3005 36.5417 19.3005C36.5559 19.3005 36.5699 19.2975 36.5828 19.2917C36.5957 19.2858 36.6073 19.2773 36.6167 19.2667L36.8583 18.775C36.9 18.7 36.7917 18.6833 36.7583 18.7417C36.725 18.8 36.2333 18.8667 36.1167 18.8667H36.0583L36.4167 18.15H36.825C36.9406 18.1544 37.0524 18.1922 37.1471 18.2587C37.2417 18.3253 37.3151 18.4177 37.3583 18.525C37.375 18.5667 37.5083 18.6083 37.5333 18.55Z" fill="#552583"/>
<path d="M32.1833 17.9917H31.4417C31.2917 17.9917 31.3333 18.15 31.4 18.15C31.4415 18.1514 31.4821 18.1632 31.5179 18.1842C31.5538 18.2053 31.5838 18.2349 31.6053 18.2705C31.6269 18.3061 31.6392 18.3464 31.6411 18.388C31.6431 18.4295 31.6347 18.4709 31.6167 18.5083L31.3083 19.075L30.625 18.075C30.5934 18.0436 30.5556 18.0192 30.5139 18.0034C30.4723 17.9876 30.4278 17.9808 30.3833 17.9833H29.65C29.5 17.9833 29.5333 18.1417 29.5917 18.1417C29.65 18.1417 29.7083 18.2583 29.6667 18.3417L29.0917 19.4667C29.0781 19.4886 29.0589 19.5064 29.036 19.5183C29.0131 19.5301 28.9874 19.5354 28.9616 19.5337C28.9359 19.532 28.9112 19.5233 28.89 19.5085C28.8689 19.4938 28.8522 19.4735 28.8417 19.45L28.3917 17.9833C28.375 17.925 28.1083 17.925 28.0417 17.9833L26.9083 18.9167H26.325C26.2083 18.9167 26.1583 18.9667 26.1583 19.025C26.1583 19.0833 26.2083 19.1417 26.325 19.1417H26.6333L26.325 19.3917C26.1583 19.525 25.9833 19.7 25.8667 19.7H25.7917C25.6833 19.7 25.625 19.7167 25.625 19.8C25.625 19.8833 25.6667 19.925 25.775 19.925H26.6833C26.8583 19.925 26.825 19.7 26.7417 19.7C26.6583 19.7 26.4917 19.575 26.6333 19.4083L26.9083 19.1417H27.4583C27.7833 19.1417 28.0167 19.5167 27.8167 19.6333L27.6667 19.7167C27.6 19.7583 27.5667 19.925 27.6667 19.925H29.45C29.5833 19.925 29.5583 19.75 29.5 19.75C29.4417 19.75 29.4 19.4833 29.4333 19.4167L29.9083 18.525L30.5667 19.8C30.6083 19.8833 30.6417 19.925 30.725 19.925H30.975C31.05 19.925 31.0833 19.875 31.1167 19.8167L31.8667 18.4583C31.9917 18.2167 32.0833 18.15 32.2333 18.15C32.3833 18.15 32.3333 17.9917 32.1833 17.9917ZM27.2 18.9167L27.8917 18.3417V18.9167H27.2Z" fill="#552583"/>
<path d="M21.625 17.9083C20.9916 17.9083 20.35 18.2167 20.2166 18.875C20.1861 19.019 20.1888 19.168 20.2246 19.3107C20.2603 19.4535 20.3282 19.5862 20.4231 19.6987C20.5179 19.8113 20.6372 19.9006 20.7719 19.9601C20.9065 20.0195 21.0529 20.0474 21.2 20.0417C21.8666 20.0417 22.4833 19.6083 22.6083 18.975C22.7333 18.3417 22.2583 17.9083 21.625 17.9083ZM21.8 19.1167C21.6 19.5083 21.2666 19.75 21.0583 19.6417C20.85 19.5333 20.8333 19.125 21.0333 18.725C21.2333 18.325 21.5583 18.1 21.775 18.2C21.9917 18.3 22 18.7167 21.8 19.1167Z" fill="#552583"/>
<path d="M34.3083 18.8667H33.4999C33.3499 18.8667 33.3916 19.025 33.4583 19.025C33.5249 19.025 33.5749 19.0583 33.5749 19.1583C33.5749 19.4833 33.4416 19.6083 33.1583 19.6083C32.8749 19.6083 32.7416 19.2417 32.9499 18.7833C33.0324 18.6162 33.1591 18.475 33.3164 18.3751C33.4736 18.2751 33.6553 18.2203 33.8416 18.2167C34.0999 18.2167 34.3083 18.275 34.3416 18.5083C34.3499 18.5667 34.4416 18.5667 34.4666 18.5167L34.6583 18.175C34.6833 18.1333 34.6499 18.0917 34.5916 18.0833C34.5333 18.075 34.4333 18.15 34.3583 18.0917C34.1252 17.9466 33.8577 17.8661 33.5833 17.8583C33.1499 17.8583 32.5416 17.9583 32.1333 18.6667C31.7249 19.375 32.3083 19.9833 32.7999 19.9833C33.0833 19.9833 33.3999 19.775 33.5833 19.7L33.7916 19.8417C33.8318 19.8887 33.8884 19.9185 33.9499 19.925H34.0249C34.0916 19.925 34.1249 19.825 34.1499 19.7667L34.4666 19C34.5083 18.925 34.4833 18.8667 34.3083 18.8667Z" fill="#552583"/>
<path d="M45.3499 18.0417C45.3129 18.0621 45.2713 18.0728 45.2291 18.0728C45.1868 18.0728 45.1453 18.0621 45.1083 18.0417C44.9419 17.9219 44.7459 17.8498 44.5416 17.8333C44.1166 17.8333 43.8083 17.9167 43.625 18.3167C43.4416 18.7167 43.6333 18.9417 44 19.1083C44.1666 19.1833 44.3749 19.2833 44.2916 19.475C44.2083 19.6667 44.0666 19.6333 43.925 19.6333C43.7833 19.6333 43.425 19.4833 43.375 19.2C43.3709 19.1845 43.3624 19.1704 43.3505 19.1596C43.3387 19.1488 43.3239 19.1416 43.3081 19.1389C43.2922 19.1363 43.2759 19.1383 43.2612 19.1447C43.2465 19.1511 43.2339 19.1616 43.225 19.175L42.9666 19.6833C42.925 19.75 43.0333 19.825 43.075 19.7833C43.1231 19.7376 43.1844 19.7082 43.2502 19.6992C43.316 19.6902 43.383 19.7022 43.4416 19.7333C43.5666 19.8167 43.8916 19.9667 44.0833 19.9583C44.5166 19.9583 44.7999 19.85 45.0333 19.4833C45.2666 19.1167 45.1166 18.8167 44.7249 18.6333C44.5166 18.5333 44.3416 18.3583 44.4333 18.175C44.5249 17.9917 44.6749 18.075 44.7666 18.0917C44.8583 18.1083 45.1666 18.2833 45.1916 18.425C45.193 18.4392 45.199 18.4526 45.2085 18.4631C45.2181 18.4737 45.2309 18.4809 45.2448 18.4837C45.2588 18.4865 45.2734 18.4847 45.2863 18.4787C45.2992 18.4726 45.3098 18.4626 45.3166 18.45L45.4499 18.1333C45.4832 18.075 45.3832 18.025 45.3499 18.0417Z" fill="#552583"/>
<path d="M39.7416 19.2583C39.4749 19.6083 39.1083 19.7 38.7083 19.7H38.5916L39.3083 18.2833C39.3296 18.2497 39.3592 18.2221 39.3942 18.2031C39.4292 18.1842 39.4685 18.1745 39.5083 18.175C39.5999 18.175 39.5833 17.9917 39.4666 17.9917H38.3499C38.2499 17.9917 38.2166 18.175 38.3083 18.175C38.3999 18.175 38.4166 18.275 38.3749 18.3667L37.7333 19.625C37.6875 19.6823 37.6222 19.7208 37.5499 19.7333C37.4499 19.75 37.3833 19.925 37.4916 19.925H39.2833C39.4249 19.925 39.4583 19.875 39.4916 19.825L39.8499 19.2667C39.8999 19.2 39.7916 19.1917 39.7416 19.2583Z" fill="#552583"/>
<path d="M42.4417 18.15C42.5584 18.1539 42.6716 18.1913 42.7677 18.2578C42.8637 18.3243 42.9386 18.4171 42.9833 18.525C43 18.5667 43.1333 18.6083 43.1583 18.55L43.3167 18.2583C43.3833 18.1333 43.2667 17.9917 43.0917 17.9917H41C40.85 17.9917 40.8917 18.15 40.9583 18.15C41.025 18.15 41.1333 18.3083 41.05 18.45L40.4167 19.6083C40.325 19.7167 40.2667 19.7667 40.1333 19.7667C40 19.7667 39.9833 19.925 40.1333 19.925H42.2583C42.2879 19.9278 42.3176 19.9222 42.3441 19.909C42.3706 19.8957 42.3929 19.8753 42.4083 19.85L42.7 19.4667C42.7667 19.375 42.6167 19.375 42.5667 19.4167C42.2083 19.7833 41.8167 19.775 41.525 19.775H41.2833L41.575 19.125H41.6333C41.8167 19.125 42.0333 19.125 42.0917 19.2667C42.1003 19.2771 42.1111 19.2856 42.1233 19.2913C42.1356 19.2971 42.149 19.3001 42.1625 19.3001C42.1761 19.3001 42.1894 19.2971 42.2017 19.2913C42.2139 19.2856 42.2247 19.2771 42.2333 19.2667L42.4833 18.775C42.525 18.7 42.4083 18.6833 42.3833 18.7417C42.3583 18.8 41.85 18.8667 41.7417 18.8667H41.6833L42.0417 18.15H42.4417Z" fill="#552583"/>
<path d="M34.2083 16.4583C34.05 16.275 33.8249 15.8833 32.2333 14.4917C29.8833 12.45 26.775 11.5167 23.8583 11.5167C21.7083 11.5167 19.825 12 17.7416 13.15C15.0833 14.6083 13.9833 16.2917 13.7083 16.6333C13.4333 16.975 13.4833 17.0333 13.6083 17.1083C13.7333 17.1833 13.8833 16.9667 14.05 16.7417C14.8416 15.7 15.875 14.6667 16.975 14.0583C17.3166 14.1083 17.7916 14.575 17.975 14.8333C17.275 15.2167 16.1166 16.1 15.675 16.4333C15.2333 16.7667 15.1666 16.8917 15.2666 17.0167C15.3666 17.1417 15.6416 16.9167 15.8833 16.7167C16.3083 16.375 17.55 15.4917 18.175 15.1583C18.5916 15.65 18.4583 16.5583 18.3083 16.7583C18.1583 16.9583 18.2166 16.975 18.3083 17.025C18.4 17.075 18.4916 16.95 18.6083 16.775C18.9 16.3583 18.7833 15.3583 18.5333 15C19.2916 14.5333 20.375 14.2167 21.025 14.0667C21.0833 14.175 21.875 16.4917 22.0333 16.9167C22.1166 17.15 22.1916 17.425 22.3666 17.375C22.5416 17.325 22.4 17.0833 22.3083 16.8333C22.2166 16.5833 21.5916 14.5667 21.4083 13.9917C21.625 13.875 22.925 13.6083 23.2583 13.6167C23.0916 14.4667 23.6916 14.8167 24.375 15.2583C24.7333 15.5 27.025 16.8167 27.5083 17.1167C27.7833 17.2833 27.9916 17.3917 28.05 17.3083C28.1083 17.225 27.9333 17.025 27.6833 16.8833C27.4333 16.7417 25.3416 15.525 24.45 14.9583C23.8166 14.5583 23.475 14.125 23.625 13.5583C23.8333 13.5 24.4749 13.4917 25.15 13.5C29.6916 13.5333 33.3416 16.1417 33.75 16.5583C33.9583 16.775 34.25 16.95 34.3583 16.8667C34.4666 16.7833 34.3083 16.575 34.2083 16.4583ZM18.3416 14.6667C18.225 14.4583 17.6416 13.9333 17.3333 13.825C18.0583 13.2917 19.7583 12.5083 20.4 12.375C20.5083 12.5583 20.8083 13.35 20.9083 13.6833C20.3333 13.8 18.825 14.3417 18.3416 14.6667ZM23.3166 13.2C22.7249 13.2417 21.65 13.475 21.2666 13.5833C21.1666 13.325 20.8916 12.525 20.8083 12.2667C21.8926 11.968 23.0197 11.8553 24.1416 11.9333C23.875 12.1417 23.4166 12.9667 23.3166 13.2ZM26.275 13.1667C25.2833 13.0917 24.475 13.0667 23.775 13.1417C23.975 12.625 24.3833 12.1417 24.7 11.9333C25.3438 11.9624 25.9846 12.0404 26.6166 12.1667C28.375 12.5167 31.1166 13.5917 32.2916 15.1667C30.725 14.125 28.1083 13.2917 26.275 13.1667Z" fill="#061922"/>
<path d="M35.1917 32.0417C35.3583 31.725 35.5 31.55 35.35 31.475C35.2 31.4 35.0917 31.6833 34.9333 31.9667C34.4 32.8833 33.825 33.65 32.5083 34.8417C31.0583 36.1667 29.3917 36.9333 28.8083 37.1333C28.3167 35.7417 26.425 29.8167 26.375 29.65C26.325 29.4833 26.2417 29.325 26.1583 29.3583C26.075 29.3917 26.1167 29.525 26.1667 29.75C26.2167 29.975 28.4583 36.975 28.5333 37.225C28.0917 37.4417 26.2833 37.95 25.0167 37.9917C23.8917 38.0333 22.5667 37.9916 21.9 37.8416C21.1167 37.2083 19.3417 34.6917 18.6667 33.3583C17.8667 31.775 17.3417 30.325 17.2 29.7083C17.1417 29.4167 17.0583 29.2083 16.9083 29.2333C16.7583 29.2583 16.8417 29.5 16.9333 29.8083C17.1667 30.625 17.5583 31.775 18.3917 33.4083C19.225 35.0417 20.8417 37.1833 21.2917 37.7333C19.5432 37.353 17.8973 36.5997 16.4667 35.525C15.0417 34.4667 13.8167 33.1083 13.2 32.125C13.0917 31.9583 12.9667 31.7167 12.8167 31.8167C12.6667 31.9167 12.8333 32.0583 12.9417 32.25C13.8333 33.8583 16.0167 36.1333 18.8083 37.375C22.0667 38.8333 25.625 38.7583 28.8 37.525C31.5833 36.45 34 34.2333 35.1917 32.0417Z" fill="#061922"/>
<path d="M34.2083 16.4583C34.05 16.275 33.825 15.8833 32.2333 14.4917C29.8833 12.45 26.775 11.5167 23.8583 11.5167C21.7083 11.5167 19.825 12 17.7417 13.15C15.0833 14.6083 13.9833 16.2917 13.7083 16.6333C13.4333 16.975 13.4833 17.0333 13.6083 17.1083C13.7333 17.1833 13.8833 16.9667 14.05 16.7417C14.8417 15.7 15.875 14.6667 16.975 14.0583C17.3167 14.1083 17.7917 14.575 17.975 14.8333C17.275 15.2167 16.1167 16.1 15.675 16.4333C15.2333 16.7667 15.1667 16.8917 15.2667 17.0167C15.3667 17.1417 15.6417 16.9167 15.8833 16.7167C16.3083 16.375 17.55 15.4917 18.175 15.1583C18.5917 15.65 18.4583 16.5583 18.3083 16.7583C18.1583 16.9583 18.2167 16.975 18.3083 17.025C18.4 17.075 18.4917 16.95 18.6083 16.775C18.9 16.3583 18.7833 15.3583 18.5333 15C19.2917 14.5333 20.375 14.2167 21.025 14.0667C21.0833 14.175 21.875 16.4917 22.0333 16.9167C22.1167 17.15 22.1917 17.425 22.3667 17.375C22.5417 17.325 22.4 17.0833 22.3083 16.8333C22.2167 16.5833 21.5917 14.5667 21.4083 13.9917C21.625 13.875 22.925 13.6083 23.2583 13.6167C23.0917 14.4667 23.6917 14.8167 24.375 15.2583C24.7333 15.5 27.025 16.8167 27.5083 17.1167C27.7833 17.2833 27.9917 17.3917 28.05 17.3083C28.1083 17.225 27.9333 17.025 27.6833 16.8833C27.4333 16.7417 25.3417 15.525 24.45 14.9583C23.8167 14.5583 23.475 14.125 23.625 13.5583C23.8333 13.5 24.475 13.4917 25.15 13.5C29.6917 13.5333 33.3417 16.1417 33.75 16.5583C33.9583 16.775 34.25 16.95 34.3583 16.8667C34.4667 16.7833 34.3083 16.575 34.2083 16.4583ZM18.3417 14.6667C18.225 14.4583 17.6417 13.9333 17.3333 13.825C18.0583 13.2917 19.7583 12.5083 20.4 12.375C20.5083 12.5583 20.8083 13.35 20.9083 13.6833C20.3333 13.8 18.825 14.3417 18.3417 14.6667ZM23.3167 13.2C22.725 13.2417 21.65 13.475 21.2667 13.5833C21.1667 13.325 20.8917 12.525 20.8083 12.2667C21.8926 11.968 23.0197 11.8553 24.1417 11.9333C23.875 12.1417 23.4167 12.9667 23.3167 13.2ZM26.275 13.1667C25.2833 13.0917 24.475 13.0667 23.775 13.1417C23.975 12.625 24.3833 12.1417 24.7 11.9333C25.3439 11.9624 25.9846 12.0404 26.6167 12.1667C28.375 12.5167 31.1167 13.5917 32.2917 15.1667C30.725 14.125 28.1083 13.2917 26.275 13.1667Z" fill="#061922"/>
<path d="M35.1917 32.0417C35.3583 31.725 35.5 31.55 35.35 31.475C35.2 31.4 35.0917 31.6833 34.9333 31.9667C34.4 32.8833 33.825 33.65 32.5083 34.8417C31.0583 36.1667 29.3917 36.9333 28.8083 37.1333C28.3167 35.7417 26.425 29.8167 26.375 29.65C26.325 29.4833 26.2417 29.325 26.1583 29.3583C26.075 29.3917 26.1167 29.525 26.1667 29.75C26.2167 29.975 28.4583 36.975 28.5333 37.225C28.0917 37.4417 26.2833 37.95 25.0167 37.9917C23.8917 38.0333 22.5667 37.9917 21.9 37.8417C21.1167 37.2083 19.3417 34.6917 18.6667 33.3583C17.8667 31.775 17.3417 30.325 17.2 29.7083C17.1417 29.4167 17.0583 29.2083 16.9083 29.2333C16.7583 29.2583 16.8417 29.5 16.9333 29.8083C17.1667 30.625 17.5583 31.775 18.3917 33.4083C19.225 35.0417 20.8417 37.1833 21.2917 37.7333C19.5432 37.353 17.8973 36.5997 16.4667 35.525C15.0417 34.4667 13.8167 33.1083 13.2 32.125C13.0917 31.9583 12.9667 31.7167 12.8167 31.8167C12.6667 31.9167 12.8333 32.0583 12.9417 32.25C13.8333 33.8583 16.0167 36.1333 18.8083 37.375C22.0667 38.8333 25.625 38.7583 28.8 37.525C31.5833 36.45 34 34.2333 35.1917 32.0417Z" fill="#061922"/>
</g>
<defs>
<clipPath id="clip0">
<rect width="48" height="29.7083" fill="white" transform="translate(1 10)"/>
</clipPath>
</defs>
</svg>
