<?xml version="1.0" encoding="UTF-8"?>
<svg xmlns="http://www.w3.org/2000/svg" xmlns:xlink="http://www.w3.org/1999/xlink" viewBox="0 0 48 48">
	<defs>
		<g id="b1">
			<path
				d="M24,47l-13.9-2.63,1.3-21.54-9.32-5.36c1.58-7.05,7.29-12.99,7.29-12.99l8.8-3.47,5.83,5.1,5.83-5.1,8.8,3.47s5.71,5.93,7.29,12.99l-9.32,5.36,1.3,21.54-13.9,2.63Z"
				fill="#0000004d" />
			<path
				d="M24,45.31s12.35-2.04,12.38-2.07l-1.06-22.27.18-1.66c.21.36,1.1,1.94,1.11,1.95l7.54-4.49c-2.34-7.67-6.48-11.16-6.48-11.16l-7.52-3.34-6.16,6.06-6.16-6.06-7.52,3.34s-4.14,3.48-6.48,11.16l7.54,4.49s.9-1.59,1.11-1.95l.18,1.66-1.06,22.27s12.38,2.07,12.38,2.07Z"
				fill="var(--jersey-colour-1,#888)" />
		</g>
		<g id="b2" fill="#00000033">
			<path d="M11.39,21.26s.55-.79,1.11-1.95l-1.74-10.97.63,12.92Z" />
			<path d="M24,45.31s12.35-2.04,12.38-2.07l-1.06-22.27.18-1.66,1.74-10.97-10.4,29.04-2.84,7.93Z"/>
		</g>
        <g id="l" fill="var(--jersey-colour-2,#888)">
			<path d="M24,8.34l-2.73-2.69v39.21c1.59.26,2.73.45,2.73.45,0,0,1.14-.19,2.73-.45V5.65l-2.73,2.69Z" />
			<path d="M32.2,43.95c2.29-.38,4.17-.7,4.18-.71l-1.06-22.27.18-1.66,2.17-13.69-5.47-2.43v40.76Z" />
			<path d="M10.33,5.62l2.17,13.69.18,1.66-1.06,22.27s1.89.33,4.18.71V3.19l-5.47,2.43Z" />
		</g>
	</defs>
	<g id="stripes-v">
		<use href="#b1" />
		<use href="#l" />
		<use href="#b2" />
	</g>
</svg>